<svg width="1080" height="576" viewBox="0 0 1080 576" fill="none" xmlns="http://www.w3.org/2000/svg">
<rect width="1080" height="576" fill="white"/>
<rect x="418.5" y="64.5" width="159" height="47" fill="white"/>
<rect x="418.5" y="64.5" width="159" height="47" stroke="#0F62FE"/>
<rect x="419" y="65" width="158" height="46" fill="white"/>
<g clip-path="url(#clip0_16_459)">
<path d="M479.18 93H474.742V91.516H476.03V84.712H474.742V83.228H479.18V84.712H477.878V91.516H479.18V93ZM481.228 93V83.228H485.75C487.36 83.228 488.34 84.222 488.34 85.734C488.34 87.218 487.486 87.778 486.59 87.834V87.918C487.444 87.932 488.704 88.534 488.704 90.2C488.704 91.768 487.626 93 486.184 93H481.228ZM483.076 88.814V91.432H485.652C486.352 91.432 486.772 91.054 486.772 90.368V89.892C486.772 89.206 486.352 88.814 485.652 88.814H483.076ZM483.076 84.796V87.302H485.358C486.03 87.302 486.422 86.91 486.422 86.266V85.832C486.422 85.174 486.03 84.796 485.358 84.796H483.076ZM490.671 93V83.228H492.757L495.263 88.002H495.319L497.797 83.228H499.799V93H498.049V85.986H497.993L497.237 87.54L495.235 91.236L493.233 87.54L492.477 85.986H492.421V93H490.671ZM509.523 93.168C506.947 93.168 505.309 91.474 505.309 88.184C505.309 84.894 506.947 83.06 509.523 83.06C511.273 83.06 512.407 83.802 513.093 85.314L511.511 86.154C511.231 85.286 510.615 84.698 509.523 84.698C508.151 84.698 507.269 85.692 507.269 87.358V88.898C507.269 90.578 508.151 91.53 509.523 91.53C510.629 91.53 511.315 90.858 511.637 89.976L513.135 90.858C512.435 92.314 511.273 93.168 509.523 93.168ZM517.518 93H516.552C515.334 93 514.76 92.356 514.76 91.236V82.64H516.552V91.572H517.518V93ZM521.933 93.168C519.847 93.168 518.545 91.684 518.545 89.332C518.545 86.994 519.847 85.524 521.933 85.524C524.033 85.524 525.335 86.994 525.335 89.332C525.335 91.684 524.033 93.168 521.933 93.168ZM521.933 91.726C522.871 91.726 523.459 91.124 523.459 90.018V88.66C523.459 87.568 522.871 86.966 521.933 86.966C521.009 86.966 520.421 87.568 520.421 88.66V90.018C520.421 91.124 521.009 91.726 521.933 91.726ZM531.452 93V91.782H531.382C531.13 92.51 530.542 93.168 529.338 93.168C527.84 93.168 527 92.132 527 90.312V85.692H528.792V90.13C528.792 91.138 529.17 91.684 530.024 91.684C530.738 91.684 531.452 91.306 531.452 90.522V85.692H533.244V93H531.452ZM540.01 93V91.782H539.94C539.674 92.608 538.89 93.168 537.924 93.168C536.09 93.168 535.068 91.782 535.068 89.332C535.068 86.896 536.09 85.524 537.924 85.524C538.89 85.524 539.688 86.056 539.94 86.896H540.01V82.64H541.802V93H540.01ZM538.498 91.684C539.352 91.684 540.01 91.25 540.01 90.494V88.17C540.01 87.456 539.352 86.994 538.498 86.994C537.574 86.994 536.944 87.68 536.944 88.716V89.976C536.944 91.012 537.574 91.684 538.498 91.684Z" fill="black"/>
<g clip-path="url(#clip1_16_459)">
<rect width="24" height="24" transform="translate(434 76)" fill="white" fill-opacity="0.01" style="mix-blend-mode:multiply"/>
<path d="M452.435 86.2376C451.69 84.8409 450.511 83.7244 449.075 83.0564C447.64 82.3884 446.026 82.2051 444.478 82.5343C442.929 82.8635 441.53 83.6872 440.49 84.8813C439.45 86.0753 438.827 87.575 438.714 89.1542C437.427 89.2927 436.241 89.9195 435.401 90.9057C434.562 91.8919 434.132 93.1624 434.2 94.4558C434.269 95.7492 434.831 96.9671 435.77 97.859C436.709 98.7508 437.955 99.2487 439.25 99.2501H451.25C452.887 99.2511 454.466 98.6397 455.676 97.536C456.885 96.4323 457.638 94.9161 457.787 93.2854C457.935 91.6547 457.469 90.0274 456.478 88.7233C455.488 87.4191 454.046 86.5325 452.435 86.2376ZM451.25 98.1251H439.25C438.252 98.1274 437.291 97.7499 436.561 97.0692C435.832 96.3884 435.389 95.4556 435.322 94.46C435.255 93.4644 435.57 92.4807 436.202 91.7086C436.834 90.9366 437.736 90.4341 438.726 90.3032C438.805 91.2957 439.087 92.2615 439.553 93.141C439.587 93.2081 439.634 93.2677 439.691 93.3163C439.748 93.365 439.815 93.4017 439.886 93.4243C439.958 93.4469 440.033 93.4549 440.108 93.4479C440.183 93.4409 440.255 93.419 440.321 93.3835C440.388 93.348 440.446 93.2996 440.493 93.2412C440.54 93.1828 440.575 93.1155 440.596 93.0434C440.617 92.9712 440.623 92.8956 440.614 92.8211C440.605 92.7465 440.581 92.6745 440.544 92.6093C439.801 91.2194 439.616 89.5981 440.027 88.0764C440.438 86.5548 441.415 85.2474 442.757 84.4213C444.1 83.5951 445.707 83.3124 447.25 83.6309C448.794 83.9494 450.158 84.8451 451.064 86.1351C450.165 86.1599 449.281 86.3691 448.466 86.7497C447.651 87.1303 446.924 87.6741 446.328 88.3476C446.277 88.4027 446.238 88.4673 446.212 88.5378C446.187 88.6082 446.176 88.683 446.18 88.7578C446.184 88.8326 446.202 88.9059 446.235 88.9733C446.267 89.0407 446.313 89.101 446.369 89.1505C446.425 89.2001 446.491 89.2379 446.562 89.2618C446.633 89.2857 446.708 89.2952 446.783 89.2898C446.857 89.2843 446.93 89.2639 446.997 89.2299C447.064 89.196 447.123 89.149 447.171 89.0918C447.772 88.4102 448.534 87.89 449.388 87.5789C450.242 87.2677 451.16 87.1755 452.058 87.3106C452.957 87.4457 453.807 87.8038 454.532 88.3522C455.256 88.9006 455.832 89.6218 456.206 90.45C456.579 91.2781 456.74 92.1868 456.672 93.0929C456.604 93.999 456.311 94.8737 455.818 95.6371C455.325 96.4004 454.649 97.0281 453.851 97.4628C453.053 97.8974 452.159 98.1251 451.25 98.1251Z" fill="black"/>
<path d="M457.924 83.6912C457.886 83.6265 457.837 83.5698 457.777 83.5242C457.718 83.4787 457.65 83.4454 457.578 83.426C457.506 83.4067 457.431 83.4018 457.357 83.4115C457.283 83.4213 457.211 83.4456 457.146 83.483L454.881 84.7909C454.815 84.8273 454.756 84.8766 454.709 84.9359C454.662 84.9953 454.627 85.0634 454.607 85.1364C454.586 85.2094 454.58 85.2858 454.59 85.361C454.599 85.4362 454.624 85.5088 454.662 85.5745C454.699 85.6401 454.75 85.6976 454.811 85.7434C454.871 85.7892 454.94 85.8225 455.013 85.8413C455.087 85.8602 455.163 85.8641 455.238 85.8529C455.313 85.8418 455.385 85.8158 455.45 85.7764L457.715 84.4685C457.846 84.3931 457.941 84.2689 457.98 84.1231C458.019 83.9773 457.999 83.822 457.924 83.6912Z" fill="black"/>
<path d="M451.007 81.9026C451.072 81.9401 451.143 81.9643 451.218 81.9741C451.292 81.9839 451.367 81.979 451.439 81.9596C451.511 81.9403 451.579 81.9069 451.638 81.8614C451.698 81.8159 451.747 81.7592 451.785 81.6944L453.092 79.4294C453.167 79.2988 453.186 79.1442 453.147 78.9993C453.107 78.8544 453.012 78.7309 452.882 78.6558C452.752 78.5807 452.598 78.5601 452.452 78.5984C452.307 78.6367 452.183 78.7309 452.107 78.8603L450.799 81.1253C450.724 81.256 450.703 81.4113 450.742 81.5571C450.781 81.7029 450.877 81.8272 451.007 81.9026Z" fill="black"/>
<path d="M446 80.561C446.151 80.5609 446.296 80.501 446.402 80.3942C446.509 80.2875 446.569 80.1428 446.569 79.9919V77.3762C446.57 77.3009 446.556 77.2262 446.528 77.1564C446.499 77.0866 446.458 77.0231 446.405 76.9695C446.352 76.916 446.289 76.8735 446.219 76.8445C446.15 76.8155 446.075 76.8005 446 76.8005C445.925 76.8005 445.85 76.8155 445.781 76.8445C445.711 76.8735 445.648 76.916 445.595 76.9695C445.542 77.0231 445.501 77.0866 445.472 77.1564C445.444 77.2262 445.43 77.3009 445.431 77.3762V79.9919C445.431 80.1428 445.491 80.2875 445.598 80.3942C445.704 80.501 445.849 80.5609 446 80.561Z" fill="black"/>
<path d="M440.215 81.6943C440.292 81.8238 440.416 81.9179 440.561 81.9562C440.706 81.9946 440.861 81.9739 440.991 81.8988C441.121 81.8237 441.216 81.7003 441.255 81.5553C441.295 81.4104 441.275 81.2558 441.201 81.1252L439.893 78.8602C439.856 78.7949 439.806 78.7376 439.747 78.6915C439.688 78.6455 439.62 78.6117 439.548 78.592C439.475 78.5723 439.399 78.5671 439.325 78.5768C439.25 78.5864 439.179 78.6107 439.114 78.6483C439.049 78.6858 438.992 78.7359 438.946 78.7955C438.901 78.8552 438.867 78.9233 438.848 78.9959C438.829 79.0685 438.824 79.1442 438.834 79.2185C438.845 79.2929 438.87 79.3646 438.908 79.4293L440.215 81.6943Z" fill="black"/>
<path d="M437.119 84.7909L434.854 83.483C434.789 83.445 434.717 83.4202 434.643 83.4099C434.569 83.3997 434.493 83.4043 434.42 83.4235C434.348 83.4426 434.28 83.476 434.22 83.5215C434.16 83.5671 434.11 83.6241 434.073 83.6891C434.035 83.7541 434.011 83.8259 434.001 83.9004C433.992 83.9749 433.997 84.0505 434.017 84.1229C434.036 84.1954 434.07 84.2632 434.116 84.3226C434.162 84.3819 434.219 84.4315 434.285 84.4685L436.55 85.7764C436.615 85.8144 436.686 85.8393 436.761 85.8495C436.835 85.8597 436.911 85.8551 436.983 85.836C437.056 85.8168 437.124 85.7835 437.184 85.7379C437.243 85.6923 437.293 85.6354 437.331 85.5703C437.369 85.5053 437.393 85.4335 437.403 85.359C437.412 85.2846 437.407 85.2089 437.387 85.1365C437.368 85.064 437.334 84.9962 437.288 84.9369C437.242 84.8776 437.184 84.828 437.119 84.7909Z" fill="black"/>
</g>
</g>
<rect width="216" height="92" transform="translate(28 66)" fill="white" fill-opacity="0.01" style="mix-blend-mode:multiply"/>
<rect width="48" height="48" transform="translate(112 66)" fill="white" fill-opacity="0.01" style="mix-blend-mode:multiply"/>
<circle cx="136" cy="90" r="24" fill="#0F62FE"/>
<rect width="24" height="24" transform="translate(124 78)" fill="white" fill-opacity="0.01" style="mix-blend-mode:multiply"/>
<path d="M136 84C135.258 84 134.533 84.2199 133.917 84.632C133.3 85.044 132.819 85.6297 132.535 86.3149C132.252 87.0002 132.177 87.7542 132.322 88.4816C132.467 89.209 132.824 89.8772 133.348 90.4017C133.873 90.9261 134.541 91.2833 135.268 91.4279C135.996 91.5726 136.75 91.4984 137.435 91.2145C138.12 90.9307 138.706 90.4501 139.118 89.8334C139.53 89.2167 139.75 88.4917 139.75 87.75C139.75 86.7554 139.355 85.8016 138.652 85.0983C137.948 84.3951 136.995 84 136 84Z" fill="white"/>
<path d="M136 79.5C133.923 79.5 131.893 80.1158 130.167 81.2696C128.44 82.4233 127.094 84.0632 126.299 85.9818C125.505 87.9004 125.297 90.0116 125.702 92.0484C126.107 94.0852 127.107 95.9562 128.575 97.4246C130.044 98.8931 131.915 99.8931 133.952 100.298C135.988 100.703 138.1 100.495 140.018 99.7007C141.937 98.906 143.577 97.5602 144.73 95.8335C145.884 94.1068 146.5 92.0767 146.5 90C146.497 87.2162 145.39 84.5473 143.421 82.5788C141.453 80.6104 138.784 79.5031 136 79.5ZM141.994 96.6944C141.979 95.7105 141.579 94.772 140.878 94.0809C140.178 93.3899 139.234 93.0017 138.25 93H133.75C132.766 93.0017 131.822 93.3899 131.122 94.0809C130.421 94.772 130.021 95.7105 130.006 96.6944C128.646 95.4799 127.686 93.881 127.255 92.1093C126.824 90.3377 126.941 88.4769 127.591 86.7732C128.241 85.0696 129.393 83.6036 130.895 82.5693C132.396 81.5349 134.177 80.9811 136 80.9811C137.823 80.9811 139.604 81.5349 141.105 82.5693C142.607 83.6036 143.759 85.0696 144.409 86.7732C145.059 88.4769 145.176 90.3377 144.745 92.1093C144.314 93.881 143.354 95.4799 141.994 96.6944Z" fill="white"/>
<path d="M99.1599 136H97.2419L96.4579 133.508H92.9859L92.2159 136H90.3399L93.6159 126.228H95.9119L99.1599 136ZM96.0099 131.926L94.7499 127.908H94.6799L93.4339 131.926H96.0099ZM105.184 136V134.782H105.114C104.848 135.608 104.064 136.168 103.098 136.168C101.264 136.168 100.242 134.782 100.242 132.332C100.242 129.896 101.264 128.524 103.098 128.524C104.064 128.524 104.862 129.056 105.114 129.896H105.184V125.64H106.976V136H105.184ZM103.672 134.684C104.526 134.684 105.184 134.25 105.184 133.494V131.17C105.184 130.456 104.526 129.994 103.672 129.994C102.748 129.994 102.118 130.68 102.118 131.716V132.976C102.118 134.012 102.748 134.684 103.672 134.684ZM110.995 136H109.203V128.692H110.995V129.91H111.065C111.345 129.14 111.933 128.524 113.025 128.524C114.019 128.524 114.789 129.014 115.139 129.994H115.167C115.433 129.182 116.245 128.524 117.407 128.524C118.835 128.524 119.647 129.56 119.647 131.38V136H117.855V131.562C117.855 130.512 117.477 129.994 116.679 129.994C115.979 129.994 115.321 130.386 115.321 131.17V136H113.529V131.562C113.529 130.512 113.151 129.994 112.353 129.994C111.667 129.994 110.995 130.386 110.995 131.17V136ZM122.686 127.628C121.944 127.628 121.636 127.25 121.636 126.732V126.452C121.636 125.934 121.944 125.556 122.686 125.556C123.414 125.556 123.736 125.934 123.736 126.452V126.732C123.736 127.25 123.414 127.628 122.686 127.628ZM121.79 136V128.692H123.582V136H121.79ZM127.612 136H125.82V128.692H127.612V129.91H127.682C127.976 129.126 128.592 128.524 129.726 128.524C131.224 128.524 132.064 129.56 132.064 131.38V136H130.272V131.562C130.272 130.526 129.922 129.994 129.068 129.994C128.326 129.994 127.612 130.386 127.612 131.17V136ZM135.106 127.628C134.364 127.628 134.056 127.25 134.056 126.732V126.452C134.056 125.934 134.364 125.556 135.106 125.556C135.834 125.556 136.156 125.934 136.156 126.452V126.732C136.156 127.25 135.834 127.628 135.106 127.628ZM134.21 136V128.692H136.002V136H134.21ZM140.633 136.168C139.247 136.168 138.337 135.664 137.609 134.824L138.701 133.76C139.233 134.376 139.877 134.754 140.703 134.754C141.557 134.754 141.921 134.432 141.921 133.914C141.921 133.494 141.669 133.228 141.025 133.144L140.297 133.046C138.729 132.85 137.861 132.164 137.861 130.834C137.861 129.42 138.967 128.524 140.633 128.524C142.061 128.524 142.789 128.944 143.489 129.672L142.439 130.722C142.019 130.274 141.403 129.938 140.689 129.938C139.919 129.938 139.583 130.246 139.583 130.694C139.583 131.184 139.849 131.408 140.535 131.52L141.277 131.618C142.873 131.842 143.643 132.556 143.643 133.774C143.643 135.188 142.453 136.168 140.633 136.168ZM147.558 136C146.326 136 145.668 135.328 145.668 134.138V130.12H144.59V128.692H145.15C145.682 128.692 145.85 128.44 145.85 127.936V126.69H147.46V128.692H148.958V130.12H147.46V134.572H148.846V136H147.558ZM152.464 136H150.672V128.692H152.464V130.204H152.534C152.716 129.434 153.304 128.692 154.466 128.692H154.858V130.386H154.298C153.094 130.386 152.464 130.722 152.464 131.52V136ZM157.984 136.168C156.5 136.168 155.66 135.314 155.66 134.012C155.66 132.514 156.794 131.772 158.782 131.772H160.028V131.24C160.028 130.428 159.622 129.952 158.67 129.952C157.83 129.952 157.354 130.372 157.004 130.876L155.94 129.924C156.472 129.084 157.326 128.524 158.796 128.524C160.77 128.524 161.82 129.462 161.82 131.128V134.572H162.548V136H161.554C160.784 136 160.308 135.496 160.196 134.74H160.112C159.874 135.678 159.076 136.168 157.984 136.168ZM158.586 134.866C159.384 134.866 160.028 134.502 160.028 133.816V132.85H158.88C157.942 132.85 157.48 133.172 157.48 133.746V133.984C157.48 134.572 157.886 134.866 158.586 134.866ZM166.386 136C165.154 136 164.496 135.328 164.496 134.138V130.12H163.418V128.692H163.978C164.51 128.692 164.678 128.44 164.678 127.936V126.69H166.288V128.692H167.786V130.12H166.288V134.572H167.674V136H166.386ZM172.343 136.168C170.257 136.168 168.955 134.684 168.955 132.332C168.955 129.994 170.257 128.524 172.343 128.524C174.443 128.524 175.745 129.994 175.745 132.332C175.745 134.684 174.443 136.168 172.343 136.168ZM172.343 134.726C173.281 134.726 173.869 134.124 173.869 133.018V131.66C173.869 130.568 173.281 129.966 172.343 129.966C171.419 129.966 170.831 130.568 170.831 131.66V133.018C170.831 134.124 171.419 134.726 172.343 134.726ZM179.286 136H177.494V128.692H179.286V130.204H179.356C179.538 129.434 180.126 128.692 181.288 128.692H181.68V130.386H181.12C179.916 130.386 179.286 130.722 179.286 131.52V136Z" fill="black"/>
<path d="M116.051 144.228H117.227V150.276C117.227 152.138 117.829 153.118 119.565 153.118C121.301 153.118 121.903 152.138 121.903 150.276V144.228H123.079V149.996C123.079 152.838 122.127 154.168 119.523 154.168C116.919 154.168 116.051 152.838 116.051 149.996V144.228ZM129.227 154H125.307V153.02H126.679V145.208H125.307V144.228H129.227V145.208H127.855V153.02H129.227V154ZM131.366 156.114H130.358L134.012 143.64H135.02L131.366 156.114ZM140.293 154.168C137.829 154.168 136.359 152.432 136.359 149.17C136.359 145.908 137.829 144.06 140.293 144.06C141.917 144.06 143.037 144.844 143.653 146.202L142.701 146.776C142.309 145.768 141.497 145.11 140.293 145.11C138.613 145.11 137.619 146.44 137.619 148.442V149.898C137.619 151.9 138.613 153.118 140.293 153.118C141.539 153.118 142.393 152.418 142.785 151.354L143.723 151.942C143.107 153.314 141.917 154.168 140.293 154.168ZM151.038 154H145.704V144.228H146.88V152.964H151.038V154ZM156.336 154H152.416V153.02H153.788V145.208H152.416V144.228H156.336V145.208H154.964V153.02H156.336V154Z" fill="black"/>
<rect width="216" height="92" transform="translate(28 270)" fill="white" fill-opacity="0.01" style="mix-blend-mode:multiply"/>
<rect width="48" height="48" transform="translate(112 270)" fill="white" fill-opacity="0.01" style="mix-blend-mode:multiply"/>
<circle cx="136" cy="294" r="24" fill="#0F62FE"/>
<rect width="24" height="24" transform="translate(124 282)" fill="white" fill-opacity="0.01" style="mix-blend-mode:multiply"/>
<path d="M136 288C135.258 288 134.533 288.22 133.917 288.632C133.3 289.044 132.819 289.63 132.535 290.315C132.252 291 132.177 291.754 132.322 292.482C132.467 293.209 132.824 293.877 133.348 294.402C133.873 294.926 134.541 295.283 135.268 295.428C135.996 295.573 136.75 295.498 137.435 295.215C138.12 294.931 138.706 294.45 139.118 293.833C139.53 293.217 139.75 292.492 139.75 291.75C139.75 290.755 139.355 289.802 138.652 289.098C137.948 288.395 136.995 288 136 288Z" fill="white"/>
<path d="M136 283.5C133.923 283.5 131.893 284.116 130.167 285.27C128.44 286.423 127.094 288.063 126.299 289.982C125.505 291.9 125.297 294.012 125.702 296.048C126.107 298.085 127.107 299.956 128.575 301.425C130.044 302.893 131.915 303.893 133.952 304.298C135.988 304.703 138.1 304.495 140.018 303.701C141.937 302.906 143.577 301.56 144.73 299.833C145.884 298.107 146.5 296.077 146.5 294C146.497 291.216 145.39 288.547 143.421 286.579C141.453 284.61 138.784 283.503 136 283.5ZM141.994 300.694C141.979 299.711 141.579 298.772 140.878 298.081C140.178 297.39 139.234 297.002 138.25 297H133.75C132.766 297.002 131.822 297.39 131.122 298.081C130.421 298.772 130.021 299.711 130.006 300.694C128.646 299.48 127.686 297.881 127.255 296.109C126.824 294.338 126.941 292.477 127.591 290.773C128.241 289.07 129.393 287.604 130.895 286.569C132.396 285.535 134.177 284.981 136 284.981C137.823 284.981 139.604 285.535 141.105 286.569C142.607 287.604 143.759 289.07 144.409 290.773C145.059 292.477 145.176 294.338 144.745 296.109C144.314 297.881 143.354 299.48 141.994 300.694Z" fill="white"/>
<path d="M103.47 340V330.228H107.026C109.574 330.228 111.24 331.866 111.24 335.114C111.24 338.362 109.574 340 107.026 340H103.47ZM105.318 338.362H107.026C108.398 338.362 109.28 337.55 109.28 335.884V334.344C109.28 332.678 108.398 331.866 107.026 331.866H105.318V338.362ZM116.124 340.168C113.968 340.168 112.68 338.67 112.68 336.332C112.68 334.022 113.926 332.524 116.068 332.524C118.35 332.524 119.4 334.204 119.4 336.206V336.794H114.542V336.976C114.542 338.026 115.144 338.74 116.32 338.74C117.202 338.74 117.734 338.32 118.182 337.746L119.148 338.824C118.546 339.65 117.482 340.168 116.124 340.168ZM116.096 333.868C115.158 333.868 114.542 334.568 114.542 335.576V335.688H117.538V335.562C117.538 334.554 117.02 333.868 116.096 333.868ZM124.71 340H122.582L120.146 332.692H121.91L122.932 335.842L123.646 338.446H123.744L124.458 335.842L125.452 332.692H127.16L124.71 340ZM131.36 340.168C129.204 340.168 127.916 338.67 127.916 336.332C127.916 334.022 129.162 332.524 131.304 332.524C133.586 332.524 134.636 334.204 134.636 336.206V336.794H129.778V336.976C129.778 338.026 130.38 338.74 131.556 338.74C132.438 338.74 132.97 338.32 133.418 337.746L134.384 338.824C133.782 339.65 132.718 340.168 131.36 340.168ZM131.332 333.868C130.394 333.868 129.778 334.568 129.778 335.576V335.688H132.774V335.562C132.774 334.554 132.256 333.868 131.332 333.868ZM139.131 340H138.165C136.947 340 136.373 339.356 136.373 338.236V329.64H138.165V338.572H139.131V340ZM143.546 340.168C141.46 340.168 140.158 338.684 140.158 336.332C140.158 333.994 141.46 332.524 143.546 332.524C145.646 332.524 146.948 333.994 146.948 336.332C146.948 338.684 145.646 340.168 143.546 340.168ZM143.546 338.726C144.484 338.726 145.072 338.124 145.072 337.018V335.66C145.072 334.568 144.484 333.966 143.546 333.966C142.622 333.966 142.034 334.568 142.034 335.66V337.018C142.034 338.124 142.622 338.726 143.546 338.726ZM148.697 342.8V332.692H150.489V333.896H150.545C150.811 333.056 151.595 332.524 152.561 332.524C154.409 332.524 155.431 333.896 155.431 336.332C155.431 338.782 154.409 340.168 152.561 340.168C151.595 340.168 150.825 339.608 150.545 338.782H150.489V342.8H148.697ZM151.987 338.684C152.911 338.684 153.555 338.012 153.555 336.976V335.716C153.555 334.68 152.911 333.994 151.987 333.994C151.133 333.994 150.489 334.456 150.489 335.17V337.494C150.489 338.25 151.133 338.684 151.987 338.684ZM160.205 340.168C158.049 340.168 156.761 338.67 156.761 336.332C156.761 334.022 158.007 332.524 160.149 332.524C162.431 332.524 163.481 334.204 163.481 336.206V336.794H158.623V336.976C158.623 338.026 159.225 338.74 160.401 338.74C161.283 338.74 161.815 338.32 162.263 337.746L163.229 338.824C162.627 339.65 161.563 340.168 160.205 340.168ZM160.177 333.868C159.239 333.868 158.623 334.568 158.623 335.576V335.688H161.619V335.562C161.619 334.554 161.101 333.868 160.177 333.868ZM167.01 340H165.218V332.692H167.01V334.204H167.08C167.262 333.434 167.85 332.692 169.012 332.692H169.404V334.386H168.844C167.64 334.386 167.01 334.722 167.01 335.52V340Z" fill="black"/>
<path d="M111.446 358V347.64H112.566V351.952H112.622C113 351.042 113.742 350.608 114.736 350.608C116.542 350.608 117.676 352.078 117.676 354.388C117.676 356.698 116.542 358.168 114.736 358.168C113.742 358.168 113.056 357.72 112.622 356.824H112.566V358H111.446ZM114.428 357.16C115.688 357.16 116.472 356.292 116.472 355.004V353.772C116.472 352.484 115.688 351.616 114.428 351.616C113.406 351.616 112.566 352.204 112.566 353.002V355.69C112.566 356.628 113.406 357.16 114.428 357.16ZM124.18 358V356.824H124.124C123.844 357.51 123.298 358.168 122.094 358.168C120.61 358.168 119.658 357.16 119.658 355.41V350.776H120.778V355.214C120.778 356.502 121.352 357.16 122.43 357.16C123.312 357.16 124.18 356.726 124.18 355.774V350.776H125.3V358H124.18ZM128.405 349.082C127.929 349.082 127.719 348.83 127.719 348.452V348.27C127.719 347.892 127.929 347.64 128.405 347.64C128.881 347.64 129.091 347.892 129.091 348.27V348.452C129.091 348.83 128.881 349.082 128.405 349.082ZM127.845 358V350.776H128.965V358H127.845ZM133.689 358H132.695C131.925 358 131.505 357.51 131.505 356.838V347.64H132.625V357.02H133.689V358ZM140.099 358V356.824H140.043C139.609 357.72 138.923 358.168 137.929 358.168C136.123 358.168 134.989 356.698 134.989 354.388C134.989 352.078 136.123 350.608 137.929 350.608C138.923 350.608 139.665 351.042 140.043 351.952H140.099V347.64H141.219V358H140.099ZM138.237 357.16C139.259 357.16 140.099 356.628 140.099 355.69V353.002C140.099 352.204 139.259 351.616 138.237 351.616C136.977 351.616 136.193 352.484 136.193 353.772V355.004C136.193 356.292 136.977 357.16 138.237 357.16ZM144.474 358.168C143.886 358.168 143.62 357.832 143.62 357.356V357.174C143.62 356.698 143.886 356.362 144.474 356.362C145.062 356.362 145.328 356.698 145.328 357.174V357.356C145.328 357.832 145.062 358.168 144.474 358.168ZM147.735 360.8V350.776H148.855V351.952H148.911C149.289 351.042 150.031 350.608 151.025 350.608C152.831 350.608 153.965 352.078 153.965 354.388C153.965 356.698 152.831 358.168 151.025 358.168C150.031 358.168 149.345 357.72 148.911 356.824H148.855V360.8H147.735ZM150.717 357.16C151.977 357.16 152.761 356.292 152.761 355.004V353.772C152.761 352.484 151.977 351.616 150.717 351.616C149.695 351.616 148.855 352.204 148.855 353.002V355.69C148.855 356.628 149.695 357.16 150.717 357.16ZM158.649 355.69L160.399 350.776H161.505L158.271 359.68C157.949 360.548 157.655 360.8 156.591 360.8H156.017V359.82H157.151L157.697 358.28L154.995 350.776H156.115L157.851 355.69L158.187 356.866H158.257L158.649 355.69Z" fill="black"/>
<rect x="344.5" y="192.5" width="311" height="319" stroke="#0F62FE"/>
<rect x="345" y="193" width="310" height="318" fill="white"/>
<rect x="345" y="193" width="310" height="318" fill="#EDF5FF"/>
<g clip-path="url(#clip2_16_459)">
<path d="M413.18 221H408.742V219.516H410.03V212.712H408.742V211.228H413.18V212.712H411.878V219.516H413.18V221ZM415.228 221V211.228H419.75C421.36 211.228 422.34 212.222 422.34 213.734C422.34 215.218 421.486 215.778 420.59 215.834V215.918C421.444 215.932 422.704 216.534 422.704 218.2C422.704 219.768 421.626 221 420.184 221H415.228ZM417.076 216.814V219.432H419.652C420.352 219.432 420.772 219.054 420.772 218.368V217.892C420.772 217.206 420.352 216.814 419.652 216.814H417.076ZM417.076 212.796V215.302H419.358C420.03 215.302 420.422 214.91 420.422 214.266V213.832C420.422 213.174 420.03 212.796 419.358 212.796H417.076ZM424.671 221V211.228H426.757L429.263 216.002H429.319L431.797 211.228H433.799V221H432.049V213.986H431.993L431.237 215.54L429.235 219.236L427.233 215.54L426.477 213.986H426.421V221H424.671ZM445.651 221V216.87H441.577V221H439.729V211.228H441.577V215.232H445.651V211.228H447.499V221H445.651ZM453.046 217.556L454.32 213.692H456L453.06 222.302C452.696 223.352 452.178 223.8 450.974 223.8H449.896V222.372H451.212L451.548 221.35L448.93 213.692H450.708L451.982 217.556L452.458 219.404H452.542L453.046 217.556ZM457.342 223.8V213.692H459.134V214.896H459.19C459.456 214.056 460.24 213.524 461.206 213.524C463.054 213.524 464.076 214.896 464.076 217.332C464.076 219.782 463.054 221.168 461.206 221.168C460.24 221.168 459.47 220.608 459.19 219.782H459.134V223.8H457.342ZM460.632 219.684C461.556 219.684 462.2 219.012 462.2 217.976V216.716C462.2 215.68 461.556 214.994 460.632 214.994C459.778 214.994 459.134 215.456 459.134 216.17V218.494C459.134 219.25 459.778 219.684 460.632 219.684ZM468.85 221.168C466.694 221.168 465.406 219.67 465.406 217.332C465.406 215.022 466.652 213.524 468.794 213.524C471.076 213.524 472.126 215.204 472.126 217.206V217.794H467.268V217.976C467.268 219.026 467.87 219.74 469.046 219.74C469.928 219.74 470.46 219.32 470.908 218.746L471.874 219.824C471.272 220.65 470.208 221.168 468.85 221.168ZM468.822 214.868C467.884 214.868 467.268 215.568 467.268 216.576V216.688H470.264V216.562C470.264 215.554 469.746 214.868 468.822 214.868ZM475.655 221H473.863V213.692H475.655V215.204H475.725C475.907 214.434 476.495 213.692 477.657 213.692H478.049V215.386H477.489C476.285 215.386 475.655 215.722 475.655 216.52V221ZM484.948 221H483.1V211.228H487.496C489.302 211.228 490.394 212.446 490.394 214.252C490.394 216.072 489.302 217.276 487.496 217.276H484.948V221ZM484.948 212.838V215.68H487.328C488.042 215.68 488.476 215.288 488.476 214.574V213.93C488.476 213.216 488.042 212.838 487.328 212.838H484.948ZM493.772 221H491.98V213.692H493.772V215.204H493.842C494.024 214.434 494.612 213.692 495.774 213.692H496.166V215.386H495.606C494.402 215.386 493.772 215.722 493.772 216.52V221ZM500.465 221.168C498.379 221.168 497.077 219.684 497.077 217.332C497.077 214.994 498.379 213.524 500.465 213.524C502.565 213.524 503.867 214.994 503.867 217.332C503.867 219.684 502.565 221.168 500.465 221.168ZM500.465 219.726C501.403 219.726 501.991 219.124 501.991 218.018V216.66C501.991 215.568 501.403 214.966 500.465 214.966C499.541 214.966 498.953 215.568 498.953 216.66V218.018C498.953 219.124 499.541 219.726 500.465 219.726ZM507.843 221C506.611 221 505.953 220.328 505.953 219.138V215.12H504.875V213.692H505.435C505.967 213.692 506.135 213.44 506.135 212.936V211.69H507.745V213.692H509.243V215.12H507.745V219.572H509.131V221H507.843ZM513.857 221.168C511.701 221.168 510.413 219.67 510.413 217.332C510.413 215.022 511.659 213.524 513.801 213.524C516.083 213.524 517.133 215.204 517.133 217.206V217.794H512.275V217.976C512.275 219.026 512.877 219.74 514.053 219.74C514.935 219.74 515.467 219.32 515.915 218.746L516.881 219.824C516.279 220.65 515.215 221.168 513.857 221.168ZM513.829 214.868C512.891 214.868 512.275 215.568 512.275 216.576V216.688H515.271V216.562C515.271 215.554 514.753 214.868 513.829 214.868ZM521.754 221.168C519.598 221.168 518.38 219.684 518.38 217.332C518.38 214.994 519.598 213.524 521.754 213.524C523.224 213.524 524.19 214.224 524.624 215.372L523.154 216.03C522.986 215.414 522.524 214.966 521.754 214.966C520.76 214.966 520.256 215.666 520.256 216.688V218.018C520.256 219.04 520.76 219.726 521.754 219.726C522.608 219.726 523.028 219.236 523.294 218.578L524.666 219.236C524.19 220.524 523.168 221.168 521.754 221.168ZM528.489 221C527.257 221 526.599 220.328 526.599 219.138V215.12H525.521V213.692H526.081C526.613 213.692 526.781 213.44 526.781 212.936V211.69H528.391V213.692H529.889V215.12H528.391V219.572H529.777V221H528.489ZM539.552 221H537.452L534.26 211.228H536.15L537.648 215.988L538.516 219.236H538.558L539.412 215.988L540.91 211.228H542.744L539.552 221ZM545.056 212.628C544.314 212.628 544.006 212.25 544.006 211.732V211.452C544.006 210.934 544.314 210.556 545.056 210.556C545.784 210.556 546.106 210.934 546.106 211.452V211.732C546.106 212.25 545.784 212.628 545.056 212.628ZM544.16 221V213.692H545.952V221H544.16ZM549.981 221H548.189V213.692H549.981V215.204H550.051C550.233 214.434 550.821 213.692 551.983 213.692H552.375V215.386H551.815C550.611 215.386 549.981 215.722 549.981 216.52V221ZM556.182 221C554.95 221 554.292 220.328 554.292 219.138V215.12H553.214V213.692H553.774C554.306 213.692 554.474 213.44 554.474 212.936V211.69H556.084V213.692H557.582V215.12H556.084V219.572H557.47V221H556.182ZM563.664 221V219.782H563.594C563.342 220.51 562.754 221.168 561.55 221.168C560.052 221.168 559.212 220.132 559.212 218.312V213.692H561.004V218.13C561.004 219.138 561.382 219.684 562.236 219.684C562.95 219.684 563.664 219.306 563.664 218.522V213.692H565.456V221H563.664ZM569.493 221.168C568.009 221.168 567.169 220.314 567.169 219.012C567.169 217.514 568.303 216.772 570.291 216.772H571.537V216.24C571.537 215.428 571.131 214.952 570.179 214.952C569.339 214.952 568.863 215.372 568.513 215.876L567.449 214.924C567.981 214.084 568.835 213.524 570.305 213.524C572.279 213.524 573.329 214.462 573.329 216.128V219.572H574.057V221H573.063C572.293 221 571.817 220.496 571.705 219.74H571.621C571.383 220.678 570.585 221.168 569.493 221.168ZM570.095 219.866C570.893 219.866 571.537 219.502 571.537 218.816V217.85H570.389C569.451 217.85 568.989 218.172 568.989 218.746V218.984C568.989 219.572 569.395 219.866 570.095 219.866ZM578.425 221H577.459C576.241 221 575.667 220.356 575.667 219.236V210.64H577.459V219.572H578.425V221ZM586.561 221.168C584.895 221.168 583.747 220.51 582.921 219.544L584.167 218.34C584.839 219.124 585.665 219.544 586.673 219.544C587.807 219.544 588.395 218.998 588.395 218.172C588.395 217.514 588.087 217.108 587.065 216.926L586.141 216.786C584.167 216.478 583.215 215.54 583.215 213.944C583.215 212.194 584.573 211.06 586.757 211.06C588.227 211.06 589.319 211.564 590.103 212.502L588.843 213.692C588.367 213.09 587.695 212.684 586.659 212.684C585.609 212.684 585.063 213.104 585.063 213.832C585.063 214.574 585.483 214.882 586.421 215.05L587.331 215.218C589.305 215.568 590.229 216.45 590.229 218.06C590.229 219.908 588.899 221.168 586.561 221.168ZM595.083 221.168C592.927 221.168 591.639 219.67 591.639 217.332C591.639 215.022 592.885 213.524 595.027 213.524C597.309 213.524 598.359 215.204 598.359 217.206V217.794H593.501V217.976C593.501 219.026 594.103 219.74 595.279 219.74C596.161 219.74 596.693 219.32 597.141 218.746L598.107 219.824C597.505 220.65 596.441 221.168 595.083 221.168ZM595.055 214.868C594.117 214.868 593.501 215.568 593.501 216.576V216.688H596.497V216.562C596.497 215.554 595.979 214.868 595.055 214.868ZM601.888 221H600.096V213.692H601.888V215.204H601.958C602.14 214.434 602.728 213.692 603.89 213.692H604.282V215.386H603.722C602.518 215.386 601.888 215.722 601.888 216.52V221ZM609.558 221H607.43L604.994 213.692H606.758L607.78 216.842L608.494 219.446H608.592L609.306 216.842L610.3 213.692H612.008L609.558 221ZM616.208 221.168C614.052 221.168 612.764 219.67 612.764 217.332C612.764 215.022 614.01 213.524 616.152 213.524C618.434 213.524 619.484 215.204 619.484 217.206V217.794H614.626V217.976C614.626 219.026 615.228 219.74 616.404 219.74C617.286 219.74 617.818 219.32 618.266 218.746L619.232 219.824C618.63 220.65 617.566 221.168 616.208 221.168ZM616.18 214.868C615.242 214.868 614.626 215.568 614.626 216.576V216.688H617.622V216.562C617.622 215.554 617.104 214.868 616.18 214.868ZM623.013 221H621.221V213.692H623.013V215.204H623.083C623.265 214.434 623.853 213.692 625.015 213.692H625.407V215.386H624.847C623.643 215.386 623.013 215.722 623.013 216.52V221Z" fill="black"/>
<rect width="48" height="48" transform="translate(344 192)" fill="#0F62FE"/>
<path d="M371 217.5V222.375C371 223.8 371.825 225.15 373.175 225.75L374.75 226.5L376.325 225.75C377.6 225.15 378.5 223.8 378.5 222.375V217.5H371ZM377 222.375C377 223.275 376.475 224.025 375.725 224.4L374.75 224.85L373.775 224.4C373.025 224.025 372.5 223.2 372.5 222.375V219H377V222.375Z" fill="white"/>
<path d="M374.75 205.5H359.75C358.925 205.5 358.25 206.175 358.25 207V223.5C358.25 224.325 358.925 225 359.75 225H368V207H374.75V215.25H376.25V207C376.25 206.175 375.575 205.5 374.75 205.5ZM366.2 213.15L359.75 221.925V207.825L366.2 213.15ZM360.5 223.5L366.5 215.325V223.5H360.5ZM366.5 211.425L361.1 207H366.5V211.425Z" fill="white"/>
</g>
<g clip-path="url(#clip3_16_459)">
<path d="M533.812 418.5C532.787 415.588 530.012 413.5 526.75 413.5C522.613 413.5 519.25 416.863 519.25 421C519.25 425.137 522.613 428.5 526.75 428.5C530.012 428.5 532.787 426.413 533.812 423.5H539.25V428.5H544.25V423.5H546.75V418.5H533.812ZM526.75 423.5C525.375 423.5 524.25 422.375 524.25 421C524.25 419.625 525.375 418.5 526.75 418.5C528.125 418.5 529.25 419.625 529.25 421C529.25 422.375 528.125 423.5 526.75 423.5Z" fill="#0F62FE"/>
</g>
<g clip-path="url(#clip4_16_459)">
<path d="M533.812 423.5C532.787 426.412 530.012 428.5 526.75 428.5C522.613 428.5 519.25 425.137 519.25 421C519.25 416.863 522.613 413.5 526.75 413.5C530.012 413.5 532.787 415.587 533.812 418.5H539.25V413.5H544.25V418.5H546.75V423.5H533.812ZM526.75 418.5C525.375 418.5 524.25 419.625 524.25 421C524.25 422.375 525.375 423.5 526.75 423.5C528.125 423.5 529.25 422.375 529.25 421C529.25 419.625 528.125 418.5 526.75 418.5Z" fill="#0F62FE"/>
</g>
<rect width="216" height="92" transform="translate(386 383)" fill="white" fill-opacity="0.01" style="mix-blend-mode:multiply"/>
<rect width="48" height="48" transform="translate(470 383)" fill="white" fill-opacity="0.01" style="mix-blend-mode:multiply"/>
<circle cx="494" cy="407" r="24" fill="#0F62FE"/>
<rect width="24" height="24" transform="translate(482 395)" fill="white" fill-opacity="0.01" style="mix-blend-mode:multiply"/>
<path d="M504.5 413V411.5H502.924C502.827 411.031 502.641 410.584 502.375 410.185L503.493 409.068L502.432 408.007L501.315 409.125C500.916 408.859 500.469 408.673 500 408.576V407H498.5V408.576C498.031 408.673 497.584 408.859 497.185 409.125L496.068 408.007L495.007 409.068L496.125 410.185C495.859 410.584 495.673 411.031 495.576 411.5H494V413H495.576C495.673 413.469 495.859 413.916 496.125 414.315L495.007 415.432L496.068 416.493L497.185 415.375C497.584 415.641 498.031 415.827 498.5 415.924V417.5H500V415.924C500.469 415.827 500.916 415.641 501.315 415.375L502.432 416.493L503.493 415.432L502.375 414.315C502.641 413.916 502.827 413.469 502.924 413H504.5ZM499.25 414.5C498.805 414.5 498.37 414.368 498 414.121C497.63 413.874 497.342 413.522 497.171 413.111C497.001 412.7 496.956 412.248 497.043 411.811C497.13 411.375 497.344 410.974 497.659 410.659C497.974 410.344 498.375 410.13 498.811 410.043C499.248 409.956 499.7 410.001 500.111 410.171C500.522 410.342 500.874 410.63 501.121 411C501.368 411.37 501.5 411.805 501.5 412.25C501.499 412.847 501.262 413.418 500.84 413.84C500.418 414.262 499.847 414.499 499.25 414.5Z" fill="white"/>
<path d="M492.5 415L490.074 413.707C488.994 413.132 488.09 412.274 487.46 411.224C486.831 410.175 486.499 408.974 486.5 407.75V398H501.5V405.5H503V398C503 397.602 502.841 397.221 502.56 396.94C502.279 396.659 501.898 396.5 501.5 396.5H486.5C486.102 396.5 485.721 396.659 485.44 396.94C485.159 397.221 485 397.602 485 398V407.75C484.998 409.246 485.404 410.714 486.174 411.996C486.943 413.279 488.048 414.328 489.368 415.03L492.5 416.7V415Z" fill="white"/>
<path d="M438.078 453.168C436.412 453.168 435.264 452.51 434.438 451.544L435.684 450.34C436.356 451.124 437.182 451.544 438.19 451.544C439.324 451.544 439.912 450.998 439.912 450.172C439.912 449.514 439.604 449.108 438.582 448.926L437.658 448.786C435.684 448.478 434.732 447.54 434.732 445.944C434.732 444.194 436.09 443.06 438.274 443.06C439.744 443.06 440.836 443.564 441.62 444.502L440.36 445.692C439.884 445.09 439.212 444.684 438.176 444.684C437.126 444.684 436.58 445.104 436.58 445.832C436.58 446.574 437 446.882 437.938 447.05L438.848 447.218C440.822 447.568 441.746 448.45 441.746 450.06C441.746 451.908 440.416 453.168 438.078 453.168ZM446.601 453.168C444.445 453.168 443.157 451.67 443.157 449.332C443.157 447.022 444.403 445.524 446.545 445.524C448.827 445.524 449.877 447.204 449.877 449.206V449.794H445.019V449.976C445.019 451.026 445.621 451.74 446.797 451.74C447.679 451.74 448.211 451.32 448.659 450.746L449.625 451.824C449.023 452.65 447.959 453.168 446.601 453.168ZM446.573 446.868C445.635 446.868 445.019 447.568 445.019 448.576V448.688H448.015V448.562C448.015 447.554 447.497 446.868 446.573 446.868ZM454.497 453.168C452.341 453.168 451.123 451.684 451.123 449.332C451.123 446.994 452.341 445.524 454.497 445.524C455.967 445.524 456.933 446.224 457.367 447.372L455.897 448.03C455.729 447.414 455.267 446.966 454.497 446.966C453.503 446.966 452.999 447.666 452.999 448.688V450.018C452.999 451.04 453.503 451.726 454.497 451.726C455.351 451.726 455.771 451.236 456.037 450.578L457.409 451.236C456.933 452.524 455.911 453.168 454.497 453.168ZM463.319 453V451.782H463.249C462.997 452.51 462.409 453.168 461.205 453.168C459.707 453.168 458.867 452.132 458.867 450.312V445.692H460.659V450.13C460.659 451.138 461.037 451.684 461.891 451.684C462.605 451.684 463.319 451.306 463.319 450.522V445.692H465.111V453H463.319ZM469.133 453H467.341V445.692H469.133V447.204H469.203C469.385 446.434 469.973 445.692 471.135 445.692H471.527V447.386H470.967C469.763 447.386 469.133 447.722 469.133 448.52V453ZM475.883 453.168C473.727 453.168 472.439 451.67 472.439 449.332C472.439 447.022 473.685 445.524 475.827 445.524C478.109 445.524 479.159 447.204 479.159 449.206V449.794H474.301V449.976C474.301 451.026 474.903 451.74 476.079 451.74C476.961 451.74 477.493 451.32 477.941 450.746L478.907 451.824C478.305 452.65 477.241 453.168 475.883 453.168ZM475.855 446.868C474.917 446.868 474.301 447.568 474.301 448.576V448.688H477.297V448.562C477.297 447.554 476.779 446.868 475.855 446.868ZM484.364 453V442.64H486.156V446.896H486.212C486.478 446.056 487.262 445.524 488.228 445.524C490.076 445.524 491.098 446.896 491.098 449.332C491.098 451.782 490.076 453.168 488.228 453.168C487.262 453.168 486.492 452.608 486.212 451.782H486.156V453H484.364ZM487.654 451.684C488.578 451.684 489.222 451.012 489.222 449.976V448.716C489.222 447.68 488.578 446.994 487.654 446.994C486.8 446.994 486.156 447.456 486.156 448.17V450.494C486.156 451.25 486.8 451.684 487.654 451.684ZM497.287 453V451.782H497.217C496.965 452.51 496.377 453.168 495.173 453.168C493.675 453.168 492.835 452.132 492.835 450.312V445.692H494.627V450.13C494.627 451.138 495.005 451.684 495.859 451.684C496.573 451.684 497.287 451.306 497.287 450.522V445.692H499.079V453H497.287ZM502.205 444.628C501.463 444.628 501.155 444.25 501.155 443.732V443.452C501.155 442.934 501.463 442.556 502.205 442.556C502.933 442.556 503.255 442.934 503.255 443.452V443.732C503.255 444.25 502.933 444.628 502.205 444.628ZM501.309 453V445.692H503.101V453H501.309ZM508.096 453H507.13C505.912 453 505.338 452.356 505.338 451.236V442.64H507.13V451.572H508.096V453ZM514.15 453V451.782H514.08C513.814 452.608 513.03 453.168 512.064 453.168C510.23 453.168 509.208 451.782 509.208 449.332C509.208 446.896 510.23 445.524 512.064 445.524C513.03 445.524 513.828 446.056 514.08 446.896H514.15V442.64H515.942V453H514.15ZM512.638 451.684C513.492 451.684 514.15 451.25 514.15 450.494V448.17C514.15 447.456 513.492 446.994 512.638 446.994C511.714 446.994 511.084 447.68 511.084 448.716V449.976C511.084 451.012 511.714 451.684 512.638 451.684ZM524.031 453.168C522.645 453.168 521.735 452.664 521.007 451.824L522.099 450.76C522.631 451.376 523.275 451.754 524.101 451.754C524.955 451.754 525.319 451.432 525.319 450.914C525.319 450.494 525.067 450.228 524.423 450.144L523.695 450.046C522.127 449.85 521.259 449.164 521.259 447.834C521.259 446.42 522.365 445.524 524.031 445.524C525.459 445.524 526.187 445.944 526.887 446.672L525.837 447.722C525.417 447.274 524.801 446.938 524.087 446.938C523.317 446.938 522.981 447.246 522.981 447.694C522.981 448.184 523.247 448.408 523.933 448.52L524.675 448.618C526.271 448.842 527.041 449.556 527.041 450.774C527.041 452.188 525.851 453.168 524.031 453.168ZM530.956 453C529.724 453 529.066 452.328 529.066 451.138V447.12H527.988V445.692H528.548C529.08 445.692 529.248 445.44 529.248 444.936V443.69H530.858V445.692H532.356V447.12H530.858V451.572H532.244V453H530.956ZM535.876 453.168C534.392 453.168 533.552 452.314 533.552 451.012C533.552 449.514 534.686 448.772 536.674 448.772H537.92V448.24C537.92 447.428 537.514 446.952 536.562 446.952C535.722 446.952 535.246 447.372 534.896 447.876L533.832 446.924C534.364 446.084 535.218 445.524 536.688 445.524C538.662 445.524 539.712 446.462 539.712 448.128V451.572H540.44V453H539.446C538.676 453 538.2 452.496 538.088 451.74H538.004C537.766 452.678 536.968 453.168 535.876 453.168ZM536.478 451.866C537.276 451.866 537.92 451.502 537.92 450.816V449.85H536.772C535.834 449.85 535.372 450.172 535.372 450.746V450.984C535.372 451.572 535.778 451.866 536.478 451.866ZM544.278 453C543.046 453 542.388 452.328 542.388 451.138V447.12H541.31V445.692H541.87C542.402 445.692 542.57 445.44 542.57 444.936V443.69H544.18V445.692H545.678V447.12H544.18V451.572H545.566V453H544.278ZM550.291 453.168C548.135 453.168 546.847 451.67 546.847 449.332C546.847 447.022 548.093 445.524 550.235 445.524C552.517 445.524 553.567 447.204 553.567 449.206V449.794H548.709V449.976C548.709 451.026 549.311 451.74 550.487 451.74C551.369 451.74 551.901 451.32 552.349 450.746L553.315 451.824C552.713 452.65 551.649 453.168 550.291 453.168ZM550.263 446.868C549.325 446.868 548.709 447.568 548.709 448.576V448.688H551.705V448.562C551.705 447.554 551.187 446.868 550.263 446.868Z" fill="black"/>
<rect x="384.5" y="272.5" width="226" height="47" stroke="#0F62FE"/>
<rect x="385" y="273" width="225" height="46" fill="white"/>
<rect x="385" y="273" width="225" height="46" fill="#EDF5FF"/>
<g clip-path="url(#clip5_16_459)">
<path d="M465.396 292H460.958V290.516H462.246V283.712H460.958V282.228H465.396V283.712H464.094V290.516H465.396V292ZM467.444 292V282.228H471.966C473.576 282.228 474.556 283.222 474.556 284.734C474.556 286.218 473.702 286.778 472.806 286.834V286.918C473.66 286.932 474.92 287.534 474.92 289.2C474.92 290.768 473.842 292 472.4 292H467.444ZM469.292 287.814V290.432H471.868C472.568 290.432 472.988 290.054 472.988 289.368V288.892C472.988 288.206 472.568 287.814 471.868 287.814H469.292ZM469.292 283.796V286.302H471.574C472.246 286.302 472.638 285.91 472.638 285.266V284.832C472.638 284.174 472.246 283.796 471.574 283.796H469.292ZM476.887 292V282.228H478.973L481.479 287.002H481.535L484.013 282.228H486.015V292H484.265V284.986H484.209L483.453 286.54L481.451 290.236L479.449 286.54L478.693 284.986H478.637V292H476.887ZM497.868 292V287.87H493.794V292H491.946V282.228H493.794V286.232H497.868V282.228H499.716V292H497.868ZM505.262 288.556L506.536 284.692H508.216L505.276 293.302C504.912 294.352 504.394 294.8 503.19 294.8H502.112V293.372H503.428L503.764 292.35L501.146 284.692H502.924L504.198 288.556L504.674 290.404H504.758L505.262 288.556ZM509.558 294.8V284.692H511.35V285.896H511.406C511.672 285.056 512.456 284.524 513.422 284.524C515.27 284.524 516.292 285.896 516.292 288.332C516.292 290.782 515.27 292.168 513.422 292.168C512.456 292.168 511.686 291.608 511.406 290.782H511.35V294.8H509.558ZM512.848 290.684C513.772 290.684 514.416 290.012 514.416 288.976V287.716C514.416 286.68 513.772 285.994 512.848 285.994C511.994 285.994 511.35 286.456 511.35 287.17V289.494C511.35 290.25 511.994 290.684 512.848 290.684ZM521.066 292.168C518.91 292.168 517.622 290.67 517.622 288.332C517.622 286.022 518.868 284.524 521.01 284.524C523.292 284.524 524.342 286.204 524.342 288.206V288.794H519.484V288.976C519.484 290.026 520.086 290.74 521.262 290.74C522.144 290.74 522.676 290.32 523.124 289.746L524.09 290.824C523.488 291.65 522.424 292.168 521.066 292.168ZM521.038 285.868C520.1 285.868 519.484 286.568 519.484 287.576V287.688H522.48V287.562C522.48 286.554 521.962 285.868 521.038 285.868ZM527.871 292H526.079V284.692H527.871V286.204H527.941C528.123 285.434 528.711 284.692 529.873 284.692H530.265V286.386H529.705C528.501 286.386 527.871 286.722 527.871 287.52V292ZM537.164 292H535.316V282.228H539.712C541.518 282.228 542.61 283.446 542.61 285.252C542.61 287.072 541.518 288.276 539.712 288.276H537.164V292ZM537.164 283.838V286.68H539.544C540.258 286.68 540.692 286.288 540.692 285.574V284.93C540.692 284.216 540.258 283.838 539.544 283.838H537.164ZM545.988 292H544.196V284.692H545.988V286.204H546.058C546.24 285.434 546.828 284.692 547.99 284.692H548.382V286.386H547.822C546.618 286.386 545.988 286.722 545.988 287.52V292ZM552.681 292.168C550.595 292.168 549.293 290.684 549.293 288.332C549.293 285.994 550.595 284.524 552.681 284.524C554.781 284.524 556.083 285.994 556.083 288.332C556.083 290.684 554.781 292.168 552.681 292.168ZM552.681 290.726C553.619 290.726 554.207 290.124 554.207 289.018V287.66C554.207 286.568 553.619 285.966 552.681 285.966C551.757 285.966 551.169 286.568 551.169 287.66V289.018C551.169 290.124 551.757 290.726 552.681 290.726ZM560.059 292C558.827 292 558.169 291.328 558.169 290.138V286.12H557.091V284.692H557.651C558.183 284.692 558.351 284.44 558.351 283.936V282.69H559.961V284.692H561.459V286.12H559.961V290.572H561.347V292H560.059ZM566.073 292.168C563.917 292.168 562.629 290.67 562.629 288.332C562.629 286.022 563.875 284.524 566.017 284.524C568.299 284.524 569.349 286.204 569.349 288.206V288.794H564.491V288.976C564.491 290.026 565.093 290.74 566.269 290.74C567.151 290.74 567.683 290.32 568.131 289.746L569.097 290.824C568.495 291.65 567.431 292.168 566.073 292.168ZM566.045 285.868C565.107 285.868 564.491 286.568 564.491 287.576V287.688H567.487V287.562C567.487 286.554 566.969 285.868 566.045 285.868ZM573.97 292.168C571.814 292.168 570.596 290.684 570.596 288.332C570.596 285.994 571.814 284.524 573.97 284.524C575.44 284.524 576.406 285.224 576.84 286.372L575.37 287.03C575.202 286.414 574.74 285.966 573.97 285.966C572.976 285.966 572.472 286.666 572.472 287.688V289.018C572.472 290.04 572.976 290.726 573.97 290.726C574.824 290.726 575.244 290.236 575.51 289.578L576.882 290.236C576.406 291.524 575.384 292.168 573.97 292.168ZM580.705 292C579.473 292 578.815 291.328 578.815 290.138V286.12H577.737V284.692H578.297C578.829 284.692 578.997 284.44 578.997 283.936V282.69H580.607V284.692H582.105V286.12H580.607V290.572H581.993V292H580.705ZM483.702 310.168C482.036 310.168 480.888 309.51 480.062 308.544L481.308 307.34C481.98 308.124 482.806 308.544 483.814 308.544C484.948 308.544 485.536 307.998 485.536 307.172C485.536 306.514 485.228 306.108 484.206 305.926L483.282 305.786C481.308 305.478 480.356 304.54 480.356 302.944C480.356 301.194 481.714 300.06 483.898 300.06C485.368 300.06 486.46 300.564 487.244 301.502L485.984 302.692C485.508 302.09 484.836 301.684 483.8 301.684C482.75 301.684 482.204 302.104 482.204 302.832C482.204 303.574 482.624 303.882 483.562 304.05L484.472 304.218C486.446 304.568 487.37 305.45 487.37 307.06C487.37 308.908 486.04 310.168 483.702 310.168ZM492.224 310.168C490.068 310.168 488.78 308.67 488.78 306.332C488.78 304.022 490.026 302.524 492.168 302.524C494.45 302.524 495.5 304.204 495.5 306.206V306.794H490.642V306.976C490.642 308.026 491.244 308.74 492.42 308.74C493.302 308.74 493.834 308.32 494.282 307.746L495.248 308.824C494.646 309.65 493.582 310.168 492.224 310.168ZM492.196 303.868C491.258 303.868 490.642 304.568 490.642 305.576V305.688H493.638V305.562C493.638 304.554 493.12 303.868 492.196 303.868ZM500.121 310.168C497.965 310.168 496.747 308.684 496.747 306.332C496.747 303.994 497.965 302.524 500.121 302.524C501.591 302.524 502.557 303.224 502.991 304.372L501.521 305.03C501.353 304.414 500.891 303.966 500.121 303.966C499.127 303.966 498.623 304.666 498.623 305.688V307.018C498.623 308.04 499.127 308.726 500.121 308.726C500.975 308.726 501.395 308.236 501.661 307.578L503.033 308.236C502.557 309.524 501.535 310.168 500.121 310.168ZM508.942 310V308.782H508.872C508.62 309.51 508.032 310.168 506.828 310.168C505.33 310.168 504.49 309.132 504.49 307.312V302.692H506.282V307.13C506.282 308.138 506.66 308.684 507.514 308.684C508.228 308.684 508.942 308.306 508.942 307.522V302.692H510.734V310H508.942ZM514.757 310H512.965V302.692H514.757V304.204H514.827C515.009 303.434 515.597 302.692 516.759 302.692H517.151V304.386H516.591C515.387 304.386 514.757 304.722 514.757 305.52V310ZM521.507 310.168C519.351 310.168 518.063 308.67 518.063 306.332C518.063 304.022 519.309 302.524 521.451 302.524C523.733 302.524 524.783 304.204 524.783 306.206V306.794H519.925V306.976C519.925 308.026 520.527 308.74 521.703 308.74C522.585 308.74 523.117 308.32 523.565 307.746L524.531 308.824C523.929 309.65 522.865 310.168 521.507 310.168ZM521.479 303.868C520.541 303.868 519.925 304.568 519.925 305.576V305.688H522.921V305.562C522.921 304.554 522.403 303.868 521.479 303.868ZM530.1 310V300.228H534.622C536.232 300.228 537.212 301.222 537.212 302.734C537.212 304.218 536.358 304.778 535.462 304.834V304.918C536.316 304.932 537.576 305.534 537.576 307.2C537.576 308.768 536.498 310 535.056 310H530.1ZM531.948 305.814V308.432H534.524C535.224 308.432 535.644 308.054 535.644 307.368V306.892C535.644 306.206 535.224 305.814 534.524 305.814H531.948ZM531.948 301.796V304.302H534.23C534.902 304.302 535.294 303.91 535.294 303.266V302.832C535.294 302.174 534.902 301.796 534.23 301.796H531.948ZM543.799 310V308.782H543.729C543.477 309.51 542.889 310.168 541.685 310.168C540.187 310.168 539.347 309.132 539.347 307.312V302.692H541.139V307.13C541.139 308.138 541.517 308.684 542.371 308.684C543.085 308.684 543.799 308.306 543.799 307.522V302.692H545.591V310H543.799ZM548.718 301.628C547.976 301.628 547.668 301.25 547.668 300.732V300.452C547.668 299.934 547.976 299.556 548.718 299.556C549.446 299.556 549.768 299.934 549.768 300.452V300.732C549.768 301.25 549.446 301.628 548.718 301.628ZM547.822 310V302.692H549.614V310H547.822ZM554.609 310H553.643C552.425 310 551.851 309.356 551.851 308.236V299.64H553.643V308.572H554.609V310ZM560.662 310V308.782H560.592C560.326 309.608 559.542 310.168 558.576 310.168C556.742 310.168 555.72 308.782 555.72 306.332C555.72 303.896 556.742 302.524 558.576 302.524C559.542 302.524 560.34 303.056 560.592 303.896H560.662V299.64H562.454V310H560.662ZM559.15 308.684C560.004 308.684 560.662 308.25 560.662 307.494V305.17C560.662 304.456 560.004 303.994 559.15 303.994C558.226 303.994 557.596 304.68 557.596 305.716V306.976C557.596 308.012 558.226 308.684 559.15 308.684Z" fill="black"/>
<rect width="48" height="48" transform="translate(384 272)" fill="#0F62FE"/>
<g clip-path="url(#clip6_16_459)">
<rect width="24" height="24" transform="translate(396 284)" fill="white" fill-opacity="0.01" style="mix-blend-mode:multiply"/>
<path d="M408 284L399 288.484V299.033C399 301.42 399.948 303.709 401.636 305.397C403.324 307.085 405.613 308.033 408 308.033C410.387 308.033 412.676 307.085 414.364 305.397C416.052 303.709 417 301.42 417 299.033V288.484L408 284ZM413.122 304.486L408 301.934V303.605L411.777 305.487C410.639 306.149 409.347 306.501 408.03 306.506C406.713 306.511 405.419 306.169 404.276 305.515C403.133 304.861 402.182 303.918 401.52 302.78C400.857 301.642 400.505 300.35 400.5 299.033V289.408L408 285.671L415.5 289.408V292.22L408 288.484V290.155L415.5 293.891V296.703L408 292.967V294.638L415.5 298.374V299.033C415.5 299.715 415.407 300.393 415.222 301.049L408 297.451V299.122L414.671 302.445C414.276 303.209 413.752 303.899 413.122 304.486Z" fill="white"/>
</g>
</g>
<rect x="768.5" y="90.5" width="247" height="47" stroke="#0F62FE"/>
<rect x="769" y="91" width="246" height="46" fill="white"/>
<rect x="769" y="91" width="246" height="46" fill="#EDF5FF"/>
<path d="M836.623 119.168C834.957 119.168 833.809 118.51 832.983 117.544L834.229 116.34C834.901 117.124 835.727 117.544 836.735 117.544C837.869 117.544 838.457 116.998 838.457 116.172C838.457 115.514 838.149 115.108 837.127 114.926L836.203 114.786C834.229 114.478 833.277 113.54 833.277 111.944C833.277 110.194 834.635 109.06 836.819 109.06C838.289 109.06 839.381 109.564 840.165 110.502L838.905 111.692C838.429 111.09 837.757 110.684 836.721 110.684C835.671 110.684 835.125 111.104 835.125 111.832C835.125 112.574 835.545 112.882 836.483 113.05L837.393 113.218C839.367 113.568 840.291 114.45 840.291 116.06C840.291 117.908 838.961 119.168 836.623 119.168ZM845.09 119.168C843.004 119.168 841.702 117.684 841.702 115.332C841.702 112.994 843.004 111.524 845.09 111.524C847.19 111.524 848.492 112.994 848.492 115.332C848.492 117.684 847.19 119.168 845.09 119.168ZM845.09 117.726C846.028 117.726 846.616 117.124 846.616 116.018V114.66C846.616 113.568 846.028 112.966 845.09 112.966C844.166 112.966 843.578 113.568 843.578 114.66V116.018C843.578 117.124 844.166 117.726 845.09 117.726ZM854.608 119V117.782H854.538C854.286 118.51 853.698 119.168 852.494 119.168C850.996 119.168 850.156 118.132 850.156 116.312V111.692H851.948V116.13C851.948 117.138 852.326 117.684 853.18 117.684C853.894 117.684 854.608 117.306 854.608 116.522V111.692H856.4V119H854.608ZM860.423 119H858.631V111.692H860.423V113.204H860.493C860.675 112.434 861.263 111.692 862.425 111.692H862.817V113.386H862.257C861.053 113.386 860.423 113.722 860.423 114.52V119ZM867.103 119.168C864.947 119.168 863.729 117.684 863.729 115.332C863.729 112.994 864.947 111.524 867.103 111.524C868.573 111.524 869.539 112.224 869.973 113.372L868.503 114.03C868.335 113.414 867.873 112.966 867.103 112.966C866.109 112.966 865.605 113.666 865.605 114.688V116.018C865.605 117.04 866.109 117.726 867.103 117.726C867.957 117.726 868.377 117.236 868.643 116.578L870.015 117.236C869.539 118.524 868.517 119.168 867.103 119.168ZM874.442 119.168C872.286 119.168 870.998 117.67 870.998 115.332C870.998 113.022 872.244 111.524 874.386 111.524C876.668 111.524 877.718 113.204 877.718 115.206V115.794H872.86V115.976C872.86 117.026 873.462 117.74 874.638 117.74C875.52 117.74 876.052 117.32 876.5 116.746L877.466 117.824C876.864 118.65 875.8 119.168 874.442 119.168ZM874.414 112.868C873.476 112.868 872.86 113.568 872.86 114.576V114.688H875.856V114.562C875.856 113.554 875.338 112.868 874.414 112.868ZM886.829 119.168C884.253 119.168 882.615 117.474 882.615 114.184C882.615 110.894 884.253 109.06 886.829 109.06C888.579 109.06 889.713 109.802 890.399 111.314L888.817 112.154C888.537 111.286 887.921 110.698 886.829 110.698C885.457 110.698 884.575 111.692 884.575 113.358V114.898C884.575 116.578 885.457 117.53 886.829 117.53C887.935 117.53 888.621 116.858 888.943 115.976L890.441 116.858C889.741 118.314 888.579 119.168 886.829 119.168ZM894.964 119.168C892.878 119.168 891.576 117.684 891.576 115.332C891.576 112.994 892.878 111.524 894.964 111.524C897.064 111.524 898.366 112.994 898.366 115.332C898.366 117.684 897.064 119.168 894.964 119.168ZM894.964 117.726C895.902 117.726 896.49 117.124 896.49 116.018V114.66C896.49 113.568 895.902 112.966 894.964 112.966C894.04 112.966 893.452 113.568 893.452 114.66V116.018C893.452 117.124 894.04 117.726 894.964 117.726ZM904.65 119V117.782H904.58C904.314 118.608 903.53 119.168 902.564 119.168C900.73 119.168 899.708 117.782 899.708 115.332C899.708 112.896 900.73 111.524 902.564 111.524C903.53 111.524 904.328 112.056 904.58 112.896H904.65V108.64H906.442V119H904.65ZM903.138 117.684C903.992 117.684 904.65 117.25 904.65 116.494V114.17C904.65 113.456 903.992 112.994 903.138 112.994C902.214 112.994 901.584 113.68 901.584 114.716V115.976C901.584 117.012 902.214 117.684 903.138 117.684ZM911.623 119.168C909.467 119.168 908.179 117.67 908.179 115.332C908.179 113.022 909.425 111.524 911.567 111.524C913.849 111.524 914.899 113.204 914.899 115.206V115.794H910.041V115.976C910.041 117.026 910.643 117.74 911.819 117.74C912.701 117.74 913.233 117.32 913.681 116.746L914.647 117.824C914.045 118.65 912.981 119.168 911.623 119.168ZM911.595 112.868C910.657 112.868 910.041 113.568 910.041 114.576V114.688H913.037V114.562C913.037 113.554 912.519 112.868 911.595 112.868ZM922.064 115.234V119H920.216V109.228H924.626C926.404 109.228 927.51 110.404 927.51 112.252C927.51 113.596 926.894 114.618 925.69 115.024L927.692 119H925.634L923.814 115.234H922.064ZM922.064 113.68H924.444C925.158 113.68 925.592 113.288 925.592 112.574V111.93C925.592 111.216 925.158 110.838 924.444 110.838H922.064V113.68ZM932.31 119.168C930.154 119.168 928.866 117.67 928.866 115.332C928.866 113.022 930.112 111.524 932.254 111.524C934.536 111.524 935.586 113.204 935.586 115.206V115.794H930.728V115.976C930.728 117.026 931.33 117.74 932.506 117.74C933.388 117.74 933.92 117.32 934.368 116.746L935.334 117.824C934.732 118.65 933.668 119.168 932.31 119.168ZM932.282 112.868C931.344 112.868 930.728 113.568 930.728 114.576V114.688H933.724V114.562C933.724 113.554 933.206 112.868 932.282 112.868ZM937.323 121.8V111.692H939.115V112.896H939.171C939.437 112.056 940.221 111.524 941.187 111.524C943.035 111.524 944.057 112.896 944.057 115.332C944.057 117.782 943.035 119.168 941.187 119.168C940.221 119.168 939.451 118.608 939.171 117.782H939.115V121.8H937.323ZM940.613 117.684C941.537 117.684 942.181 117.012 942.181 115.976V114.716C942.181 113.68 941.537 112.994 940.613 112.994C939.759 112.994 939.115 113.456 939.115 114.17V116.494C939.115 117.25 939.759 117.684 940.613 117.684ZM948.775 119.168C946.689 119.168 945.387 117.684 945.387 115.332C945.387 112.994 946.689 111.524 948.775 111.524C950.875 111.524 952.177 112.994 952.177 115.332C952.177 117.684 950.875 119.168 948.775 119.168ZM948.775 117.726C949.713 117.726 950.301 117.124 950.301 116.018V114.66C950.301 113.568 949.713 112.966 948.775 112.966C947.851 112.966 947.263 113.568 947.263 114.66V116.018C947.263 117.124 947.851 117.726 948.775 117.726ZM956.32 119.168C954.934 119.168 954.024 118.664 953.296 117.824L954.388 116.76C954.92 117.376 955.564 117.754 956.39 117.754C957.244 117.754 957.608 117.432 957.608 116.914C957.608 116.494 957.356 116.228 956.712 116.144L955.984 116.046C954.416 115.85 953.548 115.164 953.548 113.834C953.548 112.42 954.654 111.524 956.32 111.524C957.748 111.524 958.476 111.944 959.176 112.672L958.126 113.722C957.706 113.274 957.09 112.938 956.376 112.938C955.606 112.938 955.27 113.246 955.27 113.694C955.27 114.184 955.536 114.408 956.222 114.52L956.964 114.618C958.56 114.842 959.33 115.556 959.33 116.774C959.33 118.188 958.14 119.168 956.32 119.168ZM961.968 110.628C961.226 110.628 960.918 110.25 960.918 109.732V109.452C960.918 108.934 961.226 108.556 961.968 108.556C962.696 108.556 963.018 108.934 963.018 109.452V109.732C963.018 110.25 962.696 110.628 961.968 110.628ZM961.072 119V111.692H962.864V119H961.072ZM967.383 119C966.151 119 965.493 118.328 965.493 117.138V113.12H964.415V111.692H964.975C965.507 111.692 965.675 111.44 965.675 110.936V109.69H967.285V111.692H968.783V113.12H967.285V117.572H968.671V119H967.383ZM973.341 119.168C971.255 119.168 969.953 117.684 969.953 115.332C969.953 112.994 971.255 111.524 973.341 111.524C975.441 111.524 976.743 112.994 976.743 115.332C976.743 117.684 975.441 119.168 973.341 119.168ZM973.341 117.726C974.279 117.726 974.867 117.124 974.867 116.018V114.66C974.867 113.568 974.279 112.966 973.341 112.966C972.417 112.966 971.829 113.568 971.829 114.66V116.018C971.829 117.124 972.417 117.726 973.341 117.726ZM980.284 119H978.492V111.692H980.284V113.204H980.354C980.536 112.434 981.124 111.692 982.286 111.692H982.678V113.386H982.118C980.914 113.386 980.284 113.722 980.284 114.52V119ZM987.463 115.556L988.737 111.692H990.417L987.477 120.302C987.113 121.352 986.595 121.8 985.391 121.8H984.313V120.372H985.629L985.965 119.35L983.347 111.692H985.125L986.399 115.556L986.875 117.404H986.959L987.463 115.556Z" fill="black"/>
<rect width="48" height="48" transform="translate(768 90)" fill="#0F62FE"/>
<rect width="24" height="24" transform="translate(780 102)" fill="white" fill-opacity="0.01" style="mix-blend-mode:multiply"/>
<path d="M793.5 115.5H787.5V117H793.5V115.5Z" fill="white"/>
<path d="M796.5 111.75H787.5V113.25H796.5V111.75Z" fill="white"/>
<path d="M791.25 119.25H787.5V120.75H791.25V119.25Z" fill="white"/>
<path d="M798.75 105.75H796.5V105C796.5 104.602 796.342 104.221 796.061 103.939C795.779 103.658 795.398 103.5 795 103.5H789C788.602 103.5 788.221 103.658 787.939 103.939C787.658 104.221 787.5 104.602 787.5 105V105.75H785.25C784.852 105.75 784.471 105.908 784.189 106.189C783.908 106.471 783.75 106.852 783.75 107.25V123C783.75 123.398 783.908 123.779 784.189 124.061C784.471 124.342 784.852 124.5 785.25 124.5H798.75C799.148 124.5 799.529 124.342 799.811 124.061C800.092 123.779 800.25 123.398 800.25 123V107.25C800.25 106.852 800.092 106.471 799.811 106.189C799.529 105.908 799.148 105.75 798.75 105.75ZM789 105H795V108H789V105ZM798.75 123H785.25V107.25H787.5V109.5H796.5V107.25H798.75V123Z" fill="white"/>
<rect x="768.5" y="272.5" width="247" height="47" stroke="#0F62FE"/>
<rect x="769" y="273" width="246" height="46" fill="white"/>
<rect x="769" y="273" width="246" height="46" fill="#EDF5FF"/>
<path d="M837.366 301H832.928V299.516H834.216V292.712H832.928V291.228H837.366V292.712H836.064V299.516H837.366V301ZM839.414 301V291.228H843.936C845.546 291.228 846.526 292.222 846.526 293.734C846.526 295.218 845.672 295.778 844.776 295.834V295.918C845.63 295.932 846.89 296.534 846.89 298.2C846.89 299.768 845.812 301 844.37 301H839.414ZM841.262 296.814V299.432H843.838C844.538 299.432 844.958 299.054 844.958 298.368V297.892C844.958 297.206 844.538 296.814 843.838 296.814H841.262ZM841.262 292.796V295.302H843.544C844.216 295.302 844.608 294.91 844.608 294.266V293.832C844.608 293.174 844.216 292.796 843.544 292.796H841.262ZM848.857 301V291.228H850.943L853.449 296.002H853.505L855.983 291.228H857.985V301H856.235V293.986H856.179L855.423 295.54L853.421 299.236L851.419 295.54L850.663 293.986H850.607V301H848.857ZM867.71 301.168C865.134 301.168 863.496 299.474 863.496 296.184C863.496 292.894 865.134 291.06 867.71 291.06C869.46 291.06 870.594 291.802 871.28 293.314L869.698 294.154C869.418 293.286 868.802 292.698 867.71 292.698C866.338 292.698 865.456 293.692 865.456 295.358V296.898C865.456 298.578 866.338 299.53 867.71 299.53C868.816 299.53 869.502 298.858 869.824 297.976L871.322 298.858C870.622 300.314 869.46 301.168 867.71 301.168ZM875.844 301.168C873.758 301.168 872.456 299.684 872.456 297.332C872.456 294.994 873.758 293.524 875.844 293.524C877.944 293.524 879.246 294.994 879.246 297.332C879.246 299.684 877.944 301.168 875.844 301.168ZM875.844 299.726C876.782 299.726 877.37 299.124 877.37 298.018V296.66C877.37 295.568 876.782 294.966 875.844 294.966C874.92 294.966 874.332 295.568 874.332 296.66V298.018C874.332 299.124 874.92 299.726 875.844 299.726ZM882.787 301H880.995V293.692H882.787V294.91H882.857C883.151 294.126 883.767 293.524 884.901 293.524C886.399 293.524 887.239 294.56 887.239 296.38V301H885.447V296.562C885.447 295.526 885.097 294.994 884.243 294.994C883.501 294.994 882.787 295.386 882.787 296.17V301ZM891.667 301C890.435 301 889.777 300.328 889.777 299.138V295.12H888.699V293.692H889.259C889.791 293.692 889.959 293.44 889.959 292.936V291.69H891.569V293.692H893.067V295.12H891.569V299.572H892.955V301H891.667ZM896.588 301.168C895.104 301.168 894.264 300.314 894.264 299.012C894.264 297.514 895.398 296.772 897.386 296.772H898.632V296.24C898.632 295.428 898.226 294.952 897.274 294.952C896.434 294.952 895.958 295.372 895.608 295.876L894.544 294.924C895.076 294.084 895.93 293.524 897.4 293.524C899.374 293.524 900.424 294.462 900.424 296.128V299.572H901.152V301H900.158C899.388 301 898.912 300.496 898.8 299.74H898.716C898.478 300.678 897.68 301.168 896.588 301.168ZM897.19 299.866C897.988 299.866 898.632 299.502 898.632 298.816V297.85H897.484C896.546 297.85 896.084 298.172 896.084 298.746V298.984C896.084 299.572 896.49 299.866 897.19 299.866ZM903.658 292.628C902.916 292.628 902.608 292.25 902.608 291.732V291.452C902.608 290.934 902.916 290.556 903.658 290.556C904.386 290.556 904.708 290.934 904.708 291.452V291.732C904.708 292.25 904.386 292.628 903.658 292.628ZM902.762 301V293.692H904.554V301H902.762ZM908.583 301H906.791V293.692H908.583V294.91H908.653C908.947 294.126 909.563 293.524 910.697 293.524C912.195 293.524 913.035 294.56 913.035 296.38V301H911.243V296.562C911.243 295.526 910.893 294.994 910.039 294.994C909.297 294.994 908.583 295.386 908.583 296.17V301ZM918.135 301.168C915.979 301.168 914.691 299.67 914.691 297.332C914.691 295.022 915.937 293.524 918.079 293.524C920.361 293.524 921.411 295.204 921.411 297.206V297.794H916.553V297.976C916.553 299.026 917.155 299.74 918.331 299.74C919.213 299.74 919.745 299.32 920.193 298.746L921.159 299.824C920.557 300.65 919.493 301.168 918.135 301.168ZM918.107 294.868C917.169 294.868 916.553 295.568 916.553 296.576V296.688H919.549V296.562C919.549 295.554 919.031 294.868 918.107 294.868ZM924.94 301H923.148V293.692H924.94V295.204H925.01C925.192 294.434 925.78 293.692 926.942 293.692H927.334V295.386H926.774C925.57 295.386 924.94 295.722 924.94 296.52V301ZM934.233 297.234V301H932.385V291.228H936.795C938.573 291.228 939.679 292.404 939.679 294.252C939.679 295.596 939.063 296.618 937.859 297.024L939.861 301H937.803L935.983 297.234H934.233ZM934.233 295.68H936.613C937.327 295.68 937.761 295.288 937.761 294.574V293.93C937.761 293.216 937.327 292.838 936.613 292.838H934.233V295.68ZM944.479 301.168C942.323 301.168 941.035 299.67 941.035 297.332C941.035 295.022 942.281 293.524 944.423 293.524C946.705 293.524 947.755 295.204 947.755 297.206V297.794H942.897V297.976C942.897 299.026 943.499 299.74 944.675 299.74C945.557 299.74 946.089 299.32 946.537 298.746L947.503 299.824C946.901 300.65 945.837 301.168 944.479 301.168ZM944.451 294.868C943.513 294.868 942.897 295.568 942.897 296.576V296.688H945.893V296.562C945.893 295.554 945.375 294.868 944.451 294.868ZM956.085 301.616C956.085 303.142 955.049 303.968 952.249 303.968C949.785 303.968 948.847 303.324 948.847 302.246C948.847 301.434 949.337 300.972 950.149 300.846V300.692C949.547 300.538 949.211 300.062 949.211 299.474C949.211 298.718 949.855 298.34 950.555 298.186V298.13C949.673 297.724 949.225 296.968 949.225 296.002C949.225 294.518 950.275 293.524 952.249 293.524C952.697 293.524 953.159 293.58 953.523 293.706V293.468C953.523 292.754 953.887 292.404 954.559 292.404H955.693V293.776H954.139V293.972C954.895 294.392 955.273 295.106 955.273 296.002C955.273 297.472 954.237 298.452 952.249 298.452C951.829 298.452 951.451 298.41 951.129 298.326C950.849 298.452 950.611 298.662 950.611 298.984C950.611 299.348 950.919 299.53 951.563 299.53H953.523C955.315 299.53 956.085 300.3 956.085 301.616ZM954.405 301.826C954.405 301.364 954.069 301.084 953.159 301.084H950.667C950.401 301.28 950.289 301.546 950.289 301.84C950.289 302.4 950.709 302.736 951.829 302.736H952.725C953.887 302.736 954.405 302.442 954.405 301.826ZM952.249 297.234C953.103 297.234 953.565 296.842 953.565 296.114V295.876C953.565 295.134 953.103 294.756 952.249 294.756C951.395 294.756 950.933 295.134 950.933 295.876V296.114C950.933 296.842 951.395 297.234 952.249 297.234ZM958.176 292.628C957.434 292.628 957.126 292.25 957.126 291.732V291.452C957.126 290.934 957.434 290.556 958.176 290.556C958.904 290.556 959.226 290.934 959.226 291.452V291.732C959.226 292.25 958.904 292.628 958.176 292.628ZM957.28 301V293.692H959.072V301H957.28ZM963.703 301.168C962.317 301.168 961.407 300.664 960.679 299.824L961.771 298.76C962.303 299.376 962.947 299.754 963.773 299.754C964.627 299.754 964.991 299.432 964.991 298.914C964.991 298.494 964.739 298.228 964.095 298.144L963.367 298.046C961.799 297.85 960.931 297.164 960.931 295.834C960.931 294.42 962.037 293.524 963.703 293.524C965.131 293.524 965.859 293.944 966.559 294.672L965.509 295.722C965.089 295.274 964.473 294.938 963.759 294.938C962.989 294.938 962.653 295.246 962.653 295.694C962.653 296.184 962.919 296.408 963.605 296.52L964.347 296.618C965.943 296.842 966.713 297.556 966.713 298.774C966.713 300.188 965.523 301.168 963.703 301.168ZM970.628 301C969.396 301 968.738 300.328 968.738 299.138V295.12H967.66V293.692H968.22C968.752 293.692 968.92 293.44 968.92 292.936V291.69H970.53V293.692H972.028V295.12H970.53V299.572H971.916V301H970.628ZM975.535 301H973.743V293.692H975.535V295.204H975.605C975.787 294.434 976.375 293.692 977.537 293.692H977.929V295.386H977.369C976.165 295.386 975.535 295.722 975.535 296.52V301ZM982.714 297.556L983.988 293.692H985.668L982.728 302.302C982.364 303.352 981.846 303.8 980.642 303.8H979.564V302.372H980.88L981.216 301.35L978.598 293.692H980.376L981.65 297.556L982.126 299.404H982.21L982.714 297.556Z" fill="black"/>
<rect width="48" height="48" transform="translate(768 272)" fill="#0F62FE"/>
<rect width="24" height="24" transform="translate(780 284)" fill="white" fill-opacity="0.01" style="mix-blend-mode:multiply"/>
<path d="M792.75 293.75V288.5H786V300.5H798V293.75H792.75ZM787.5 290H791.25V293.75H787.5V290ZM787.5 295.25H791.25V299H787.5V295.25ZM796.5 299H792.75V295.25H796.5V299Z" fill="white"/>
<path d="M801 292.25H794.25V285.5H801V292.25ZM795.75 290.75H799.5V287H795.75V290.75Z" fill="white"/>
<path d="M801 299H799.5V300.5H801V305H783V300.5H784.5V299H783C782.602 299 782.221 299.159 781.94 299.44C781.659 299.721 781.5 300.102 781.5 300.5V305C781.5 305.398 781.659 305.779 781.94 306.06C782.221 306.341 782.602 306.5 783 306.5H801C801.398 306.5 801.779 306.341 802.06 306.06C802.341 305.779 802.5 305.398 802.5 305V300.5C802.5 300.102 802.341 299.721 802.06 299.44C801.779 299.159 801.398 299 801 299Z" fill="white"/>
<path d="M785.25 303.5C785.664 303.5 786 303.164 786 302.75C786 302.336 785.664 302 785.25 302C784.836 302 784.5 302.336 784.5 302.75C784.5 303.164 784.836 303.5 785.25 303.5Z" fill="white"/>
<rect x="768.5" y="456.5" width="247" height="47" stroke="#0F62FE"/>
<rect x="769" y="457" width="246" height="46" fill="white"/>
<rect x="769" y="457" width="246" height="46" fill="#EDF5FF"/>
<g clip-path="url(#clip7_16_459)">
<path d="M837.483 485H833.045V483.516H834.333V476.712H833.045V475.228H837.483V476.712H836.181V483.516H837.483V485ZM839.531 485V475.228H844.053C845.663 475.228 846.643 476.222 846.643 477.734C846.643 479.218 845.789 479.778 844.893 479.834V479.918C845.747 479.932 847.007 480.534 847.007 482.2C847.007 483.768 845.929 485 844.487 485H839.531ZM841.379 480.814V483.432H843.955C844.655 483.432 845.075 483.054 845.075 482.368V481.892C845.075 481.206 844.655 480.814 843.955 480.814H841.379ZM841.379 476.796V479.302H843.661C844.333 479.302 844.725 478.91 844.725 478.266V477.832C844.725 477.174 844.333 476.796 843.661 476.796H841.379ZM848.974 485V475.228H851.06L853.566 480.002H853.622L856.1 475.228H858.102V485H856.352V477.986H856.296L855.54 479.54L853.538 483.236L851.536 479.54L850.78 477.986H850.724V485H848.974ZM867.826 485.168C865.25 485.168 863.612 483.474 863.612 480.184C863.612 476.894 865.25 475.06 867.826 475.06C869.576 475.06 870.71 475.802 871.396 477.314L869.814 478.154C869.534 477.286 868.918 476.698 867.826 476.698C866.454 476.698 865.572 477.692 865.572 479.358V480.898C865.572 482.578 866.454 483.53 867.826 483.53C868.932 483.53 869.618 482.858 869.94 481.976L871.438 482.858C870.738 484.314 869.576 485.168 867.826 485.168ZM875.82 485H874.854C873.636 485 873.062 484.356 873.062 483.236V474.64H874.854V483.572H875.82V485ZM880.236 485.168C878.15 485.168 876.848 483.684 876.848 481.332C876.848 478.994 878.15 477.524 880.236 477.524C882.336 477.524 883.638 478.994 883.638 481.332C883.638 483.684 882.336 485.168 880.236 485.168ZM880.236 483.726C881.174 483.726 881.762 483.124 881.762 482.018V480.66C881.762 479.568 881.174 478.966 880.236 478.966C879.312 478.966 878.724 479.568 878.724 480.66V482.018C878.724 483.124 879.312 483.726 880.236 483.726ZM889.754 485V483.782H889.684C889.432 484.51 888.844 485.168 887.64 485.168C886.142 485.168 885.302 484.132 885.302 482.312V477.692H887.094V482.13C887.094 483.138 887.472 483.684 888.326 483.684C889.04 483.684 889.754 483.306 889.754 482.522V477.692H891.546V485H889.754ZM898.313 485V483.782H898.243C897.977 484.608 897.193 485.168 896.227 485.168C894.393 485.168 893.371 483.782 893.371 481.332C893.371 478.896 894.393 477.524 896.227 477.524C897.193 477.524 897.991 478.056 898.243 478.896H898.313V474.64H900.105V485H898.313ZM896.801 483.684C897.655 483.684 898.313 483.25 898.313 482.494V480.17C898.313 479.456 897.655 478.994 896.801 478.994C895.877 478.994 895.247 479.68 895.247 480.716V481.976C895.247 483.012 895.877 483.684 896.801 483.684ZM909.748 485.168C907.186 485.168 905.492 483.418 905.492 480.114C905.492 476.81 907.186 475.06 909.748 475.06C912.324 475.06 914.004 476.81 914.004 480.114C914.004 483.418 912.324 485.168 909.748 485.168ZM909.748 483.53C911.148 483.53 912.044 482.536 912.044 480.87V479.358C912.044 477.692 911.148 476.698 909.748 476.698C908.348 476.698 907.452 477.692 907.452 479.358V480.87C907.452 482.536 908.348 483.53 909.748 483.53ZM915.927 485V474.64H917.719V478.896H917.775C918.041 478.056 918.825 477.524 919.791 477.524C921.639 477.524 922.661 478.896 922.661 481.332C922.661 483.782 921.639 485.168 919.791 485.168C918.825 485.168 918.055 484.608 917.775 483.782H917.719V485H915.927ZM919.217 483.684C920.141 483.684 920.785 483.012 920.785 481.976V480.716C920.785 479.68 920.141 478.994 919.217 478.994C918.363 478.994 917.719 479.456 917.719 480.17V482.494C917.719 483.25 918.363 483.684 919.217 483.684ZM924.481 486.372V477.692H926.273V485.882C926.273 487.1 925.685 487.8 924.341 487.8H923.361V486.372H924.481ZM925.377 476.628C924.635 476.628 924.327 476.25 924.327 475.732V475.452C924.327 474.934 924.635 474.556 925.377 474.556C926.105 474.556 926.427 474.934 926.427 475.452V475.732C926.427 476.25 926.105 476.628 925.377 476.628ZM931.464 485.168C929.308 485.168 928.02 483.67 928.02 481.332C928.02 479.022 929.266 477.524 931.408 477.524C933.69 477.524 934.74 479.204 934.74 481.206V481.794H929.882V481.976C929.882 483.026 930.484 483.74 931.66 483.74C932.542 483.74 933.074 483.32 933.522 482.746L934.488 483.824C933.886 484.65 932.822 485.168 931.464 485.168ZM931.436 478.868C930.498 478.868 929.882 479.568 929.882 480.576V480.688H932.878V480.562C932.878 479.554 932.36 478.868 931.436 478.868ZM939.361 485.168C937.205 485.168 935.987 483.684 935.987 481.332C935.987 478.994 937.205 477.524 939.361 477.524C940.831 477.524 941.797 478.224 942.231 479.372L940.761 480.03C940.593 479.414 940.131 478.966 939.361 478.966C938.367 478.966 937.863 479.666 937.863 480.688V482.018C937.863 483.04 938.367 483.726 939.361 483.726C940.215 483.726 940.635 483.236 940.901 482.578L942.273 483.236C941.797 484.524 940.775 485.168 939.361 485.168ZM946.097 485C944.865 485 944.207 484.328 944.207 483.138V479.12H943.129V477.692H943.689C944.221 477.692 944.389 477.44 944.389 476.936V475.69H945.999V477.692H947.497V479.12H945.999V483.572H947.385V485H946.097ZM955.83 485.168C954.164 485.168 953.016 484.51 952.19 483.544L953.436 482.34C954.108 483.124 954.934 483.544 955.942 483.544C957.076 483.544 957.664 482.998 957.664 482.172C957.664 481.514 957.356 481.108 956.334 480.926L955.41 480.786C953.436 480.478 952.484 479.54 952.484 477.944C952.484 476.194 953.842 475.06 956.026 475.06C957.496 475.06 958.588 475.564 959.372 476.502L958.112 477.692C957.636 477.09 956.964 476.684 955.928 476.684C954.878 476.684 954.332 477.104 954.332 477.832C954.332 478.574 954.752 478.882 955.69 479.05L956.6 479.218C958.574 479.568 959.498 480.45 959.498 482.06C959.498 483.908 958.168 485.168 955.83 485.168ZM963.626 485C962.394 485 961.736 484.328 961.736 483.138V479.12H960.658V477.692H961.218C961.75 477.692 961.918 477.44 961.918 476.936V475.69H963.528V477.692H965.026V479.12H963.528V483.572H964.914V485H963.626ZM969.583 485.168C967.497 485.168 966.195 483.684 966.195 481.332C966.195 478.994 967.497 477.524 969.583 477.524C971.683 477.524 972.985 478.994 972.985 481.332C972.985 483.684 971.683 485.168 969.583 485.168ZM969.583 483.726C970.521 483.726 971.109 483.124 971.109 482.018V480.66C971.109 479.568 970.521 478.966 969.583 478.966C968.659 478.966 968.071 479.568 968.071 480.66V482.018C968.071 483.124 968.659 483.726 969.583 483.726ZM976.526 485H974.734V477.692H976.526V479.204H976.596C976.778 478.434 977.366 477.692 978.528 477.692H978.92V479.386H978.36C977.156 479.386 976.526 479.722 976.526 480.52V485ZM982.046 485.168C980.562 485.168 979.722 484.314 979.722 483.012C979.722 481.514 980.856 480.772 982.844 480.772H984.09V480.24C984.09 479.428 983.684 478.952 982.732 478.952C981.892 478.952 981.416 479.372 981.066 479.876L980.002 478.924C980.534 478.084 981.388 477.524 982.858 477.524C984.832 477.524 985.882 478.462 985.882 480.128V483.572H986.61V485H985.616C984.846 485 984.37 484.496 984.258 483.74H984.174C983.936 484.678 983.138 485.168 982.046 485.168ZM982.648 483.866C983.446 483.866 984.09 483.502 984.09 482.816V481.85H982.942C982.004 481.85 981.542 482.172 981.542 482.746V482.984C981.542 483.572 981.948 483.866 982.648 483.866ZM994.814 485.616C994.814 487.142 993.778 487.968 990.978 487.968C988.514 487.968 987.576 487.324 987.576 486.246C987.576 485.434 988.066 484.972 988.878 484.846V484.692C988.276 484.538 987.94 484.062 987.94 483.474C987.94 482.718 988.584 482.34 989.284 482.186V482.13C988.402 481.724 987.954 480.968 987.954 480.002C987.954 478.518 989.004 477.524 990.978 477.524C991.426 477.524 991.888 477.58 992.252 477.706V477.468C992.252 476.754 992.616 476.404 993.288 476.404H994.422V477.776H992.868V477.972C993.624 478.392 994.002 479.106 994.002 480.002C994.002 481.472 992.966 482.452 990.978 482.452C990.558 482.452 990.18 482.41 989.858 482.326C989.578 482.452 989.34 482.662 989.34 482.984C989.34 483.348 989.648 483.53 990.292 483.53H992.252C994.044 483.53 994.814 484.3 994.814 485.616ZM993.134 485.826C993.134 485.364 992.798 485.084 991.888 485.084H989.396C989.13 485.28 989.018 485.546 989.018 485.84C989.018 486.4 989.438 486.736 990.558 486.736H991.454C992.616 486.736 993.134 486.442 993.134 485.826ZM990.978 481.234C991.832 481.234 992.294 480.842 992.294 480.114V479.876C992.294 479.134 991.832 478.756 990.978 478.756C990.124 478.756 989.662 479.134 989.662 479.876V480.114C989.662 480.842 990.124 481.234 990.978 481.234ZM998.881 485.168C996.725 485.168 995.437 483.67 995.437 481.332C995.437 479.022 996.683 477.524 998.825 477.524C1001.11 477.524 1002.16 479.204 1002.16 481.206V481.794H997.299V481.976C997.299 483.026 997.901 483.74 999.077 483.74C999.959 483.74 1000.49 483.32 1000.94 482.746L1001.9 483.824C1001.3 484.65 1000.24 485.168 998.881 485.168ZM998.853 478.868C997.915 478.868 997.299 479.568 997.299 480.576V480.688H1000.29V480.562C1000.29 479.554 999.777 478.868 998.853 478.868Z" fill="black"/>
<rect width="48" height="48" transform="translate(768 456)" fill="#0F62FE"/>
<rect width="24" height="24" transform="translate(780 468)" fill="white" fill-opacity="0.01" style="mix-blend-mode:multiply"/>
<path d="M801 483H799.5V484.5H801V489H783V484.5H790.5V483H783C782.602 483 782.221 483.159 781.94 483.44C781.659 483.721 781.5 484.102 781.5 484.5V489C781.5 489.398 781.659 489.779 781.94 490.06C782.221 490.341 782.602 490.5 783 490.5H801C801.398 490.5 801.779 490.341 802.06 490.06C802.341 489.779 802.5 489.398 802.5 489V484.5C802.5 484.102 802.341 483.721 802.06 483.44C801.779 483.159 801.398 483 801 483Z" fill="white"/>
<path d="M785.25 487.5C785.664 487.5 786 487.164 786 486.75C786 486.336 785.664 486 785.25 486C784.836 486 784.5 486.336 784.5 486.75C784.5 487.164 784.836 487.5 785.25 487.5Z" fill="white"/>
<path d="M802.5 474H796.5V478.5H792V484.5H798V480H802.5V474ZM796.5 483H793.5V480H796.5V483ZM801 478.5H798V475.5H801V478.5Z" fill="white"/>
<path d="M793.5 475.5H787.5V469.5H793.5V475.5ZM789 474H792V471H789V474Z" fill="white"/>
</g>
<path d="M766 480H704.43V298.241V112H766M614 295.751H766" stroke="black"/>
<rect width="8" height="8" transform="matrix(-1 0 0 -1 621 300)" fill="white" fill-opacity="0.01" style="mix-blend-mode:multiply"/>
<path d="M621 300L613 296L621 292V300Z" fill="black"/>
<rect width="104" height="8" transform="matrix(0 -1 1 0 132 267)" fill="white" fill-opacity="0.01" style="mix-blend-mode:multiply"/>
<g clip-path="url(#clip8_16_459)">
<rect width="90" height="0" transform="matrix(0 -1 1 0 136 260)" fill="white" fill-opacity="0.01" style="mix-blend-mode:multiply"/>
<path d="M136 260V170" stroke="black"/>
</g>
<rect width="8" height="8" transform="matrix(0 -1 1 0 132 171)" fill="white" fill-opacity="0.01" style="mix-blend-mode:multiply"/>
<path d="M132 171L136 163L140 171H132Z" fill="black"/>
<rect width="8" height="8" transform="matrix(0 1 1 0 132 259)" fill="white" fill-opacity="0.01" style="mix-blend-mode:multiply"/>
<path d="M132 259L136 267L140 259H132Z" fill="black"/>
<rect width="80" height="8" transform="matrix(0 -1 1 0 494 193)" fill="white" fill-opacity="0.01" style="mix-blend-mode:multiply"/>
<g clip-path="url(#clip9_16_459)">
<rect width="73" height="0" transform="matrix(0 -1 1 0 498 186)" fill="white" fill-opacity="0.01" style="mix-blend-mode:multiply"/>
<path d="M498 186V113" stroke="black"/>
</g>
<rect width="8" height="8" transform="matrix(0 1 1 0 494 185)" fill="white" fill-opacity="0.01" style="mix-blend-mode:multiply"/>
<path d="M494 185L498 193L502 185H494Z" fill="black"/>
<rect width="247" height="43" transform="translate(170 68)" fill="white" fill-opacity="0.01" style="mix-blend-mode:multiply"/>
<rect width="233" height="0" transform="translate(177 89.5)" fill="white" fill-opacity="0.01" style="mix-blend-mode:multiply"/>
<path d="M177 89.5H410" stroke="black"/>
<rect width="8" height="8" transform="translate(409 85.5)" fill="white" fill-opacity="0.01" style="mix-blend-mode:multiply"/>
<path d="M409 85.5L417 89.5L409 93.5V85.5Z" fill="black"/>
<rect width="8" height="8" transform="matrix(-1 0 0 1 178 85.5)" fill="white" fill-opacity="0.01" style="mix-blend-mode:multiply"/>
<path d="M178 85.5L170 89.5L178 93.5V85.5Z" fill="black"/>
<rect width="216" height="43" transform="translate(164 275)" fill="white" fill-opacity="0.01" style="mix-blend-mode:multiply"/>
<rect width="202" height="0" transform="translate(171 296.5)" fill="white" fill-opacity="0.01" style="mix-blend-mode:multiply"/>
<path d="M171 296.5H373" stroke="black"/>
<rect width="8" height="8" transform="translate(372 292.5)" fill="white" fill-opacity="0.01" style="mix-blend-mode:multiply"/>
<path d="M372 292.5L380 296.5L372 300.5V292.5Z" fill="black"/>
<rect width="8" height="8" transform="matrix(-1 0 0 1 172 292.5)" fill="white" fill-opacity="0.01" style="mix-blend-mode:multiply"/>
<path d="M172 292.5L164 296.5L172 300.5V292.5Z" fill="black"/>
<g clip-path="url(#clip10_16_459)">
<path d="M896.719 253.75C896.719 254.423 896.173 254.969 895.5 254.969C894.827 254.969 894.281 254.423 894.281 253.75C894.281 253.077 894.827 252.531 895.5 252.531C896.173 252.531 896.719 253.077 896.719 253.75ZM921.198 246.048H921.547C923.733 246.048 925.777 244.879 926.879 243.001C926.986 242.819 926.986 242.591 926.879 242.409C925.883 240.713 924.175 239.617 922.236 239.406C922.056 237.416 920.887 235.618 919.097 234.63C918.923 234.531 918.708 234.531 918.53 234.63C916.58 235.711 915.367 237.749 915.367 239.949C915.367 241.197 915.759 242.409 916.471 243.423H912.335V237.5C912.335 237.177 912.073 236.915 911.75 236.915H905.835V224.5C905.835 224.177 905.573 223.915 905.25 223.915H898.75C898.427 223.915 898.165 224.177 898.165 224.5V230.415H892.25C891.927 230.415 891.665 230.677 891.665 231V236.915H885.75C885.427 236.915 885.165 237.177 885.165 237.5V243.418H877.625C877.469 243.418 877.321 243.48 877.212 243.589C877.102 243.698 877.042 243.847 877.042 244.002V245.461C877.042 250.053 878.907 254.226 881.935 257.286C881.988 257.38 882.066 257.457 882.16 257.51C885.295 260.569 889.613 262.46 894.374 262.46C908.734 262.46 920.072 252.851 921.198 246.048ZM892.326 256.426C892.635 256.334 892.812 256.009 892.721 255.7C892.63 255.391 892.305 255.211 891.993 255.307C889.678 255.994 886.307 256.396 882.715 256.415C879.926 253.57 878.21 249.709 878.21 245.463V244.587L917.763 244.592C918.003 244.592 918.221 244.444 918.308 244.218C918.396 243.992 918.336 243.737 918.156 243.574C917.127 242.642 916.539 241.32 916.539 239.949C916.539 238.282 917.402 236.73 918.814 235.821C920.226 236.728 921.089 238.28 921.089 239.949V239.955C921.089 240.274 921.342 240.532 921.662 240.54C923.296 240.576 924.774 241.381 925.683 242.707C924.757 244.055 923.203 244.879 921.547 244.879H920.684C920.38 244.879 920.127 245.112 920.102 245.414C919.555 251.66 908.261 261.292 894.372 261.292C890.411 261.292 886.779 259.889 883.966 257.564C887.195 257.466 890.181 257.063 892.326 256.426ZM905.835 238.085H911.163V243.415H905.835V238.085ZM899.335 238.085H904.665V243.415H899.335V238.085ZM892.835 238.085H898.165V243.415H892.835V238.085ZM886.335 238.085H891.665V243.415H886.335V238.085ZM899.335 231.585H904.665V236.915H899.335V231.585ZM892.835 231.585H898.165V236.915H892.835V231.585ZM899.335 225.085H904.665V230.415H899.335V225.085Z" fill="black"/>
</g>
<g clip-path="url(#clip11_16_459)">
<path d="M903 449.96C902.904 449.96 902.81 449.936 902.722 449.89L881.597 438.515C881.409 438.413 881.29 438.216 881.29 438V412C881.29 411.786 881.409 411.587 881.597 411.485L902.722 400.11C902.896 400.016 903.102 400.016 903.278 400.11L924.403 411.485C924.591 411.587 924.71 411.786 924.71 412V438C924.71 438.216 924.591 438.413 924.403 438.515L903.278 449.89C903.19 449.937 903.096 449.96 903 449.96ZM903.585 427.605V448.397L910.54 444.651V431.349L903.585 427.605ZM895.46 444.651L902.415 448.397V427.605L895.46 431.351V444.651ZM911.71 431.979V444.021L922.89 438L911.71 431.979ZM883.108 438L894.29 444.021V431.979L883.108 438ZM911.71 430.652L923.538 437.022V412.349L903 401.29L882.46 412.349V437.022L894.29 430.652V420.632C893.354 420.375 892.665 419.517 892.665 418.5C892.665 417.281 893.656 416.29 894.875 416.29C896.094 416.29 897.085 417.281 897.085 418.5C897.085 419.516 896.396 420.374 895.46 420.632V430.021L902.415 426.276V415.755C901.479 415.499 900.79 414.641 900.79 413.623C900.79 412.405 901.781 411.413 903 411.413C904.219 411.413 905.21 412.406 905.21 413.625C905.21 414.641 904.519 415.499 903.585 415.757V426.277L910.54 430.023V420.634C909.606 420.377 908.915 419.519 908.915 418.502C908.915 417.283 909.906 416.292 911.125 416.292C912.344 416.292 913.335 417.283 913.335 418.502C913.335 419.517 912.644 420.375 911.71 420.634V430.652ZM911.125 417.46C910.551 417.46 910.085 417.926 910.085 418.5C910.085 419.074 910.551 419.54 911.125 419.54C911.699 419.54 912.165 419.074 912.165 418.5C912.165 417.926 911.699 417.46 911.125 417.46ZM894.875 417.46C894.301 417.46 893.835 417.926 893.835 418.5C893.835 419.074 894.301 419.54 894.875 419.54C895.449 419.54 895.915 419.074 895.915 418.5C895.915 417.926 895.449 417.46 894.875 417.46ZM903 412.585C902.426 412.585 901.96 413.051 901.96 413.625C901.96 414.199 902.426 414.665 903 414.665C903.574 414.665 904.04 414.199 904.04 413.625C904.04 413.051 903.574 412.585 903 412.585Z" fill="black"/>
</g>
<g clip-path="url(#clip12_16_459)">
<path fill-rule="evenodd" clip-rule="evenodd" d="M902 38.2499C896.599 38.2506 891.374 40.1729 887.261 43.6728C883.147 47.1728 880.413 52.0221 879.547 57.3533C878.682 62.6845 879.741 68.1498 882.535 72.7716C885.33 77.3934 889.678 80.8701 894.801 82.5799C895.939 82.7911 896.426 82.0924 896.426 81.4911C896.426 80.8899 896.426 79.5249 896.426 77.6236C890.105 78.9886 888.773 74.5686 888.773 74.5686C888.328 73.1757 887.392 71.9918 886.14 71.2374C884.076 69.8399 886.303 69.8561 886.303 69.8561C887.023 69.958 887.711 70.2232 888.314 70.6316C888.917 71.0399 889.418 71.5806 889.78 72.2124C890.409 73.3413 891.461 74.1741 892.705 74.5276C893.948 74.8811 895.281 74.7263 896.41 74.0974C896.502 72.9444 897.01 71.8642 897.84 71.0586C892.803 70.4736 887.489 68.5236 887.489 59.8136C887.452 57.5515 888.29 55.3625 889.829 53.7036C889.132 51.7442 889.214 49.5923 890.056 47.6911C890.056 47.6911 891.958 47.0736 896.313 50.0149C900.036 48.9992 903.964 48.9992 907.688 50.0149C912.026 47.0736 913.928 47.6911 913.928 47.6911C914.77 49.5923 914.851 51.7442 914.155 53.7036C915.694 55.3625 916.532 57.5515 916.495 59.8136C916.495 68.5561 911.181 70.4736 906.111 71.0424C906.654 71.5929 907.073 72.2534 907.34 72.9794C907.606 73.7054 907.713 74.48 907.655 75.2511C907.655 78.2899 907.655 80.7436 907.655 81.4911C907.655 82.2386 908.061 82.8074 909.28 82.5799C914.41 80.868 918.762 77.3846 921.557 72.7543C924.351 68.124 925.404 62.6497 924.528 57.3131C923.652 51.9765 920.903 47.1266 916.774 43.6331C912.646 40.1397 907.408 38.2312 902 38.2499Z" fill="black"/>
</g>
<defs>
<clipPath id="clip0_16_459">
<rect width="160" height="48" fill="white" transform="translate(418 64)"/>
</clipPath>
<clipPath id="clip1_16_459">
<rect width="24" height="24" fill="white" transform="translate(434 76)"/>
</clipPath>
<clipPath id="clip2_16_459">
<rect width="312" height="48" fill="white" transform="translate(344 192)"/>
</clipPath>
<clipPath id="clip3_16_459">
<rect x="518" y="406" width="30" height="30" rx="15" fill="white"/>
</clipPath>
<clipPath id="clip4_16_459">
<rect width="30" height="30" rx="15" transform="matrix(1 0 0 -1 518 436)" fill="white"/>
</clipPath>
<clipPath id="clip5_16_459">
<rect width="227" height="48" fill="white" transform="translate(384 272)"/>
</clipPath>
<clipPath id="clip6_16_459">
<rect width="24" height="24" fill="white" transform="translate(396 284)"/>
</clipPath>
<clipPath id="clip7_16_459">
<rect width="248" height="48" fill="white" transform="translate(768 456)"/>
</clipPath>
<clipPath id="clip8_16_459">
<rect width="90" height="8" fill="white" transform="matrix(0 -1 1 0 132 260)"/>
</clipPath>
<clipPath id="clip9_16_459">
<rect width="73" height="8" fill="white" transform="matrix(0 -1 1 0 494 186)"/>
</clipPath>
<clipPath id="clip10_16_459">
<rect width="52" height="52" fill="white" transform="translate(876 218)"/>
</clipPath>
<clipPath id="clip11_16_459">
<rect width="52" height="52" fill="white" transform="translate(877 399)"/>
</clipPath>
<clipPath id="clip12_16_459">
<rect width="52" height="52" fill="white" transform="translate(876 35)"/>
</clipPath>
</defs>
</svg>
