<svg width="1080" height="576" viewBox="0 0 1080 576" fill="none" xmlns="http://www.w3.org/2000/svg">
<rect width="1080" height="576" fill="white"/>
<rect x="406.5" y="80.5" width="159" height="47" fill="white"/>
<rect x="406.5" y="80.5" width="159" height="47" stroke="#0F62FE"/>
<rect x="407" y="81" width="158" height="46" fill="white"/>
<g clip-path="url(#clip0_19_9851)">
<path d="M467.18 109H462.742V107.516H464.03V100.712H462.742V99.228H467.18V100.712H465.878V107.516H467.18V109ZM469.228 109V99.228H473.75C475.36 99.228 476.34 100.222 476.34 101.734C476.34 103.218 475.486 103.778 474.59 103.834V103.918C475.444 103.932 476.704 104.534 476.704 106.2C476.704 107.768 475.626 109 474.184 109H469.228ZM471.076 104.814V107.432H473.652C474.352 107.432 474.772 107.054 474.772 106.368V105.892C474.772 105.206 474.352 104.814 473.652 104.814H471.076ZM471.076 100.796V103.302H473.358C474.03 103.302 474.422 102.91 474.422 102.266V101.832C474.422 101.174 474.03 100.796 473.358 100.796H471.076ZM478.671 109V99.228H480.757L483.263 104.002H483.319L485.797 99.228H487.799V109H486.049V101.986H485.993L485.237 103.54L483.235 107.236L481.233 103.54L480.477 101.986H480.421V109H478.671ZM497.523 109.168C494.947 109.168 493.309 107.474 493.309 104.184C493.309 100.894 494.947 99.06 497.523 99.06C499.273 99.06 500.407 99.802 501.093 101.314L499.511 102.154C499.231 101.286 498.615 100.698 497.523 100.698C496.151 100.698 495.269 101.692 495.269 103.358V104.898C495.269 106.578 496.151 107.53 497.523 107.53C498.629 107.53 499.315 106.858 499.637 105.976L501.135 106.858C500.435 108.314 499.273 109.168 497.523 109.168ZM505.518 109H504.552C503.334 109 502.76 108.356 502.76 107.236V98.64H504.552V107.572H505.518V109ZM509.933 109.168C507.847 109.168 506.545 107.684 506.545 105.332C506.545 102.994 507.847 101.524 509.933 101.524C512.033 101.524 513.335 102.994 513.335 105.332C513.335 107.684 512.033 109.168 509.933 109.168ZM509.933 107.726C510.871 107.726 511.459 107.124 511.459 106.018V104.66C511.459 103.568 510.871 102.966 509.933 102.966C509.009 102.966 508.421 103.568 508.421 104.66V106.018C508.421 107.124 509.009 107.726 509.933 107.726ZM519.452 109V107.782H519.382C519.13 108.51 518.542 109.168 517.338 109.168C515.84 109.168 515 108.132 515 106.312V101.692H516.792V106.13C516.792 107.138 517.17 107.684 518.024 107.684C518.738 107.684 519.452 107.306 519.452 106.522V101.692H521.244V109H519.452ZM528.01 109V107.782H527.94C527.674 108.608 526.89 109.168 525.924 109.168C524.09 109.168 523.068 107.782 523.068 105.332C523.068 102.896 524.09 101.524 525.924 101.524C526.89 101.524 527.688 102.056 527.94 102.896H528.01V98.64H529.802V109H528.01ZM526.498 107.684C527.352 107.684 528.01 107.25 528.01 106.494V104.17C528.01 103.456 527.352 102.994 526.498 102.994C525.574 102.994 524.944 103.68 524.944 104.716V105.976C524.944 107.012 525.574 107.684 526.498 107.684Z" fill="black"/>
<g clip-path="url(#clip1_19_9851)">
<rect width="24" height="24" transform="translate(422 92)" fill="white" fill-opacity="0.01" style="mix-blend-mode:multiply"/>
<path d="M440.435 102.237C439.69 100.841 438.511 99.7241 437.075 99.0561C435.64 98.3881 434.026 98.2049 432.478 98.5341C430.929 98.8632 429.53 99.687 428.49 100.881C427.45 102.075 426.827 103.575 426.715 105.154C425.427 105.292 424.241 105.919 423.401 106.905C422.562 107.892 422.132 109.162 422.2 110.456C422.269 111.749 422.831 112.967 423.77 113.859C424.709 114.751 425.955 115.248 427.25 115.25H439.25C440.887 115.251 442.466 114.639 443.676 113.536C444.885 112.432 445.638 110.916 445.787 109.285C445.935 107.654 445.469 106.027 444.478 104.723C443.488 103.419 442.046 102.532 440.435 102.237ZM439.25 114.125H427.25C426.252 114.127 425.291 113.75 424.561 113.069C423.832 112.388 423.389 111.455 423.322 110.46C423.255 109.464 423.57 108.48 424.202 107.708C424.834 106.936 425.736 106.434 426.726 106.303C426.805 107.295 427.087 108.261 427.553 109.141C427.587 109.208 427.634 109.267 427.691 109.316C427.748 109.365 427.815 109.401 427.886 109.424C427.958 109.447 428.033 109.455 428.108 109.448C428.183 109.441 428.255 109.419 428.322 109.383C428.388 109.348 428.446 109.299 428.493 109.241C428.54 109.183 428.575 109.115 428.596 109.043C428.617 108.971 428.623 108.895 428.614 108.821C428.605 108.746 428.581 108.674 428.544 108.609C427.801 107.219 427.616 105.598 428.027 104.076C428.438 102.555 429.415 101.247 430.757 100.421C432.1 99.5949 433.707 99.3122 435.25 99.6307C436.794 99.9492 438.158 100.845 439.064 102.135C438.165 102.16 437.281 102.369 436.466 102.749C435.651 103.13 434.924 103.674 434.328 104.347C434.277 104.402 434.238 104.467 434.212 104.538C434.187 104.608 434.176 104.683 434.18 104.758C434.184 104.832 434.202 104.906 434.235 104.973C434.267 105.04 434.313 105.101 434.369 105.15C434.425 105.2 434.491 105.238 434.562 105.262C434.633 105.285 434.708 105.295 434.783 105.29C434.857 105.284 434.93 105.264 434.997 105.23C435.064 105.196 435.123 105.149 435.171 105.092C435.772 104.41 436.534 103.89 437.388 103.579C438.242 103.267 439.16 103.175 440.058 103.31C440.957 103.445 441.807 103.804 442.532 104.352C443.256 104.9 443.832 105.622 444.206 106.45C444.58 107.278 444.74 108.187 444.672 109.093C444.605 109.999 444.311 110.873 443.818 111.637C443.325 112.4 442.649 113.028 441.851 113.463C441.053 113.897 440.159 114.125 439.25 114.125Z" fill="black"/>
<path d="M445.924 99.691C445.886 99.6263 445.837 99.5695 445.777 99.524C445.718 99.4785 445.65 99.4451 445.578 99.4258C445.506 99.4064 445.431 99.4015 445.357 99.4113C445.283 99.4211 445.211 99.4454 445.146 99.4828L442.881 100.791C442.815 100.827 442.756 100.876 442.709 100.936C442.662 100.995 442.627 101.063 442.607 101.136C442.586 101.209 442.58 101.286 442.59 101.361C442.599 101.436 442.624 101.509 442.662 101.574C442.7 101.64 442.75 101.697 442.811 101.743C442.871 101.789 442.94 101.822 443.013 101.841C443.087 101.86 443.163 101.864 443.238 101.853C443.313 101.842 443.385 101.816 443.45 101.776L445.715 100.468C445.846 100.393 445.941 100.269 445.98 100.123C446.019 99.9771 445.999 99.8218 445.924 99.691Z" fill="black"/>
<path d="M439.007 97.9024C439.072 97.9398 439.143 97.9641 439.218 97.9739C439.292 97.9837 439.367 97.9787 439.439 97.9594C439.511 97.9401 439.579 97.9067 439.638 97.8612C439.698 97.8157 439.747 97.7589 439.785 97.6942L441.092 95.4292C441.167 95.2986 441.186 95.144 441.147 94.9991C441.107 94.8541 441.012 94.7307 440.882 94.6556C440.752 94.5805 440.598 94.5598 440.452 94.5981C440.307 94.6365 440.183 94.7306 440.107 94.8601L438.799 97.1251C438.724 97.2558 438.703 97.4111 438.742 97.5569C438.781 97.7026 438.877 97.8269 439.007 97.9024Z" fill="black"/>
<path d="M434 96.5607C434.151 96.5607 434.296 96.5007 434.402 96.394C434.509 96.2873 434.569 96.1425 434.569 95.9916V93.3759C434.57 93.3006 434.556 93.2259 434.528 93.1561C434.499 93.0863 434.458 93.0228 434.405 92.9693C434.352 92.9158 434.289 92.8733 434.219 92.8442C434.15 92.8152 434.075 92.8003 434 92.8003C433.925 92.8003 433.85 92.8152 433.781 92.8442C433.711 92.8733 433.648 92.9158 433.595 92.9693C433.542 93.0228 433.501 93.0863 433.472 93.1561C433.444 93.2259 433.43 93.3006 433.431 93.3759V95.9916C433.431 96.1425 433.491 96.2873 433.598 96.394C433.704 96.5007 433.849 96.5607 434 96.5607Z" fill="black"/>
<path d="M428.215 97.6941C428.292 97.8235 428.416 97.9177 428.561 97.956C428.706 97.9943 428.861 97.9737 428.991 97.8986C429.121 97.8235 429.216 97.7 429.255 97.5551C429.295 97.4102 429.275 97.2556 429.201 97.125L427.893 94.86C427.856 94.7946 427.806 94.7373 427.747 94.6913C427.688 94.6453 427.62 94.6114 427.548 94.5917C427.475 94.572 427.399 94.5669 427.325 94.5765C427.251 94.5862 427.179 94.6105 427.114 94.648C427.049 94.6856 426.992 94.7356 426.946 94.7953C426.901 94.855 426.867 94.923 426.848 94.9956C426.829 95.0682 426.824 95.1439 426.835 95.2183C426.845 95.2927 426.87 95.3643 426.908 95.4291L428.215 97.6941Z" fill="black"/>
<path d="M425.119 100.791L422.854 99.4828C422.789 99.4448 422.718 99.4199 422.643 99.4097C422.569 99.3995 422.493 99.4041 422.42 99.4232C422.348 99.4424 422.28 99.4757 422.22 99.5213C422.16 99.5669 422.11 99.6238 422.073 99.6889C422.035 99.7539 422.011 99.8257 422.001 99.9002C421.992 99.9746 421.997 100.05 422.017 100.123C422.036 100.195 422.07 100.263 422.116 100.322C422.162 100.382 422.219 100.431 422.285 100.468L424.55 101.776C424.615 101.814 424.686 101.839 424.761 101.849C424.835 101.859 424.911 101.855 424.983 101.836C425.056 101.817 425.124 101.783 425.184 101.738C425.243 101.692 425.293 101.635 425.331 101.57C425.369 101.505 425.393 101.433 425.403 101.359C425.412 101.284 425.407 101.209 425.387 101.136C425.368 101.064 425.334 100.996 425.288 100.937C425.242 100.877 425.184 100.828 425.119 100.791Z" fill="black"/>
</g>
</g>
<rect width="216" height="92" transform="translate(16 82)" fill="white" fill-opacity="0.01" style="mix-blend-mode:multiply"/>
<rect width="48" height="48" transform="translate(100 82)" fill="white" fill-opacity="0.01" style="mix-blend-mode:multiply"/>
<circle cx="124" cy="106" r="24" fill="#0F62FE"/>
<rect width="24" height="24" transform="translate(112 94)" fill="white" fill-opacity="0.01" style="mix-blend-mode:multiply"/>
<path d="M124 100C123.258 100 122.533 100.22 121.917 100.632C121.3 101.044 120.819 101.63 120.535 102.315C120.252 103 120.177 103.754 120.322 104.482C120.467 105.209 120.824 105.877 121.348 106.402C121.873 106.926 122.541 107.283 123.268 107.428C123.996 107.573 124.75 107.498 125.435 107.215C126.12 106.931 126.706 106.45 127.118 105.833C127.53 105.217 127.75 104.492 127.75 103.75C127.75 102.755 127.355 101.802 126.652 101.098C125.948 100.395 124.995 100 124 100Z" fill="white"/>
<path d="M124 95.5C121.923 95.5 119.893 96.1158 118.167 97.2696C116.44 98.4233 115.094 100.063 114.299 101.982C113.505 103.9 113.297 106.012 113.702 108.048C114.107 110.085 115.107 111.956 116.575 113.425C118.044 114.893 119.915 115.893 121.952 116.298C123.988 116.703 126.1 116.495 128.018 115.701C129.937 114.906 131.577 113.56 132.73 111.833C133.884 110.107 134.5 108.077 134.5 106C134.497 103.216 133.39 100.547 131.421 98.5788C129.453 96.6104 126.784 95.5031 124 95.5ZM129.994 112.694C129.979 111.711 129.579 110.772 128.878 110.081C128.178 109.39 127.234 109.002 126.25 109H121.75C120.766 109.002 119.822 109.39 119.122 110.081C118.421 110.772 118.021 111.711 118.006 112.694C116.646 111.48 115.686 109.881 115.255 108.109C114.824 106.338 114.941 104.477 115.591 102.773C116.241 101.07 117.393 99.6036 118.895 98.5693C120.396 97.5349 122.177 96.9811 124 96.9811C125.823 96.9811 127.604 97.5349 129.105 98.5693C130.607 99.6036 131.759 101.07 132.409 102.773C133.059 104.477 133.176 106.338 132.745 108.109C132.314 109.881 131.354 111.48 129.994 112.694Z" fill="white"/>
<path d="M87.1599 152H85.2419L84.4579 149.508H80.9859L80.2159 152H78.3399L81.6159 142.228H83.9119L87.1599 152ZM84.0099 147.926L82.7499 143.908H82.6799L81.4339 147.926H84.0099ZM93.1841 152V150.782H93.1141C92.8481 151.608 92.0641 152.168 91.0981 152.168C89.2641 152.168 88.2421 150.782 88.2421 148.332C88.2421 145.896 89.2641 144.524 91.0981 144.524C92.0641 144.524 92.8621 145.056 93.1141 145.896H93.1841V141.64H94.9761V152H93.1841ZM91.6721 150.684C92.5261 150.684 93.1841 150.25 93.1841 149.494V147.17C93.1841 146.456 92.5261 145.994 91.6721 145.994C90.7481 145.994 90.1181 146.68 90.1181 147.716V148.976C90.1181 150.012 90.7481 150.684 91.6721 150.684ZM98.9946 152H97.2026V144.692H98.9946V145.91H99.0646C99.3446 145.14 99.9326 144.524 101.025 144.524C102.019 144.524 102.789 145.014 103.139 145.994H103.167C103.433 145.182 104.245 144.524 105.407 144.524C106.835 144.524 107.647 145.56 107.647 147.38V152H105.855V147.562C105.855 146.512 105.477 145.994 104.679 145.994C103.979 145.994 103.321 146.386 103.321 147.17V152H101.529V147.562C101.529 146.512 101.151 145.994 100.353 145.994C99.6666 145.994 98.9946 146.386 98.9946 147.17V152ZM110.686 143.628C109.944 143.628 109.636 143.25 109.636 142.732V142.452C109.636 141.934 109.944 141.556 110.686 141.556C111.414 141.556 111.736 141.934 111.736 142.452V142.732C111.736 143.25 111.414 143.628 110.686 143.628ZM109.79 152V144.692H111.582V152H109.79ZM115.612 152H113.82V144.692H115.612V145.91H115.682C115.976 145.126 116.592 144.524 117.726 144.524C119.224 144.524 120.064 145.56 120.064 147.38V152H118.272V147.562C118.272 146.526 117.922 145.994 117.068 145.994C116.326 145.994 115.612 146.386 115.612 147.17V152ZM123.106 143.628C122.364 143.628 122.056 143.25 122.056 142.732V142.452C122.056 141.934 122.364 141.556 123.106 141.556C123.834 141.556 124.156 141.934 124.156 142.452V142.732C124.156 143.25 123.834 143.628 123.106 143.628ZM122.21 152V144.692H124.002V152H122.21ZM128.633 152.168C127.247 152.168 126.337 151.664 125.609 150.824L126.701 149.76C127.233 150.376 127.877 150.754 128.703 150.754C129.557 150.754 129.921 150.432 129.921 149.914C129.921 149.494 129.669 149.228 129.025 149.144L128.297 149.046C126.729 148.85 125.861 148.164 125.861 146.834C125.861 145.42 126.967 144.524 128.633 144.524C130.061 144.524 130.789 144.944 131.489 145.672L130.439 146.722C130.019 146.274 129.403 145.938 128.689 145.938C127.919 145.938 127.583 146.246 127.583 146.694C127.583 147.184 127.849 147.408 128.535 147.52L129.277 147.618C130.873 147.842 131.643 148.556 131.643 149.774C131.643 151.188 130.453 152.168 128.633 152.168ZM135.558 152C134.326 152 133.668 151.328 133.668 150.138V146.12H132.59V144.692H133.15C133.682 144.692 133.85 144.44 133.85 143.936V142.69H135.46V144.692H136.958V146.12H135.46V150.572H136.846V152H135.558ZM140.464 152H138.672V144.692H140.464V146.204H140.534C140.716 145.434 141.304 144.692 142.466 144.692H142.858V146.386H142.298C141.094 146.386 140.464 146.722 140.464 147.52V152ZM145.984 152.168C144.5 152.168 143.66 151.314 143.66 150.012C143.66 148.514 144.794 147.772 146.782 147.772H148.028V147.24C148.028 146.428 147.622 145.952 146.67 145.952C145.83 145.952 145.354 146.372 145.004 146.876L143.94 145.924C144.472 145.084 145.326 144.524 146.796 144.524C148.77 144.524 149.82 145.462 149.82 147.128V150.572H150.548V152H149.554C148.784 152 148.308 151.496 148.196 150.74H148.112C147.874 151.678 147.076 152.168 145.984 152.168ZM146.586 150.866C147.384 150.866 148.028 150.502 148.028 149.816V148.85H146.88C145.942 148.85 145.48 149.172 145.48 149.746V149.984C145.48 150.572 145.886 150.866 146.586 150.866ZM154.386 152C153.154 152 152.496 151.328 152.496 150.138V146.12H151.418V144.692H151.978C152.51 144.692 152.678 144.44 152.678 143.936V142.69H154.288V144.692H155.786V146.12H154.288V150.572H155.674V152H154.386ZM160.343 152.168C158.257 152.168 156.955 150.684 156.955 148.332C156.955 145.994 158.257 144.524 160.343 144.524C162.443 144.524 163.745 145.994 163.745 148.332C163.745 150.684 162.443 152.168 160.343 152.168ZM160.343 150.726C161.281 150.726 161.869 150.124 161.869 149.018V147.66C161.869 146.568 161.281 145.966 160.343 145.966C159.419 145.966 158.831 146.568 158.831 147.66V149.018C158.831 150.124 159.419 150.726 160.343 150.726ZM167.286 152H165.494V144.692H167.286V146.204H167.356C167.538 145.434 168.126 144.692 169.288 144.692H169.68V146.386H169.12C167.916 146.386 167.286 146.722 167.286 147.52V152Z" fill="black"/>
<path d="M92.9421 170H91.5141L88.2661 160.228H89.5261L91.1361 165.156L92.2141 168.824H92.2841L93.3901 165.156L95.0141 160.228H96.2321L92.9421 170ZM99.1553 170H97.9793V160.228H101.871C103.621 160.228 104.601 161.306 104.601 163.028C104.601 164.75 103.621 165.828 101.871 165.828H99.1553V170ZM99.1553 161.264V164.792H101.871C102.795 164.792 103.341 164.288 103.341 163.392V162.664C103.341 161.768 102.795 161.264 101.871 161.264H99.1553ZM110.074 170.168C107.61 170.168 106.14 168.432 106.14 165.17C106.14 161.908 107.61 160.06 110.074 160.06C111.698 160.06 112.818 160.844 113.434 162.202L112.482 162.776C112.09 161.768 111.278 161.11 110.074 161.11C108.394 161.11 107.4 162.44 107.4 164.442V165.898C107.4 167.9 108.394 169.118 110.074 169.118C111.32 169.118 112.174 168.418 112.566 167.354L113.504 167.942C112.888 169.314 111.698 170.168 110.074 170.168ZM118.883 160.228H120.059V166.276C120.059 168.138 120.661 169.118 122.397 169.118C124.133 169.118 124.735 168.138 124.735 166.276V160.228H125.911V165.996C125.911 168.838 124.959 170.168 122.355 170.168C119.751 170.168 118.883 168.838 118.883 165.996V160.228ZM132.06 170H128.14V169.02H129.512V161.208H128.14V160.228H132.06V161.208H130.688V169.02H132.06V170ZM134.199 172.114H133.191L136.845 159.64H137.853L134.199 172.114ZM143.125 170.168C140.661 170.168 139.191 168.432 139.191 165.17C139.191 161.908 140.661 160.06 143.125 160.06C144.749 160.06 145.869 160.844 146.485 162.202L145.533 162.776C145.141 161.768 144.329 161.11 143.125 161.11C141.445 161.11 140.451 162.44 140.451 164.442V165.898C140.451 167.9 141.445 169.118 143.125 169.118C144.371 169.118 145.225 168.418 145.617 167.354L146.555 167.942C145.939 169.314 144.749 170.168 143.125 170.168ZM153.871 170H148.537V160.228H149.713V168.964H153.871V170ZM159.168 170H155.248V169.02H156.62V161.208H155.248V160.228H159.168V161.208H157.796V169.02H159.168V170Z" fill="black"/>
<rect width="216" height="92" transform="translate(16 286)" fill="white" fill-opacity="0.01" style="mix-blend-mode:multiply"/>
<rect width="48" height="48" transform="translate(100 286)" fill="white" fill-opacity="0.01" style="mix-blend-mode:multiply"/>
<circle cx="124" cy="310" r="24" fill="#0F62FE"/>
<rect width="24" height="24" transform="translate(112 298)" fill="white" fill-opacity="0.01" style="mix-blend-mode:multiply"/>
<path d="M124 304C123.258 304 122.533 304.22 121.917 304.632C121.3 305.044 120.819 305.63 120.535 306.315C120.252 307 120.177 307.754 120.322 308.482C120.467 309.209 120.824 309.877 121.348 310.402C121.873 310.926 122.541 311.283 123.268 311.428C123.996 311.573 124.75 311.498 125.435 311.215C126.12 310.931 126.706 310.45 127.118 309.833C127.53 309.217 127.75 308.492 127.75 307.75C127.75 306.755 127.355 305.802 126.652 305.098C125.948 304.395 124.995 304 124 304Z" fill="white"/>
<path d="M124 299.5C121.923 299.5 119.893 300.116 118.167 301.27C116.44 302.423 115.094 304.063 114.299 305.982C113.505 307.9 113.297 310.012 113.702 312.048C114.107 314.085 115.107 315.956 116.575 317.425C118.044 318.893 119.915 319.893 121.952 320.298C123.988 320.703 126.1 320.495 128.018 319.701C129.937 318.906 131.577 317.56 132.73 315.833C133.884 314.107 134.5 312.077 134.5 310C134.497 307.216 133.39 304.547 131.421 302.579C129.453 300.61 126.784 299.503 124 299.5ZM129.994 316.694C129.979 315.711 129.579 314.772 128.878 314.081C128.178 313.39 127.234 313.002 126.25 313H121.75C120.766 313.002 119.822 313.39 119.122 314.081C118.421 314.772 118.021 315.711 118.006 316.694C116.646 315.48 115.686 313.881 115.255 312.109C114.824 310.338 114.941 308.477 115.591 306.773C116.241 305.07 117.393 303.604 118.895 302.569C120.396 301.535 122.177 300.981 124 300.981C125.823 300.981 127.604 301.535 129.105 302.569C130.607 303.604 131.759 305.07 132.409 306.773C133.059 308.477 133.176 310.338 132.745 312.109C132.314 313.881 131.354 315.48 129.994 316.694Z" fill="white"/>
<path d="M91.4699 356V346.228H95.0259C97.5739 346.228 99.2399 347.866 99.2399 351.114C99.2399 354.362 97.5739 356 95.0259 356H91.4699ZM93.3179 354.362H95.0259C96.3979 354.362 97.2799 353.55 97.2799 351.884V350.344C97.2799 348.678 96.3979 347.866 95.0259 347.866H93.3179V354.362ZM104.124 356.168C101.968 356.168 100.68 354.67 100.68 352.332C100.68 350.022 101.926 348.524 104.068 348.524C106.35 348.524 107.4 350.204 107.4 352.206V352.794H102.542V352.976C102.542 354.026 103.144 354.74 104.32 354.74C105.202 354.74 105.734 354.32 106.182 353.746L107.148 354.824C106.546 355.65 105.482 356.168 104.124 356.168ZM104.096 349.868C103.158 349.868 102.542 350.568 102.542 351.576V351.688H105.538V351.562C105.538 350.554 105.02 349.868 104.096 349.868ZM112.71 356H110.582L108.146 348.692H109.91L110.932 351.842L111.646 354.446H111.744L112.458 351.842L113.452 348.692H115.16L112.71 356ZM119.36 356.168C117.204 356.168 115.916 354.67 115.916 352.332C115.916 350.022 117.162 348.524 119.304 348.524C121.586 348.524 122.636 350.204 122.636 352.206V352.794H117.778V352.976C117.778 354.026 118.38 354.74 119.556 354.74C120.438 354.74 120.97 354.32 121.418 353.746L122.384 354.824C121.782 355.65 120.718 356.168 119.36 356.168ZM119.332 349.868C118.394 349.868 117.778 350.568 117.778 351.576V351.688H120.774V351.562C120.774 350.554 120.256 349.868 119.332 349.868ZM127.131 356H126.165C124.947 356 124.373 355.356 124.373 354.236V345.64H126.165V354.572H127.131V356ZM131.546 356.168C129.46 356.168 128.158 354.684 128.158 352.332C128.158 349.994 129.46 348.524 131.546 348.524C133.646 348.524 134.948 349.994 134.948 352.332C134.948 354.684 133.646 356.168 131.546 356.168ZM131.546 354.726C132.484 354.726 133.072 354.124 133.072 353.018V351.66C133.072 350.568 132.484 349.966 131.546 349.966C130.622 349.966 130.034 350.568 130.034 351.66V353.018C130.034 354.124 130.622 354.726 131.546 354.726ZM136.697 358.8V348.692H138.489V349.896H138.545C138.811 349.056 139.595 348.524 140.561 348.524C142.409 348.524 143.431 349.896 143.431 352.332C143.431 354.782 142.409 356.168 140.561 356.168C139.595 356.168 138.825 355.608 138.545 354.782H138.489V358.8H136.697ZM139.987 354.684C140.911 354.684 141.555 354.012 141.555 352.976V351.716C141.555 350.68 140.911 349.994 139.987 349.994C139.133 349.994 138.489 350.456 138.489 351.17V353.494C138.489 354.25 139.133 354.684 139.987 354.684ZM148.205 356.168C146.049 356.168 144.761 354.67 144.761 352.332C144.761 350.022 146.007 348.524 148.149 348.524C150.431 348.524 151.481 350.204 151.481 352.206V352.794H146.623V352.976C146.623 354.026 147.225 354.74 148.401 354.74C149.283 354.74 149.815 354.32 150.263 353.746L151.229 354.824C150.627 355.65 149.563 356.168 148.205 356.168ZM148.177 349.868C147.239 349.868 146.623 350.568 146.623 351.576V351.688H149.619V351.562C149.619 350.554 149.101 349.868 148.177 349.868ZM155.01 356H153.218V348.692H155.01V350.204H155.08C155.262 349.434 155.85 348.692 157.012 348.692H157.404V350.386H156.844C155.64 350.386 155.01 350.722 155.01 351.52V356Z" fill="black"/>
<path d="M99.4464 374V363.64H100.566V367.952H100.622C101 367.042 101.742 366.608 102.736 366.608C104.542 366.608 105.676 368.078 105.676 370.388C105.676 372.698 104.542 374.168 102.736 374.168C101.742 374.168 101.056 373.72 100.622 372.824H100.566V374H99.4464ZM102.428 373.16C103.688 373.16 104.472 372.292 104.472 371.004V369.772C104.472 368.484 103.688 367.616 102.428 367.616C101.406 367.616 100.566 368.204 100.566 369.002V371.69C100.566 372.628 101.406 373.16 102.428 373.16ZM112.18 374V372.824H112.124C111.844 373.51 111.298 374.168 110.094 374.168C108.61 374.168 107.658 373.16 107.658 371.41V366.776H108.778V371.214C108.778 372.502 109.352 373.16 110.43 373.16C111.312 373.16 112.18 372.726 112.18 371.774V366.776H113.3V374H112.18ZM116.405 365.082C115.929 365.082 115.719 364.83 115.719 364.452V364.27C115.719 363.892 115.929 363.64 116.405 363.64C116.881 363.64 117.091 363.892 117.091 364.27V364.452C117.091 364.83 116.881 365.082 116.405 365.082ZM115.845 374V366.776H116.965V374H115.845ZM121.689 374H120.695C119.925 374 119.505 373.51 119.505 372.838V363.64H120.625V373.02H121.689V374ZM128.099 374V372.824H128.043C127.609 373.72 126.923 374.168 125.929 374.168C124.123 374.168 122.989 372.698 122.989 370.388C122.989 368.078 124.123 366.608 125.929 366.608C126.923 366.608 127.665 367.042 128.043 367.952H128.099V363.64H129.219V374H128.099ZM126.237 373.16C127.259 373.16 128.099 372.628 128.099 371.69V369.002C128.099 368.204 127.259 367.616 126.237 367.616C124.977 367.616 124.193 368.484 124.193 369.772V371.004C124.193 372.292 124.977 373.16 126.237 373.16ZM132.474 374.168C131.886 374.168 131.62 373.832 131.62 373.356V373.174C131.62 372.698 131.886 372.362 132.474 372.362C133.062 372.362 133.328 372.698 133.328 373.174V373.356C133.328 373.832 133.062 374.168 132.474 374.168ZM135.735 376.8V366.776H136.855V367.952H136.911C137.289 367.042 138.031 366.608 139.025 366.608C140.831 366.608 141.965 368.078 141.965 370.388C141.965 372.698 140.831 374.168 139.025 374.168C138.031 374.168 137.345 373.72 136.911 372.824H136.855V376.8H135.735ZM138.717 373.16C139.977 373.16 140.761 372.292 140.761 371.004V369.772C140.761 368.484 139.977 367.616 138.717 367.616C137.695 367.616 136.855 368.204 136.855 369.002V371.69C136.855 372.628 137.695 373.16 138.717 373.16ZM146.649 371.69L148.399 366.776H149.505L146.271 375.68C145.949 376.548 145.655 376.8 144.591 376.8H144.017V375.82H145.151L145.697 374.28L142.995 366.776H144.115L145.851 371.69L146.187 372.866H146.257L146.649 371.69Z" fill="black"/>
<rect x="332.5" y="208.5" width="311" height="311" stroke="#0F62FE"/>
<rect x="333" y="209" width="310" height="310" fill="white"/>
<rect x="333" y="209" width="310" height="310" fill="#EDF5FF"/>
<g clip-path="url(#clip2_19_9851)">
<path d="M401.18 228H396.742V226.516H398.03V219.712H396.742V218.228H401.18V219.712H399.878V226.516H401.18V228ZM403.228 228V218.228H407.75C409.36 218.228 410.34 219.222 410.34 220.734C410.34 222.218 409.486 222.778 408.59 222.834V222.918C409.444 222.932 410.704 223.534 410.704 225.2C410.704 226.768 409.626 228 408.184 228H403.228ZM405.076 223.814V226.432H407.652C408.352 226.432 408.772 226.054 408.772 225.368V224.892C408.772 224.206 408.352 223.814 407.652 223.814H405.076ZM405.076 219.796V222.302H407.358C408.03 222.302 408.422 221.91 408.422 221.266V220.832C408.422 220.174 408.03 219.796 407.358 219.796H405.076ZM412.671 228V218.228H414.757L417.263 223.002H417.319L419.797 218.228H421.799V228H420.049V220.986H419.993L419.237 222.54L417.235 226.236L415.233 222.54L414.477 220.986H414.421V228H412.671ZM431.523 228.168C428.947 228.168 427.309 226.474 427.309 223.184C427.309 219.894 428.947 218.06 431.523 218.06C433.273 218.06 434.407 218.802 435.093 220.314L433.511 221.154C433.231 220.286 432.615 219.698 431.523 219.698C430.151 219.698 429.269 220.692 429.269 222.358V223.898C429.269 225.578 430.151 226.53 431.523 226.53C432.629 226.53 433.315 225.858 433.637 224.976L435.135 225.858C434.435 227.314 433.273 228.168 431.523 228.168ZM439.518 228H438.552C437.334 228 436.76 227.356 436.76 226.236V217.64H438.552V226.572H439.518V228ZM443.933 228.168C441.847 228.168 440.545 226.684 440.545 224.332C440.545 221.994 441.847 220.524 443.933 220.524C446.033 220.524 447.335 221.994 447.335 224.332C447.335 226.684 446.033 228.168 443.933 228.168ZM443.933 226.726C444.871 226.726 445.459 226.124 445.459 225.018V223.66C445.459 222.568 444.871 221.966 443.933 221.966C443.009 221.966 442.421 222.568 442.421 223.66V225.018C442.421 226.124 443.009 226.726 443.933 226.726ZM453.452 228V226.782H453.382C453.13 227.51 452.542 228.168 451.338 228.168C449.84 228.168 449 227.132 449 225.312V220.692H450.792V225.13C450.792 226.138 451.17 226.684 452.024 226.684C452.738 226.684 453.452 226.306 453.452 225.522V220.692H455.244V228H453.452ZM462.01 228V226.782H461.94C461.674 227.608 460.89 228.168 459.924 228.168C458.09 228.168 457.068 226.782 457.068 224.332C457.068 221.896 458.09 220.524 459.924 220.524C460.89 220.524 461.688 221.056 461.94 221.896H462.01V217.64H463.802V228H462.01ZM460.498 226.684C461.352 226.684 462.01 226.25 462.01 225.494V223.17C462.01 222.456 461.352 221.994 460.498 221.994C459.574 221.994 458.944 222.68 458.944 223.716V224.976C458.944 226.012 459.574 226.684 460.498 226.684ZM475.531 228V223.87H471.457V228H469.609V218.228H471.457V222.232H475.531V218.228H477.379V228H475.531ZM482.926 224.556L484.2 220.692H485.88L482.94 229.302C482.576 230.352 482.058 230.8 480.854 230.8H479.776V229.372H481.092L481.428 228.35L478.81 220.692H480.588L481.862 224.556L482.338 226.404H482.422L482.926 224.556ZM487.222 230.8V220.692H489.014V221.896H489.07C489.336 221.056 490.12 220.524 491.086 220.524C492.934 220.524 493.956 221.896 493.956 224.332C493.956 226.782 492.934 228.168 491.086 228.168C490.12 228.168 489.35 227.608 489.07 226.782H489.014V230.8H487.222ZM490.512 226.684C491.436 226.684 492.08 226.012 492.08 224.976V223.716C492.08 222.68 491.436 221.994 490.512 221.994C489.658 221.994 489.014 222.456 489.014 223.17V225.494C489.014 226.25 489.658 226.684 490.512 226.684ZM498.73 228.168C496.574 228.168 495.286 226.67 495.286 224.332C495.286 222.022 496.532 220.524 498.674 220.524C500.956 220.524 502.006 222.204 502.006 224.206V224.794H497.148V224.976C497.148 226.026 497.75 226.74 498.926 226.74C499.808 226.74 500.34 226.32 500.788 225.746L501.754 226.824C501.152 227.65 500.088 228.168 498.73 228.168ZM498.702 221.868C497.764 221.868 497.148 222.568 497.148 223.576V223.688H500.144V223.562C500.144 222.554 499.626 221.868 498.702 221.868ZM505.535 228H503.743V220.692H505.535V222.204H505.605C505.787 221.434 506.375 220.692 507.537 220.692H507.929V222.386H507.369C506.165 222.386 505.535 222.722 505.535 223.52V228ZM514.827 228H512.979V218.228H517.375C519.181 218.228 520.273 219.446 520.273 221.252C520.273 223.072 519.181 224.276 517.375 224.276H514.827V228ZM514.827 219.838V222.68H517.207C517.921 222.68 518.355 222.288 518.355 221.574V220.93C518.355 220.216 517.921 219.838 517.207 219.838H514.827ZM523.652 228H521.86V220.692H523.652V222.204H523.722C523.904 221.434 524.492 220.692 525.654 220.692H526.046V222.386H525.486C524.282 222.386 523.652 222.722 523.652 223.52V228ZM530.345 228.168C528.259 228.168 526.957 226.684 526.957 224.332C526.957 221.994 528.259 220.524 530.345 220.524C532.445 220.524 533.747 221.994 533.747 224.332C533.747 226.684 532.445 228.168 530.345 228.168ZM530.345 226.726C531.283 226.726 531.871 226.124 531.871 225.018V223.66C531.871 222.568 531.283 221.966 530.345 221.966C529.421 221.966 528.833 222.568 528.833 223.66V225.018C528.833 226.124 529.421 226.726 530.345 226.726ZM537.723 228C536.491 228 535.833 227.328 535.833 226.138V222.12H534.755V220.692H535.315C535.847 220.692 536.015 220.44 536.015 219.936V218.69H537.625V220.692H539.123V222.12H537.625V226.572H539.011V228H537.723ZM543.737 228.168C541.581 228.168 540.293 226.67 540.293 224.332C540.293 222.022 541.539 220.524 543.681 220.524C545.963 220.524 547.013 222.204 547.013 224.206V224.794H542.155V224.976C542.155 226.026 542.757 226.74 543.933 226.74C544.815 226.74 545.347 226.32 545.795 225.746L546.761 226.824C546.159 227.65 545.095 228.168 543.737 228.168ZM543.709 221.868C542.771 221.868 542.155 222.568 542.155 223.576V223.688H545.151V223.562C545.151 222.554 544.633 221.868 543.709 221.868ZM551.634 228.168C549.478 228.168 548.26 226.684 548.26 224.332C548.26 221.994 549.478 220.524 551.634 220.524C553.104 220.524 554.07 221.224 554.504 222.372L553.034 223.03C552.866 222.414 552.404 221.966 551.634 221.966C550.64 221.966 550.136 222.666 550.136 223.688V225.018C550.136 226.04 550.64 226.726 551.634 226.726C552.488 226.726 552.908 226.236 553.174 225.578L554.546 226.236C554.07 227.524 553.048 228.168 551.634 228.168ZM558.369 228C557.137 228 556.479 227.328 556.479 226.138V222.12H555.401V220.692H555.961C556.493 220.692 556.661 220.44 556.661 219.936V218.69H558.271V220.692H559.769V222.12H558.271V226.572H559.657V228H558.369ZM569.432 228H567.332L564.14 218.228H566.03L567.528 222.988L568.396 226.236H568.438L569.292 222.988L570.79 218.228H572.624L569.432 228ZM574.936 219.628C574.194 219.628 573.886 219.25 573.886 218.732V218.452C573.886 217.934 574.194 217.556 574.936 217.556C575.664 217.556 575.986 217.934 575.986 218.452V218.732C575.986 219.25 575.664 219.628 574.936 219.628ZM574.04 228V220.692H575.832V228H574.04ZM579.861 228H578.069V220.692H579.861V222.204H579.931C580.113 221.434 580.701 220.692 581.863 220.692H582.255V222.386H581.695C580.491 222.386 579.861 222.722 579.861 223.52V228ZM586.062 228C584.83 228 584.172 227.328 584.172 226.138V222.12H583.094V220.692H583.654C584.186 220.692 584.354 220.44 584.354 219.936V218.69H585.964V220.692H587.462V222.12H585.964V226.572H587.35V228H586.062ZM593.544 228V226.782H593.474C593.222 227.51 592.634 228.168 591.43 228.168C589.932 228.168 589.092 227.132 589.092 225.312V220.692H590.884V225.13C590.884 226.138 591.262 226.684 592.116 226.684C592.83 226.684 593.544 226.306 593.544 225.522V220.692H595.336V228H593.544ZM599.373 228.168C597.889 228.168 597.049 227.314 597.049 226.012C597.049 224.514 598.183 223.772 600.171 223.772H601.417V223.24C601.417 222.428 601.011 221.952 600.059 221.952C599.219 221.952 598.743 222.372 598.393 222.876L597.329 221.924C597.861 221.084 598.715 220.524 600.185 220.524C602.159 220.524 603.209 221.462 603.209 223.128V226.572H603.937V228H602.943C602.173 228 601.697 227.496 601.585 226.74H601.501C601.263 227.678 600.465 228.168 599.373 228.168ZM599.975 226.866C600.773 226.866 601.417 226.502 601.417 225.816V224.85H600.269C599.331 224.85 598.869 225.172 598.869 225.746V225.984C598.869 226.572 599.275 226.866 599.975 226.866ZM608.305 228H607.339C606.121 228 605.547 227.356 605.547 226.236V217.64H607.339V226.572H608.305V228ZM400.186 246.168C398.52 246.168 397.372 245.51 396.546 244.544L397.792 243.34C398.464 244.124 399.29 244.544 400.298 244.544C401.432 244.544 402.02 243.998 402.02 243.172C402.02 242.514 401.712 242.108 400.69 241.926L399.766 241.786C397.792 241.478 396.84 240.54 396.84 238.944C396.84 237.194 398.198 236.06 400.382 236.06C401.852 236.06 402.944 236.564 403.728 237.502L402.468 238.692C401.992 238.09 401.32 237.684 400.284 237.684C399.234 237.684 398.688 238.104 398.688 238.832C398.688 239.574 399.108 239.882 400.046 240.05L400.956 240.218C402.93 240.568 403.854 241.45 403.854 243.06C403.854 244.908 402.524 246.168 400.186 246.168ZM408.709 246.168C406.553 246.168 405.265 244.67 405.265 242.332C405.265 240.022 406.511 238.524 408.653 238.524C410.935 238.524 411.985 240.204 411.985 242.206V242.794H407.127V242.976C407.127 244.026 407.729 244.74 408.905 244.74C409.787 244.74 410.319 244.32 410.767 243.746L411.733 244.824C411.131 245.65 410.067 246.168 408.709 246.168ZM408.681 239.868C407.743 239.868 407.127 240.568 407.127 241.576V241.688H410.123V241.562C410.123 240.554 409.605 239.868 408.681 239.868ZM415.513 246H413.721V238.692H415.513V240.204H415.583C415.765 239.434 416.353 238.692 417.515 238.692H417.907V240.386H417.347C416.143 240.386 415.513 240.722 415.513 241.52V246ZM423.183 246H421.055L418.619 238.692H420.383L421.405 241.842L422.119 244.446H422.217L422.931 241.842L423.925 238.692H425.633L423.183 246ZM429.833 246.168C427.677 246.168 426.389 244.67 426.389 242.332C426.389 240.022 427.635 238.524 429.777 238.524C432.059 238.524 433.109 240.204 433.109 242.206V242.794H428.251V242.976C428.251 244.026 428.853 244.74 430.029 244.74C430.911 244.74 431.443 244.32 431.891 243.746L432.857 244.824C432.255 245.65 431.191 246.168 429.833 246.168ZM429.805 239.868C428.867 239.868 428.251 240.568 428.251 241.576V241.688H431.247V241.562C431.247 240.554 430.729 239.868 429.805 239.868ZM436.638 246H434.846V238.692H436.638V240.204H436.708C436.89 239.434 437.478 238.692 438.64 238.692H439.032V240.386H438.472C437.268 240.386 436.638 240.722 436.638 241.52V246ZM442.896 246.168C441.51 246.168 440.6 245.664 439.872 244.824L440.964 243.76C441.496 244.376 442.14 244.754 442.966 244.754C443.82 244.754 444.184 244.432 444.184 243.914C444.184 243.494 443.932 243.228 443.288 243.144L442.56 243.046C440.992 242.85 440.124 242.164 440.124 240.834C440.124 239.42 441.23 238.524 442.896 238.524C444.324 238.524 445.052 238.944 445.752 239.672L444.702 240.722C444.282 240.274 443.666 239.938 442.952 239.938C442.182 239.938 441.846 240.246 441.846 240.694C441.846 241.184 442.112 241.408 442.798 241.52L443.54 241.618C445.136 241.842 445.906 242.556 445.906 243.774C445.906 245.188 444.716 246.168 442.896 246.168ZM451.481 246V240.106H450.403V238.692H451.481V237.642C451.481 236.354 452.181 235.64 453.497 235.64H454.771V237.068H453.273V238.692H454.771V240.106H453.273V246H451.481ZM459.015 246.168C456.929 246.168 455.627 244.684 455.627 242.332C455.627 239.994 456.929 238.524 459.015 238.524C461.115 238.524 462.417 239.994 462.417 242.332C462.417 244.684 461.115 246.168 459.015 246.168ZM459.015 244.726C459.953 244.726 460.541 244.124 460.541 243.018V241.66C460.541 240.568 459.953 239.966 459.015 239.966C458.091 239.966 457.503 240.568 457.503 241.66V243.018C457.503 244.124 458.091 244.726 459.015 244.726ZM465.957 246H464.165V238.692H465.957V240.204H466.027C466.209 239.434 466.797 238.692 467.959 238.692H468.351V240.386H467.791C466.587 240.386 465.957 240.722 465.957 241.52V246ZM477.77 246H475.67L472.478 236.228H474.368L475.866 240.988L476.734 244.236H476.776L477.63 240.988L479.128 236.228H480.962L477.77 246ZM484.338 246H482.49V236.228H486.886C488.692 236.228 489.784 237.446 489.784 239.252C489.784 241.072 488.692 242.276 486.886 242.276H484.338V246ZM484.338 237.838V240.68H486.718C487.432 240.68 487.866 240.288 487.866 239.574V238.93C487.866 238.216 487.432 237.838 486.718 237.838H484.338ZM495.412 246.168C492.836 246.168 491.198 244.474 491.198 241.184C491.198 237.894 492.836 236.06 495.412 236.06C497.162 236.06 498.296 236.802 498.982 238.314L497.4 239.154C497.12 238.286 496.504 237.698 495.412 237.698C494.04 237.698 493.158 238.692 493.158 240.358V241.898C493.158 243.578 494.04 244.53 495.412 244.53C496.518 244.53 497.204 243.858 497.526 242.976L499.024 243.858C498.324 245.314 497.162 246.168 495.412 246.168Z" fill="black"/>
<rect width="48" height="48" transform="translate(332 208)" fill="#0F62FE"/>
<path d="M359 233.5V238.375C359 239.8 359.825 241.15 361.175 241.75L362.75 242.5L364.325 241.75C365.6 241.15 366.5 239.8 366.5 238.375V233.5H359ZM365 238.375C365 239.275 364.475 240.025 363.725 240.4L362.75 240.85L361.775 240.4C361.025 240.025 360.5 239.2 360.5 238.375V235H365V238.375Z" fill="white"/>
<path d="M362.75 221.5H347.75C346.925 221.5 346.25 222.175 346.25 223V239.5C346.25 240.325 346.925 241 347.75 241H356V223H362.75V231.25H364.25V223C364.25 222.175 363.575 221.5 362.75 221.5ZM354.2 229.15L347.75 237.925V223.825L354.2 229.15ZM348.5 239.5L354.5 231.325V239.5H348.5ZM354.5 227.425L349.1 223H354.5V227.425Z" fill="white"/>
</g>
<g clip-path="url(#clip3_19_9851)">
<path d="M529.812 434.5C528.787 431.588 526.012 429.5 522.75 429.5C518.613 429.5 515.25 432.863 515.25 437C515.25 441.137 518.613 444.5 522.75 444.5C526.012 444.5 528.787 442.413 529.812 439.5H535.25V444.5H540.25V439.5H542.75V434.5H529.812ZM522.75 439.5C521.375 439.5 520.25 438.375 520.25 437C520.25 435.625 521.375 434.5 522.75 434.5C524.125 434.5 525.25 435.625 525.25 437C525.25 438.375 524.125 439.5 522.75 439.5Z" fill="#0F62FE"/>
</g>
<g clip-path="url(#clip4_19_9851)">
<path d="M529.812 439.5C528.787 442.412 526.012 444.5 522.75 444.5C518.613 444.5 515.25 441.137 515.25 437C515.25 432.863 518.613 429.5 522.75 429.5C526.012 429.5 528.787 431.587 529.812 434.5H535.25V429.5H540.25V434.5H542.75V439.5H529.812ZM522.75 434.5C521.375 434.5 520.25 435.625 520.25 437C520.25 438.375 521.375 439.5 522.75 439.5C524.125 439.5 525.25 438.375 525.25 437C525.25 435.625 524.125 434.5 522.75 434.5Z" fill="#0F62FE"/>
</g>
<rect width="216" height="92" transform="translate(380 399)" fill="white" fill-opacity="0.01" style="mix-blend-mode:multiply"/>
<rect width="48" height="48" transform="translate(464 399)" fill="white" fill-opacity="0.01" style="mix-blend-mode:multiply"/>
<circle cx="488" cy="423" r="24" fill="#0F62FE"/>
<rect width="24" height="24" transform="translate(476 411)" fill="white" fill-opacity="0.01" style="mix-blend-mode:multiply"/>
<path d="M498.5 429V427.5H496.924C496.827 427.031 496.641 426.584 496.375 426.185L497.493 425.068L496.432 424.007L495.315 425.125C494.916 424.859 494.469 424.673 494 424.576V423H492.5V424.576C492.031 424.673 491.584 424.859 491.185 425.125L490.068 424.007L489.007 425.068L490.125 426.185C489.859 426.584 489.673 427.031 489.576 427.5H488V429H489.576C489.673 429.469 489.859 429.916 490.125 430.315L489.007 431.432L490.068 432.493L491.185 431.375C491.584 431.641 492.031 431.827 492.5 431.924V433.5H494V431.924C494.469 431.827 494.916 431.641 495.315 431.375L496.432 432.493L497.493 431.432L496.375 430.315C496.641 429.916 496.827 429.469 496.924 429H498.5ZM493.25 430.5C492.805 430.5 492.37 430.368 492 430.121C491.63 429.874 491.342 429.522 491.171 429.111C491.001 428.7 490.956 428.248 491.043 427.811C491.13 427.375 491.344 426.974 491.659 426.659C491.974 426.344 492.375 426.13 492.811 426.043C493.247 425.956 493.7 426.001 494.111 426.171C494.522 426.342 494.874 426.63 495.121 427C495.368 427.37 495.5 427.805 495.5 428.25C495.499 428.847 495.262 429.418 494.84 429.84C494.418 430.262 493.847 430.499 493.25 430.5Z" fill="white"/>
<path d="M486.5 431L484.074 429.707C482.994 429.132 482.09 428.274 481.46 427.224C480.831 426.175 480.499 424.974 480.5 423.75V414H495.5V421.5H497V414C497 413.602 496.841 413.221 496.56 412.94C496.279 412.659 495.898 412.5 495.5 412.5H480.5C480.102 412.5 479.721 412.659 479.44 412.94C479.159 413.221 479 413.602 479 414V423.75C478.998 425.246 479.404 426.714 480.174 427.996C480.943 429.279 482.048 430.328 483.368 431.03L486.5 432.7V431Z" fill="white"/>
<path d="M432.078 469.168C430.412 469.168 429.264 468.51 428.438 467.544L429.684 466.34C430.356 467.124 431.182 467.544 432.19 467.544C433.324 467.544 433.912 466.998 433.912 466.172C433.912 465.514 433.604 465.108 432.582 464.926L431.658 464.786C429.684 464.478 428.732 463.54 428.732 461.944C428.732 460.194 430.09 459.06 432.274 459.06C433.744 459.06 434.836 459.564 435.62 460.502L434.36 461.692C433.884 461.09 433.212 460.684 432.176 460.684C431.126 460.684 430.58 461.104 430.58 461.832C430.58 462.574 431 462.882 431.938 463.05L432.848 463.218C434.822 463.568 435.746 464.45 435.746 466.06C435.746 467.908 434.416 469.168 432.078 469.168ZM440.601 469.168C438.445 469.168 437.157 467.67 437.157 465.332C437.157 463.022 438.403 461.524 440.545 461.524C442.827 461.524 443.877 463.204 443.877 465.206V465.794H439.019V465.976C439.019 467.026 439.621 467.74 440.797 467.74C441.679 467.74 442.211 467.32 442.659 466.746L443.625 467.824C443.023 468.65 441.959 469.168 440.601 469.168ZM440.573 462.868C439.635 462.868 439.019 463.568 439.019 464.576V464.688H442.015V464.562C442.015 463.554 441.497 462.868 440.573 462.868ZM448.497 469.168C446.341 469.168 445.123 467.684 445.123 465.332C445.123 462.994 446.341 461.524 448.497 461.524C449.967 461.524 450.933 462.224 451.367 463.372L449.897 464.03C449.729 463.414 449.267 462.966 448.497 462.966C447.503 462.966 446.999 463.666 446.999 464.688V466.018C446.999 467.04 447.503 467.726 448.497 467.726C449.351 467.726 449.771 467.236 450.037 466.578L451.409 467.236C450.933 468.524 449.911 469.168 448.497 469.168ZM457.319 469V467.782H457.249C456.997 468.51 456.409 469.168 455.205 469.168C453.707 469.168 452.867 468.132 452.867 466.312V461.692H454.659V466.13C454.659 467.138 455.037 467.684 455.891 467.684C456.605 467.684 457.319 467.306 457.319 466.522V461.692H459.111V469H457.319ZM463.133 469H461.341V461.692H463.133V463.204H463.203C463.385 462.434 463.973 461.692 465.135 461.692H465.527V463.386H464.967C463.763 463.386 463.133 463.722 463.133 464.52V469ZM469.883 469.168C467.727 469.168 466.439 467.67 466.439 465.332C466.439 463.022 467.685 461.524 469.827 461.524C472.109 461.524 473.159 463.204 473.159 465.206V465.794H468.301V465.976C468.301 467.026 468.903 467.74 470.079 467.74C470.961 467.74 471.493 467.32 471.941 466.746L472.907 467.824C472.305 468.65 471.241 469.168 469.883 469.168ZM469.855 462.868C468.917 462.868 468.301 463.568 468.301 464.576V464.688H471.297V464.562C471.297 463.554 470.779 462.868 469.855 462.868ZM478.364 469V458.64H480.156V462.896H480.212C480.478 462.056 481.262 461.524 482.228 461.524C484.076 461.524 485.098 462.896 485.098 465.332C485.098 467.782 484.076 469.168 482.228 469.168C481.262 469.168 480.492 468.608 480.212 467.782H480.156V469H478.364ZM481.654 467.684C482.578 467.684 483.222 467.012 483.222 465.976V464.716C483.222 463.68 482.578 462.994 481.654 462.994C480.8 462.994 480.156 463.456 480.156 464.17V466.494C480.156 467.25 480.8 467.684 481.654 467.684ZM491.287 469V467.782H491.217C490.965 468.51 490.377 469.168 489.173 469.168C487.675 469.168 486.835 468.132 486.835 466.312V461.692H488.627V466.13C488.627 467.138 489.005 467.684 489.859 467.684C490.573 467.684 491.287 467.306 491.287 466.522V461.692H493.079V469H491.287ZM496.205 460.628C495.463 460.628 495.155 460.25 495.155 459.732V459.452C495.155 458.934 495.463 458.556 496.205 458.556C496.933 458.556 497.255 458.934 497.255 459.452V459.732C497.255 460.25 496.933 460.628 496.205 460.628ZM495.309 469V461.692H497.101V469H495.309ZM502.096 469H501.13C499.912 469 499.338 468.356 499.338 467.236V458.64H501.13V467.572H502.096V469ZM508.15 469V467.782H508.08C507.814 468.608 507.03 469.168 506.064 469.168C504.23 469.168 503.208 467.782 503.208 465.332C503.208 462.896 504.23 461.524 506.064 461.524C507.03 461.524 507.828 462.056 508.08 462.896H508.15V458.64H509.942V469H508.15ZM506.638 467.684C507.492 467.684 508.15 467.25 508.15 466.494V464.17C508.15 463.456 507.492 462.994 506.638 462.994C505.714 462.994 505.084 463.68 505.084 464.716V465.976C505.084 467.012 505.714 467.684 506.638 467.684ZM518.031 469.168C516.645 469.168 515.735 468.664 515.007 467.824L516.099 466.76C516.631 467.376 517.275 467.754 518.101 467.754C518.955 467.754 519.319 467.432 519.319 466.914C519.319 466.494 519.067 466.228 518.423 466.144L517.695 466.046C516.127 465.85 515.259 465.164 515.259 463.834C515.259 462.42 516.365 461.524 518.031 461.524C519.459 461.524 520.187 461.944 520.887 462.672L519.837 463.722C519.417 463.274 518.801 462.938 518.087 462.938C517.317 462.938 516.981 463.246 516.981 463.694C516.981 464.184 517.247 464.408 517.933 464.52L518.675 464.618C520.271 464.842 521.041 465.556 521.041 466.774C521.041 468.188 519.851 469.168 518.031 469.168ZM524.956 469C523.724 469 523.066 468.328 523.066 467.138V463.12H521.988V461.692H522.548C523.08 461.692 523.248 461.44 523.248 460.936V459.69H524.858V461.692H526.356V463.12H524.858V467.572H526.244V469H524.956ZM529.876 469.168C528.392 469.168 527.552 468.314 527.552 467.012C527.552 465.514 528.686 464.772 530.674 464.772H531.92V464.24C531.92 463.428 531.514 462.952 530.562 462.952C529.722 462.952 529.246 463.372 528.896 463.876L527.832 462.924C528.364 462.084 529.218 461.524 530.688 461.524C532.662 461.524 533.712 462.462 533.712 464.128V467.572H534.44V469H533.446C532.676 469 532.2 468.496 532.088 467.74H532.004C531.766 468.678 530.968 469.168 529.876 469.168ZM530.478 467.866C531.276 467.866 531.92 467.502 531.92 466.816V465.85H530.772C529.834 465.85 529.372 466.172 529.372 466.746V466.984C529.372 467.572 529.778 467.866 530.478 467.866ZM538.278 469C537.046 469 536.388 468.328 536.388 467.138V463.12H535.31V461.692H535.87C536.402 461.692 536.57 461.44 536.57 460.936V459.69H538.18V461.692H539.678V463.12H538.18V467.572H539.566V469H538.278ZM544.291 469.168C542.135 469.168 540.847 467.67 540.847 465.332C540.847 463.022 542.093 461.524 544.235 461.524C546.517 461.524 547.567 463.204 547.567 465.206V465.794H542.709V465.976C542.709 467.026 543.311 467.74 544.487 467.74C545.369 467.74 545.901 467.32 546.349 466.746L547.315 467.824C546.713 468.65 545.649 469.168 544.291 469.168ZM544.263 462.868C543.325 462.868 542.709 463.568 542.709 464.576V464.688H545.705V464.562C545.705 463.554 545.187 462.868 544.263 462.868Z" fill="black"/>
<rect x="372.5" y="288.5" width="226" height="47" stroke="#0F62FE"/>
<rect x="373" y="289" width="225" height="46" fill="white"/>
<rect x="373" y="289" width="225" height="46" fill="#EDF5FF"/>
<g clip-path="url(#clip5_19_9851)">
<path d="M453.396 308H448.958V306.516H450.246V299.712H448.958V298.228H453.396V299.712H452.094V306.516H453.396V308ZM455.444 308V298.228H459.966C461.576 298.228 462.556 299.222 462.556 300.734C462.556 302.218 461.702 302.778 460.806 302.834V302.918C461.66 302.932 462.92 303.534 462.92 305.2C462.92 306.768 461.842 308 460.4 308H455.444ZM457.292 303.814V306.432H459.868C460.568 306.432 460.988 306.054 460.988 305.368V304.892C460.988 304.206 460.568 303.814 459.868 303.814H457.292ZM457.292 299.796V302.302H459.574C460.246 302.302 460.638 301.91 460.638 301.266V300.832C460.638 300.174 460.246 299.796 459.574 299.796H457.292ZM464.887 308V298.228H466.973L469.479 303.002H469.535L472.013 298.228H474.015V308H472.265V300.986H472.209L471.453 302.54L469.451 306.236L467.449 302.54L466.693 300.986H466.637V308H464.887ZM485.868 308V303.87H481.794V308H479.946V298.228H481.794V302.232H485.868V298.228H487.716V308H485.868ZM493.262 304.556L494.536 300.692H496.216L493.276 309.302C492.912 310.352 492.394 310.8 491.19 310.8H490.112V309.372H491.428L491.764 308.35L489.146 300.692H490.924L492.198 304.556L492.674 306.404H492.758L493.262 304.556ZM497.558 310.8V300.692H499.35V301.896H499.406C499.672 301.056 500.456 300.524 501.422 300.524C503.27 300.524 504.292 301.896 504.292 304.332C504.292 306.782 503.27 308.168 501.422 308.168C500.456 308.168 499.686 307.608 499.406 306.782H499.35V310.8H497.558ZM500.848 306.684C501.772 306.684 502.416 306.012 502.416 304.976V303.716C502.416 302.68 501.772 301.994 500.848 301.994C499.994 301.994 499.35 302.456 499.35 303.17V305.494C499.35 306.25 499.994 306.684 500.848 306.684ZM509.066 308.168C506.91 308.168 505.622 306.67 505.622 304.332C505.622 302.022 506.868 300.524 509.01 300.524C511.292 300.524 512.342 302.204 512.342 304.206V304.794H507.484V304.976C507.484 306.026 508.086 306.74 509.262 306.74C510.144 306.74 510.676 306.32 511.124 305.746L512.09 306.824C511.488 307.65 510.424 308.168 509.066 308.168ZM509.038 301.868C508.1 301.868 507.484 302.568 507.484 303.576V303.688H510.48V303.562C510.48 302.554 509.962 301.868 509.038 301.868ZM515.871 308H514.079V300.692H515.871V302.204H515.941C516.123 301.434 516.711 300.692 517.873 300.692H518.265V302.386H517.705C516.501 302.386 515.871 302.722 515.871 303.52V308ZM525.164 308H523.316V298.228H527.712C529.518 298.228 530.61 299.446 530.61 301.252C530.61 303.072 529.518 304.276 527.712 304.276H525.164V308ZM525.164 299.838V302.68H527.544C528.258 302.68 528.692 302.288 528.692 301.574V300.93C528.692 300.216 528.258 299.838 527.544 299.838H525.164ZM533.988 308H532.196V300.692H533.988V302.204H534.058C534.24 301.434 534.828 300.692 535.99 300.692H536.382V302.386H535.822C534.618 302.386 533.988 302.722 533.988 303.52V308ZM540.681 308.168C538.595 308.168 537.293 306.684 537.293 304.332C537.293 301.994 538.595 300.524 540.681 300.524C542.781 300.524 544.083 301.994 544.083 304.332C544.083 306.684 542.781 308.168 540.681 308.168ZM540.681 306.726C541.619 306.726 542.207 306.124 542.207 305.018V303.66C542.207 302.568 541.619 301.966 540.681 301.966C539.757 301.966 539.169 302.568 539.169 303.66V305.018C539.169 306.124 539.757 306.726 540.681 306.726ZM548.059 308C546.827 308 546.169 307.328 546.169 306.138V302.12H545.091V300.692H545.651C546.183 300.692 546.351 300.44 546.351 299.936V298.69H547.961V300.692H549.459V302.12H547.961V306.572H549.347V308H548.059ZM554.073 308.168C551.917 308.168 550.629 306.67 550.629 304.332C550.629 302.022 551.875 300.524 554.017 300.524C556.299 300.524 557.349 302.204 557.349 304.206V304.794H552.491V304.976C552.491 306.026 553.093 306.74 554.269 306.74C555.151 306.74 555.683 306.32 556.131 305.746L557.097 306.824C556.495 307.65 555.431 308.168 554.073 308.168ZM554.045 301.868C553.107 301.868 552.491 302.568 552.491 303.576V303.688H555.487V303.562C555.487 302.554 554.969 301.868 554.045 301.868ZM561.97 308.168C559.814 308.168 558.596 306.684 558.596 304.332C558.596 301.994 559.814 300.524 561.97 300.524C563.44 300.524 564.406 301.224 564.84 302.372L563.37 303.03C563.202 302.414 562.74 301.966 561.97 301.966C560.976 301.966 560.472 302.666 560.472 303.688V305.018C560.472 306.04 560.976 306.726 561.97 306.726C562.824 306.726 563.244 306.236 563.51 305.578L564.882 306.236C564.406 307.524 563.384 308.168 561.97 308.168ZM568.705 308C567.473 308 566.815 307.328 566.815 306.138V302.12H565.737V300.692H566.297C566.829 300.692 566.997 300.44 566.997 299.936V298.69H568.607V300.692H570.105V302.12H568.607V306.572H569.993V308H568.705ZM471.702 326.168C470.036 326.168 468.888 325.51 468.062 324.544L469.308 323.34C469.98 324.124 470.806 324.544 471.814 324.544C472.948 324.544 473.536 323.998 473.536 323.172C473.536 322.514 473.228 322.108 472.206 321.926L471.282 321.786C469.308 321.478 468.356 320.54 468.356 318.944C468.356 317.194 469.714 316.06 471.898 316.06C473.368 316.06 474.46 316.564 475.244 317.502L473.984 318.692C473.508 318.09 472.836 317.684 471.8 317.684C470.75 317.684 470.204 318.104 470.204 318.832C470.204 319.574 470.624 319.882 471.562 320.05L472.472 320.218C474.446 320.568 475.37 321.45 475.37 323.06C475.37 324.908 474.04 326.168 471.702 326.168ZM480.224 326.168C478.068 326.168 476.78 324.67 476.78 322.332C476.78 320.022 478.026 318.524 480.168 318.524C482.45 318.524 483.5 320.204 483.5 322.206V322.794H478.642V322.976C478.642 324.026 479.244 324.74 480.42 324.74C481.302 324.74 481.834 324.32 482.282 323.746L483.248 324.824C482.646 325.65 481.582 326.168 480.224 326.168ZM480.196 319.868C479.258 319.868 478.642 320.568 478.642 321.576V321.688H481.638V321.562C481.638 320.554 481.12 319.868 480.196 319.868ZM488.121 326.168C485.965 326.168 484.747 324.684 484.747 322.332C484.747 319.994 485.965 318.524 488.121 318.524C489.591 318.524 490.557 319.224 490.991 320.372L489.521 321.03C489.353 320.414 488.891 319.966 488.121 319.966C487.127 319.966 486.623 320.666 486.623 321.688V323.018C486.623 324.04 487.127 324.726 488.121 324.726C488.975 324.726 489.395 324.236 489.661 323.578L491.033 324.236C490.557 325.524 489.535 326.168 488.121 326.168ZM496.942 326V324.782H496.872C496.62 325.51 496.032 326.168 494.828 326.168C493.33 326.168 492.49 325.132 492.49 323.312V318.692H494.282V323.13C494.282 324.138 494.66 324.684 495.514 324.684C496.228 324.684 496.942 324.306 496.942 323.522V318.692H498.734V326H496.942ZM502.757 326H500.965V318.692H502.757V320.204H502.827C503.009 319.434 503.597 318.692 504.759 318.692H505.151V320.386H504.591C503.387 320.386 502.757 320.722 502.757 321.52V326ZM509.507 326.168C507.351 326.168 506.063 324.67 506.063 322.332C506.063 320.022 507.309 318.524 509.451 318.524C511.733 318.524 512.783 320.204 512.783 322.206V322.794H507.925V322.976C507.925 324.026 508.527 324.74 509.703 324.74C510.585 324.74 511.117 324.32 511.565 323.746L512.531 324.824C511.929 325.65 510.865 326.168 509.507 326.168ZM509.479 319.868C508.541 319.868 507.925 320.568 507.925 321.576V321.688H510.921V321.562C510.921 320.554 510.403 319.868 509.479 319.868ZM518.1 326V316.228H522.622C524.232 316.228 525.212 317.222 525.212 318.734C525.212 320.218 524.358 320.778 523.462 320.834V320.918C524.316 320.932 525.576 321.534 525.576 323.2C525.576 324.768 524.498 326 523.056 326H518.1ZM519.948 321.814V324.432H522.524C523.224 324.432 523.644 324.054 523.644 323.368V322.892C523.644 322.206 523.224 321.814 522.524 321.814H519.948ZM519.948 317.796V320.302H522.23C522.902 320.302 523.294 319.91 523.294 319.266V318.832C523.294 318.174 522.902 317.796 522.23 317.796H519.948ZM531.799 326V324.782H531.729C531.477 325.51 530.889 326.168 529.685 326.168C528.187 326.168 527.347 325.132 527.347 323.312V318.692H529.139V323.13C529.139 324.138 529.517 324.684 530.371 324.684C531.085 324.684 531.799 324.306 531.799 323.522V318.692H533.591V326H531.799ZM536.718 317.628C535.976 317.628 535.668 317.25 535.668 316.732V316.452C535.668 315.934 535.976 315.556 536.718 315.556C537.446 315.556 537.768 315.934 537.768 316.452V316.732C537.768 317.25 537.446 317.628 536.718 317.628ZM535.822 326V318.692H537.614V326H535.822ZM542.609 326H541.643C540.425 326 539.851 325.356 539.851 324.236V315.64H541.643V324.572H542.609V326ZM548.662 326V324.782H548.592C548.326 325.608 547.542 326.168 546.576 326.168C544.742 326.168 543.72 324.782 543.72 322.332C543.72 319.896 544.742 318.524 546.576 318.524C547.542 318.524 548.34 319.056 548.592 319.896H548.662V315.64H550.454V326H548.662ZM547.15 324.684C548.004 324.684 548.662 324.25 548.662 323.494V321.17C548.662 320.456 548.004 319.994 547.15 319.994C546.226 319.994 545.596 320.68 545.596 321.716V322.976C545.596 324.012 546.226 324.684 547.15 324.684Z" fill="black"/>
<rect width="48" height="48" transform="translate(372 288)" fill="#0F62FE"/>
<g clip-path="url(#clip6_19_9851)">
<rect width="24" height="24" transform="translate(384 300)" fill="white" fill-opacity="0.01" style="mix-blend-mode:multiply"/>
<path d="M396 300L387 304.484V315.033C387 317.42 387.948 319.709 389.636 321.397C391.324 323.085 393.613 324.033 396 324.033C398.387 324.033 400.676 323.085 402.364 321.397C404.052 319.709 405 317.42 405 315.033V304.484L396 300ZM401.122 320.486L396 317.934V319.605L399.777 321.487C398.639 322.149 397.347 322.501 396.03 322.506C394.713 322.511 393.419 322.169 392.276 321.515C391.133 320.861 390.182 319.918 389.52 318.78C388.857 317.642 388.505 316.35 388.5 315.033V305.408L396 301.671L403.5 305.408V308.22L396 304.484V306.155L403.5 309.891V312.703L396 308.967V310.638L403.5 314.374V315.033C403.5 315.715 403.407 316.393 403.222 317.049L396 313.451V315.122L402.671 318.445C402.276 319.209 401.752 319.899 401.122 320.486Z" fill="white"/>
</g>
</g>
<rect x="756.5" y="106.5" width="247" height="47" stroke="#0F62FE"/>
<rect x="757" y="107" width="246" height="46" fill="white"/>
<rect x="757" y="107" width="246" height="46" fill="#EDF5FF"/>
<path d="M824.623 135.168C822.957 135.168 821.809 134.51 820.983 133.544L822.229 132.34C822.901 133.124 823.727 133.544 824.735 133.544C825.869 133.544 826.457 132.998 826.457 132.172C826.457 131.514 826.149 131.108 825.127 130.926L824.203 130.786C822.229 130.478 821.277 129.54 821.277 127.944C821.277 126.194 822.635 125.06 824.819 125.06C826.289 125.06 827.381 125.564 828.165 126.502L826.905 127.692C826.429 127.09 825.757 126.684 824.721 126.684C823.671 126.684 823.125 127.104 823.125 127.832C823.125 128.574 823.545 128.882 824.483 129.05L825.393 129.218C827.367 129.568 828.291 130.45 828.291 132.06C828.291 133.908 826.961 135.168 824.623 135.168ZM833.09 135.168C831.004 135.168 829.702 133.684 829.702 131.332C829.702 128.994 831.004 127.524 833.09 127.524C835.19 127.524 836.492 128.994 836.492 131.332C836.492 133.684 835.19 135.168 833.09 135.168ZM833.09 133.726C834.028 133.726 834.616 133.124 834.616 132.018V130.66C834.616 129.568 834.028 128.966 833.09 128.966C832.166 128.966 831.578 129.568 831.578 130.66V132.018C831.578 133.124 832.166 133.726 833.09 133.726ZM842.608 135V133.782H842.538C842.286 134.51 841.698 135.168 840.494 135.168C838.996 135.168 838.156 134.132 838.156 132.312V127.692H839.948V132.13C839.948 133.138 840.326 133.684 841.18 133.684C841.894 133.684 842.608 133.306 842.608 132.522V127.692H844.4V135H842.608ZM848.423 135H846.631V127.692H848.423V129.204H848.493C848.675 128.434 849.263 127.692 850.425 127.692H850.817V129.386H850.257C849.053 129.386 848.423 129.722 848.423 130.52V135ZM855.103 135.168C852.947 135.168 851.729 133.684 851.729 131.332C851.729 128.994 852.947 127.524 855.103 127.524C856.573 127.524 857.539 128.224 857.973 129.372L856.503 130.03C856.335 129.414 855.873 128.966 855.103 128.966C854.109 128.966 853.605 129.666 853.605 130.688V132.018C853.605 133.04 854.109 133.726 855.103 133.726C855.957 133.726 856.377 133.236 856.643 132.578L858.015 133.236C857.539 134.524 856.517 135.168 855.103 135.168ZM862.442 135.168C860.286 135.168 858.998 133.67 858.998 131.332C858.998 129.022 860.244 127.524 862.386 127.524C864.668 127.524 865.718 129.204 865.718 131.206V131.794H860.86V131.976C860.86 133.026 861.462 133.74 862.638 133.74C863.52 133.74 864.052 133.32 864.5 132.746L865.466 133.824C864.864 134.65 863.8 135.168 862.442 135.168ZM862.414 128.868C861.476 128.868 860.86 129.568 860.86 130.576V130.688H863.856V130.562C863.856 129.554 863.338 128.868 862.414 128.868ZM874.829 135.168C872.253 135.168 870.615 133.474 870.615 130.184C870.615 126.894 872.253 125.06 874.829 125.06C876.579 125.06 877.713 125.802 878.399 127.314L876.817 128.154C876.537 127.286 875.921 126.698 874.829 126.698C873.457 126.698 872.575 127.692 872.575 129.358V130.898C872.575 132.578 873.457 133.53 874.829 133.53C875.935 133.53 876.621 132.858 876.943 131.976L878.441 132.858C877.741 134.314 876.579 135.168 874.829 135.168ZM882.964 135.168C880.878 135.168 879.576 133.684 879.576 131.332C879.576 128.994 880.878 127.524 882.964 127.524C885.064 127.524 886.366 128.994 886.366 131.332C886.366 133.684 885.064 135.168 882.964 135.168ZM882.964 133.726C883.902 133.726 884.49 133.124 884.49 132.018V130.66C884.49 129.568 883.902 128.966 882.964 128.966C882.04 128.966 881.452 129.568 881.452 130.66V132.018C881.452 133.124 882.04 133.726 882.964 133.726ZM892.65 135V133.782H892.58C892.314 134.608 891.53 135.168 890.564 135.168C888.73 135.168 887.708 133.782 887.708 131.332C887.708 128.896 888.73 127.524 890.564 127.524C891.53 127.524 892.328 128.056 892.58 128.896H892.65V124.64H894.442V135H892.65ZM891.138 133.684C891.992 133.684 892.65 133.25 892.65 132.494V130.17C892.65 129.456 891.992 128.994 891.138 128.994C890.214 128.994 889.584 129.68 889.584 130.716V131.976C889.584 133.012 890.214 133.684 891.138 133.684ZM899.623 135.168C897.467 135.168 896.179 133.67 896.179 131.332C896.179 129.022 897.425 127.524 899.567 127.524C901.849 127.524 902.899 129.204 902.899 131.206V131.794H898.041V131.976C898.041 133.026 898.643 133.74 899.819 133.74C900.701 133.74 901.233 133.32 901.681 132.746L902.647 133.824C902.045 134.65 900.981 135.168 899.623 135.168ZM899.595 128.868C898.657 128.868 898.041 129.568 898.041 130.576V130.688H901.037V130.562C901.037 129.554 900.519 128.868 899.595 128.868ZM910.064 131.234V135H908.216V125.228H912.626C914.404 125.228 915.51 126.404 915.51 128.252C915.51 129.596 914.894 130.618 913.69 131.024L915.692 135H913.634L911.814 131.234H910.064ZM910.064 129.68H912.444C913.158 129.68 913.592 129.288 913.592 128.574V127.93C913.592 127.216 913.158 126.838 912.444 126.838H910.064V129.68ZM920.31 135.168C918.154 135.168 916.866 133.67 916.866 131.332C916.866 129.022 918.112 127.524 920.254 127.524C922.536 127.524 923.586 129.204 923.586 131.206V131.794H918.728V131.976C918.728 133.026 919.33 133.74 920.506 133.74C921.388 133.74 921.92 133.32 922.368 132.746L923.334 133.824C922.732 134.65 921.668 135.168 920.31 135.168ZM920.282 128.868C919.344 128.868 918.728 129.568 918.728 130.576V130.688H921.724V130.562C921.724 129.554 921.206 128.868 920.282 128.868ZM925.323 137.8V127.692H927.115V128.896H927.171C927.437 128.056 928.221 127.524 929.187 127.524C931.035 127.524 932.057 128.896 932.057 131.332C932.057 133.782 931.035 135.168 929.187 135.168C928.221 135.168 927.451 134.608 927.171 133.782H927.115V137.8H925.323ZM928.613 133.684C929.537 133.684 930.181 133.012 930.181 131.976V130.716C930.181 129.68 929.537 128.994 928.613 128.994C927.759 128.994 927.115 129.456 927.115 130.17V132.494C927.115 133.25 927.759 133.684 928.613 133.684ZM936.775 135.168C934.689 135.168 933.387 133.684 933.387 131.332C933.387 128.994 934.689 127.524 936.775 127.524C938.875 127.524 940.177 128.994 940.177 131.332C940.177 133.684 938.875 135.168 936.775 135.168ZM936.775 133.726C937.713 133.726 938.301 133.124 938.301 132.018V130.66C938.301 129.568 937.713 128.966 936.775 128.966C935.851 128.966 935.263 129.568 935.263 130.66V132.018C935.263 133.124 935.851 133.726 936.775 133.726ZM944.32 135.168C942.934 135.168 942.024 134.664 941.296 133.824L942.388 132.76C942.92 133.376 943.564 133.754 944.39 133.754C945.244 133.754 945.608 133.432 945.608 132.914C945.608 132.494 945.356 132.228 944.712 132.144L943.984 132.046C942.416 131.85 941.548 131.164 941.548 129.834C941.548 128.42 942.654 127.524 944.32 127.524C945.748 127.524 946.476 127.944 947.176 128.672L946.126 129.722C945.706 129.274 945.09 128.938 944.376 128.938C943.606 128.938 943.27 129.246 943.27 129.694C943.27 130.184 943.536 130.408 944.222 130.52L944.964 130.618C946.56 130.842 947.33 131.556 947.33 132.774C947.33 134.188 946.14 135.168 944.32 135.168ZM949.968 126.628C949.226 126.628 948.918 126.25 948.918 125.732V125.452C948.918 124.934 949.226 124.556 949.968 124.556C950.696 124.556 951.018 124.934 951.018 125.452V125.732C951.018 126.25 950.696 126.628 949.968 126.628ZM949.072 135V127.692H950.864V135H949.072ZM955.383 135C954.151 135 953.493 134.328 953.493 133.138V129.12H952.415V127.692H952.975C953.507 127.692 953.675 127.44 953.675 126.936V125.69H955.285V127.692H956.783V129.12H955.285V133.572H956.671V135H955.383ZM961.341 135.168C959.255 135.168 957.953 133.684 957.953 131.332C957.953 128.994 959.255 127.524 961.341 127.524C963.441 127.524 964.743 128.994 964.743 131.332C964.743 133.684 963.441 135.168 961.341 135.168ZM961.341 133.726C962.279 133.726 962.867 133.124 962.867 132.018V130.66C962.867 129.568 962.279 128.966 961.341 128.966C960.417 128.966 959.829 129.568 959.829 130.66V132.018C959.829 133.124 960.417 133.726 961.341 133.726ZM968.284 135H966.492V127.692H968.284V129.204H968.354C968.536 128.434 969.124 127.692 970.286 127.692H970.678V129.386H970.118C968.914 129.386 968.284 129.722 968.284 130.52V135ZM975.463 131.556L976.737 127.692H978.417L975.477 136.302C975.113 137.352 974.595 137.8 973.391 137.8H972.313V136.372H973.629L973.965 135.35L971.347 127.692H973.125L974.399 131.556L974.875 133.404H974.959L975.463 131.556Z" fill="black"/>
<rect width="48" height="48" transform="translate(756 106)" fill="#0F62FE"/>
<rect width="24" height="24" transform="translate(768 118)" fill="white" fill-opacity="0.01" style="mix-blend-mode:multiply"/>
<path d="M781.5 131.5H775.5V133H781.5V131.5Z" fill="white"/>
<path d="M784.5 127.75H775.5V129.25H784.5V127.75Z" fill="white"/>
<path d="M779.25 135.25H775.5V136.75H779.25V135.25Z" fill="white"/>
<path d="M786.75 121.75H784.5V121C784.5 120.602 784.342 120.221 784.061 119.939C783.779 119.658 783.398 119.5 783 119.5H777C776.602 119.5 776.221 119.658 775.939 119.939C775.658 120.221 775.5 120.602 775.5 121V121.75H773.25C772.852 121.75 772.471 121.908 772.189 122.189C771.908 122.471 771.75 122.852 771.75 123.25V139C771.75 139.398 771.908 139.779 772.189 140.061C772.471 140.342 772.852 140.5 773.25 140.5H786.75C787.148 140.5 787.529 140.342 787.811 140.061C788.092 139.779 788.25 139.398 788.25 139V123.25C788.25 122.852 788.092 122.471 787.811 122.189C787.529 121.908 787.148 121.75 786.75 121.75ZM777 121H783V124H777V121ZM786.75 139H773.25V123.25H775.5V125.5H784.5V123.25H786.75V139Z" fill="white"/>
<rect x="756.5" y="288.5" width="247" height="47" stroke="#0F62FE"/>
<rect x="757" y="289" width="246" height="46" fill="white"/>
<rect x="757" y="289" width="246" height="46" fill="#EDF5FF"/>
<path d="M825.419 317.168C822.843 317.168 821.205 315.474 821.205 312.184C821.205 308.894 822.843 307.06 825.419 307.06C827.169 307.06 828.303 307.802 828.989 309.314L827.407 310.154C827.127 309.286 826.511 308.698 825.419 308.698C824.047 308.698 823.165 309.692 823.165 311.358V312.898C823.165 314.578 824.047 315.53 825.419 315.53C826.525 315.53 827.211 314.858 827.533 313.976L829.031 314.858C828.331 316.314 827.169 317.168 825.419 317.168ZM833.553 317.168C831.467 317.168 830.165 315.684 830.165 313.332C830.165 310.994 831.467 309.524 833.553 309.524C835.653 309.524 836.955 310.994 836.955 313.332C836.955 315.684 835.653 317.168 833.553 317.168ZM833.553 315.726C834.491 315.726 835.079 315.124 835.079 314.018V312.66C835.079 311.568 834.491 310.966 833.553 310.966C832.629 310.966 832.041 311.568 832.041 312.66V314.018C832.041 315.124 832.629 315.726 833.553 315.726ZM840.496 317H838.704V309.692H840.496V310.91H840.566C840.86 310.126 841.476 309.524 842.61 309.524C844.108 309.524 844.948 310.56 844.948 312.38V317H843.156V312.562C843.156 311.526 842.806 310.994 841.952 310.994C841.21 310.994 840.496 311.386 840.496 312.17V317ZM849.376 317C848.144 317 847.486 316.328 847.486 315.138V311.12H846.408V309.692H846.968C847.5 309.692 847.668 309.44 847.668 308.936V307.69H849.278V309.692H850.776V311.12H849.278V315.572H850.664V317H849.376ZM854.297 317.168C852.813 317.168 851.973 316.314 851.973 315.012C851.973 313.514 853.107 312.772 855.095 312.772H856.341V312.24C856.341 311.428 855.935 310.952 854.983 310.952C854.143 310.952 853.667 311.372 853.317 311.876L852.253 310.924C852.785 310.084 853.639 309.524 855.109 309.524C857.083 309.524 858.133 310.462 858.133 312.128V315.572H858.861V317H857.867C857.097 317 856.621 316.496 856.509 315.74H856.425C856.187 316.678 855.389 317.168 854.297 317.168ZM854.899 315.866C855.697 315.866 856.341 315.502 856.341 314.816V313.85H855.193C854.255 313.85 853.793 314.172 853.793 314.746V314.984C853.793 315.572 854.199 315.866 854.899 315.866ZM861.367 308.628C860.625 308.628 860.317 308.25 860.317 307.732V307.452C860.317 306.934 860.625 306.556 861.367 306.556C862.095 306.556 862.417 306.934 862.417 307.452V307.732C862.417 308.25 862.095 308.628 861.367 308.628ZM860.471 317V309.692H862.263V317H860.471ZM866.292 317H864.5V309.692H866.292V310.91H866.362C866.656 310.126 867.272 309.524 868.406 309.524C869.904 309.524 870.744 310.56 870.744 312.38V317H868.952V312.562C868.952 311.526 868.602 310.994 867.748 310.994C867.006 310.994 866.292 311.386 866.292 312.17V317ZM875.845 317.168C873.689 317.168 872.401 315.67 872.401 313.332C872.401 311.022 873.647 309.524 875.789 309.524C878.071 309.524 879.121 311.204 879.121 313.206V313.794H874.263V313.976C874.263 315.026 874.865 315.74 876.041 315.74C876.923 315.74 877.455 315.32 877.903 314.746L878.869 315.824C878.267 316.65 877.203 317.168 875.845 317.168ZM875.817 310.868C874.879 310.868 874.263 311.568 874.263 312.576V312.688H877.259V312.562C877.259 311.554 876.741 310.868 875.817 310.868ZM882.649 317H880.857V309.692H882.649V311.204H882.719C882.901 310.434 883.489 309.692 884.651 309.692H885.043V311.386H884.483C883.279 311.386 882.649 311.722 882.649 312.52V317ZM891.942 313.234V317H890.094V307.228H894.504C896.282 307.228 897.388 308.404 897.388 310.252C897.388 311.596 896.772 312.618 895.568 313.024L897.57 317H895.512L893.692 313.234H891.942ZM891.942 311.68H894.322C895.036 311.68 895.47 311.288 895.47 310.574V309.93C895.47 309.216 895.036 308.838 894.322 308.838H891.942V311.68ZM902.188 317.168C900.032 317.168 898.744 315.67 898.744 313.332C898.744 311.022 899.99 309.524 902.132 309.524C904.414 309.524 905.464 311.204 905.464 313.206V313.794H900.606V313.976C900.606 315.026 901.208 315.74 902.384 315.74C903.266 315.74 903.798 315.32 904.246 314.746L905.212 315.824C904.61 316.65 903.546 317.168 902.188 317.168ZM902.16 310.868C901.222 310.868 900.606 311.568 900.606 312.576V312.688H903.602V312.562C903.602 311.554 903.084 310.868 902.16 310.868ZM913.794 317.616C913.794 319.142 912.758 319.968 909.958 319.968C907.494 319.968 906.556 319.324 906.556 318.246C906.556 317.434 907.046 316.972 907.858 316.846V316.692C907.256 316.538 906.92 316.062 906.92 315.474C906.92 314.718 907.564 314.34 908.264 314.186V314.13C907.382 313.724 906.934 312.968 906.934 312.002C906.934 310.518 907.984 309.524 909.958 309.524C910.406 309.524 910.868 309.58 911.232 309.706V309.468C911.232 308.754 911.596 308.404 912.268 308.404H913.402V309.776H911.848V309.972C912.604 310.392 912.982 311.106 912.982 312.002C912.982 313.472 911.946 314.452 909.958 314.452C909.538 314.452 909.16 314.41 908.838 314.326C908.558 314.452 908.32 314.662 908.32 314.984C908.32 315.348 908.628 315.53 909.272 315.53H911.232C913.024 315.53 913.794 316.3 913.794 317.616ZM912.114 317.826C912.114 317.364 911.778 317.084 910.868 317.084H908.376C908.11 317.28 907.998 317.546 907.998 317.84C907.998 318.4 908.418 318.736 909.538 318.736H910.434C911.596 318.736 912.114 318.442 912.114 317.826ZM909.958 313.234C910.812 313.234 911.274 312.842 911.274 312.114V311.876C911.274 311.134 910.812 310.756 909.958 310.756C909.104 310.756 908.642 311.134 908.642 311.876V312.114C908.642 312.842 909.104 313.234 909.958 313.234ZM915.885 308.628C915.143 308.628 914.835 308.25 914.835 307.732V307.452C914.835 306.934 915.143 306.556 915.885 306.556C916.613 306.556 916.935 306.934 916.935 307.452V307.732C916.935 308.25 916.613 308.628 915.885 308.628ZM914.989 317V309.692H916.781V317H914.989ZM921.413 317.168C920.027 317.168 919.117 316.664 918.389 315.824L919.481 314.76C920.013 315.376 920.657 315.754 921.483 315.754C922.337 315.754 922.701 315.432 922.701 314.914C922.701 314.494 922.449 314.228 921.805 314.144L921.077 314.046C919.509 313.85 918.641 313.164 918.641 311.834C918.641 310.42 919.747 309.524 921.413 309.524C922.841 309.524 923.569 309.944 924.269 310.672L923.219 311.722C922.799 311.274 922.183 310.938 921.469 310.938C920.699 310.938 920.363 311.246 920.363 311.694C920.363 312.184 920.629 312.408 921.315 312.52L922.057 312.618C923.653 312.842 924.423 313.556 924.423 314.774C924.423 316.188 923.233 317.168 921.413 317.168ZM928.337 317C927.105 317 926.447 316.328 926.447 315.138V311.12H925.369V309.692H925.929C926.461 309.692 926.629 309.44 926.629 308.936V307.69H928.239V309.692H929.737V311.12H928.239V315.572H929.625V317H928.337ZM933.244 317H931.452V309.692H933.244V311.204H933.314C933.496 310.434 934.084 309.692 935.246 309.692H935.638V311.386H935.078C933.874 311.386 933.244 311.722 933.244 312.52V317ZM940.423 313.556L941.697 309.692H943.377L940.437 318.302C940.073 319.352 939.555 319.8 938.351 319.8H937.273V318.372H938.589L938.925 317.35L936.307 309.692H938.085L939.359 313.556L939.835 315.404H939.919L940.423 313.556Z" fill="black"/>
<rect width="48" height="48" transform="translate(756 288)" fill="#0F62FE"/>
<rect width="24" height="24" transform="translate(768 300)" fill="white" fill-opacity="0.01" style="mix-blend-mode:multiply"/>
<path d="M780.75 309.75V304.5H774V316.5H786V309.75H780.75ZM775.5 306H779.25V309.75H775.5V306ZM775.5 311.25H779.25V315H775.5V311.25ZM784.5 315H780.75V311.25H784.5V315Z" fill="white"/>
<path d="M789 308.25H782.25V301.5H789V308.25ZM783.75 306.75H787.5V303H783.75V306.75Z" fill="white"/>
<path d="M789 315H787.5V316.5H789V321H771V316.5H772.5V315H771C770.602 315 770.221 315.159 769.94 315.44C769.659 315.721 769.5 316.102 769.5 316.5V321C769.5 321.398 769.659 321.779 769.94 322.06C770.221 322.341 770.602 322.5 771 322.5H789C789.398 322.5 789.779 322.341 790.06 322.06C790.341 321.779 790.5 321.398 790.5 321V316.5C790.5 316.102 790.341 315.721 790.06 315.44C789.779 315.159 789.398 315 789 315Z" fill="white"/>
<path d="M773.25 319.5C773.664 319.5 774 319.164 774 318.75C774 318.336 773.664 318 773.25 318C772.836 318 772.5 318.336 772.5 318.75C772.5 319.164 772.836 319.5 773.25 319.5Z" fill="white"/>
<rect x="756.5" y="472.5" width="247" height="47" stroke="#0F62FE"/>
<rect x="757" y="473" width="246" height="46" fill="white"/>
<rect x="757" y="473" width="246" height="46" fill="#EDF5FF"/>
<path d="M825.035 501.168C822.459 501.168 820.821 499.474 820.821 496.184C820.821 492.894 822.459 491.06 825.035 491.06C826.785 491.06 827.919 491.802 828.605 493.314L827.023 494.154C826.743 493.286 826.127 492.698 825.035 492.698C823.663 492.698 822.781 493.692 822.781 495.358V496.898C822.781 498.578 823.663 499.53 825.035 499.53C826.141 499.53 826.827 498.858 827.149 497.976L828.647 498.858C827.947 500.314 826.785 501.168 825.035 501.168ZM833.03 501H832.064C830.846 501 830.272 500.356 830.272 499.236V490.64H832.064V499.572H833.03V501ZM837.445 501.168C835.359 501.168 834.057 499.684 834.057 497.332C834.057 494.994 835.359 493.524 837.445 493.524C839.545 493.524 840.847 494.994 840.847 497.332C840.847 499.684 839.545 501.168 837.445 501.168ZM837.445 499.726C838.383 499.726 838.971 499.124 838.971 498.018V496.66C838.971 495.568 838.383 494.966 837.445 494.966C836.521 494.966 835.933 495.568 835.933 496.66V498.018C835.933 499.124 836.521 499.726 837.445 499.726ZM846.964 501V499.782H846.894C846.642 500.51 846.054 501.168 844.85 501.168C843.352 501.168 842.512 500.132 842.512 498.312V493.692H844.304V498.13C844.304 499.138 844.682 499.684 845.536 499.684C846.25 499.684 846.964 499.306 846.964 498.522V493.692H848.756V501H846.964ZM855.522 501V499.782H855.452C855.186 500.608 854.402 501.168 853.436 501.168C851.602 501.168 850.58 499.782 850.58 497.332C850.58 494.896 851.602 493.524 853.436 493.524C854.402 493.524 855.2 494.056 855.452 494.896H855.522V490.64H857.314V501H855.522ZM854.01 499.684C854.864 499.684 855.522 499.25 855.522 498.494V496.17C855.522 495.456 854.864 494.994 854.01 494.994C853.086 494.994 852.456 495.68 852.456 496.716V497.976C852.456 499.012 853.086 499.684 854.01 499.684ZM866.957 501.168C864.395 501.168 862.701 499.418 862.701 496.114C862.701 492.81 864.395 491.06 866.957 491.06C869.533 491.06 871.213 492.81 871.213 496.114C871.213 499.418 869.533 501.168 866.957 501.168ZM866.957 499.53C868.357 499.53 869.253 498.536 869.253 496.87V495.358C869.253 493.692 868.357 492.698 866.957 492.698C865.557 492.698 864.661 493.692 864.661 495.358V496.87C864.661 498.536 865.557 499.53 866.957 499.53ZM873.136 501V490.64H874.928V494.896H874.984C875.25 494.056 876.034 493.524 877 493.524C878.848 493.524 879.87 494.896 879.87 497.332C879.87 499.782 878.848 501.168 877 501.168C876.034 501.168 875.264 500.608 874.984 499.782H874.928V501H873.136ZM876.426 499.684C877.35 499.684 877.994 499.012 877.994 497.976V496.716C877.994 495.68 877.35 494.994 876.426 494.994C875.572 494.994 874.928 495.456 874.928 496.17V498.494C874.928 499.25 875.572 499.684 876.426 499.684ZM881.691 502.372V493.692H883.483V501.882C883.483 503.1 882.895 503.8 881.551 503.8H880.571V502.372H881.691ZM882.587 492.628C881.845 492.628 881.537 492.25 881.537 491.732V491.452C881.537 490.934 881.845 490.556 882.587 490.556C883.315 490.556 883.637 490.934 883.637 491.452V491.732C883.637 492.25 883.315 492.628 882.587 492.628ZM888.674 501.168C886.518 501.168 885.23 499.67 885.23 497.332C885.23 495.022 886.476 493.524 888.618 493.524C890.9 493.524 891.95 495.204 891.95 497.206V497.794H887.092V497.976C887.092 499.026 887.694 499.74 888.87 499.74C889.752 499.74 890.284 499.32 890.732 498.746L891.698 499.824C891.096 500.65 890.032 501.168 888.674 501.168ZM888.646 494.868C887.708 494.868 887.092 495.568 887.092 496.576V496.688H890.088V496.562C890.088 495.554 889.57 494.868 888.646 494.868ZM896.57 501.168C894.414 501.168 893.196 499.684 893.196 497.332C893.196 494.994 894.414 493.524 896.57 493.524C898.04 493.524 899.006 494.224 899.44 495.372L897.97 496.03C897.802 495.414 897.34 494.966 896.57 494.966C895.576 494.966 895.072 495.666 895.072 496.688V498.018C895.072 499.04 895.576 499.726 896.57 499.726C897.424 499.726 897.844 499.236 898.11 498.578L899.482 499.236C899.006 500.524 897.984 501.168 896.57 501.168ZM903.306 501C902.074 501 901.416 500.328 901.416 499.138V495.12H900.338V493.692H900.898C901.43 493.692 901.598 493.44 901.598 492.936V491.69H903.208V493.692H904.706V495.12H903.208V499.572H904.594V501H903.306ZM913.039 501.168C911.373 501.168 910.225 500.51 909.399 499.544L910.645 498.34C911.317 499.124 912.143 499.544 913.151 499.544C914.285 499.544 914.873 498.998 914.873 498.172C914.873 497.514 914.565 497.108 913.543 496.926L912.619 496.786C910.645 496.478 909.693 495.54 909.693 493.944C909.693 492.194 911.051 491.06 913.235 491.06C914.705 491.06 915.797 491.564 916.581 492.502L915.321 493.692C914.845 493.09 914.173 492.684 913.137 492.684C912.087 492.684 911.541 493.104 911.541 493.832C911.541 494.574 911.961 494.882 912.899 495.05L913.809 495.218C915.783 495.568 916.707 496.45 916.707 498.06C916.707 499.908 915.377 501.168 913.039 501.168ZM920.835 501C919.603 501 918.945 500.328 918.945 499.138V495.12H917.867V493.692H918.427C918.959 493.692 919.127 493.44 919.127 492.936V491.69H920.737V493.692H922.235V495.12H920.737V499.572H922.123V501H920.835ZM926.793 501.168C924.707 501.168 923.405 499.684 923.405 497.332C923.405 494.994 924.707 493.524 926.793 493.524C928.893 493.524 930.195 494.994 930.195 497.332C930.195 499.684 928.893 501.168 926.793 501.168ZM926.793 499.726C927.731 499.726 928.319 499.124 928.319 498.018V496.66C928.319 495.568 927.731 494.966 926.793 494.966C925.869 494.966 925.281 495.568 925.281 496.66V498.018C925.281 499.124 925.869 499.726 926.793 499.726ZM933.735 501H931.943V493.692H933.735V495.204H933.805C933.987 494.434 934.575 493.692 935.737 493.692H936.129V495.386H935.569C934.365 495.386 933.735 495.722 933.735 496.52V501ZM939.255 501.168C937.771 501.168 936.931 500.314 936.931 499.012C936.931 497.514 938.065 496.772 940.053 496.772H941.299V496.24C941.299 495.428 940.893 494.952 939.941 494.952C939.101 494.952 938.625 495.372 938.275 495.876L937.211 494.924C937.743 494.084 938.597 493.524 940.067 493.524C942.041 493.524 943.091 494.462 943.091 496.128V499.572H943.819V501H942.825C942.055 501 941.579 500.496 941.467 499.74H941.383C941.145 500.678 940.347 501.168 939.255 501.168ZM939.857 499.866C940.655 499.866 941.299 499.502 941.299 498.816V497.85H940.151C939.213 497.85 938.751 498.172 938.751 498.746V498.984C938.751 499.572 939.157 499.866 939.857 499.866ZM952.023 501.616C952.023 503.142 950.987 503.968 948.187 503.968C945.723 503.968 944.785 503.324 944.785 502.246C944.785 501.434 945.275 500.972 946.087 500.846V500.692C945.485 500.538 945.149 500.062 945.149 499.474C945.149 498.718 945.793 498.34 946.493 498.186V498.13C945.611 497.724 945.163 496.968 945.163 496.002C945.163 494.518 946.213 493.524 948.187 493.524C948.635 493.524 949.097 493.58 949.461 493.706V493.468C949.461 492.754 949.825 492.404 950.497 492.404H951.631V493.776H950.077V493.972C950.833 494.392 951.211 495.106 951.211 496.002C951.211 497.472 950.175 498.452 948.187 498.452C947.767 498.452 947.389 498.41 947.067 498.326C946.787 498.452 946.549 498.662 946.549 498.984C946.549 499.348 946.857 499.53 947.501 499.53H949.461C951.253 499.53 952.023 500.3 952.023 501.616ZM950.343 501.826C950.343 501.364 950.007 501.084 949.097 501.084H946.605C946.339 501.28 946.227 501.546 946.227 501.84C946.227 502.4 946.647 502.736 947.767 502.736H948.663C949.825 502.736 950.343 502.442 950.343 501.826ZM948.187 497.234C949.041 497.234 949.503 496.842 949.503 496.114V495.876C949.503 495.134 949.041 494.756 948.187 494.756C947.333 494.756 946.871 495.134 946.871 495.876V496.114C946.871 496.842 947.333 497.234 948.187 497.234ZM956.09 501.168C953.934 501.168 952.646 499.67 952.646 497.332C952.646 495.022 953.892 493.524 956.034 493.524C958.316 493.524 959.366 495.204 959.366 497.206V497.794H954.508V497.976C954.508 499.026 955.11 499.74 956.286 499.74C957.168 499.74 957.7 499.32 958.148 498.746L959.114 499.824C958.512 500.65 957.448 501.168 956.09 501.168ZM956.062 494.868C955.124 494.868 954.508 495.568 954.508 496.576V496.688H957.504V496.562C957.504 495.554 956.986 494.868 956.062 494.868Z" fill="black"/>
<rect width="48" height="48" transform="translate(756 472)" fill="#0F62FE"/>
<rect width="24" height="24" transform="translate(768 484)" fill="white" fill-opacity="0.01" style="mix-blend-mode:multiply"/>
<path d="M789 499H787.5V500.5H789V505H771V500.5H778.5V499H771C770.602 499 770.221 499.159 769.94 499.44C769.659 499.721 769.5 500.102 769.5 500.5V505C769.5 505.398 769.659 505.779 769.94 506.06C770.221 506.341 770.602 506.5 771 506.5H789C789.398 506.5 789.779 506.341 790.06 506.06C790.341 505.779 790.5 505.398 790.5 505V500.5C790.5 500.102 790.341 499.721 790.06 499.44C789.779 499.159 789.398 499 789 499Z" fill="white"/>
<path d="M773.25 503.5C773.664 503.5 774 503.164 774 502.75C774 502.336 773.664 502 773.25 502C772.836 502 772.5 502.336 772.5 502.75C772.5 503.164 772.836 503.5 773.25 503.5Z" fill="white"/>
<path d="M790.5 490H784.5V494.5H780V500.5H786V496H790.5V490ZM784.5 499H781.5V496H784.5V499ZM789 494.5H786V491.5H789V494.5Z" fill="white"/>
<path d="M781.5 491.5H775.5V485.5H781.5V491.5ZM777 490H780V487H777V490Z" fill="white"/>
<path d="M754 496H692.43V314.241V128H754M602 311.751H754" stroke="black"/>
<rect width="8" height="8" transform="matrix(-1 0 0 -1 609 316)" fill="white" fill-opacity="0.01" style="mix-blend-mode:multiply"/>
<path d="M609 316L601 312L609 308V316Z" fill="black"/>
<rect width="104" height="8" transform="matrix(0 -1 1 0 120 283)" fill="white" fill-opacity="0.01" style="mix-blend-mode:multiply"/>
<g clip-path="url(#clip7_19_9851)">
<rect width="90" height="0" transform="matrix(0 -1 1 0 124 276)" fill="white" fill-opacity="0.01" style="mix-blend-mode:multiply"/>
<path d="M124 276V186" stroke="black"/>
</g>
<rect width="8" height="8" transform="matrix(0 -1 1 0 120 187)" fill="white" fill-opacity="0.01" style="mix-blend-mode:multiply"/>
<path d="M120 187L124 179L128 187H120Z" fill="black"/>
<rect width="8" height="8" transform="matrix(0 1 1 0 120 275)" fill="white" fill-opacity="0.01" style="mix-blend-mode:multiply"/>
<path d="M120 275L124 283L128 275H120Z" fill="black"/>
<rect width="80" height="8" transform="matrix(0 -1 1 0 482 209)" fill="white" fill-opacity="0.01" style="mix-blend-mode:multiply"/>
<g clip-path="url(#clip8_19_9851)">
<rect width="73" height="0" transform="matrix(0 -1 1 0 486 202)" fill="white" fill-opacity="0.01" style="mix-blend-mode:multiply"/>
<path d="M486 202V129" stroke="black"/>
</g>
<rect width="8" height="8" transform="matrix(0 1 1 0 482 201)" fill="white" fill-opacity="0.01" style="mix-blend-mode:multiply"/>
<path d="M482 201L486 209L490 201H482Z" fill="black"/>
<rect width="247" height="43" transform="translate(158 84)" fill="white" fill-opacity="0.01" style="mix-blend-mode:multiply"/>
<rect width="233" height="0" transform="translate(165 105.5)" fill="white" fill-opacity="0.01" style="mix-blend-mode:multiply"/>
<path d="M165 105.5H398" stroke="black"/>
<rect width="8" height="8" transform="translate(397 101.5)" fill="white" fill-opacity="0.01" style="mix-blend-mode:multiply"/>
<path d="M397 101.5L405 105.5L397 109.5V101.5Z" fill="black"/>
<rect width="8" height="8" transform="matrix(-1 0 0 1 166 101.5)" fill="white" fill-opacity="0.01" style="mix-blend-mode:multiply"/>
<path d="M166 101.5L158 105.5L166 109.5V101.5Z" fill="black"/>
<rect width="216" height="43" transform="translate(152 291)" fill="white" fill-opacity="0.01" style="mix-blend-mode:multiply"/>
<rect width="202" height="0" transform="translate(159 312.5)" fill="white" fill-opacity="0.01" style="mix-blend-mode:multiply"/>
<path d="M159 312.5H361" stroke="black"/>
<rect width="8" height="8" transform="translate(360 308.5)" fill="white" fill-opacity="0.01" style="mix-blend-mode:multiply"/>
<path d="M360 308.5L368 312.5L360 316.5V308.5Z" fill="black"/>
<rect width="8" height="8" transform="matrix(-1 0 0 1 160 308.5)" fill="white" fill-opacity="0.01" style="mix-blend-mode:multiply"/>
<path d="M160 308.5L152 312.5L160 316.5V308.5Z" fill="black"/>
<g clip-path="url(#clip9_19_9851)">
<path d="M888.719 265.75C888.719 266.423 888.173 266.969 887.5 266.969C886.827 266.969 886.281 266.423 886.281 265.75C886.281 265.077 886.827 264.531 887.5 264.531C888.173 264.531 888.719 265.077 888.719 265.75ZM913.198 258.048H913.547C915.733 258.048 917.777 256.879 918.879 255.001C918.986 254.819 918.986 254.591 918.879 254.409C917.883 252.713 916.175 251.617 914.236 251.406C914.056 249.416 912.887 247.618 911.097 246.63C910.923 246.531 910.708 246.531 910.53 246.63C908.58 247.711 907.367 249.749 907.367 251.949C907.367 253.197 907.759 254.409 908.471 255.423H904.335V249.5C904.335 249.177 904.073 248.915 903.75 248.915H897.835V236.5C897.835 236.177 897.573 235.915 897.25 235.915H890.75C890.427 235.915 890.165 236.177 890.165 236.5V242.415H884.25C883.927 242.415 883.665 242.677 883.665 243V248.915H877.75C877.427 248.915 877.165 249.177 877.165 249.5V255.418H869.625C869.469 255.418 869.321 255.48 869.212 255.589C869.102 255.698 869.042 255.847 869.042 256.002V257.461C869.042 262.053 870.907 266.226 873.935 269.286C873.988 269.38 874.066 269.457 874.16 269.51C877.295 272.569 881.613 274.46 886.374 274.46C900.734 274.46 912.072 264.851 913.198 258.048ZM884.326 268.426C884.635 268.334 884.812 268.009 884.721 267.7C884.63 267.391 884.305 267.211 883.993 267.307C881.678 267.994 878.307 268.396 874.715 268.415C871.926 265.57 870.21 261.709 870.21 257.463V256.587L909.763 256.592C910.003 256.592 910.221 256.444 910.308 256.218C910.396 255.992 910.336 255.737 910.156 255.574C909.127 254.642 908.539 253.32 908.539 251.949C908.539 250.282 909.402 248.73 910.814 247.821C912.226 248.728 913.089 250.28 913.089 251.949V251.955C913.089 252.274 913.342 252.532 913.662 252.54C915.296 252.576 916.774 253.381 917.683 254.707C916.757 256.055 915.203 256.879 913.547 256.879H912.684C912.38 256.879 912.127 257.112 912.102 257.414C911.555 263.66 900.261 273.292 886.372 273.292C882.411 273.292 878.779 271.889 875.966 269.564C879.195 269.466 882.181 269.063 884.326 268.426ZM897.835 250.085H903.163V255.415H897.835V250.085ZM891.335 250.085H896.665V255.415H891.335V250.085ZM884.835 250.085H890.165V255.415H884.835V250.085ZM878.335 250.085H883.665V255.415H878.335V250.085ZM891.335 243.585H896.665V248.915H891.335V243.585ZM884.835 243.585H890.165V248.915H884.835V243.585ZM891.335 237.085H896.665V242.415H891.335V237.085Z" fill="black"/>
</g>
<g clip-path="url(#clip10_19_9851)">
<path d="M895 461.96C894.904 461.96 894.81 461.936 894.722 461.89L873.597 450.515C873.409 450.413 873.29 450.216 873.29 450V424C873.29 423.785 873.409 423.587 873.597 423.485L894.722 412.11C894.896 412.016 895.102 412.016 895.278 412.11L916.403 423.485C916.591 423.587 916.71 423.785 916.71 424V450C916.71 450.216 916.591 450.413 916.403 450.515L895.278 461.89C895.19 461.937 895.096 461.96 895 461.96ZM895.585 439.605V460.397L902.54 456.651V443.349L895.585 439.605ZM887.46 456.651L894.415 460.397V439.605L887.46 443.35V456.651ZM903.71 443.979V456.021L914.89 450L903.71 443.979ZM875.108 450L886.29 456.021V443.979L875.108 450ZM903.71 442.652L915.538 449.022V424.349L895 413.289L874.46 424.349V449.022L886.29 442.652V432.632C885.354 432.375 884.665 431.517 884.665 430.5C884.665 429.281 885.656 428.29 886.875 428.29C888.094 428.29 889.085 429.281 889.085 430.5C889.085 431.516 888.396 432.374 887.46 432.632V442.021L894.415 438.276V427.755C893.479 427.498 892.79 426.641 892.79 425.623C892.79 424.405 893.781 423.413 895 423.413C896.219 423.413 897.21 424.406 897.21 425.625C897.21 426.641 896.519 427.499 895.585 427.757V438.277L902.54 442.023V432.633C901.606 432.377 900.915 431.519 900.915 430.502C900.915 429.283 901.906 428.292 903.125 428.292C904.344 428.292 905.335 429.283 905.335 430.502C905.335 431.517 904.644 432.375 903.71 432.633V442.652ZM903.125 429.46C902.551 429.46 902.085 429.926 902.085 430.5C902.085 431.073 902.551 431.54 903.125 431.54C903.699 431.54 904.165 431.073 904.165 430.5C904.165 429.926 903.699 429.46 903.125 429.46ZM886.875 429.46C886.301 429.46 885.835 429.926 885.835 430.5C885.835 431.073 886.301 431.54 886.875 431.54C887.449 431.54 887.915 431.073 887.915 430.5C887.915 429.926 887.449 429.46 886.875 429.46ZM895 424.585C894.426 424.585 893.96 425.051 893.96 425.625C893.96 426.199 894.426 426.665 895 426.665C895.574 426.665 896.04 426.199 896.04 425.625C896.04 425.051 895.574 424.585 895 424.585Z" fill="black"/>
</g>
<g clip-path="url(#clip11_19_9851)">
<path fill-rule="evenodd" clip-rule="evenodd" d="M894 50.2501C888.599 50.2509 883.374 52.1731 879.261 55.6731C875.147 59.173 872.413 64.0223 871.547 69.3535C870.681 74.6847 871.741 80.1501 874.535 84.7718C877.33 89.3936 881.678 92.8704 886.801 94.5801C887.939 94.7914 888.426 94.0926 888.426 93.4914C888.426 92.8901 888.426 91.5251 888.426 89.6239C882.105 90.9889 880.772 86.5689 880.772 86.5689C880.328 85.176 879.392 83.9921 878.14 83.2376C876.076 81.8401 878.302 81.8564 878.302 81.8564C879.023 81.9582 879.711 82.2234 880.314 82.6318C880.917 83.0402 881.418 83.5809 881.78 84.2126C882.409 85.3416 883.461 86.1743 884.705 86.5278C885.948 86.8813 887.281 86.7266 888.41 86.0976C888.502 84.9446 889.01 83.8645 889.84 83.0589C884.802 82.4739 879.489 80.5239 879.489 71.8139C879.452 69.5517 880.29 67.3627 881.829 65.7039C881.132 63.7445 881.214 61.5926 882.056 59.6914C882.056 59.6914 883.957 59.0739 888.312 62.0151C892.036 60.9994 895.964 60.9994 899.687 62.0151C904.026 59.0739 905.927 59.6914 905.927 59.6914C906.77 61.5926 906.851 63.7445 906.155 65.7039C907.694 67.3627 908.532 69.5517 908.495 71.8139C908.495 80.5564 903.181 82.4739 898.111 83.0426C898.654 83.5931 899.073 84.2536 899.339 84.9796C899.606 85.7056 899.713 86.4803 899.655 87.2514C899.655 90.2901 899.655 92.7439 899.655 93.4914C899.655 94.2389 900.061 94.8076 901.28 94.5801C906.41 92.8682 910.762 89.3848 913.557 84.7545C916.351 80.1242 917.404 74.6499 916.528 69.3133C915.651 63.9767 912.903 59.1268 908.774 55.6334C904.646 52.1399 899.408 50.2315 894 50.2501Z" fill="black"/>
</g>
<defs>
<clipPath id="clip0_19_9851">
<rect width="160" height="48" fill="white" transform="translate(406 80)"/>
</clipPath>
<clipPath id="clip1_19_9851">
<rect width="24" height="24" fill="white" transform="translate(422 92)"/>
</clipPath>
<clipPath id="clip2_19_9851">
<rect width="312" height="48" fill="white" transform="translate(332 208)"/>
</clipPath>
<clipPath id="clip3_19_9851">
<rect x="514" y="422" width="30" height="30" rx="15" fill="white"/>
</clipPath>
<clipPath id="clip4_19_9851">
<rect width="30" height="30" rx="15" transform="matrix(1 0 0 -1 514 452)" fill="white"/>
</clipPath>
<clipPath id="clip5_19_9851">
<rect width="227" height="48" fill="white" transform="translate(372 288)"/>
</clipPath>
<clipPath id="clip6_19_9851">
<rect width="24" height="24" fill="white" transform="translate(384 300)"/>
</clipPath>
<clipPath id="clip7_19_9851">
<rect width="90" height="8" fill="white" transform="matrix(0 -1 1 0 120 276)"/>
</clipPath>
<clipPath id="clip8_19_9851">
<rect width="73" height="8" fill="white" transform="matrix(0 -1 1 0 482 202)"/>
</clipPath>
<clipPath id="clip9_19_9851">
<rect width="52" height="52" fill="white" transform="translate(868 230)"/>
</clipPath>
<clipPath id="clip10_19_9851">
<rect width="52" height="52" fill="white" transform="translate(869 411)"/>
</clipPath>
<clipPath id="clip11_19_9851">
<rect width="52" height="52" fill="white" transform="translate(868 47)"/>
</clipPath>
</defs>
</svg>
