<svg width="1080" height="536" viewBox="0 0 1080 536" fill="none" xmlns="http://www.w3.org/2000/svg">
<rect width="1080" height="536" fill="white"/>
<rect x="456.5" y="215.5" width="591" height="273" fill="white" fill-opacity="0.01" style="mix-blend-mode:multiply"/>
<rect x="456.5" y="215.5" width="591" height="273" stroke="#0F62FE"/>
<rect x="457" y="216" width="590" height="272" fill="white"/>
<g clip-path="url(#clip0_19_182)">
<path d="M517.516 244H515.416L512.224 234.228H514.114L515.612 238.988L516.48 242.236H516.522L517.376 238.988L518.874 234.228H520.708L517.516 244ZM524.084 244H522.236V234.228H526.632C528.438 234.228 529.53 235.446 529.53 237.252C529.53 239.072 528.438 240.276 526.632 240.276H524.084V244ZM524.084 235.838V238.68H526.464C527.178 238.68 527.612 238.288 527.612 237.574V236.93C527.612 236.216 527.178 235.838 526.464 235.838H524.084ZM535.158 244.168C532.582 244.168 530.944 242.474 530.944 239.184C530.944 235.894 532.582 234.06 535.158 234.06C536.908 234.06 538.042 234.802 538.728 236.314L537.146 237.154C536.866 236.286 536.25 235.698 535.158 235.698C533.786 235.698 532.904 236.692 532.904 238.358V239.898C532.904 241.578 533.786 242.53 535.158 242.53C536.264 242.53 536.95 241.858 537.272 240.976L538.77 241.858C538.07 243.314 536.908 244.168 535.158 244.168Z" fill="black"/>
<rect width="24" height="24" transform="translate(472 227)" fill="white" fill-opacity="0.01" style="mix-blend-mode:multiply"/>
<path d="M489.561 243.5L479.5 233.439V228.5H473.5V234.5H478.439L488.5 244.561V249.5H494.5V243.5H489.561ZM478 233H475V230H478V233ZM493 248H490V245H493V248Z" fill="black"/>
<path d="M494.5 231.5C494.502 230.77 494.237 230.065 493.755 229.517C493.273 228.969 492.608 228.616 491.884 228.524C491.161 228.432 490.428 228.607 489.824 229.017C489.221 229.427 488.788 230.043 488.607 230.75H481.75V232.25H488.607C488.741 232.766 489.01 233.236 489.387 233.613C489.764 233.99 490.234 234.259 490.75 234.393V241.25H492.25V234.393C492.892 234.228 493.462 233.854 493.869 233.331C494.276 232.807 494.498 232.163 494.5 231.5ZM491.5 233C491.203 233 490.913 232.912 490.667 232.747C490.42 232.582 490.228 232.348 490.114 232.074C490.001 231.8 489.971 231.498 490.029 231.207C490.087 230.916 490.23 230.649 490.439 230.439C490.649 230.23 490.916 230.087 491.207 230.029C491.498 229.971 491.8 230.001 492.074 230.114C492.348 230.228 492.582 230.42 492.747 230.667C492.912 230.913 493 231.203 493 231.5C493 231.898 492.841 232.279 492.56 232.56C492.279 232.841 491.898 232.999 491.5 233Z" fill="black"/>
<path d="M486.25 245.75H479.393C479.259 245.234 478.99 244.764 478.613 244.387C478.236 244.01 477.766 243.741 477.25 243.607V236.75H475.75V243.607C475.238 243.738 474.77 244.002 474.394 244.372C474.017 244.743 473.746 245.206 473.606 245.716C473.467 246.225 473.465 246.763 473.6 247.273C473.735 247.784 474.003 248.25 474.377 248.623C474.75 248.997 475.216 249.265 475.727 249.4C476.237 249.535 476.775 249.533 477.284 249.394C477.793 249.254 478.257 248.982 478.627 248.606C478.998 248.229 479.262 247.762 479.393 247.25H486.25V245.75ZM476.5 248C476.203 248 475.913 247.912 475.667 247.747C475.42 247.582 475.228 247.348 475.114 247.074C475.001 246.8 474.971 246.498 475.029 246.207C475.087 245.916 475.23 245.649 475.439 245.439C475.649 245.23 475.916 245.087 476.207 245.029C476.498 244.971 476.8 245.001 477.074 245.114C477.348 245.228 477.582 245.42 477.747 245.667C477.912 245.913 478 246.203 478 246.5C478 246.898 477.841 247.279 477.56 247.56C477.279 247.841 476.898 247.999 476.5 248Z" fill="black"/>
<line x1="458" y1="215" x2="458" y2="263" stroke="#0F62FE" stroke-width="4"/>
</g>
<rect x="36.5" y="70.5" width="338" height="145" stroke="#0F62FE"/>
<rect x="37" y="71" width="337" height="144" fill="white"/>
<rect x="37" y="71" width="337" height="144" fill="#EDF5FF"/>
<g clip-path="url(#clip1_19_182)">
<path d="M104.942 99.168C102.366 99.168 100.728 97.474 100.728 94.184C100.728 90.894 102.366 89.06 104.942 89.06C106.692 89.06 107.826 89.802 108.512 91.314L106.93 92.154C106.65 91.286 106.034 90.698 104.942 90.698C103.57 90.698 102.688 91.692 102.688 93.358V94.898C102.688 96.578 103.57 97.53 104.942 97.53C106.048 97.53 106.734 96.858 107.056 95.976L108.554 96.858C107.854 98.314 106.692 99.168 104.942 99.168ZM112.936 99H111.97C110.752 99 110.178 98.356 110.178 97.236V88.64H111.97V97.572H112.936V99ZM117.352 99.168C115.266 99.168 113.964 97.684 113.964 95.332C113.964 92.994 115.266 91.524 117.352 91.524C119.452 91.524 120.754 92.994 120.754 95.332C120.754 97.684 119.452 99.168 117.352 99.168ZM117.352 97.726C118.29 97.726 118.878 97.124 118.878 96.018V94.66C118.878 93.568 118.29 92.966 117.352 92.966C116.428 92.966 115.84 93.568 115.84 94.66V96.018C115.84 97.124 116.428 97.726 117.352 97.726ZM126.87 99V97.782H126.8C126.548 98.51 125.96 99.168 124.756 99.168C123.258 99.168 122.418 98.132 122.418 96.312V91.692H124.21V96.13C124.21 97.138 124.588 97.684 125.442 97.684C126.156 97.684 126.87 97.306 126.87 96.522V91.692H128.662V99H126.87ZM135.429 99V97.782H135.359C135.093 98.608 134.309 99.168 133.343 99.168C131.509 99.168 130.487 97.782 130.487 95.332C130.487 92.896 131.509 91.524 133.343 91.524C134.309 91.524 135.107 92.056 135.359 92.896H135.429V88.64H137.221V99H135.429ZM133.917 97.684C134.771 97.684 135.429 97.25 135.429 96.494V94.17C135.429 93.456 134.771 92.994 133.917 92.994C132.993 92.994 132.363 93.68 132.363 94.716V95.976C132.363 97.012 132.993 97.684 133.917 97.684ZM146.864 99.168C144.302 99.168 142.608 97.418 142.608 94.114C142.608 90.81 144.302 89.06 146.864 89.06C149.44 89.06 151.12 90.81 151.12 94.114C151.12 97.418 149.44 99.168 146.864 99.168ZM146.864 97.53C148.264 97.53 149.16 96.536 149.16 94.87V93.358C149.16 91.692 148.264 90.698 146.864 90.698C145.464 90.698 144.568 91.692 144.568 93.358V94.87C144.568 96.536 145.464 97.53 146.864 97.53ZM153.043 99V88.64H154.835V92.896H154.891C155.157 92.056 155.941 91.524 156.907 91.524C158.755 91.524 159.777 92.896 159.777 95.332C159.777 97.782 158.755 99.168 156.907 99.168C155.941 99.168 155.171 98.608 154.891 97.782H154.835V99H153.043ZM156.333 97.684C157.257 97.684 157.901 97.012 157.901 95.976V94.716C157.901 93.68 157.257 92.994 156.333 92.994C155.479 92.994 154.835 93.456 154.835 94.17V96.494C154.835 97.25 155.479 97.684 156.333 97.684ZM161.597 100.372V91.692H163.389V99.882C163.389 101.1 162.801 101.8 161.457 101.8H160.477V100.372H161.597ZM162.493 90.628C161.751 90.628 161.443 90.25 161.443 89.732V89.452C161.443 88.934 161.751 88.556 162.493 88.556C163.221 88.556 163.543 88.934 163.543 89.452V89.732C163.543 90.25 163.221 90.628 162.493 90.628ZM168.58 99.168C166.424 99.168 165.136 97.67 165.136 95.332C165.136 93.022 166.382 91.524 168.524 91.524C170.806 91.524 171.856 93.204 171.856 95.206V95.794H166.998V95.976C166.998 97.026 167.6 97.74 168.776 97.74C169.658 97.74 170.19 97.32 170.638 96.746L171.604 97.824C171.002 98.65 169.938 99.168 168.58 99.168ZM168.552 92.868C167.614 92.868 166.998 93.568 166.998 94.576V94.688H169.994V94.562C169.994 93.554 169.476 92.868 168.552 92.868ZM176.477 99.168C174.321 99.168 173.103 97.684 173.103 95.332C173.103 92.994 174.321 91.524 176.477 91.524C177.947 91.524 178.913 92.224 179.347 93.372L177.877 94.03C177.709 93.414 177.247 92.966 176.477 92.966C175.483 92.966 174.979 93.666 174.979 94.688V96.018C174.979 97.04 175.483 97.726 176.477 97.726C177.331 97.726 177.751 97.236 178.017 96.578L179.389 97.236C178.913 98.524 177.891 99.168 176.477 99.168ZM183.213 99C181.981 99 181.323 98.328 181.323 97.138V93.12H180.245V91.692H180.805C181.337 91.692 181.505 91.44 181.505 90.936V89.69H183.115V91.692H184.613V93.12H183.115V97.572H184.501V99H183.213ZM192.946 99.168C191.28 99.168 190.132 98.51 189.306 97.544L190.552 96.34C191.224 97.124 192.05 97.544 193.058 97.544C194.192 97.544 194.78 96.998 194.78 96.172C194.78 95.514 194.472 95.108 193.45 94.926L192.526 94.786C190.552 94.478 189.6 93.54 189.6 91.944C189.6 90.194 190.958 89.06 193.142 89.06C194.612 89.06 195.704 89.564 196.488 90.502L195.228 91.692C194.752 91.09 194.08 90.684 193.044 90.684C191.994 90.684 191.448 91.104 191.448 91.832C191.448 92.574 191.868 92.882 192.806 93.05L193.716 93.218C195.69 93.568 196.614 94.45 196.614 96.06C196.614 97.908 195.284 99.168 192.946 99.168ZM200.742 99C199.51 99 198.852 98.328 198.852 97.138V93.12H197.774V91.692H198.334C198.866 91.692 199.034 91.44 199.034 90.936V89.69H200.644V91.692H202.142V93.12H200.644V97.572H202.03V99H200.742ZM206.699 99.168C204.613 99.168 203.311 97.684 203.311 95.332C203.311 92.994 204.613 91.524 206.699 91.524C208.799 91.524 210.101 92.994 210.101 95.332C210.101 97.684 208.799 99.168 206.699 99.168ZM206.699 97.726C207.637 97.726 208.225 97.124 208.225 96.018V94.66C208.225 93.568 207.637 92.966 206.699 92.966C205.775 92.966 205.187 93.568 205.187 94.66V96.018C205.187 97.124 205.775 97.726 206.699 97.726ZM213.642 99H211.85V91.692H213.642V93.204H213.712C213.894 92.434 214.482 91.692 215.644 91.692H216.036V93.386H215.476C214.272 93.386 213.642 93.722 213.642 94.52V99ZM219.162 99.168C217.678 99.168 216.838 98.314 216.838 97.012C216.838 95.514 217.972 94.772 219.96 94.772H221.206V94.24C221.206 93.428 220.8 92.952 219.848 92.952C219.008 92.952 218.532 93.372 218.182 93.876L217.118 92.924C217.65 92.084 218.504 91.524 219.974 91.524C221.948 91.524 222.998 92.462 222.998 94.128V97.572H223.726V99H222.732C221.962 99 221.486 98.496 221.374 97.74H221.29C221.052 98.678 220.254 99.168 219.162 99.168ZM219.764 97.866C220.562 97.866 221.206 97.502 221.206 96.816V95.85H220.058C219.12 95.85 218.658 96.172 218.658 96.746V96.984C218.658 97.572 219.064 97.866 219.764 97.866ZM231.93 99.616C231.93 101.142 230.894 101.968 228.094 101.968C225.63 101.968 224.692 101.324 224.692 100.246C224.692 99.434 225.182 98.972 225.994 98.846V98.692C225.392 98.538 225.056 98.062 225.056 97.474C225.056 96.718 225.7 96.34 226.4 96.186V96.13C225.518 95.724 225.07 94.968 225.07 94.002C225.07 92.518 226.12 91.524 228.094 91.524C228.542 91.524 229.004 91.58 229.368 91.706V91.468C229.368 90.754 229.732 90.404 230.404 90.404H231.538V91.776H229.984V91.972C230.74 92.392 231.118 93.106 231.118 94.002C231.118 95.472 230.082 96.452 228.094 96.452C227.674 96.452 227.296 96.41 226.974 96.326C226.694 96.452 226.456 96.662 226.456 96.984C226.456 97.348 226.764 97.53 227.408 97.53H229.368C231.16 97.53 231.93 98.3 231.93 99.616ZM230.25 99.826C230.25 99.364 229.914 99.084 229.004 99.084H226.512C226.246 99.28 226.134 99.546 226.134 99.84C226.134 100.4 226.554 100.736 227.674 100.736H228.57C229.732 100.736 230.25 100.442 230.25 99.826ZM228.094 95.234C228.948 95.234 229.41 94.842 229.41 94.114V93.876C229.41 93.134 228.948 92.756 228.094 92.756C227.24 92.756 226.778 93.134 226.778 93.876V94.114C226.778 94.842 227.24 95.234 228.094 95.234ZM235.997 99.168C233.841 99.168 232.553 97.67 232.553 95.332C232.553 93.022 233.799 91.524 235.941 91.524C238.223 91.524 239.273 93.204 239.273 95.206V95.794H234.415V95.976C234.415 97.026 235.017 97.74 236.193 97.74C237.075 97.74 237.607 97.32 238.055 96.746L239.021 97.824C238.419 98.65 237.355 99.168 235.997 99.168ZM235.969 92.868C235.031 92.868 234.415 93.568 234.415 94.576V94.688H237.411V94.562C237.411 93.554 236.893 92.868 235.969 92.868Z" fill="black"/>
<rect width="48" height="48" transform="translate(36 70)" fill="#0F62FE"/>
<path d="M69 97H67.5V98.5H69V103H51V98.5H58.5V97H51C50.6023 97.0005 50.221 97.1586 49.9398 97.4398C49.6586 97.721 49.5005 98.1023 49.5 98.5V103C49.5005 103.398 49.6586 103.779 49.9398 104.06C50.221 104.341 50.6023 104.5 51 104.5H69C69.3977 104.5 69.7789 104.341 70.0602 104.06C70.3414 103.779 70.4995 103.398 70.5 103V98.5C70.4995 98.1023 70.3414 97.721 70.0602 97.4398C69.7789 97.1586 69.3977 97.0005 69 97Z" fill="white"/>
<path d="M53.25 101.5C53.6642 101.5 54 101.164 54 100.75C54 100.336 53.6642 100 53.25 100C52.8358 100 52.5 100.336 52.5 100.75C52.5 101.164 52.8358 101.5 53.25 101.5Z" fill="white"/>
<path d="M70.5 88H64.5V92.5H60V98.5H66V94H70.5V88ZM64.5 97H61.5V94H64.5V97ZM69 92.5H66V89.5H69V92.5Z" fill="white"/>
<path d="M61.5 89.5H55.5V83.5H61.5V89.5ZM57 88H60V85H57V88Z" fill="white"/>
</g>
<rect x="480.5" y="272.5" width="535" height="191" stroke="#0F62FE"/>
<rect x="481" y="273" width="534" height="190" fill="white"/>
<rect x="481" y="273" width="534" height="190" fill="#EDF5FF"/>
<path d="M484 268.5H1019.5V460" stroke="#0F62FE"/>
<path d="M488 264.5H1023.5V456" stroke="#0F62FE"/>
<g clip-path="url(#clip2_19_182)">
<path d="M551.07 301V296.87H546.996V301H545.148V291.228H546.996V295.232H551.07V291.228H552.918V301H551.07ZM558.464 297.556L559.739 293.692H561.418L558.479 302.302C558.115 303.352 557.597 303.8 556.392 303.8H555.314V302.372H556.63L556.966 301.35L554.348 293.692H556.126L557.401 297.556L557.876 299.404H557.961L558.464 297.556ZM562.76 303.8V293.692H564.552V294.896H564.608C564.874 294.056 565.658 293.524 566.624 293.524C568.472 293.524 569.494 294.896 569.494 297.332C569.494 299.782 568.472 301.168 566.624 301.168C565.658 301.168 564.888 300.608 564.608 299.782H564.552V303.8H562.76ZM566.05 299.684C566.974 299.684 567.618 299.012 567.618 297.976V296.716C567.618 295.68 566.974 294.994 566.05 294.994C565.196 294.994 564.552 295.456 564.552 296.17V298.494C564.552 299.25 565.196 299.684 566.05 299.684ZM574.269 301.168C572.113 301.168 570.825 299.67 570.825 297.332C570.825 295.022 572.071 293.524 574.213 293.524C576.495 293.524 577.545 295.204 577.545 297.206V297.794H572.687V297.976C572.687 299.026 573.289 299.74 574.465 299.74C575.347 299.74 575.879 299.32 576.327 298.746L577.293 299.824C576.691 300.65 575.627 301.168 574.269 301.168ZM574.241 294.868C573.303 294.868 572.687 295.568 572.687 296.576V296.688H575.683V296.562C575.683 295.554 575.165 294.868 574.241 294.868ZM581.073 301H579.281V293.692H581.073V295.204H581.143C581.325 294.434 581.913 293.692 583.075 293.692H583.467V295.386H582.907C581.703 295.386 581.073 295.722 581.073 296.52V301ZM590.366 301H588.518V291.228H592.914C594.72 291.228 595.812 292.446 595.812 294.252C595.812 296.072 594.72 297.276 592.914 297.276H590.366V301ZM590.366 292.838V295.68H592.746C593.46 295.68 593.894 295.288 593.894 294.574V293.93C593.894 293.216 593.46 292.838 592.746 292.838H590.366ZM599.19 301H597.398V293.692H599.19V295.204H599.26C599.442 294.434 600.03 293.692 601.192 293.692H601.584V295.386H601.024C599.82 295.386 599.19 295.722 599.19 296.52V301ZM605.884 301.168C603.798 301.168 602.496 299.684 602.496 297.332C602.496 294.994 603.798 293.524 605.884 293.524C607.984 293.524 609.286 294.994 609.286 297.332C609.286 299.684 607.984 301.168 605.884 301.168ZM605.884 299.726C606.822 299.726 607.41 299.124 607.41 298.018V296.66C607.41 295.568 606.822 294.966 605.884 294.966C604.96 294.966 604.372 295.568 604.372 296.66V298.018C604.372 299.124 604.96 299.726 605.884 299.726ZM613.262 301C612.03 301 611.372 300.328 611.372 299.138V295.12H610.294V293.692H610.854C611.386 293.692 611.554 293.44 611.554 292.936V291.69H613.164V293.692H614.662V295.12H613.164V299.572H614.55V301H613.262ZM619.276 301.168C617.12 301.168 615.832 299.67 615.832 297.332C615.832 295.022 617.078 293.524 619.22 293.524C621.502 293.524 622.552 295.204 622.552 297.206V297.794H617.694V297.976C617.694 299.026 618.296 299.74 619.472 299.74C620.354 299.74 620.886 299.32 621.334 298.746L622.3 299.824C621.698 300.65 620.634 301.168 619.276 301.168ZM619.248 294.868C618.31 294.868 617.694 295.568 617.694 296.576V296.688H620.69V296.562C620.69 295.554 620.172 294.868 619.248 294.868ZM627.172 301.168C625.016 301.168 623.798 299.684 623.798 297.332C623.798 294.994 625.016 293.524 627.172 293.524C628.642 293.524 629.608 294.224 630.042 295.372L628.572 296.03C628.404 295.414 627.942 294.966 627.172 294.966C626.178 294.966 625.674 295.666 625.674 296.688V298.018C625.674 299.04 626.178 299.726 627.172 299.726C628.026 299.726 628.446 299.236 628.712 298.578L630.084 299.236C629.608 300.524 628.586 301.168 627.172 301.168ZM633.908 301C632.676 301 632.018 300.328 632.018 299.138V295.12H630.94V293.692H631.5C632.032 293.692 632.2 293.44 632.2 292.936V291.69H633.81V293.692H635.308V295.12H633.81V299.572H635.196V301H633.908ZM644.971 301H642.871L639.679 291.228H641.569L643.067 295.988L643.935 299.236H643.977L644.831 295.988L646.329 291.228H648.163L644.971 301ZM650.475 292.628C649.733 292.628 649.425 292.25 649.425 291.732V291.452C649.425 290.934 649.733 290.556 650.475 290.556C651.203 290.556 651.525 290.934 651.525 291.452V291.732C651.525 292.25 651.203 292.628 650.475 292.628ZM649.579 301V293.692H651.371V301H649.579ZM655.4 301H653.608V293.692H655.4V295.204H655.47C655.652 294.434 656.24 293.692 657.402 293.692H657.794V295.386H657.234C656.03 295.386 655.4 295.722 655.4 296.52V301ZM661.601 301C660.369 301 659.711 300.328 659.711 299.138V295.12H658.633V293.692H659.193C659.725 293.692 659.893 293.44 659.893 292.936V291.69H661.503V293.692H663.001V295.12H661.503V299.572H662.889V301H661.601ZM669.083 301V299.782H669.013C668.761 300.51 668.173 301.168 666.969 301.168C665.471 301.168 664.631 300.132 664.631 298.312V293.692H666.423V298.13C666.423 299.138 666.801 299.684 667.655 299.684C668.369 299.684 669.083 299.306 669.083 298.522V293.692H670.875V301H669.083ZM674.911 301.168C673.427 301.168 672.587 300.314 672.587 299.012C672.587 297.514 673.721 296.772 675.709 296.772H676.955V296.24C676.955 295.428 676.549 294.952 675.597 294.952C674.757 294.952 674.281 295.372 673.931 295.876L672.867 294.924C673.399 294.084 674.253 293.524 675.723 293.524C677.697 293.524 678.747 294.462 678.747 296.128V299.572H679.475V301H678.481C677.711 301 677.235 300.496 677.123 299.74H677.039C676.801 300.678 676.003 301.168 674.911 301.168ZM675.513 299.866C676.311 299.866 676.955 299.502 676.955 298.816V297.85H675.807C674.869 297.85 674.407 298.172 674.407 298.746V298.984C674.407 299.572 674.813 299.866 675.513 299.866ZM683.844 301H682.878C681.66 301 681.086 300.356 681.086 299.236V290.64H682.878V299.572H683.844V301ZM691.979 301.168C690.313 301.168 689.165 300.51 688.339 299.544L689.585 298.34C690.257 299.124 691.083 299.544 692.091 299.544C693.225 299.544 693.813 298.998 693.813 298.172C693.813 297.514 693.505 297.108 692.483 296.926L691.559 296.786C689.585 296.478 688.633 295.54 688.633 293.944C688.633 292.194 689.991 291.06 692.175 291.06C693.645 291.06 694.737 291.564 695.521 292.502L694.261 293.692C693.785 293.09 693.113 292.684 692.077 292.684C691.027 292.684 690.481 293.104 690.481 293.832C690.481 294.574 690.901 294.882 691.839 295.05L692.749 295.218C694.723 295.568 695.647 296.45 695.647 298.06C695.647 299.908 694.317 301.168 691.979 301.168ZM700.502 301.168C698.346 301.168 697.058 299.67 697.058 297.332C697.058 295.022 698.304 293.524 700.446 293.524C702.728 293.524 703.778 295.204 703.778 297.206V297.794H698.92V297.976C698.92 299.026 699.522 299.74 700.698 299.74C701.58 299.74 702.112 299.32 702.56 298.746L703.526 299.824C702.924 300.65 701.86 301.168 700.502 301.168ZM700.474 294.868C699.536 294.868 698.92 295.568 698.92 296.576V296.688H701.916V296.562C701.916 295.554 701.398 294.868 700.474 294.868ZM707.307 301H705.515V293.692H707.307V295.204H707.377C707.559 294.434 708.147 293.692 709.309 293.692H709.701V295.386H709.141C707.937 295.386 707.307 295.722 707.307 296.52V301ZM714.976 301H712.848L710.412 293.692H712.176L713.198 296.842L713.912 299.446H714.01L714.724 296.842L715.718 293.692H717.426L714.976 301ZM721.627 301.168C719.471 301.168 718.183 299.67 718.183 297.332C718.183 295.022 719.429 293.524 721.571 293.524C723.853 293.524 724.903 295.204 724.903 297.206V297.794H720.045V297.976C720.045 299.026 720.647 299.74 721.823 299.74C722.705 299.74 723.237 299.32 723.685 298.746L724.651 299.824C724.049 300.65 722.985 301.168 721.627 301.168ZM721.599 294.868C720.661 294.868 720.045 295.568 720.045 296.576V296.688H723.041V296.562C723.041 295.554 722.523 294.868 721.599 294.868ZM728.431 301H726.639V293.692H728.431V295.204H728.501C728.683 294.434 729.271 293.692 730.433 293.692H730.825V295.386H730.265C729.061 295.386 728.431 295.722 728.431 296.52V301ZM734.689 301.168C733.303 301.168 732.393 300.664 731.665 299.824L732.757 298.76C733.289 299.376 733.933 299.754 734.759 299.754C735.613 299.754 735.977 299.432 735.977 298.914C735.977 298.494 735.725 298.228 735.081 298.144L734.353 298.046C732.785 297.85 731.917 297.164 731.917 295.834C731.917 294.42 733.023 293.524 734.689 293.524C736.117 293.524 736.845 293.944 737.545 294.672L736.495 295.722C736.075 295.274 735.459 294.938 734.745 294.938C733.975 294.938 733.639 295.246 733.639 295.694C733.639 296.184 733.905 296.408 734.591 296.52L735.333 296.618C736.929 296.842 737.699 297.556 737.699 298.774C737.699 300.188 736.509 301.168 734.689 301.168ZM743.274 301V295.106H742.196V293.692H743.274V292.642C743.274 291.354 743.974 290.64 745.29 290.64H746.564V292.068H745.066V293.692H746.564V295.106H745.066V301H743.274ZM750.808 301.168C748.722 301.168 747.42 299.684 747.42 297.332C747.42 294.994 748.722 293.524 750.808 293.524C752.908 293.524 754.21 294.994 754.21 297.332C754.21 299.684 752.908 301.168 750.808 301.168ZM750.808 299.726C751.746 299.726 752.334 299.124 752.334 298.018V296.66C752.334 295.568 751.746 294.966 750.808 294.966C749.884 294.966 749.296 295.568 749.296 296.66V298.018C749.296 299.124 749.884 299.726 750.808 299.726ZM757.751 301H755.959V293.692H757.751V295.204H757.821C758.003 294.434 758.591 293.692 759.753 293.692H760.145V295.386H759.585C758.381 295.386 757.751 295.722 757.751 296.52V301ZM769.563 301H767.463L764.271 291.228H766.161L767.659 295.988L768.527 299.236H768.569L769.423 295.988L770.921 291.228H772.755L769.563 301ZM776.131 301H774.283V291.228H778.679C780.485 291.228 781.577 292.446 781.577 294.252C781.577 296.072 780.485 297.276 778.679 297.276H776.131V301ZM776.131 292.838V295.68H778.511C779.225 295.68 779.659 295.288 779.659 294.574V293.93C779.659 293.216 779.225 292.838 778.511 292.838H776.131ZM787.206 301.168C784.63 301.168 782.992 299.474 782.992 296.184C782.992 292.894 784.63 291.06 787.206 291.06C788.956 291.06 790.09 291.802 790.776 293.314L789.194 294.154C788.914 293.286 788.298 292.698 787.206 292.698C785.834 292.698 784.952 293.692 784.952 295.358V296.898C784.952 298.578 785.834 299.53 787.206 299.53C788.312 299.53 788.998 298.858 789.32 297.976L790.818 298.858C790.118 300.314 788.956 301.168 787.206 301.168Z" fill="black"/>
<rect width="48" height="48" transform="translate(480 272)" fill="#0F62FE"/>
<path d="M507 297.5V302.375C507 303.8 507.825 305.15 509.175 305.75L510.75 306.5L512.325 305.75C513.6 305.15 514.5 303.8 514.5 302.375V297.5H507ZM513 302.375C513 303.275 512.475 304.025 511.725 304.4L510.75 304.85L509.775 304.4C509.025 304.025 508.5 303.2 508.5 302.375V299H513V302.375Z" fill="white"/>
<path d="M510.75 285.5H495.75C494.925 285.5 494.25 286.175 494.25 287V303.5C494.25 304.325 494.925 305 495.75 305H504V287H510.75V295.25H512.25V287C512.25 286.175 511.575 285.5 510.75 285.5ZM502.2 293.15L495.75 301.925V287.825L502.2 293.15ZM496.5 303.5L502.5 295.325V303.5H496.5ZM502.5 291.425L497.1 287H502.5V291.425Z" fill="white"/>
</g>
<rect x="35.5" y="306.5" width="339" height="183" stroke="#0F62FE"/>
<rect x="36" y="307" width="338" height="182" fill="white"/>
<rect x="36" y="307" width="338" height="182" fill="#EDF5FF"/>
<g clip-path="url(#clip3_19_182)">
<path d="M106.07 335V330.87H101.996V335H100.148V325.228H101.996V329.232H106.07V325.228H107.918V335H106.07ZM113.464 331.556L114.739 327.692H116.418L113.479 336.302C113.115 337.352 112.597 337.8 111.392 337.8H110.314V336.372H111.63L111.966 335.35L109.348 327.692H111.126L112.401 331.556L112.876 333.404H112.961L113.464 331.556ZM117.76 337.8V327.692H119.552V328.896H119.608C119.874 328.056 120.658 327.524 121.624 327.524C123.472 327.524 124.494 328.896 124.494 331.332C124.494 333.782 123.472 335.168 121.624 335.168C120.658 335.168 119.888 334.608 119.608 333.782H119.552V337.8H117.76ZM121.05 333.684C121.974 333.684 122.618 333.012 122.618 331.976V330.716C122.618 329.68 121.974 328.994 121.05 328.994C120.196 328.994 119.552 329.456 119.552 330.17V332.494C119.552 333.25 120.196 333.684 121.05 333.684ZM129.269 335.168C127.113 335.168 125.825 333.67 125.825 331.332C125.825 329.022 127.071 327.524 129.213 327.524C131.495 327.524 132.545 329.204 132.545 331.206V331.794H127.687V331.976C127.687 333.026 128.289 333.74 129.465 333.74C130.347 333.74 130.879 333.32 131.327 332.746L132.293 333.824C131.691 334.65 130.627 335.168 129.269 335.168ZM129.241 328.868C128.303 328.868 127.687 329.568 127.687 330.576V330.688H130.683V330.562C130.683 329.554 130.165 328.868 129.241 328.868ZM136.073 335H134.281V327.692H136.073V329.204H136.143C136.325 328.434 136.913 327.692 138.075 327.692H138.467V329.386H137.907C136.703 329.386 136.073 329.722 136.073 330.52V335ZM145.366 335H143.518V325.228H147.914C149.72 325.228 150.812 326.446 150.812 328.252C150.812 330.072 149.72 331.276 147.914 331.276H145.366V335ZM145.366 326.838V329.68H147.746C148.46 329.68 148.894 329.288 148.894 328.574V327.93C148.894 327.216 148.46 326.838 147.746 326.838H145.366ZM154.19 335H152.398V327.692H154.19V329.204H154.26C154.442 328.434 155.03 327.692 156.192 327.692H156.584V329.386H156.024C154.82 329.386 154.19 329.722 154.19 330.52V335ZM160.884 335.168C158.798 335.168 157.496 333.684 157.496 331.332C157.496 328.994 158.798 327.524 160.884 327.524C162.984 327.524 164.286 328.994 164.286 331.332C164.286 333.684 162.984 335.168 160.884 335.168ZM160.884 333.726C161.822 333.726 162.41 333.124 162.41 332.018V330.66C162.41 329.568 161.822 328.966 160.884 328.966C159.96 328.966 159.372 329.568 159.372 330.66V332.018C159.372 333.124 159.96 333.726 160.884 333.726ZM168.262 335C167.03 335 166.372 334.328 166.372 333.138V329.12H165.294V327.692H165.854C166.386 327.692 166.554 327.44 166.554 326.936V325.69H168.164V327.692H169.662V329.12H168.164V333.572H169.55V335H168.262ZM174.276 335.168C172.12 335.168 170.832 333.67 170.832 331.332C170.832 329.022 172.078 327.524 174.22 327.524C176.502 327.524 177.552 329.204 177.552 331.206V331.794H172.694V331.976C172.694 333.026 173.296 333.74 174.472 333.74C175.354 333.74 175.886 333.32 176.334 332.746L177.3 333.824C176.698 334.65 175.634 335.168 174.276 335.168ZM174.248 328.868C173.31 328.868 172.694 329.568 172.694 330.576V330.688H175.69V330.562C175.69 329.554 175.172 328.868 174.248 328.868ZM182.172 335.168C180.016 335.168 178.798 333.684 178.798 331.332C178.798 328.994 180.016 327.524 182.172 327.524C183.642 327.524 184.608 328.224 185.042 329.372L183.572 330.03C183.404 329.414 182.942 328.966 182.172 328.966C181.178 328.966 180.674 329.666 180.674 330.688V332.018C180.674 333.04 181.178 333.726 182.172 333.726C183.026 333.726 183.446 333.236 183.712 332.578L185.084 333.236C184.608 334.524 183.586 335.168 182.172 335.168ZM188.908 335C187.676 335 187.018 334.328 187.018 333.138V329.12H185.94V327.692H186.5C187.032 327.692 187.2 327.44 187.2 326.936V325.69H188.81V327.692H190.308V329.12H188.81V333.572H190.196V335H188.908ZM199.397 335.168C196.821 335.168 195.183 333.474 195.183 330.184C195.183 326.894 196.821 325.06 199.397 325.06C201.147 325.06 202.281 325.802 202.967 327.314L201.385 328.154C201.105 327.286 200.489 326.698 199.397 326.698C198.025 326.698 197.143 327.692 197.143 329.358V330.898C197.143 332.578 198.025 333.53 199.397 333.53C200.503 333.53 201.189 332.858 201.511 331.976L203.009 332.858C202.309 334.314 201.147 335.168 199.397 335.168ZM206.425 335H204.633V327.692H206.425V329.204H206.495C206.677 328.434 207.265 327.692 208.427 327.692H208.819V329.386H208.259C207.055 329.386 206.425 329.722 206.425 330.52V335ZM213.605 331.556L214.879 327.692H216.559L213.619 336.302C213.255 337.352 212.737 337.8 211.533 337.8H210.455V336.372H211.771L212.107 335.35L209.489 327.692H211.267L212.541 331.556L213.017 333.404H213.101L213.605 331.556ZM217.901 337.8V327.692H219.693V328.896H219.749C220.015 328.056 220.799 327.524 221.765 327.524C223.613 327.524 224.635 328.896 224.635 331.332C224.635 333.782 223.613 335.168 221.765 335.168C220.799 335.168 220.029 334.608 219.749 333.782H219.693V337.8H217.901ZM221.191 333.684C222.115 333.684 222.759 333.012 222.759 331.976V330.716C222.759 329.68 222.115 328.994 221.191 328.994C220.337 328.994 219.693 329.456 219.693 330.17V332.494C219.693 333.25 220.337 333.684 221.191 333.684ZM228.655 335C227.423 335 226.765 334.328 226.765 333.138V329.12H225.687V327.692H226.247C226.779 327.692 226.947 327.44 226.947 326.936V325.69H228.557V327.692H230.055V329.12H228.557V333.572H229.943V335H228.655ZM234.613 335.168C232.527 335.168 231.225 333.684 231.225 331.332C231.225 328.994 232.527 327.524 234.613 327.524C236.713 327.524 238.015 328.994 238.015 331.332C238.015 333.684 236.713 335.168 234.613 335.168ZM234.613 333.726C235.551 333.726 236.139 333.124 236.139 332.018V330.66C236.139 329.568 235.551 328.966 234.613 328.966C233.689 328.966 233.101 329.568 233.101 330.66V332.018C233.101 333.124 233.689 333.726 234.613 333.726ZM246.382 335.168C244.716 335.168 243.568 334.51 242.742 333.544L243.988 332.34C244.66 333.124 245.486 333.544 246.494 333.544C247.628 333.544 248.216 332.998 248.216 332.172C248.216 331.514 247.908 331.108 246.886 330.926L245.962 330.786C243.988 330.478 243.036 329.54 243.036 327.944C243.036 326.194 244.394 325.06 246.578 325.06C248.048 325.06 249.14 325.564 249.924 326.502L248.664 327.692C248.188 327.09 247.516 326.684 246.48 326.684C245.43 326.684 244.884 327.104 244.884 327.832C244.884 328.574 245.304 328.882 246.242 329.05L247.152 329.218C249.126 329.568 250.05 330.45 250.05 332.06C250.05 333.908 248.72 335.168 246.382 335.168ZM254.905 335.168C252.749 335.168 251.461 333.67 251.461 331.332C251.461 329.022 252.707 327.524 254.849 327.524C257.131 327.524 258.181 329.204 258.181 331.206V331.794H253.323V331.976C253.323 333.026 253.925 333.74 255.101 333.74C255.983 333.74 256.515 333.32 256.963 332.746L257.929 333.824C257.327 334.65 256.263 335.168 254.905 335.168ZM254.877 328.868C253.939 328.868 253.323 329.568 253.323 330.576V330.688H256.319V330.562C256.319 329.554 255.801 328.868 254.877 328.868ZM261.709 335H259.917V327.692H261.709V329.204H261.779C261.961 328.434 262.549 327.692 263.711 327.692H264.103V329.386H263.543C262.339 329.386 261.709 329.722 261.709 330.52V335ZM269.379 335H267.251L264.815 327.692H266.579L267.601 330.842L268.315 333.446H268.413L269.127 330.842L270.121 327.692H271.829L269.379 335ZM274.08 326.628C273.338 326.628 273.03 326.25 273.03 325.732V325.452C273.03 324.934 273.338 324.556 274.08 324.556C274.808 324.556 275.13 324.934 275.13 325.452V325.732C275.13 326.25 274.808 326.628 274.08 326.628ZM273.184 335V327.692H274.976V335H273.184ZM280.098 335.168C277.942 335.168 276.724 333.684 276.724 331.332C276.724 328.994 277.942 327.524 280.098 327.524C281.568 327.524 282.534 328.224 282.968 329.372L281.498 330.03C281.33 329.414 280.868 328.966 280.098 328.966C279.104 328.966 278.6 329.666 278.6 330.688V332.018C278.6 333.04 279.104 333.726 280.098 333.726C280.952 333.726 281.372 333.236 281.638 332.578L283.01 333.236C282.534 334.524 281.512 335.168 280.098 335.168ZM287.437 335.168C285.281 335.168 283.993 333.67 283.993 331.332C283.993 329.022 285.239 327.524 287.381 327.524C289.663 327.524 290.713 329.204 290.713 331.206V331.794H285.855V331.976C285.855 333.026 286.457 333.74 287.633 333.74C288.515 333.74 289.047 333.32 289.495 332.746L290.461 333.824C289.859 334.65 288.795 335.168 287.437 335.168ZM287.409 328.868C286.471 328.868 285.855 329.568 285.855 330.576V330.688H288.851V330.562C288.851 329.554 288.333 328.868 287.409 328.868ZM294.844 335.168C293.458 335.168 292.548 334.664 291.82 333.824L292.912 332.76C293.444 333.376 294.088 333.754 294.914 333.754C295.768 333.754 296.132 333.432 296.132 332.914C296.132 332.494 295.88 332.228 295.236 332.144L294.508 332.046C292.94 331.85 292.072 331.164 292.072 329.834C292.072 328.42 293.178 327.524 294.844 327.524C296.272 327.524 297 327.944 297.7 328.672L296.65 329.722C296.23 329.274 295.614 328.938 294.9 328.938C294.13 328.938 293.794 329.246 293.794 329.694C293.794 330.184 294.06 330.408 294.746 330.52L295.488 330.618C297.084 330.842 297.854 331.556 297.854 332.774C297.854 334.188 296.664 335.168 294.844 335.168Z" fill="black"/>
<rect width="48" height="48" transform="translate(35 306)" fill="#0F62FE"/>
<path d="M65.75 340.5L64.175 339.75C62.9 339.15 62 337.8 62 336.375V331.5H69.5V336.375C69.5 337.8 68.675 339.15 67.325 339.75L65.75 340.5ZM63.5 333V336.375C63.5 337.275 64.025 338.025 64.775 338.4L65.75 338.85L66.725 338.4C67.475 338.025 68 337.2 68 336.375V333H63.5Z" fill="white"/>
<path d="M63.5 327C64.3284 327 65 326.328 65 325.5C65 324.672 64.3284 324 63.5 324C62.6716 324 62 324.672 62 325.5C62 326.328 62.6716 327 63.5 327Z" fill="white"/>
<path d="M62.75 319.5C59 319.5 56 322.5 56 326.25C56 326.925 56.075 327.6 56.3 328.2L48.5 336V340.5H53L60.5 333L59.45 331.95L57.35 334.05L56.3 333L55.25 334.05L56.3 335.1L55.1 336.3L54.05 335.25L53 336.3L54.05 337.35L52.4 339H50V336.6L57.95 328.65L57.725 327.75C57.575 327.225 57.5 326.775 57.5 326.25C57.5 323.325 59.825 321 62.75 321C65.675 321 68 323.325 68 326.25C68 327.375 67.625 328.425 67.025 329.25H68.75C69.2 328.35 69.425 327.3 69.425 326.25C69.5 322.5 66.5 319.5 62.75 319.5Z" fill="white"/>
</g>
<rect x="91.5" y="387.5" width="227" height="47" stroke="#0F62FE"/>
<rect x="92" y="388" width="226" height="46" fill="white"/>
<rect x="92" y="388" width="226" height="46" fill="#EDF5FF"/>
<g clip-path="url(#clip4_19_182)">
<path d="M154.07 416V411.87H149.996V416H148.148V406.228H149.996V410.232H154.07V406.228H155.918V416H154.07ZM161.409 416.168C159.742 416.168 158.594 415.51 157.768 414.544L159.014 413.34C159.687 414.124 160.513 414.544 161.521 414.544C162.655 414.544 163.242 413.998 163.242 413.172C163.242 412.514 162.935 412.108 161.912 411.926L160.989 411.786C159.014 411.478 158.062 410.54 158.062 408.944C158.062 407.194 159.42 406.06 161.605 406.06C163.075 406.06 164.167 406.564 164.951 407.502L163.691 408.692C163.215 408.09 162.543 407.684 161.507 407.684C160.456 407.684 159.91 408.104 159.91 408.832C159.91 409.574 160.331 409.882 161.268 410.05L162.178 410.218C164.153 410.568 165.077 411.45 165.077 413.06C165.077 414.908 163.747 416.168 161.409 416.168ZM167.089 416V406.228H169.175L171.681 411.002H171.737L174.215 406.228H176.217V416H174.467V408.986H174.411L173.655 410.54L171.653 414.236L169.651 410.54L168.895 408.986H168.839V416H167.089Z" fill="black"/>
<path d="M123.125 405.75C123.746 405.75 124.25 405.246 124.25 404.625C124.25 404.004 123.746 403.5 123.125 403.5C122.504 403.5 122 404.004 122 404.625C122 405.246 122.504 405.75 123.125 405.75Z" fill="black"/>
<path d="M117.811 414H113.75V409.939L118.273 405.417C118.258 405.278 118.25 405.139 118.25 405C118.25 404.11 118.514 403.24 119.008 402.5C119.503 401.76 120.206 401.183 121.028 400.843C121.85 400.502 122.755 400.413 123.628 400.586C124.501 400.76 125.303 401.189 125.932 401.818C126.561 402.447 126.99 403.249 127.164 404.122C127.337 404.995 127.248 405.9 126.907 406.722C126.567 407.544 125.99 408.247 125.25 408.742C124.51 409.236 123.64 409.5 122.75 409.5C122.611 409.5 122.472 409.492 122.333 409.477L117.811 414ZM115.25 412.5H117.189L121.817 407.872L122.205 407.944C122.385 407.979 122.567 407.998 122.75 408C123.377 408.008 123.992 407.821 124.509 407.466C125.026 407.11 125.42 406.603 125.638 406.015C125.855 405.426 125.885 404.784 125.723 404.178C125.561 403.572 125.215 403.031 124.733 402.629C124.251 402.227 123.657 401.984 123.031 401.934C122.406 401.884 121.78 402.028 121.24 402.348C120.7 402.667 120.273 403.146 120.016 403.719C119.759 404.292 119.686 404.93 119.806 405.545L119.878 405.933L115.25 410.561V412.5Z" fill="black"/>
<path d="M128 414H121.25V415.5H128V420H110V415.5H111.5V414H110C109.602 414 109.221 414.159 108.94 414.44C108.659 414.721 108.5 415.102 108.5 415.5V420C108.5 420.398 108.659 420.779 108.94 421.06C109.221 421.341 109.602 421.5 110 421.5H128C128.398 421.5 128.779 421.341 129.06 421.06C129.341 420.779 129.5 420.398 129.5 420V415.5C129.5 415.102 129.341 414.721 129.06 414.44C128.779 414.159 128.398 414 128 414Z" fill="black"/>
<path d="M112.25 418.5C112.664 418.5 113 418.164 113 417.75C113 417.336 112.664 417 112.25 417C111.836 417 111.5 417.336 111.5 417.75C111.5 418.164 111.836 418.5 112.25 418.5Z" fill="black"/>
<line x1="93" y1="387" x2="93" y2="435" stroke="#0F62FE" stroke-width="4"/>
</g>
<rect x="92.5" y="138.5" width="227" height="47" stroke="#0F62FE"/>
<rect x="93" y="139" width="226" height="46" fill="white"/>
<rect x="93" y="139" width="226" height="46" fill="#EDF5FF"/>
<g clip-path="url(#clip5_19_182)">
<path d="M155.07 167V162.87H150.996V167H149.148V157.228H150.996V161.232H155.07V157.228H156.918V167H155.07ZM162.157 167.168C160.07 167.168 158.768 165.684 158.768 163.332C158.768 160.994 160.07 159.524 162.157 159.524C164.257 159.524 165.559 160.994 165.559 163.332C165.559 165.684 164.257 167.168 162.157 167.168ZM162.157 165.726C163.095 165.726 163.683 165.124 163.683 164.018V162.66C163.683 161.568 163.095 160.966 162.157 160.966C161.232 160.966 160.644 161.568 160.644 162.66V164.018C160.644 165.124 161.232 165.726 162.157 165.726ZM169.701 167.168C168.315 167.168 167.405 166.664 166.677 165.824L167.769 164.76C168.301 165.376 168.945 165.754 169.771 165.754C170.625 165.754 170.989 165.432 170.989 164.914C170.989 164.494 170.737 164.228 170.093 164.144L169.365 164.046C167.797 163.85 166.929 163.164 166.929 161.834C166.929 160.42 168.035 159.524 169.701 159.524C171.129 159.524 171.857 159.944 172.557 160.672L171.507 161.722C171.087 161.274 170.471 160.938 169.757 160.938C168.987 160.938 168.651 161.246 168.651 161.694C168.651 162.184 168.917 162.408 169.603 162.52L170.345 162.618C171.941 162.842 172.711 163.556 172.711 164.774C172.711 166.188 171.521 167.168 169.701 167.168ZM174.453 169.8V159.692H176.245V160.896H176.301C176.567 160.056 177.351 159.524 178.317 159.524C180.165 159.524 181.187 160.896 181.187 163.332C181.187 165.782 180.165 167.168 178.317 167.168C177.351 167.168 176.581 166.608 176.301 165.782H176.245V169.8H174.453ZM177.743 165.684C178.667 165.684 179.312 165.012 179.312 163.976V162.716C179.312 161.68 178.667 160.994 177.743 160.994C176.889 160.994 176.245 161.456 176.245 162.17V164.494C176.245 165.25 176.889 165.684 177.743 165.684ZM183.904 158.628C183.162 158.628 182.854 158.25 182.854 157.732V157.452C182.854 156.934 183.162 156.556 183.904 156.556C184.632 156.556 184.954 156.934 184.954 157.452V157.732C184.954 158.25 184.632 158.628 183.904 158.628ZM183.008 167V159.692H184.8V167H183.008ZM189.319 167C188.087 167 187.429 166.328 187.429 165.138V161.12H186.351V159.692H186.911C187.443 159.692 187.611 159.44 187.611 158.936V157.69H189.221V159.692H190.719V161.12H189.221V165.572H190.607V167H189.319ZM194.239 167.168C192.755 167.168 191.915 166.314 191.915 165.012C191.915 163.514 193.049 162.772 195.037 162.772H196.283V162.24C196.283 161.428 195.877 160.952 194.925 160.952C194.085 160.952 193.609 161.372 193.259 161.876L192.195 160.924C192.727 160.084 193.581 159.524 195.051 159.524C197.025 159.524 198.075 160.462 198.075 162.128V165.572H198.803V167H197.809C197.039 167 196.563 166.496 196.451 165.74H196.367C196.129 166.678 195.331 167.168 194.239 167.168ZM194.841 165.866C195.639 165.866 196.283 165.502 196.283 164.816V163.85H195.135C194.197 163.85 193.735 164.172 193.735 164.746V164.984C193.735 165.572 194.141 165.866 194.841 165.866ZM203.172 167H202.206C200.988 167 200.414 166.356 200.414 165.236V156.64H202.206V165.572H203.172V167ZM212.694 167V165.782H212.624C212.358 166.608 211.574 167.168 210.608 167.168C208.774 167.168 207.752 165.782 207.752 163.332C207.752 160.896 208.774 159.524 210.608 159.524C211.574 159.524 212.372 160.056 212.624 160.896H212.694V156.64H214.486V167H212.694ZM211.182 165.684C212.036 165.684 212.694 165.25 212.694 164.494V162.17C212.694 161.456 212.036 160.994 211.182 160.994C210.258 160.994 209.628 161.68 209.628 162.716V163.976C209.628 165.012 210.258 165.684 211.182 165.684ZM218.518 167.168C217.034 167.168 216.194 166.314 216.194 165.012C216.194 163.514 217.328 162.772 219.316 162.772H220.562V162.24C220.562 161.428 220.156 160.952 219.204 160.952C218.364 160.952 217.888 161.372 217.538 161.876L216.474 160.924C217.006 160.084 217.86 159.524 219.33 159.524C221.304 159.524 222.354 160.462 222.354 162.128V165.572H223.082V167H222.088C221.318 167 220.842 166.496 220.73 165.74H220.646C220.408 166.678 219.61 167.168 218.518 167.168ZM219.12 165.866C219.918 165.866 220.562 165.502 220.562 164.816V163.85H219.414C218.476 163.85 218.014 164.172 218.014 164.746V164.984C218.014 165.572 218.42 165.866 219.12 165.866ZM226.92 167C225.688 167 225.03 166.328 225.03 165.138V161.12H223.952V159.692H224.512C225.044 159.692 225.212 159.44 225.212 158.936V157.69H226.822V159.692H228.32V161.12H226.822V165.572H228.208V167H226.92ZM231.84 167.168C230.356 167.168 229.516 166.314 229.516 165.012C229.516 163.514 230.65 162.772 232.638 162.772H233.884V162.24C233.884 161.428 233.478 160.952 232.526 160.952C231.686 160.952 231.21 161.372 230.86 161.876L229.796 160.924C230.328 160.084 231.182 159.524 232.652 159.524C234.626 159.524 235.676 160.462 235.676 162.128V165.572H236.404V167H235.41C234.64 167 234.164 166.496 234.052 165.74H233.968C233.73 166.678 232.932 167.168 231.84 167.168ZM232.442 165.866C233.24 165.866 233.884 165.502 233.884 164.816V163.85H232.736C231.798 163.85 231.336 164.172 231.336 164.746V164.984C231.336 165.572 231.742 165.866 232.442 165.866Z" fill="black"/>
<path d="M129 151.5H120.75C120.352 151.5 119.971 151.659 119.69 151.94C119.409 152.221 119.25 152.602 119.25 153V157.5H111C110.602 157.5 110.221 157.659 109.94 157.94C109.659 158.221 109.5 158.602 109.5 159V171C109.5 171.398 109.659 171.779 109.94 172.06C110.221 172.341 110.602 172.5 111 172.5H119.25C119.648 172.5 120.029 172.341 120.31 172.06C120.591 171.779 120.75 171.398 120.75 171V166.5H129C129.398 166.499 129.779 166.341 130.06 166.06C130.341 165.779 130.499 165.398 130.5 165V153C130.5 152.602 130.341 152.221 130.06 151.94C129.779 151.659 129.398 151.5 129 151.5ZM129 153V156H120.75V153H129ZM119.251 166.5H111V163.5H119.25L119.251 166.5ZM120.75 157.5H129.001L129.001 160.5H120.75V157.5ZM119.25 159V162H111V159H119.25ZM111 171V168H119.251V171H111ZM120.75 165V162H129.001V165H120.75Z" fill="black"/>
<line x1="94" y1="138" x2="94" y2="186" stroke="#0F62FE" stroke-width="4"/>
</g>
<rect x="477.5" y="71.5" width="227" height="47" stroke="#0F62FE"/>
<rect x="478" y="72" width="226" height="46" fill="white"/>
<rect x="478" y="72" width="226" height="46" fill="#EDF5FF"/>
<g clip-path="url(#clip6_19_182)">
<path d="M546.18 100H541.742V98.516H543.03V91.712H541.742V90.228H546.18V91.712H544.878V98.516H546.18V100ZM556.194 100H554.276L553.492 97.508H550.02L549.25 100H547.374L550.65 90.228H552.946L556.194 100ZM553.044 95.926L551.784 91.908H551.714L550.468 95.926H553.044ZM557.794 100V90.228H559.88L562.386 95.002H562.442L564.92 90.228H566.922V100H565.172V92.986H565.116L564.36 94.54L562.358 98.236L560.356 94.54L559.6 92.986H559.544V100H557.794Z" fill="black"/>
<rect width="48" height="48" transform="translate(477 71)" fill="#0F62FE"/>
<g clip-path="url(#clip7_19_182)">
<rect width="24" height="24" transform="translate(489 83)" fill="white" fill-opacity="0.01" style="mix-blend-mode:multiply"/>
<path d="M501 105.5H499.5V101.75C499.499 101.154 499.262 100.582 498.84 100.16C498.418 99.738 497.847 99.5007 497.25 99.5001H494.25C493.653 99.5007 493.082 99.738 492.66 100.16C492.238 100.582 492.001 101.154 492 101.75V105.5H490.5V101.75C490.501 100.756 490.897 99.8027 491.6 99.0997C492.303 98.3967 493.256 98.0013 494.25 98.0001H497.25C498.244 98.0013 499.197 98.3967 499.9 99.0997C500.603 99.8027 500.999 100.756 501 101.75V105.5Z" fill="white"/>
<path d="M495.75 90.5001C496.195 90.5001 496.63 90.632 497 90.8793C497.37 91.1265 497.658 91.4779 497.829 91.889C497.999 92.3002 498.044 92.7526 497.957 93.189C497.87 93.6255 497.656 94.0264 497.341 94.3411C497.026 94.6557 496.625 94.87 496.189 94.9568C495.752 95.0437 495.3 94.9991 494.889 94.8288C494.478 94.6585 494.126 94.3701 493.879 94.0001C493.632 93.6301 493.5 93.1951 493.5 92.7501C493.5 92.1533 493.737 91.581 494.159 91.1591C494.581 90.7371 495.153 90.5001 495.75 90.5001ZM495.75 89.0001C495.008 89.0001 494.283 89.22 493.667 89.6321C493.05 90.0441 492.569 90.6298 492.285 91.315C492.002 92.0002 491.927 92.7542 492.072 93.4817C492.217 94.2091 492.574 94.8773 493.098 95.4017C493.623 95.9262 494.291 96.2833 495.018 96.428C495.746 96.5727 496.5 96.4985 497.185 96.2146C497.87 95.9308 498.456 95.4502 498.868 94.8335C499.28 94.2168 499.5 93.4918 499.5 92.7501C499.5 92.2576 499.403 91.77 499.215 91.315C499.026 90.86 498.75 90.4467 498.402 90.0984C498.053 89.7502 497.64 89.474 497.185 89.2855C496.73 89.0971 496.242 89.0001 495.75 89.0001Z" fill="white"/>
<path d="M511.5 92.0001C511.37 92.0019 511.241 92.0206 511.116 92.0557L510.325 91.2643C510.603 90.8082 510.75 90.2843 510.75 89.7501C510.75 89.2159 510.603 88.692 510.325 88.2358L511.116 87.4444C511.441 87.5348 511.786 87.5151 512.099 87.3884C512.411 87.2616 512.673 87.035 512.843 86.7439C513.013 86.4528 513.081 86.1137 513.038 85.7794C512.995 85.4451 512.842 85.1346 512.604 84.8962C512.366 84.6579 512.055 84.5052 511.721 84.462C511.386 84.4188 511.047 84.4876 510.756 84.6575C510.465 84.8274 510.238 85.089 510.112 85.4013C509.985 85.7136 509.965 86.0591 510.056 86.3839L509.264 87.1753C508.808 86.8972 508.284 86.7501 507.75 86.7501C507.216 86.7501 506.692 86.8972 506.236 87.1753L505.444 86.3839C505.535 86.0591 505.515 85.7136 505.388 85.4013C505.262 85.089 505.035 84.8274 504.744 84.6575C504.453 84.4876 504.114 84.4188 503.779 84.462C503.445 84.5052 503.134 84.6579 502.896 84.8962C502.658 85.1346 502.505 85.4451 502.462 85.7794C502.419 86.1137 502.487 86.4528 502.657 86.7439C502.827 87.035 503.089 87.2616 503.401 87.3884C503.714 87.5151 504.059 87.5348 504.384 87.4444L505.175 88.2358C504.897 88.692 504.75 89.2159 504.75 89.7501C504.75 90.2843 504.897 90.8082 505.175 91.2643L504.384 92.0557C504.059 91.9654 503.714 91.9851 503.401 92.1118C503.089 92.2385 502.827 92.4651 502.657 92.7562C502.487 93.0473 502.419 93.3865 502.462 93.7208C502.505 94.055 502.658 94.3656 502.896 94.6039C503.134 94.8423 503.445 94.995 503.779 95.0382C504.114 95.0813 504.453 95.0126 504.744 94.8427C505.035 94.6727 505.262 94.4112 505.388 94.0989C505.515 93.7865 505.535 93.441 505.444 93.1163L506.236 92.3249C506.692 92.603 507.216 92.7501 507.75 92.7501C508.284 92.7501 508.808 92.603 509.264 92.3249L510.056 93.1163C509.976 93.4186 509.993 93.7382 510.105 94.0303C510.216 94.3223 510.416 94.5722 510.677 94.7448C510.937 94.9174 511.245 95.004 511.558 94.9926C511.87 94.9812 512.171 94.8723 512.419 94.6812C512.666 94.49 512.847 94.2263 512.937 93.9269C513.027 93.6275 513.021 93.3075 512.919 93.0118C512.818 92.716 512.627 92.4595 512.372 92.278C512.118 92.0966 511.813 91.9994 511.5 92.0001ZM506.25 89.7501C506.25 89.4534 506.338 89.1634 506.503 88.9167C506.668 88.6701 506.902 88.4778 507.176 88.3643C507.45 88.2507 507.752 88.221 508.043 88.2789C508.334 88.3368 508.601 88.4796 508.811 88.6894C509.02 88.8992 509.163 89.1665 509.221 89.4574C509.279 89.7484 509.249 90.05 509.136 90.3241C509.022 90.5982 508.83 90.8325 508.583 90.9973C508.337 91.1621 508.047 91.2501 507.75 91.2501C507.352 91.2496 506.971 91.0914 506.69 90.8102C506.409 90.529 506.25 90.1478 506.25 89.7501Z" fill="white"/>
</g>
</g>
<rect x="791.5" y="71.5" width="227" height="47" stroke="#0F62FE"/>
<rect x="792" y="72" width="226" height="46" fill="white"/>
<rect x="792" y="72" width="226" height="46" fill="#EDF5FF"/>
<g clip-path="url(#clip8_19_182)">
<path d="M861.846 100H856.148V90.228H857.996V98.362H861.846V100ZM866.258 100.168C864.172 100.168 862.87 98.684 862.87 96.332C862.87 93.994 864.172 92.524 866.258 92.524C868.358 92.524 869.66 93.994 869.66 96.332C869.66 98.684 868.358 100.168 866.258 100.168ZM866.258 98.726C867.196 98.726 867.784 98.124 867.784 97.018V95.66C867.784 94.568 867.196 93.966 866.258 93.966C865.334 93.966 864.746 94.568 864.746 95.66V97.018C864.746 98.124 865.334 98.726 866.258 98.726ZM878.003 100.616C878.003 102.142 876.967 102.968 874.167 102.968C871.703 102.968 870.765 102.324 870.765 101.246C870.765 100.434 871.255 99.972 872.067 99.846V99.692C871.465 99.538 871.129 99.062 871.129 98.474C871.129 97.718 871.773 97.34 872.473 97.186V97.13C871.591 96.724 871.143 95.968 871.143 95.002C871.143 93.518 872.193 92.524 874.167 92.524C874.615 92.524 875.077 92.58 875.441 92.706V92.468C875.441 91.754 875.805 91.404 876.477 91.404H877.611V92.776H876.057V92.972C876.813 93.392 877.191 94.106 877.191 95.002C877.191 96.472 876.155 97.452 874.167 97.452C873.747 97.452 873.369 97.41 873.047 97.326C872.767 97.452 872.529 97.662 872.529 97.984C872.529 98.348 872.837 98.53 873.481 98.53H875.441C877.233 98.53 878.003 99.3 878.003 100.616ZM876.323 100.826C876.323 100.364 875.987 100.084 875.077 100.084H872.585C872.319 100.28 872.207 100.546 872.207 100.84C872.207 101.4 872.627 101.736 873.747 101.736H874.643C875.805 101.736 876.323 101.442 876.323 100.826ZM874.167 96.234C875.021 96.234 875.483 95.842 875.483 95.114V94.876C875.483 94.134 875.021 93.756 874.167 93.756C873.313 93.756 872.851 94.134 872.851 94.876V95.114C872.851 95.842 873.313 96.234 874.167 96.234ZM884.472 100.168C882.988 100.168 882.148 99.314 882.148 98.012C882.148 96.514 883.282 95.772 885.27 95.772H886.516V95.24C886.516 94.428 886.11 93.952 885.158 93.952C884.318 93.952 883.842 94.372 883.492 94.876L882.428 93.924C882.96 93.084 883.814 92.524 885.284 92.524C887.258 92.524 888.308 93.462 888.308 95.128V98.572H889.036V100H888.042C887.272 100 886.796 99.496 886.684 98.74H886.6C886.362 99.678 885.564 100.168 884.472 100.168ZM885.074 98.866C885.872 98.866 886.516 98.502 886.516 97.816V96.85H885.368C884.43 96.85 883.968 97.172 883.968 97.746V97.984C883.968 98.572 884.374 98.866 885.074 98.866ZM892.439 100H890.647V92.692H892.439V93.91H892.509C892.803 93.126 893.419 92.524 894.553 92.524C896.051 92.524 896.891 93.56 896.891 95.38V100H895.099V95.562C895.099 94.526 894.749 93.994 893.895 93.994C893.153 93.994 892.439 94.386 892.439 95.17V100ZM900.843 100.168C899.359 100.168 898.519 99.314 898.519 98.012C898.519 96.514 899.653 95.772 901.641 95.772H902.887V95.24C902.887 94.428 902.481 93.952 901.529 93.952C900.689 93.952 900.213 94.372 899.863 94.876L898.799 93.924C899.331 93.084 900.185 92.524 901.655 92.524C903.629 92.524 904.679 93.462 904.679 95.128V98.572H905.407V100H904.413C903.643 100 903.167 99.496 903.055 98.74H902.971C902.733 99.678 901.935 100.168 900.843 100.168ZM901.445 98.866C902.243 98.866 902.887 98.502 902.887 97.816V96.85H901.739C900.801 96.85 900.339 97.172 900.339 97.746V97.984C900.339 98.572 900.745 98.866 901.445 98.866ZM909.775 100H908.809C907.591 100 907.017 99.356 907.017 98.236V89.64H908.809V98.572H909.775V100ZM914.403 96.556L915.677 92.692H917.357L914.417 101.302C914.053 102.352 913.535 102.8 912.331 102.8H911.253V101.372H912.569L912.905 100.35L910.287 92.692H912.065L913.339 96.556L913.815 98.404H913.899L914.403 96.556ZM920.983 100.168C919.597 100.168 918.687 99.664 917.959 98.824L919.051 97.76C919.583 98.376 920.227 98.754 921.053 98.754C921.907 98.754 922.271 98.432 922.271 97.914C922.271 97.494 922.019 97.228 921.375 97.144L920.647 97.046C919.079 96.85 918.211 96.164 918.211 94.834C918.211 93.42 919.317 92.524 920.983 92.524C922.411 92.524 923.139 92.944 923.839 93.672L922.789 94.722C922.369 94.274 921.753 93.938 921.039 93.938C920.269 93.938 919.933 94.246 919.933 94.694C919.933 95.184 920.199 95.408 920.885 95.52L921.627 95.618C923.223 95.842 923.993 96.556 923.993 97.774C923.993 99.188 922.803 100.168 920.983 100.168ZM926.632 91.628C925.89 91.628 925.582 91.25 925.582 90.732V90.452C925.582 89.934 925.89 89.556 926.632 89.556C927.36 89.556 927.682 89.934 927.682 90.452V90.732C927.682 91.25 927.36 91.628 926.632 91.628ZM925.736 100V92.692H927.528V100H925.736ZM932.159 100.168C930.773 100.168 929.863 99.664 929.135 98.824L930.227 97.76C930.759 98.376 931.403 98.754 932.229 98.754C933.083 98.754 933.447 98.432 933.447 97.914C933.447 97.494 933.195 97.228 932.551 97.144L931.823 97.046C930.255 96.85 929.387 96.164 929.387 94.834C929.387 93.42 930.493 92.524 932.159 92.524C933.587 92.524 934.315 92.944 935.015 93.672L933.965 94.722C933.545 94.274 932.929 93.938 932.215 93.938C931.445 93.938 931.109 94.246 931.109 94.694C931.109 95.184 931.375 95.408 932.061 95.52L932.803 95.618C934.399 95.842 935.169 96.556 935.169 97.774C935.169 99.188 933.979 100.168 932.159 100.168Z" fill="black"/>
<rect width="48" height="48" transform="translate(791 71)" fill="#0F62FE"/>
<rect width="24" height="24" transform="translate(803 83)" fill="white" fill-opacity="0.01" style="mix-blend-mode:multiply"/>
<path d="M824 95V99.5H806V87.5H814.25V86H806C805.602 86 805.221 86.158 804.939 86.4393C804.658 86.7206 804.5 87.1022 804.5 87.5V99.5C804.5 99.8978 804.658 100.279 804.939 100.561C805.221 100.842 805.602 101 806 101H812V104H809V105.5H821V104H818V101H824C824.398 101 824.779 100.842 825.061 100.561C825.342 100.279 825.5 99.8978 825.5 99.5V95H824ZM816.5 104H813.5V101H816.5V104Z" fill="white"/>
<path d="M825.5 86H816.5V87.5H825.5V86Z" fill="white"/>
<path d="M825.5 89H816.5V90.5H825.5V89Z" fill="white"/>
<path d="M821 92H816.5V93.5H821V92Z" fill="white"/>
</g>
<rect x="791.5" y="362.5" width="193" height="47" stroke="#0F62FE"/>
<rect x="792" y="363" width="192" height="46" fill="white"/>
<rect x="792" y="363" width="192" height="46" fill="#EDF5FF"/>
<g clip-path="url(#clip9_19_182)">
<path d="M856.114 391H854.196L853.412 388.508H849.94L849.17 391H847.294L850.57 381.228H852.866L856.114 391ZM852.964 386.926L851.704 382.908H851.634L850.388 386.926H852.964ZM859.679 391C858.447 391 857.789 390.328 857.789 389.138V385.12H856.711V383.692H857.271C857.803 383.692 857.971 383.44 857.971 382.936V381.69H859.581V383.692H861.079V385.12H859.581V389.572H860.967V391H859.679ZM864.993 391C863.761 391 863.103 390.328 863.103 389.138V385.12H862.025V383.692H862.585C863.117 383.692 863.285 383.44 863.285 382.936V381.69H864.895V383.692H866.393V385.12H864.895V389.572H866.281V391H864.993ZM871.007 391.168C868.851 391.168 867.563 389.67 867.563 387.332C867.563 385.022 868.809 383.524 870.951 383.524C873.233 383.524 874.283 385.204 874.283 387.206V387.794H869.425V387.976C869.425 389.026 870.027 389.74 871.203 389.74C872.085 389.74 872.617 389.32 873.065 388.746L874.031 389.824C873.429 390.65 872.365 391.168 871.007 391.168ZM870.979 384.868C870.041 384.868 869.425 385.568 869.425 386.576V386.688H872.421V386.562C872.421 385.554 871.903 384.868 870.979 384.868ZM878.414 391.168C877.028 391.168 876.118 390.664 875.39 389.824L876.482 388.76C877.014 389.376 877.658 389.754 878.484 389.754C879.338 389.754 879.702 389.432 879.702 388.914C879.702 388.494 879.45 388.228 878.806 388.144L878.078 388.046C876.51 387.85 875.642 387.164 875.642 385.834C875.642 384.42 876.748 383.524 878.414 383.524C879.842 383.524 880.57 383.944 881.27 384.672L880.22 385.722C879.8 385.274 879.184 384.938 878.47 384.938C877.7 384.938 877.364 385.246 877.364 385.694C877.364 386.184 877.63 386.408 878.316 386.52L879.058 386.618C880.654 386.842 881.424 387.556 881.424 388.774C881.424 390.188 880.234 391.168 878.414 391.168ZM885.339 391C884.107 391 883.449 390.328 883.449 389.138V385.12H882.371V383.692H882.931C883.463 383.692 883.631 383.44 883.631 382.936V381.69H885.241V383.692H886.739V385.12H885.241V389.572H886.627V391H885.339ZM890.259 391.168C888.775 391.168 887.935 390.314 887.935 389.012C887.935 387.514 889.069 386.772 891.057 386.772H892.303V386.24C892.303 385.428 891.897 384.952 890.945 384.952C890.105 384.952 889.629 385.372 889.279 385.876L888.215 384.924C888.747 384.084 889.601 383.524 891.071 383.524C893.045 383.524 894.095 384.462 894.095 386.128V389.572H894.823V391H893.829C893.059 391 892.583 390.496 892.471 389.74H892.387C892.149 390.678 891.351 391.168 890.259 391.168ZM890.861 389.866C891.659 389.866 892.303 389.502 892.303 388.816V387.85H891.155C890.217 387.85 889.755 388.172 889.755 388.746V388.984C889.755 389.572 890.161 389.866 890.861 389.866ZM898.661 391C897.429 391 896.771 390.328 896.771 389.138V385.12H895.693V383.692H896.253C896.785 383.692 896.953 383.44 896.953 382.936V381.69H898.563V383.692H900.061V385.12H898.563V389.572H899.949V391H898.661ZM902.671 382.628C901.929 382.628 901.621 382.25 901.621 381.732V381.452C901.621 380.934 901.929 380.556 902.671 380.556C903.399 380.556 903.721 380.934 903.721 381.452V381.732C903.721 382.25 903.399 382.628 902.671 382.628ZM901.775 391V383.692H903.567V391H901.775ZM908.702 391.168C906.616 391.168 905.314 389.684 905.314 387.332C905.314 384.994 906.616 383.524 908.702 383.524C910.802 383.524 912.104 384.994 912.104 387.332C912.104 389.684 910.802 391.168 908.702 391.168ZM908.702 389.726C909.64 389.726 910.228 389.124 910.228 388.018V386.66C910.228 385.568 909.64 384.966 908.702 384.966C907.778 384.966 907.19 385.568 907.19 386.66V388.018C907.19 389.124 907.778 389.726 908.702 389.726ZM915.645 391H913.853V383.692H915.645V384.91H915.715C916.009 384.126 916.625 383.524 917.759 383.524C919.257 383.524 920.097 384.56 920.097 386.38V391H918.305V386.562C918.305 385.526 917.955 384.994 917.101 384.994C916.359 384.994 915.645 385.386 915.645 386.17V391ZM927.504 391H925.712V383.692H927.504V385.204H927.574C927.756 384.434 928.344 383.692 929.506 383.692H929.898V385.386H929.338C928.134 385.386 927.504 385.722 927.504 386.52V391ZM934.254 391.168C932.098 391.168 930.81 389.67 930.81 387.332C930.81 385.022 932.056 383.524 934.198 383.524C936.48 383.524 937.53 385.204 937.53 387.206V387.794H932.672V387.976C932.672 389.026 933.274 389.74 934.45 389.74C935.332 389.74 935.864 389.32 936.312 388.746L937.278 389.824C936.676 390.65 935.612 391.168 934.254 391.168ZM934.226 384.868C933.288 384.868 932.672 385.568 932.672 386.576V386.688H935.668V386.562C935.668 385.554 935.15 384.868 934.226 384.868ZM942.15 391.168C939.994 391.168 938.776 389.684 938.776 387.332C938.776 384.994 939.994 383.524 942.15 383.524C943.62 383.524 944.586 384.224 945.02 385.372L943.55 386.03C943.382 385.414 942.92 384.966 942.15 384.966C941.156 384.966 940.652 385.666 940.652 386.688V388.018C940.652 389.04 941.156 389.726 942.15 389.726C943.004 389.726 943.424 389.236 943.69 388.578L945.062 389.236C944.586 390.524 943.564 391.168 942.15 391.168ZM949.434 391.168C947.348 391.168 946.046 389.684 946.046 387.332C946.046 384.994 947.348 383.524 949.434 383.524C951.534 383.524 952.836 384.994 952.836 387.332C952.836 389.684 951.534 391.168 949.434 391.168ZM949.434 389.726C950.372 389.726 950.96 389.124 950.96 388.018V386.66C950.96 385.568 950.372 384.966 949.434 384.966C948.51 384.966 947.922 385.568 947.922 386.66V388.018C947.922 389.124 948.51 389.726 949.434 389.726ZM956.376 391H954.584V383.692H956.376V385.204H956.446C956.628 384.434 957.216 383.692 958.378 383.692H958.77V385.386H958.21C957.006 385.386 956.376 385.722 956.376 386.52V391ZM964.708 391V389.782H964.638C964.372 390.608 963.588 391.168 962.622 391.168C960.788 391.168 959.766 389.782 959.766 387.332C959.766 384.896 960.788 383.524 962.622 383.524C963.588 383.524 964.386 384.056 964.638 384.896H964.708V380.64H966.5V391H964.708ZM963.196 389.684C964.05 389.684 964.708 389.25 964.708 388.494V386.17C964.708 385.456 964.05 384.994 963.196 384.994C962.272 384.994 961.642 385.68 961.642 386.716V387.976C961.642 389.012 962.272 389.684 963.196 389.684Z" fill="black"/>
<path d="M824.25 394.385L822.307 392.443L821.25 393.5L824.25 396.5L829.5 391.25L828.443 390.193L824.25 394.385Z" fill="black"/>
<path d="M815.25 380.75C815.664 380.75 816 380.414 816 380C816 379.586 815.664 379.25 815.25 379.25C814.836 379.25 814.5 379.586 814.5 380C814.5 380.414 814.836 380.75 815.25 380.75Z" fill="black"/>
<path d="M815.25 386.75C815.664 386.75 816 386.414 816 386C816 385.586 815.664 385.25 815.25 385.25C814.836 385.25 814.5 385.586 814.5 386C814.5 386.414 814.836 386.75 815.25 386.75Z" fill="black"/>
<path d="M815.25 392.75C815.664 392.75 816 392.414 816 392C816 391.586 815.664 391.25 815.25 391.25C814.836 391.25 814.5 391.586 814.5 392C814.5 392.414 814.836 392.75 815.25 392.75Z" fill="black"/>
<path d="M825 376.25H813C812.602 376.25 812.221 376.408 811.939 376.689C811.658 376.971 811.5 377.352 811.5 377.75V394.25C811.5 394.648 811.658 395.029 811.939 395.311C812.221 395.592 812.602 395.75 813 395.75H819V394.25H813V389.75H826.5V377.75C826.5 377.352 826.342 376.971 826.061 376.689C825.779 376.408 825.398 376.25 825 376.25ZM825 388.25H813V383.75H825V388.25ZM825 382.25H813V377.75H825V382.25Z" fill="black"/>
<line x1="793" y1="362" x2="793" y2="410" stroke="#0F62FE" stroke-width="4"/>
</g>
<path d="M206 306V194" stroke="black"/>
<path d="M202 194L206 186L210 194H202Z" fill="black"/>
<path d="M375 401H473" stroke="black"/>
<path d="M472 397L480 401L472 405V397Z" fill="black"/>
<path d="M723 388H784" stroke="black"/>
<path d="M783 384L791 388L783 392V384Z" fill="black"/>
<path d="M724 384L716 388L724 392V384Z" fill="black"/>
<path d="M382 373H414" stroke="black"/>
<path d="M383 369L375 373L383 377V369Z" fill="black"/>
<path d="M382 162H414" stroke="black"/>
<path d="M383 158L375 162L383 166V158Z" fill="black"/>
<g clip-path="url(#clip10_19_182)">
<path d="M591 257V119" stroke="black"/>
</g>
<path d="M587 256L591 264L595 256H587Z" fill="black"/>
<rect x="504.5" y="338.5" width="211" height="101" fill="white"/>
<rect x="504.5" y="338.5" width="211" height="101" stroke="black" stroke-dasharray="2 2"/>
<path d="M514.85 343.512H512.186V351H511.178V343.512H508.514V342.624H514.85V343.512ZM521.666 351H516.554V342.624H521.666V343.512H517.562V346.32H521.426V347.208H517.562V350.112H521.666V351ZM528.982 351H523.87V342.624H528.982V343.512H524.878V346.32H528.742V347.208H524.878V350.112H528.982V351Z" fill="black"/>
<rect x="529.5" y="364.5" width="161" height="47" stroke="#0F62FE"/>
<rect x="530" y="365" width="160" height="46" fill="white"/>
<rect x="530" y="365" width="160" height="46" fill="#EDF5FF"/>
<g clip-path="url(#clip11_19_182)">
<path d="M586.148 393V383.228H588.234L590.74 388.002H590.796L593.274 383.228H595.276V393H593.526V385.986H593.47L592.714 387.54L590.712 391.236L588.71 387.54L587.954 385.986H587.898V393H586.148ZM603.436 393H597.738V383.228H599.586V391.362H603.436V393ZM609.857 393L607.841 385.692H609.563L610.305 388.702L610.879 391.208H610.935L611.607 388.702L612.461 385.692H614.085L614.967 388.702L615.653 391.208H615.709L616.283 388.702L617.011 385.692H618.677L616.675 393H614.743L613.805 389.78L613.259 387.792H613.217L612.685 389.78L611.761 393H609.857ZM622.961 393.168C620.875 393.168 619.573 391.684 619.573 389.332C619.573 386.994 620.875 385.524 622.961 385.524C625.061 385.524 626.363 386.994 626.363 389.332C626.363 391.684 625.061 393.168 622.961 393.168ZM622.961 391.726C623.899 391.726 624.487 391.124 624.487 390.018V388.66C624.487 387.568 623.899 386.966 622.961 386.966C622.037 386.966 621.449 387.568 621.449 388.66V390.018C621.449 391.124 622.037 391.726 622.961 391.726ZM629.903 393H628.111V385.692H629.903V387.204H629.973C630.155 386.434 630.743 385.692 631.905 385.692H632.297V387.386H631.737C630.533 387.386 629.903 387.722 629.903 388.52V393ZM633.767 393V382.64H635.559V388.884H635.629L636.595 387.568L638.233 385.692H640.263L637.743 388.52L640.529 393H638.401L636.525 389.724L635.559 390.774V393H633.767ZM644.547 393H643.581C642.363 393 641.789 392.356 641.789 391.236V382.64H643.581V391.572H644.547V393ZM648.962 393.168C646.876 393.168 645.574 391.684 645.574 389.332C645.574 386.994 646.876 385.524 648.962 385.524C651.062 385.524 652.364 386.994 652.364 389.332C652.364 391.684 651.062 393.168 648.962 393.168ZM648.962 391.726C649.9 391.726 650.488 391.124 650.488 390.018V388.66C650.488 387.568 649.9 386.966 648.962 386.966C648.038 386.966 647.45 387.568 647.45 388.66V390.018C647.45 391.124 648.038 391.726 648.962 391.726ZM655.919 393.168C654.435 393.168 653.595 392.314 653.595 391.012C653.595 389.514 654.729 388.772 656.717 388.772H657.963V388.24C657.963 387.428 657.557 386.952 656.605 386.952C655.765 386.952 655.289 387.372 654.939 387.876L653.875 386.924C654.407 386.084 655.261 385.524 656.731 385.524C658.705 385.524 659.755 386.462 659.755 388.128V391.572H660.483V393H659.489C658.719 393 658.243 392.496 658.131 391.74H658.047C657.809 392.678 657.011 393.168 655.919 393.168ZM656.521 391.866C657.319 391.866 657.963 391.502 657.963 390.816V389.85H656.815C655.877 389.85 655.415 390.172 655.415 390.746V390.984C655.415 391.572 655.821 391.866 656.521 391.866ZM666.629 393V391.782H666.559C666.293 392.608 665.509 393.168 664.543 393.168C662.709 393.168 661.687 391.782 661.687 389.332C661.687 386.896 662.709 385.524 664.543 385.524C665.509 385.524 666.307 386.056 666.559 386.896H666.629V382.64H668.421V393H666.629ZM665.117 391.684C665.971 391.684 666.629 391.25 666.629 390.494V388.17C666.629 387.456 665.971 386.994 665.117 386.994C664.193 386.994 663.563 387.68 663.563 388.716V389.976C663.563 391.012 664.193 391.684 665.117 391.684Z" fill="black"/>
<path d="M565.25 394C564.916 394.002 564.586 394.079 564.286 394.226L561.061 391H558.5V392.5H560.439L563.225 395.286C563.079 395.586 563.002 395.916 563 396.25C563 396.695 563.132 397.13 563.379 397.5C563.626 397.87 563.978 398.158 564.389 398.329C564.8 398.499 565.252 398.544 565.689 398.457C566.125 398.37 566.526 398.156 566.841 397.841C567.156 397.526 567.37 397.125 567.457 396.689C567.544 396.252 567.499 395.8 567.329 395.389C567.158 394.978 566.87 394.626 566.5 394.379C566.13 394.132 565.695 394 565.25 394ZM565.25 397C565.102 397 564.957 396.956 564.833 396.874C564.71 396.791 564.614 396.674 564.557 396.537C564.5 396.4 564.485 396.249 564.514 396.104C564.543 395.958 564.615 395.825 564.72 395.72C564.825 395.615 564.958 395.543 565.104 395.514C565.249 395.485 565.4 395.5 565.537 395.557C565.674 395.614 565.791 395.71 565.874 395.833C565.956 395.957 566 396.102 566 396.25C566 396.449 565.921 396.64 565.78 396.78C565.64 396.921 565.449 397 565.25 397Z" fill="black"/>
<path d="M565.25 385.75C564.786 385.751 564.334 385.896 563.956 386.165C563.578 386.433 563.292 386.813 563.138 387.25H558.5V388.75H563.138C563.276 389.138 563.519 389.48 563.838 389.74C564.158 389.999 564.543 390.166 564.95 390.221C565.358 390.277 565.774 390.22 566.151 390.055C566.529 389.891 566.854 389.626 567.091 389.289C567.328 388.952 567.467 388.557 567.495 388.146C567.522 387.735 567.437 387.325 567.247 386.96C567.057 386.594 566.77 386.288 566.418 386.075C566.066 385.862 565.662 385.749 565.25 385.75ZM565.25 388.75C565.102 388.75 564.957 388.706 564.833 388.624C564.71 388.541 564.614 388.424 564.557 388.287C564.5 388.15 564.485 387.999 564.514 387.854C564.543 387.708 564.615 387.575 564.72 387.47C564.825 387.365 564.958 387.293 565.104 387.264C565.249 387.235 565.4 387.25 565.537 387.307C565.674 387.364 565.791 387.46 565.874 387.583C565.956 387.707 566 387.852 566 388C566 388.199 565.921 388.39 565.78 388.53C565.64 388.671 565.449 388.75 565.25 388.75Z" fill="black"/>
<path d="M565.25 377.5C564.653 377.501 564.082 377.738 563.66 378.16C563.238 378.582 563.001 379.153 563 379.75C563.003 380.109 563.092 380.463 563.261 380.78L560.447 383.5H558.5V385H561.053L564.352 381.811C564.659 381.944 564.991 382.008 565.325 381.997C565.66 381.986 565.987 381.9 566.284 381.747C566.581 381.593 566.84 381.375 567.042 381.109C567.244 380.843 567.385 380.535 567.453 380.207C567.521 379.88 567.515 379.542 567.436 379.217C567.357 378.892 567.207 378.589 566.996 378.33C566.785 378.07 566.518 377.861 566.216 377.718C565.915 377.574 565.584 377.5 565.25 377.5ZM565.25 380.5C565.102 380.5 564.957 380.456 564.833 380.374C564.71 380.291 564.614 380.174 564.557 380.037C564.5 379.9 564.485 379.749 564.514 379.604C564.543 379.458 564.615 379.325 564.72 379.22C564.825 379.115 564.958 379.043 565.104 379.014C565.249 378.985 565.4 379 565.537 379.057C565.674 379.114 565.791 379.21 565.874 379.333C565.956 379.457 566 379.602 566 379.75C566 379.949 565.921 380.14 565.78 380.28C565.64 380.421 565.449 380.5 565.25 380.5Z" fill="black"/>
<path d="M558.5 380.5H560V379H558.5C558.073 379.001 557.65 379.095 557.262 379.274C556.874 379.452 556.529 379.713 556.25 380.037C555.971 379.713 555.626 379.452 555.238 379.274C554.85 379.095 554.427 379.001 554 379H553.25C551.46 379.002 549.745 379.714 548.479 380.979C547.214 382.245 546.502 383.96 546.5 385.75V390.25C546.502 392.04 547.214 393.755 548.479 395.021C549.745 396.286 551.46 396.998 553.25 397H554C554.427 396.999 554.85 396.905 555.238 396.726C555.626 396.548 555.971 396.287 556.25 395.963C556.529 396.287 556.874 396.548 557.262 396.726C557.65 396.905 558.073 396.999 558.5 397H560V395.5H558.5C558.102 395.5 557.721 395.341 557.44 395.06C557.159 394.779 557 394.398 557 394V382C557 381.602 557.159 381.221 557.44 380.94C557.721 380.659 558.102 380.5 558.5 380.5ZM554 395.5H553.25C551.989 395.498 550.771 395.042 549.818 394.216C548.865 393.39 548.241 392.248 548.06 391H549.5V389.5H548V386.5H550.25C550.847 386.499 551.418 386.262 551.84 385.84C552.262 385.418 552.499 384.847 552.5 384.25V382.75H551V384.25C551 384.449 550.921 384.64 550.78 384.78C550.64 384.921 550.449 385 550.25 385H548.06C548.241 383.752 548.865 382.61 549.818 381.784C550.771 380.958 551.989 380.502 553.25 380.5H554C554.398 380.5 554.779 380.659 555.06 380.94C555.341 381.221 555.5 381.602 555.5 382V385H554V386.5H555.5V389.5H554C553.403 389.501 552.832 389.738 552.41 390.16C551.988 390.582 551.751 391.153 551.75 391.75V393.25H553.25V391.75C553.25 391.551 553.329 391.36 553.47 391.22C553.61 391.079 553.801 391 554 391H555.5V394C555.5 394.398 555.341 394.779 555.06 395.06C554.779 395.341 554.398 395.5 554 395.5Z" fill="black"/>
<line x1="531" y1="364" x2="531" y2="412" stroke="#0F62FE" stroke-width="4"/>
</g>
<path d="M905 264V126" stroke="black"/>
<path d="M901 127L905 119L909 127H901Z" fill="black"/>
<rect width="177" height="211" transform="translate(414 162)" fill="white" fill-opacity="0.01" style="mix-blend-mode:multiply"/>
<path d="M591 162H414V373" stroke="black"/>
<path d="M46.2636 34H41.8256V32.516H43.1136V25.712H41.8256V24.228H46.2636V25.712H44.9616V32.516H46.2636V34ZM48.3116 34V24.228H52.8336C54.4436 24.228 55.4236 25.222 55.4236 26.734C55.4236 28.218 54.5696 28.778 53.6736 28.834V28.918C54.5276 28.932 55.7876 29.534 55.7876 31.2C55.7876 32.768 54.7096 34 53.2676 34H48.3116ZM50.1596 29.814V32.432H52.7356C53.4356 32.432 53.8556 32.054 53.8556 31.368V30.892C53.8556 30.206 53.4356 29.814 52.7356 29.814H50.1596ZM50.1596 25.796V28.302H52.4416C53.1136 28.302 53.5056 27.91 53.5056 27.266V26.832C53.5056 26.174 53.1136 25.796 52.4416 25.796H50.1596ZM57.7548 34V24.228H59.8408L62.3468 29.002H62.4028L64.8808 24.228H66.8828V34H65.1328V26.986H65.0768L64.3208 28.54L62.3188 32.236L60.3168 28.54L59.5608 26.986H59.5048V34H57.7548ZM76.607 34.168C74.031 34.168 72.393 32.474 72.393 29.184C72.393 25.894 74.031 24.06 76.607 24.06C78.357 24.06 79.491 24.802 80.177 26.314L78.595 27.154C78.315 26.286 77.699 25.698 76.607 25.698C75.235 25.698 74.353 26.692 74.353 28.358V29.898C74.353 31.578 75.235 32.53 76.607 32.53C77.713 32.53 78.399 31.858 78.721 30.976L80.219 31.858C79.519 33.314 78.357 34.168 76.607 34.168ZM84.6015 34H83.6355C82.4175 34 81.8435 33.356 81.8435 32.236V23.64H83.6355V32.572H84.6015V34ZM89.0167 34.168C86.9307 34.168 85.6287 32.684 85.6287 30.332C85.6287 27.994 86.9307 26.524 89.0167 26.524C91.1167 26.524 92.4187 27.994 92.4187 30.332C92.4187 32.684 91.1167 34.168 89.0167 34.168ZM89.0167 32.726C89.9547 32.726 90.5427 32.124 90.5427 31.018V29.66C90.5427 28.568 89.9547 27.966 89.0167 27.966C88.0927 27.966 87.5047 28.568 87.5047 29.66V31.018C87.5047 32.124 88.0927 32.726 89.0167 32.726ZM98.5354 34V32.782H98.4654C98.2134 33.51 97.6254 34.168 96.4214 34.168C94.9234 34.168 94.0834 33.132 94.0834 31.312V26.692H95.8754V31.13C95.8754 32.138 96.2534 32.684 97.1074 32.684C97.8214 32.684 98.5354 32.306 98.5354 31.522V26.692H100.327V34H98.5354ZM107.094 34V32.782H107.024C106.758 33.608 105.974 34.168 105.008 34.168C103.174 34.168 102.152 32.782 102.152 30.332C102.152 27.896 103.174 26.524 105.008 26.524C105.974 26.524 106.772 27.056 107.024 27.896H107.094V23.64H108.886V34H107.094ZM105.582 32.684C106.436 32.684 107.094 32.25 107.094 31.494V29.17C107.094 28.456 106.436 27.994 105.582 27.994C104.658 27.994 104.028 28.68 104.028 29.716V30.976C104.028 32.012 104.658 32.684 105.582 32.684Z" fill="black"/>
<rect x="198" y="276" width="48" height="16" rx="8" transform="rotate(-90 198 276)" fill="black"/>
<path d="M210 261.904L205.884 264.688L207.204 265.876H210V266.884H201.624V265.876H206.076V265.84L204.624 264.64L201.624 262.108V260.872L205.212 263.992L210 260.656V261.904ZM210 256.206V257.214H206.688L201.624 260.094V258.942L205.656 256.71V256.674L201.624 254.442V253.29L206.652 256.206H210ZM210.144 248.932C210.144 251.092 208.62 252.484 205.812 252.484C203.004 252.484 201.48 251.092 201.48 248.932C201.48 246.772 203.004 245.38 205.812 245.38C208.62 245.38 210.144 246.772 210.144 248.932ZM209.244 248.932C209.244 247.48 208.164 246.46 206.508 246.46H205.116C203.46 246.46 202.38 247.48 202.38 248.932C202.38 250.384 203.46 251.404 205.116 251.404H206.508C208.164 251.404 209.244 250.384 209.244 248.932ZM210 238.268L205.884 241.052L207.204 242.24H210V243.248H201.624V242.24H206.076V242.204L204.624 241.004L201.624 238.472V237.236L205.212 240.356L210 237.02V238.268Z" fill="white"/>
<rect x="398" y="393" width="48" height="16" rx="8" fill="black"/>
<path d="M412.096 405L409.312 400.884L408.124 402.204V405H407.116V396.624H408.124V401.076H408.16L409.36 399.624L411.892 396.624H413.128L410.008 400.212L413.344 405H412.096ZM417.794 405H416.786V401.688L413.906 396.624H415.058L417.29 400.656H417.326L419.558 396.624H420.71L417.794 401.652V405ZM425.068 405.144C422.908 405.144 421.516 403.62 421.516 400.812C421.516 398.004 422.908 396.48 425.068 396.48C427.228 396.48 428.62 398.004 428.62 400.812C428.62 403.62 427.228 405.144 425.068 405.144ZM425.068 404.244C426.52 404.244 427.54 403.164 427.54 401.508V400.116C427.54 398.46 426.52 397.38 425.068 397.38C423.616 397.38 422.596 398.46 422.596 400.116V401.508C422.596 403.164 423.616 404.244 425.068 404.244ZM435.732 405L432.948 400.884L431.76 402.204V405H430.752V396.624H431.76V401.076H431.796L432.996 399.624L435.528 396.624H436.764L433.644 400.212L436.98 405H435.732Z" fill="white"/>
<defs>
<clipPath id="clip0_19_182">
<rect width="592" height="48" fill="white" transform="translate(456 215)"/>
</clipPath>
<clipPath id="clip1_19_182">
<rect width="339" height="48" fill="white" transform="translate(36 70)"/>
</clipPath>
<clipPath id="clip2_19_182">
<rect width="536" height="48" fill="white" transform="translate(480 272)"/>
</clipPath>
<clipPath id="clip3_19_182">
<rect width="340" height="48" fill="white" transform="translate(35 306)"/>
</clipPath>
<clipPath id="clip4_19_182">
<rect width="228" height="48" fill="white" transform="translate(91 387)"/>
</clipPath>
<clipPath id="clip5_19_182">
<rect width="228" height="48" fill="white" transform="translate(92 138)"/>
</clipPath>
<clipPath id="clip6_19_182">
<rect width="228" height="48" fill="white" transform="translate(477 71)"/>
</clipPath>
<clipPath id="clip7_19_182">
<rect width="24" height="24" fill="white" transform="translate(489 83)"/>
</clipPath>
<clipPath id="clip8_19_182">
<rect width="228" height="48" fill="white" transform="translate(791 71)"/>
</clipPath>
<clipPath id="clip9_19_182">
<rect width="194" height="48" fill="white" transform="translate(791 362)"/>
</clipPath>
<clipPath id="clip10_19_182">
<rect width="138" height="8" fill="white" transform="matrix(0 -1 1 0 587 257)"/>
</clipPath>
<clipPath id="clip11_19_182">
<rect width="162" height="48" fill="white" transform="translate(529 364)"/>
</clipPath>
</defs>
</svg>
