<svg width="1080" height="810" viewBox="0 0 1080 810" fill="none" xmlns="http://www.w3.org/2000/svg">
<rect width="1080" height="810" fill="white"/>
<rect x="72.5" y="624.5" width="927" height="63" fill="white" fill-opacity="0.01" style="mix-blend-mode:multiply"/>
<rect x="72.5" y="624.5" width="927" height="63" stroke="#0F62FE"/>
<rect x="73" y="625" width="926" height="62" fill="white"/>
<rect x="73" y="625" width="926" height="62" fill="#EDF5FF"/>
<g clip-path="url(#clip0_1_2)">
<path d="M90.996 653H89.148V643.228H93.544C95.35 643.228 96.442 644.446 96.442 646.252C96.442 648.072 95.35 649.276 93.544 649.276H90.996V653ZM90.996 644.838V647.68H93.376C94.09 647.68 94.524 647.288 94.524 646.574V645.93C94.524 645.216 94.09 644.838 93.376 644.838H90.996ZM100.125 649.234V653H98.2767V643.228H102.687C104.465 643.228 105.571 644.404 105.571 646.252C105.571 647.596 104.955 648.618 103.751 649.024L105.753 653H103.695L101.875 649.234H100.125ZM100.125 647.68H102.505C103.219 647.68 103.653 647.288 103.653 646.574V645.93C103.653 645.216 103.219 644.838 102.505 644.838H100.125V647.68ZM107.921 655.114H106.423L110.441 642.64H111.939L107.921 655.114ZM116.551 653.168C114.885 653.168 113.737 652.51 112.911 651.544L114.157 650.34C114.829 651.124 115.655 651.544 116.663 651.544C117.797 651.544 118.385 650.998 118.385 650.172C118.385 649.514 118.077 649.108 117.055 648.926L116.131 648.786C114.157 648.478 113.205 647.54 113.205 645.944C113.205 644.194 114.563 643.06 116.747 643.06C118.217 643.06 119.309 643.564 120.093 644.502L118.833 645.692C118.357 645.09 117.685 644.684 116.649 644.684C115.599 644.684 115.053 645.104 115.053 645.832C115.053 646.574 115.473 646.882 116.411 647.05L117.321 647.218C119.295 647.568 120.219 648.45 120.219 650.06C120.219 651.908 118.889 653.168 116.551 653.168ZM122.231 653V643.228H124.317L126.823 648.002H126.879L129.357 643.228H131.359V653H129.609V645.986H129.553L128.797 647.54L126.795 651.236L124.793 647.54L124.037 645.986H123.981V653H122.231Z" fill="black"/>
<line x1="74" y1="624" x2="74" y2="672" stroke="#0F62FE" stroke-width="4"/>
</g>
<rect x="71.5" y="64.5" width="927" height="496" fill="white" fill-opacity="0.01" style="mix-blend-mode:multiply"/>
<rect x="71.5" y="64.5" width="927" height="496" stroke="#0F62FE"/>
<rect x="72" y="65" width="926" height="495" fill="white"/>
<rect x="72" y="65" width="926" height="495" fill="#EDF5FF"/>
<g clip-path="url(#clip1_1_2)">
<path d="M93.846 93H88.148V83.228H89.996V91.362H93.846V93ZM97.4568 93H95.6088V83.228H100.005C101.811 83.228 102.903 84.446 102.903 86.252C102.903 88.072 101.811 89.276 100.005 89.276H97.4568V93ZM97.4568 84.838V87.68H99.8368C100.551 87.68 100.985 87.288 100.985 86.574V85.93C100.985 85.216 100.551 84.838 99.8368 84.838H97.4568ZM111.788 93H109.87L109.086 90.508H105.614L104.844 93H102.968L106.244 83.228H108.54L111.788 93ZM108.638 88.926L107.378 84.908H107.308L106.062 88.926H108.638ZM115.236 89.234V93H113.388V83.228H117.798C119.576 83.228 120.682 84.404 120.682 86.252C120.682 87.596 120.066 88.618 118.862 89.024L120.864 93H118.806L116.986 89.234H115.236ZM115.236 87.68H117.616C118.33 87.68 118.764 87.288 118.764 86.574V85.93C118.764 85.216 118.33 84.838 117.616 84.838H115.236V87.68Z" fill="black"/>
<line x1="73" y1="64" x2="73" y2="112" stroke="#0F62FE" stroke-width="4"/>
</g>
<rect x="104.5" y="120.5" width="862" height="351" fill="white" fill-opacity="0.01" style="mix-blend-mode:multiply"/>
<rect x="104.5" y="120.5" width="862" height="351" stroke="#0F62FE"/>
<rect x="105" y="121" width="861" height="350" fill="white"/>
<rect x="105" y="121" width="861" height="350" fill="#EDF5FF"/>
<g clip-path="url(#clip2_1_2)">
<path d="M127.084 149L124.298 144.576L122.996 146.116V149H121.148V139.228H122.996V144.044H123.066L124.452 142.21L126.874 139.228H129.002L125.6 143.302L129.282 149H127.084ZM134.85 149H132.75L129.558 139.228H131.448L132.946 143.988L133.814 147.236H133.856L134.71 143.988L136.208 139.228H138.042L134.85 149ZM139.57 149V139.228H141.656L144.162 144.002H144.218L146.696 139.228H148.698V149H146.948V141.986H146.892L146.136 143.54L144.134 147.236L142.132 143.54L141.376 141.986H141.32V149H139.57ZM154.516 149V138.64H156.308V142.91H156.378C156.672 142.126 157.288 141.524 158.422 141.524C159.92 141.524 160.76 142.56 160.76 144.38V149H158.968V144.562C158.968 143.526 158.618 142.994 157.764 142.994C157.022 142.994 156.308 143.386 156.308 144.17V149H154.516ZM165.804 149.168C163.718 149.168 162.416 147.684 162.416 145.332C162.416 142.994 163.718 141.524 165.804 141.524C167.904 141.524 169.206 142.994 169.206 145.332C169.206 147.684 167.904 149.168 165.804 149.168ZM165.804 147.726C166.742 147.726 167.33 147.124 167.33 146.018V144.66C167.33 143.568 166.742 142.966 165.804 142.966C164.88 142.966 164.292 143.568 164.292 144.66V146.018C164.292 147.124 164.88 147.726 165.804 147.726ZM173.349 149.168C171.963 149.168 171.053 148.664 170.325 147.824L171.417 146.76C171.949 147.376 172.593 147.754 173.419 147.754C174.273 147.754 174.637 147.432 174.637 146.914C174.637 146.494 174.385 146.228 173.741 146.144L173.013 146.046C171.445 145.85 170.577 145.164 170.577 143.834C170.577 142.42 171.683 141.524 173.349 141.524C174.777 141.524 175.505 141.944 176.205 142.672L175.155 143.722C174.735 143.274 174.119 142.938 173.405 142.938C172.635 142.938 172.299 143.246 172.299 143.694C172.299 144.184 172.565 144.408 173.251 144.52L173.993 144.618C175.589 144.842 176.359 145.556 176.359 146.774C176.359 148.188 175.169 149.168 173.349 149.168ZM180.274 149C179.042 149 178.384 148.328 178.384 147.138V143.12H177.306V141.692H177.866C178.398 141.692 178.566 141.44 178.566 140.936V139.69H180.176V141.692H181.674V143.12H180.176V147.572H181.562V149H180.274Z" fill="black"/>
<line x1="106" y1="120" x2="106" y2="168" stroke="#0F62FE" stroke-width="4"/>
</g>
<rect x="416.5" y="575.5" width="520" height="49" fill="#D9D9D9" stroke="black"/>
<rect x="416.5" y="511.5" width="520" height="49" fill="#D9D9D9" stroke="black"/>
<path d="M656.078 594.228H657.898V600.234C657.898 601.76 658.43 602.53 659.83 602.53C661.23 602.53 661.762 601.76 661.762 600.234V594.228H663.582V599.996C663.582 602.866 662.56 604.168 659.816 604.168C657.072 604.168 656.078 602.866 656.078 599.996V594.228ZM668.62 604H667.654C666.436 604 665.862 603.356 665.862 602.236V593.64H667.654V602.572H668.62V604ZM672.351 604C671.119 604 670.461 603.328 670.461 602.138V598.12H669.383V596.692H669.943C670.475 596.692 670.643 596.44 670.643 595.936V594.69H672.253V596.692H673.751V598.12H672.253V602.572H673.639V604H672.351ZM677.257 604H675.465V596.692H677.257V598.204H677.327C677.509 597.434 678.097 596.692 679.259 596.692H679.651V598.386H679.091C677.887 598.386 677.257 598.722 677.257 599.52V604ZM682.777 604.168C681.293 604.168 680.453 603.314 680.453 602.012C680.453 600.514 681.587 599.772 683.575 599.772H684.821V599.24C684.821 598.428 684.415 597.952 683.463 597.952C682.623 597.952 682.147 598.372 681.797 598.876L680.733 597.924C681.265 597.084 682.119 596.524 683.589 596.524C685.563 596.524 686.613 597.462 686.613 599.128V602.572H687.341V604H686.347C685.577 604 685.101 603.496 684.989 602.74H684.905C684.667 603.678 683.869 604.168 682.777 604.168ZM683.379 602.866C684.177 602.866 684.821 602.502 684.821 601.816V600.85H683.673C682.735 600.85 682.273 601.172 682.273 601.746V601.984C682.273 602.572 682.679 602.866 683.379 602.866ZM692.524 604H690.396L687.96 596.692H689.724L690.746 599.842L691.46 602.446H691.558L692.272 599.842L693.266 596.692H694.974L692.524 604ZM697.226 595.628C696.484 595.628 696.176 595.25 696.176 594.732V594.452C696.176 593.934 696.484 593.556 697.226 593.556C697.954 593.556 698.276 593.934 698.276 594.452V594.732C698.276 595.25 697.954 595.628 697.226 595.628ZM696.33 604V596.692H698.122V604H696.33ZM702.753 604.168C701.367 604.168 700.457 603.664 699.729 602.824L700.821 601.76C701.353 602.376 701.997 602.754 702.823 602.754C703.677 602.754 704.041 602.432 704.041 601.914C704.041 601.494 703.789 601.228 703.145 601.144L702.417 601.046C700.849 600.85 699.981 600.164 699.981 598.834C699.981 597.42 701.087 596.524 702.753 596.524C704.181 596.524 704.909 596.944 705.609 597.672L704.559 598.722C704.139 598.274 703.523 597.938 702.809 597.938C702.039 597.938 701.703 598.246 701.703 598.694C701.703 599.184 701.969 599.408 702.655 599.52L703.397 599.618C704.993 599.842 705.763 600.556 705.763 601.774C705.763 603.188 704.573 604.168 702.753 604.168ZM710.403 604.168C708.317 604.168 707.015 602.684 707.015 600.332C707.015 597.994 708.317 596.524 710.403 596.524C712.503 596.524 713.805 597.994 713.805 600.332C713.805 602.684 712.503 604.168 710.403 604.168ZM710.403 602.726C711.341 602.726 711.929 602.124 711.929 601.018V599.66C711.929 598.568 711.341 597.966 710.403 597.966C709.479 597.966 708.891 598.568 708.891 599.66V601.018C708.891 602.124 709.479 602.726 710.403 602.726ZM717.346 604H715.554V596.692H717.346V598.204H717.416C717.598 597.434 718.186 596.692 719.348 596.692H719.74V598.386H719.18C717.976 598.386 717.346 598.722 717.346 599.52V604Z" fill="black"/>
<path d="M630.25 531.228H632.07V537.234C632.07 538.76 632.602 539.53 634.002 539.53C635.402 539.53 635.934 538.76 635.934 537.234V531.228H637.754V536.996C637.754 539.866 636.732 541.168 633.988 541.168C631.244 541.168 630.25 539.866 630.25 536.996V531.228ZM642.792 541H641.826C640.608 541 640.034 540.356 640.034 539.236V530.64H641.826V539.572H642.792V541ZM646.523 541C645.291 541 644.633 540.328 644.633 539.138V535.12H643.555V533.692H644.115C644.647 533.692 644.815 533.44 644.815 532.936V531.69H646.425V533.692H647.923V535.12H646.425V539.572H647.811V541H646.523ZM651.429 541H649.637V533.692H651.429V535.204H651.499C651.681 534.434 652.269 533.692 653.431 533.692H653.823V535.386H653.263C652.059 535.386 651.429 535.722 651.429 536.52V541ZM656.949 541.168C655.465 541.168 654.625 540.314 654.625 539.012C654.625 537.514 655.759 536.772 657.747 536.772H658.993V536.24C658.993 535.428 658.587 534.952 657.635 534.952C656.795 534.952 656.319 535.372 655.969 535.876L654.905 534.924C655.437 534.084 656.291 533.524 657.761 533.524C659.735 533.524 660.785 534.462 660.785 536.128V539.572H661.513V541H660.519C659.749 541 659.273 540.496 659.161 539.74H659.077C658.839 540.678 658.041 541.168 656.949 541.168ZM657.551 539.866C658.349 539.866 658.993 539.502 658.993 538.816V537.85H657.845C656.907 537.85 656.445 538.172 656.445 538.746V538.984C656.445 539.572 656.851 539.866 657.551 539.866ZM666.696 541H664.568L662.132 533.692H663.896L664.918 536.842L665.632 539.446H665.73L666.444 536.842L667.438 533.692H669.146L666.696 541ZM671.398 532.628C670.656 532.628 670.348 532.25 670.348 531.732V531.452C670.348 530.934 670.656 530.556 671.398 530.556C672.126 530.556 672.448 530.934 672.448 531.452V531.732C672.448 532.25 672.126 532.628 671.398 532.628ZM670.502 541V533.692H672.294V541H670.502ZM676.925 541.168C675.539 541.168 674.629 540.664 673.901 539.824L674.993 538.76C675.525 539.376 676.169 539.754 676.995 539.754C677.849 539.754 678.213 539.432 678.213 538.914C678.213 538.494 677.961 538.228 677.317 538.144L676.589 538.046C675.021 537.85 674.153 537.164 674.153 535.834C674.153 534.42 675.259 533.524 676.925 533.524C678.353 533.524 679.081 533.944 679.781 534.672L678.731 535.722C678.311 535.274 677.695 534.938 676.981 534.938C676.211 534.938 675.875 535.246 675.875 535.694C675.875 536.184 676.141 536.408 676.827 536.52L677.569 536.618C679.165 536.842 679.935 537.556 679.935 538.774C679.935 540.188 678.745 541.168 676.925 541.168ZM684.576 541.168C682.49 541.168 681.188 539.684 681.188 537.332C681.188 534.994 682.49 533.524 684.576 533.524C686.676 533.524 687.978 534.994 687.978 537.332C687.978 539.684 686.676 541.168 684.576 541.168ZM684.576 539.726C685.514 539.726 686.102 539.124 686.102 538.018V536.66C686.102 535.568 685.514 534.966 684.576 534.966C683.652 534.966 683.064 535.568 683.064 536.66V538.018C683.064 539.124 683.652 539.726 684.576 539.726ZM691.518 541H689.726V533.692H691.518V535.204H691.588C691.77 534.434 692.358 533.692 693.52 533.692H693.912V535.386H693.352C692.148 535.386 691.518 535.722 691.518 536.52V541ZM701.133 541C699.901 541 699.243 540.328 699.243 539.138V535.12H698.165V533.692H698.725C699.257 533.692 699.425 533.44 699.425 532.936V531.69H701.035V533.692H702.533V535.12H701.035V539.572H702.421V541H701.133ZM706.053 541.168C704.569 541.168 703.729 540.314 703.729 539.012C703.729 537.514 704.863 536.772 706.851 536.772H708.097V536.24C708.097 535.428 707.691 534.952 706.739 534.952C705.899 534.952 705.423 535.372 705.073 535.876L704.009 534.924C704.541 534.084 705.395 533.524 706.865 533.524C708.839 533.524 709.889 534.462 709.889 536.128V539.572H710.617V541H709.623C708.853 541 708.377 540.496 708.265 539.74H708.181C707.943 540.678 707.145 541.168 706.053 541.168ZM706.655 539.866C707.453 539.866 708.097 539.502 708.097 538.816V537.85H706.949C706.011 537.85 705.549 538.172 705.549 538.746V538.984C705.549 539.572 705.955 539.866 706.655 539.866ZM712.228 541V530.64H714.02V534.896H714.076C714.342 534.056 715.126 533.524 716.092 533.524C717.94 533.524 718.962 534.896 718.962 537.332C718.962 539.782 717.94 541.168 716.092 541.168C715.126 541.168 714.356 540.608 714.076 539.782H714.02V541H712.228ZM715.518 539.684C716.442 539.684 717.086 539.012 717.086 537.976V536.716C717.086 535.68 716.442 534.994 715.518 534.994C714.664 534.994 714.02 535.456 714.02 536.17V538.494C714.02 539.25 714.664 539.684 715.518 539.684ZM723.54 541H722.574C721.356 541 720.782 540.356 720.782 539.236V530.64H722.574V539.572H723.54V541ZM728.011 541.168C725.855 541.168 724.567 539.67 724.567 537.332C724.567 535.022 725.813 533.524 727.955 533.524C730.237 533.524 731.287 535.204 731.287 537.206V537.794H726.429V537.976C726.429 539.026 727.031 539.74 728.207 539.74C729.089 539.74 729.621 539.32 730.069 538.746L731.035 539.824C730.433 540.65 729.369 541.168 728.011 541.168ZM727.983 534.868C727.045 534.868 726.429 535.568 726.429 536.576V536.688H729.425V536.562C729.425 535.554 728.907 534.868 727.983 534.868Z" fill="black"/>
<path d="M90.996 541H89.148V531.228H95.434V532.866H90.996V535.232H94.86V536.87H90.996V541ZM98.1721 532.628C97.4301 532.628 97.1221 532.25 97.1221 531.732V531.452C97.1221 530.934 97.4301 530.556 98.1721 530.556C98.9001 530.556 99.2221 530.934 99.2221 531.452V531.732C99.2221 532.25 98.9001 532.628 98.1721 532.628ZM97.2761 541V533.692H99.0681V541H97.2761ZM103.097 541H101.305V533.692H103.097V535.204H103.167C103.349 534.434 103.937 533.692 105.099 533.692H105.491V535.386H104.931C103.727 535.386 103.097 535.722 103.097 536.52V541ZM108.753 541H106.961V533.692H108.753V534.91H108.823C109.103 534.14 109.691 533.524 110.783 533.524C111.777 533.524 112.547 534.014 112.897 534.994H112.925C113.191 534.182 114.003 533.524 115.165 533.524C116.593 533.524 117.405 534.56 117.405 536.38V541H115.613V536.562C115.613 535.512 115.235 534.994 114.437 534.994C113.737 534.994 113.079 535.386 113.079 536.17V541H111.287V536.562C111.287 535.512 110.909 534.994 110.111 534.994C109.425 534.994 108.753 535.386 108.753 536.17V541ZM120.769 541L118.753 533.692H120.475L121.217 536.702L121.791 539.208H121.847L122.519 536.702L123.373 533.692H124.997L125.879 536.702L126.565 539.208H126.621L127.195 536.702L127.923 533.692H129.589L127.587 541H125.655L124.717 537.78L124.171 535.792H124.129L123.597 537.78L122.673 541H120.769ZM132.726 541.168C131.242 541.168 130.402 540.314 130.402 539.012C130.402 537.514 131.536 536.772 133.524 536.772H134.77V536.24C134.77 535.428 134.364 534.952 133.412 534.952C132.572 534.952 132.096 535.372 131.746 535.876L130.682 534.924C131.214 534.084 132.068 533.524 133.538 533.524C135.512 533.524 136.562 534.462 136.562 536.128V539.572H137.29V541H136.296C135.526 541 135.05 540.496 134.938 539.74H134.854C134.616 540.678 133.818 541.168 132.726 541.168ZM133.328 539.866C134.126 539.866 134.77 539.502 134.77 538.816V537.85H133.622C132.684 537.85 132.222 538.172 132.222 538.746V538.984C132.222 539.572 132.628 539.866 133.328 539.866ZM140.692 541H138.9V533.692H140.692V535.204H140.762C140.944 534.434 141.532 533.692 142.694 533.692H143.086V535.386H142.526C141.322 535.386 140.692 535.722 140.692 536.52V541ZM147.442 541.168C145.286 541.168 143.998 539.67 143.998 537.332C143.998 535.022 145.244 533.524 147.386 533.524C149.668 533.524 150.718 535.204 150.718 537.206V537.794H145.86V537.976C145.86 539.026 146.462 539.74 147.638 539.74C148.52 539.74 149.052 539.32 149.5 538.746L150.466 539.824C149.864 540.65 148.8 541.168 147.442 541.168ZM147.414 534.868C146.476 534.868 145.86 535.568 145.86 536.576V536.688H148.856V536.562C148.856 535.554 148.338 534.868 147.414 534.868Z" fill="black"/>
<line x1="72" y1="511.5" x2="1000" y2="511.5" stroke="black" stroke-dasharray="2 2"/>
<rect x="136.5" y="183.5" width="239" height="255" fill="white" fill-opacity="0.01" style="mix-blend-mode:multiply"/>
<rect x="136.5" y="183.5" width="239" height="255" stroke="#0F62FE"/>
<rect x="137" y="184" width="238" height="254" fill="white"/>
<g clip-path="url(#clip3_1_2)">
<path d="M159.084 212L156.298 207.576L154.996 209.116V212H153.148V202.228H154.996V207.044H155.066L156.452 205.21L158.874 202.228H161.002L157.6 206.302L161.282 212H159.084ZM166.85 212H164.75L161.558 202.228H163.448L164.946 206.988L165.814 210.236H165.856L166.71 206.988L168.208 202.228H170.042L166.85 212ZM171.57 212V202.228H173.656L176.162 207.002H176.218L178.696 202.228H180.698V212H178.948V204.986H178.892L178.136 206.54L176.134 210.236L174.132 206.54L173.376 204.986H173.32V212H171.57ZM193.11 212.616C193.11 214.142 192.074 214.968 189.274 214.968C186.81 214.968 185.872 214.324 185.872 213.246C185.872 212.434 186.362 211.972 187.174 211.846V211.692C186.572 211.538 186.236 211.062 186.236 210.474C186.236 209.718 186.88 209.34 187.58 209.186V209.13C186.698 208.724 186.25 207.968 186.25 207.002C186.25 205.518 187.3 204.524 189.274 204.524C189.722 204.524 190.184 204.58 190.548 204.706V204.468C190.548 203.754 190.912 203.404 191.584 203.404H192.718V204.776H191.164V204.972C191.92 205.392 192.298 206.106 192.298 207.002C192.298 208.472 191.262 209.452 189.274 209.452C188.854 209.452 188.476 209.41 188.154 209.326C187.874 209.452 187.636 209.662 187.636 209.984C187.636 210.348 187.944 210.53 188.588 210.53H190.548C192.34 210.53 193.11 211.3 193.11 212.616ZM191.43 212.826C191.43 212.364 191.094 212.084 190.184 212.084H187.692C187.426 212.28 187.314 212.546 187.314 212.84C187.314 213.4 187.734 213.736 188.854 213.736H189.75C190.912 213.736 191.43 213.442 191.43 212.826ZM189.274 208.234C190.128 208.234 190.59 207.842 190.59 207.114V206.876C190.59 206.134 190.128 205.756 189.274 205.756C188.42 205.756 187.958 206.134 187.958 206.876V207.114C187.958 207.842 188.42 208.234 189.274 208.234ZM198.618 212V210.782H198.548C198.296 211.51 197.708 212.168 196.504 212.168C195.006 212.168 194.166 211.132 194.166 209.312V204.692H195.958V209.13C195.958 210.138 196.336 210.684 197.19 210.684C197.904 210.684 198.618 210.306 198.618 209.522V204.692H200.41V212H198.618ZM205.595 212.168C203.439 212.168 202.151 210.67 202.151 208.332C202.151 206.022 203.397 204.524 205.539 204.524C207.821 204.524 208.871 206.204 208.871 208.206V208.794H204.013V208.976C204.013 210.026 204.615 210.74 205.791 210.74C206.673 210.74 207.205 210.32 207.653 209.746L208.619 210.824C208.017 211.65 206.953 212.168 205.595 212.168ZM205.567 205.868C204.629 205.868 204.013 206.568 204.013 207.576V207.688H207.009V207.562C207.009 206.554 206.491 205.868 205.567 205.868ZM213.001 212.168C211.615 212.168 210.705 211.664 209.977 210.824L211.069 209.76C211.601 210.376 212.245 210.754 213.071 210.754C213.925 210.754 214.289 210.432 214.289 209.914C214.289 209.494 214.037 209.228 213.393 209.144L212.665 209.046C211.097 208.85 210.229 208.164 210.229 206.834C210.229 205.42 211.335 204.524 213.001 204.524C214.429 204.524 215.157 204.944 215.857 205.672L214.807 206.722C214.387 206.274 213.771 205.938 213.057 205.938C212.287 205.938 211.951 206.246 211.951 206.694C211.951 207.184 212.217 207.408 212.903 207.52L213.645 207.618C215.241 207.842 216.011 208.556 216.011 209.774C216.011 211.188 214.821 212.168 213.001 212.168ZM219.926 212C218.694 212 218.036 211.328 218.036 210.138V206.12H216.958V204.692H217.518C218.05 204.692 218.218 204.44 218.218 203.936V202.69H219.828V204.692H221.326V206.12H219.828V210.572H221.214V212H219.926Z" fill="black"/>
<line x1="138" y1="183" x2="138" y2="249" stroke="#0F62FE" stroke-width="4"/>
</g>
<rect x="416.5" y="184.5" width="239" height="255" fill="white" fill-opacity="0.01" style="mix-blend-mode:multiply"/>
<rect x="416.5" y="184.5" width="239" height="255" stroke="#0F62FE"/>
<rect x="417" y="185" width="238" height="254" fill="white"/>
<g clip-path="url(#clip4_1_2)">
<path d="M439.084 213L436.298 208.576L434.996 210.116V213H433.148V203.228H434.996V208.044H435.066L436.452 206.21L438.874 203.228H441.002L437.6 207.302L441.282 213H439.084ZM446.85 213H444.75L441.558 203.228H443.448L444.946 207.988L445.814 211.236H445.856L446.71 207.988L448.208 203.228H450.042L446.85 213ZM451.57 213V203.228H453.656L456.162 208.002H456.218L458.696 203.228H460.698V213H458.948V205.986H458.892L458.136 207.54L456.134 211.236L454.132 207.54L453.376 205.986H453.32V213H451.57ZM473.11 213.616C473.11 215.142 472.074 215.968 469.274 215.968C466.81 215.968 465.872 215.324 465.872 214.246C465.872 213.434 466.362 212.972 467.174 212.846V212.692C466.572 212.538 466.236 212.062 466.236 211.474C466.236 210.718 466.88 210.34 467.58 210.186V210.13C466.698 209.724 466.25 208.968 466.25 208.002C466.25 206.518 467.3 205.524 469.274 205.524C469.722 205.524 470.184 205.58 470.548 205.706V205.468C470.548 204.754 470.912 204.404 471.584 204.404H472.718V205.776H471.164V205.972C471.92 206.392 472.298 207.106 472.298 208.002C472.298 209.472 471.262 210.452 469.274 210.452C468.854 210.452 468.476 210.41 468.154 210.326C467.874 210.452 467.636 210.662 467.636 210.984C467.636 211.348 467.944 211.53 468.588 211.53H470.548C472.34 211.53 473.11 212.3 473.11 213.616ZM471.43 213.826C471.43 213.364 471.094 213.084 470.184 213.084H467.692C467.426 213.28 467.314 213.546 467.314 213.84C467.314 214.4 467.734 214.736 468.854 214.736H469.75C470.912 214.736 471.43 214.442 471.43 213.826ZM469.274 209.234C470.128 209.234 470.59 208.842 470.59 208.114V207.876C470.59 207.134 470.128 206.756 469.274 206.756C468.42 206.756 467.958 207.134 467.958 207.876V208.114C467.958 208.842 468.42 209.234 469.274 209.234ZM478.618 213V211.782H478.548C478.296 212.51 477.708 213.168 476.504 213.168C475.006 213.168 474.166 212.132 474.166 210.312V205.692H475.958V210.13C475.958 211.138 476.336 211.684 477.19 211.684C477.904 211.684 478.618 211.306 478.618 210.522V205.692H480.41V213H478.618ZM485.595 213.168C483.439 213.168 482.151 211.67 482.151 209.332C482.151 207.022 483.397 205.524 485.539 205.524C487.821 205.524 488.871 207.204 488.871 209.206V209.794H484.013V209.976C484.013 211.026 484.615 211.74 485.791 211.74C486.673 211.74 487.205 211.32 487.653 210.746L488.619 211.824C488.017 212.65 486.953 213.168 485.595 213.168ZM485.567 206.868C484.629 206.868 484.013 207.568 484.013 208.576V208.688H487.009V208.562C487.009 207.554 486.491 206.868 485.567 206.868ZM493.001 213.168C491.615 213.168 490.705 212.664 489.977 211.824L491.069 210.76C491.601 211.376 492.245 211.754 493.071 211.754C493.925 211.754 494.289 211.432 494.289 210.914C494.289 210.494 494.037 210.228 493.393 210.144L492.665 210.046C491.097 209.85 490.229 209.164 490.229 207.834C490.229 206.42 491.335 205.524 493.001 205.524C494.429 205.524 495.157 205.944 495.857 206.672L494.807 207.722C494.387 207.274 493.771 206.938 493.057 206.938C492.287 206.938 491.951 207.246 491.951 207.694C491.951 208.184 492.217 208.408 492.903 208.52L493.645 208.618C495.241 208.842 496.011 209.556 496.011 210.774C496.011 212.188 494.821 213.168 493.001 213.168ZM499.926 213C498.694 213 498.036 212.328 498.036 211.138V207.12H496.958V205.692H497.518C498.05 205.692 498.218 205.44 498.218 204.936V203.69H499.828V205.692H501.326V207.12H499.828V211.572H501.214V213H499.926ZM513.481 213H506.747V211.502H509.435V204.558H509.309L507.181 207.078L506.033 206.112L508.455 203.228H511.241V211.502H513.481V213ZM519.428 204.628C518.686 204.628 518.378 204.25 518.378 203.732V203.452C518.378 202.934 518.686 202.556 519.428 202.556C520.156 202.556 520.478 202.934 520.478 203.452V203.732C520.478 204.25 520.156 204.628 519.428 204.628ZM518.532 213V205.692H520.324V213H518.532ZM524.353 213H522.561V205.692H524.353V206.91H524.423C524.717 206.126 525.333 205.524 526.467 205.524C527.965 205.524 528.805 206.56 528.805 208.38V213H527.013V208.562C527.013 207.526 526.663 206.994 525.809 206.994C525.067 206.994 524.353 207.386 524.353 208.17V213ZM536.814 213.168C535.428 213.168 534.518 212.664 533.79 211.824L534.882 210.76C535.414 211.376 536.058 211.754 536.884 211.754C537.738 211.754 538.102 211.432 538.102 210.914C538.102 210.494 537.85 210.228 537.206 210.144L536.478 210.046C534.91 209.85 534.042 209.164 534.042 207.834C534.042 206.42 535.148 205.524 536.814 205.524C538.242 205.524 538.97 205.944 539.67 206.672L538.62 207.722C538.2 207.274 537.584 206.938 536.87 206.938C536.1 206.938 535.764 207.246 535.764 207.694C535.764 208.184 536.03 208.408 536.716 208.52L537.458 208.618C539.054 208.842 539.824 209.556 539.824 210.774C539.824 212.188 538.634 213.168 536.814 213.168ZM544.521 213.168C542.365 213.168 541.077 211.67 541.077 209.332C541.077 207.022 542.323 205.524 544.465 205.524C546.747 205.524 547.797 207.204 547.797 209.206V209.794H542.939V209.976C542.939 211.026 543.541 211.74 544.717 211.74C545.599 211.74 546.131 211.32 546.579 210.746L547.545 211.824C546.943 212.65 545.879 213.168 544.521 213.168ZM544.493 206.868C543.555 206.868 542.939 207.568 542.939 208.576V208.688H545.935V208.562C545.935 207.554 545.417 206.868 544.493 206.868ZM552.417 213.168C550.261 213.168 549.043 211.684 549.043 209.332C549.043 206.994 550.261 205.524 552.417 205.524C553.887 205.524 554.853 206.224 555.287 207.372L553.817 208.03C553.649 207.414 553.187 206.966 552.417 206.966C551.423 206.966 550.919 207.666 550.919 208.688V210.018C550.919 211.04 551.423 211.726 552.417 211.726C553.271 211.726 553.691 211.236 553.957 210.578L555.329 211.236C554.853 212.524 553.831 213.168 552.417 213.168ZM561.239 213V211.782H561.169C560.917 212.51 560.329 213.168 559.125 213.168C557.627 213.168 556.787 212.132 556.787 210.312V205.692H558.579V210.13C558.579 211.138 558.957 211.684 559.811 211.684C560.525 211.684 561.239 211.306 561.239 210.522V205.692H563.031V213H561.239ZM567.054 213H565.262V205.692H567.054V207.204H567.124C567.306 206.434 567.894 205.692 569.056 205.692H569.448V207.386H568.888C567.684 207.386 567.054 207.722 567.054 208.52V213ZM573.803 213.168C571.647 213.168 570.359 211.67 570.359 209.332C570.359 207.022 571.605 205.524 573.747 205.524C576.029 205.524 577.079 207.204 577.079 209.206V209.794H572.221V209.976C572.221 211.026 572.823 211.74 573.999 211.74C574.881 211.74 575.413 211.32 575.861 210.746L576.827 211.824C576.225 212.65 575.161 213.168 573.803 213.168ZM573.775 206.868C572.837 206.868 572.221 207.568 572.221 208.576V208.688H575.217V208.562C575.217 207.554 574.699 206.868 573.775 206.868ZM435.99 231.168C433.834 231.168 432.546 229.67 432.546 227.332C432.546 225.022 433.792 223.524 435.934 223.524C438.216 223.524 439.266 225.204 439.266 227.206V227.794H434.408V227.976C434.408 229.026 435.01 229.74 436.186 229.74C437.068 229.74 437.6 229.32 438.048 228.746L439.014 229.824C438.412 230.65 437.348 231.168 435.99 231.168ZM435.962 224.868C435.024 224.868 434.408 225.568 434.408 226.576V226.688H437.404V226.562C437.404 225.554 436.886 224.868 435.962 224.868ZM440.028 231L442.52 227.29L440.084 223.692H442.128L443.64 226.114H443.696L445.194 223.692H447.098L444.62 227.318L447.112 231H445.068L443.528 228.48H443.472L441.932 231H440.028ZM451.322 231.168C449.166 231.168 447.878 229.67 447.878 227.332C447.878 225.022 449.124 223.524 451.266 223.524C453.548 223.524 454.598 225.204 454.598 227.206V227.794H449.74V227.976C449.74 229.026 450.342 229.74 451.518 229.74C452.4 229.74 452.932 229.32 453.38 228.746L454.346 229.824C453.744 230.65 452.68 231.168 451.322 231.168ZM451.294 224.868C450.356 224.868 449.74 225.568 449.74 226.576V226.688H452.736V226.562C452.736 225.554 452.218 224.868 451.294 224.868ZM459.218 231.168C457.062 231.168 455.844 229.684 455.844 227.332C455.844 224.994 457.062 223.524 459.218 223.524C460.688 223.524 461.654 224.224 462.088 225.372L460.618 226.03C460.45 225.414 459.988 224.966 459.218 224.966C458.224 224.966 457.72 225.666 457.72 226.688V228.018C457.72 229.04 458.224 229.726 459.218 229.726C460.072 229.726 460.492 229.236 460.758 228.578L462.13 229.236C461.654 230.524 460.632 231.168 459.218 231.168ZM468.04 231V229.782H467.97C467.718 230.51 467.13 231.168 465.926 231.168C464.428 231.168 463.588 230.132 463.588 228.312V223.692H465.38V228.13C465.38 229.138 465.758 229.684 466.612 229.684C467.326 229.684 468.04 229.306 468.04 228.522V223.692H469.832V231H468.04ZM474.345 231C473.113 231 472.455 230.328 472.455 229.138V225.12H471.377V223.692H471.937C472.469 223.692 472.637 223.44 472.637 222.936V221.69H474.247V223.692H475.745V225.12H474.247V229.572H475.633V231H474.345ZM478.355 222.628C477.613 222.628 477.305 222.25 477.305 221.732V221.452C477.305 220.934 477.613 220.556 478.355 220.556C479.083 220.556 479.405 220.934 479.405 221.452V221.732C479.405 222.25 479.083 222.628 478.355 222.628ZM477.459 231V223.692H479.251V231H477.459ZM484.386 231.168C482.3 231.168 480.998 229.684 480.998 227.332C480.998 224.994 482.3 223.524 484.386 223.524C486.486 223.524 487.788 224.994 487.788 227.332C487.788 229.684 486.486 231.168 484.386 231.168ZM484.386 229.726C485.324 229.726 485.912 229.124 485.912 228.018V226.66C485.912 225.568 485.324 224.966 484.386 224.966C483.462 224.966 482.874 225.568 482.874 226.66V228.018C482.874 229.124 483.462 229.726 484.386 229.726ZM491.329 231H489.537V223.692H491.329V224.91H491.399C491.693 224.126 492.309 223.524 493.443 223.524C494.941 223.524 495.781 224.56 495.781 226.38V231H493.989V226.562C493.989 225.526 493.639 224.994 492.785 224.994C492.043 224.994 491.329 225.386 491.329 226.17V231ZM503.188 231H501.396V223.692H503.188V224.91H503.258C503.538 224.14 504.126 223.524 505.218 223.524C506.212 223.524 506.982 224.014 507.332 224.994H507.36C507.626 224.182 508.438 223.524 509.6 223.524C511.028 223.524 511.84 224.56 511.84 226.38V231H510.048V226.562C510.048 225.512 509.67 224.994 508.872 224.994C508.172 224.994 507.514 225.386 507.514 226.17V231H505.722V226.562C505.722 225.512 505.344 224.994 504.546 224.994C503.86 224.994 503.188 225.386 503.188 226.17V231ZM516.882 231.168C514.796 231.168 513.494 229.684 513.494 227.332C513.494 224.994 514.796 223.524 516.882 223.524C518.982 223.524 520.284 224.994 520.284 227.332C520.284 229.684 518.982 231.168 516.882 231.168ZM516.882 229.726C517.82 229.726 518.408 229.124 518.408 228.018V226.66C518.408 225.568 517.82 224.966 516.882 224.966C515.958 224.966 515.37 225.568 515.37 226.66V228.018C515.37 229.124 515.958 229.726 516.882 229.726ZM526.568 231V229.782H526.498C526.232 230.608 525.448 231.168 524.482 231.168C522.648 231.168 521.626 229.782 521.626 227.332C521.626 224.896 522.648 223.524 524.482 223.524C525.448 223.524 526.246 224.056 526.498 224.896H526.568V220.64H528.36V231H526.568ZM525.056 229.684C525.91 229.684 526.568 229.25 526.568 228.494V226.17C526.568 225.456 525.91 224.994 525.056 224.994C524.132 224.994 523.502 225.68 523.502 226.716V227.976C523.502 229.012 524.132 229.684 525.056 229.684ZM533.541 231.168C531.385 231.168 530.097 229.67 530.097 227.332C530.097 225.022 531.343 223.524 533.485 223.524C535.767 223.524 536.817 225.204 536.817 227.206V227.794H531.959V227.976C531.959 229.026 532.561 229.74 533.737 229.74C534.619 229.74 535.151 229.32 535.599 228.746L536.565 229.824C535.963 230.65 534.899 231.168 533.541 231.168ZM533.513 224.868C532.575 224.868 531.959 225.568 531.959 226.576V226.688H534.955V226.562C534.955 225.554 534.437 224.868 533.513 224.868Z" fill="black"/>
<line x1="418" y1="184" x2="418" y2="250" stroke="#0F62FE" stroke-width="4"/>
</g>
<rect x="696.5" y="184.5" width="239" height="255" fill="white" fill-opacity="0.01" style="mix-blend-mode:multiply"/>
<rect x="696.5" y="184.5" width="239" height="255" stroke="#0F62FE"/>
<rect x="697" y="185" width="238" height="254" fill="white"/>
<g clip-path="url(#clip5_1_2)">
<path d="M719.084 213L716.298 208.576L714.996 210.116V213H713.148V203.228H714.996V208.044H715.066L716.452 206.21L718.874 203.228H721.002L717.6 207.302L721.282 213H719.084ZM726.85 213H724.75L721.558 203.228H723.448L724.946 207.988L725.814 211.236H725.856L726.71 207.988L728.208 203.228H730.042L726.85 213ZM731.57 213V203.228H733.656L736.162 208.002H736.218L738.696 203.228H740.698V213H738.948V205.986H738.892L738.136 207.54L736.134 211.236L734.132 207.54L733.376 205.986H733.32V213H731.57ZM753.11 213.616C753.11 215.142 752.074 215.968 749.274 215.968C746.81 215.968 745.872 215.324 745.872 214.246C745.872 213.434 746.362 212.972 747.174 212.846V212.692C746.572 212.538 746.236 212.062 746.236 211.474C746.236 210.718 746.88 210.34 747.58 210.186V210.13C746.698 209.724 746.25 208.968 746.25 208.002C746.25 206.518 747.3 205.524 749.274 205.524C749.722 205.524 750.184 205.58 750.548 205.706V205.468C750.548 204.754 750.912 204.404 751.584 204.404H752.718V205.776H751.164V205.972C751.92 206.392 752.298 207.106 752.298 208.002C752.298 209.472 751.262 210.452 749.274 210.452C748.854 210.452 748.476 210.41 748.154 210.326C747.874 210.452 747.636 210.662 747.636 210.984C747.636 211.348 747.944 211.53 748.588 211.53H750.548C752.34 211.53 753.11 212.3 753.11 213.616ZM751.43 213.826C751.43 213.364 751.094 213.084 750.184 213.084H747.692C747.426 213.28 747.314 213.546 747.314 213.84C747.314 214.4 747.734 214.736 748.854 214.736H749.75C750.912 214.736 751.43 214.442 751.43 213.826ZM749.274 209.234C750.128 209.234 750.59 208.842 750.59 208.114V207.876C750.59 207.134 750.128 206.756 749.274 206.756C748.42 206.756 747.958 207.134 747.958 207.876V208.114C747.958 208.842 748.42 209.234 749.274 209.234ZM758.618 213V211.782H758.548C758.296 212.51 757.708 213.168 756.504 213.168C755.006 213.168 754.166 212.132 754.166 210.312V205.692H755.958V210.13C755.958 211.138 756.336 211.684 757.19 211.684C757.904 211.684 758.618 211.306 758.618 210.522V205.692H760.41V213H758.618ZM765.595 213.168C763.439 213.168 762.151 211.67 762.151 209.332C762.151 207.022 763.397 205.524 765.539 205.524C767.821 205.524 768.871 207.204 768.871 209.206V209.794H764.013V209.976C764.013 211.026 764.615 211.74 765.791 211.74C766.673 211.74 767.205 211.32 767.653 210.746L768.619 211.824C768.017 212.65 766.953 213.168 765.595 213.168ZM765.567 206.868C764.629 206.868 764.013 207.568 764.013 208.576V208.688H767.009V208.562C767.009 207.554 766.491 206.868 765.567 206.868ZM773.001 213.168C771.615 213.168 770.705 212.664 769.977 211.824L771.069 210.76C771.601 211.376 772.245 211.754 773.071 211.754C773.925 211.754 774.289 211.432 774.289 210.914C774.289 210.494 774.037 210.228 773.393 210.144L772.665 210.046C771.097 209.85 770.229 209.164 770.229 207.834C770.229 206.42 771.335 205.524 773.001 205.524C774.429 205.524 775.157 205.944 775.857 206.672L774.807 207.722C774.387 207.274 773.771 206.938 773.057 206.938C772.287 206.938 771.951 207.246 771.951 207.694C771.951 208.184 772.217 208.408 772.903 208.52L773.645 208.618C775.241 208.842 776.011 209.556 776.011 210.774C776.011 212.188 774.821 213.168 773.001 213.168ZM779.926 213C778.694 213 778.036 212.328 778.036 211.138V207.12H776.958V205.692H777.518C778.05 205.692 778.218 205.44 778.218 204.936V203.69H779.828V205.692H781.326V207.12H779.828V211.572H781.214V213H779.926ZM793.117 211.446V213H786.341V211.292L789.407 208.604C790.443 207.694 790.919 207.022 790.919 206.168V205.986C790.919 205.132 790.275 204.656 789.477 204.656C788.469 204.656 787.993 205.314 787.769 206.112L786.173 205.496C786.593 204.194 787.643 203.06 789.631 203.06C791.689 203.06 792.865 204.292 792.865 205.972C792.865 207.596 791.759 208.632 790.401 209.752L788.343 211.446H793.117ZM799.428 204.628C798.686 204.628 798.378 204.25 798.378 203.732V203.452C798.378 202.934 798.686 202.556 799.428 202.556C800.156 202.556 800.478 202.934 800.478 203.452V203.732C800.478 204.25 800.156 204.628 799.428 204.628ZM798.532 213V205.692H800.324V213H798.532ZM804.353 213H802.561V205.692H804.353V206.91H804.423C804.717 206.126 805.333 205.524 806.467 205.524C807.965 205.524 808.805 206.56 808.805 208.38V213H807.013V208.562C807.013 207.526 806.663 206.994 805.809 206.994C805.067 206.994 804.353 207.386 804.353 208.17V213ZM816.814 213.168C815.428 213.168 814.518 212.664 813.79 211.824L814.882 210.76C815.414 211.376 816.058 211.754 816.884 211.754C817.738 211.754 818.102 211.432 818.102 210.914C818.102 210.494 817.85 210.228 817.206 210.144L816.478 210.046C814.91 209.85 814.042 209.164 814.042 207.834C814.042 206.42 815.148 205.524 816.814 205.524C818.242 205.524 818.97 205.944 819.67 206.672L818.62 207.722C818.2 207.274 817.584 206.938 816.87 206.938C816.1 206.938 815.764 207.246 815.764 207.694C815.764 208.184 816.03 208.408 816.716 208.52L817.458 208.618C819.054 208.842 819.824 209.556 819.824 210.774C819.824 212.188 818.634 213.168 816.814 213.168ZM824.521 213.168C822.365 213.168 821.077 211.67 821.077 209.332C821.077 207.022 822.323 205.524 824.465 205.524C826.747 205.524 827.797 207.204 827.797 209.206V209.794H822.939V209.976C822.939 211.026 823.541 211.74 824.717 211.74C825.599 211.74 826.131 211.32 826.579 210.746L827.545 211.824C826.943 212.65 825.879 213.168 824.521 213.168ZM824.493 206.868C823.555 206.868 822.939 207.568 822.939 208.576V208.688H825.935V208.562C825.935 207.554 825.417 206.868 824.493 206.868ZM832.417 213.168C830.261 213.168 829.043 211.684 829.043 209.332C829.043 206.994 830.261 205.524 832.417 205.524C833.887 205.524 834.853 206.224 835.287 207.372L833.817 208.03C833.649 207.414 833.187 206.966 832.417 206.966C831.423 206.966 830.919 207.666 830.919 208.688V210.018C830.919 211.04 831.423 211.726 832.417 211.726C833.271 211.726 833.691 211.236 833.957 210.578L835.329 211.236C834.853 212.524 833.831 213.168 832.417 213.168ZM841.239 213V211.782H841.169C840.917 212.51 840.329 213.168 839.125 213.168C837.627 213.168 836.787 212.132 836.787 210.312V205.692H838.579V210.13C838.579 211.138 838.957 211.684 839.811 211.684C840.525 211.684 841.239 211.306 841.239 210.522V205.692H843.031V213H841.239ZM847.054 213H845.262V205.692H847.054V207.204H847.124C847.306 206.434 847.894 205.692 849.056 205.692H849.448V207.386H848.888C847.684 207.386 847.054 207.722 847.054 208.52V213ZM853.803 213.168C851.647 213.168 850.359 211.67 850.359 209.332C850.359 207.022 851.605 205.524 853.747 205.524C856.029 205.524 857.079 207.204 857.079 209.206V209.794H852.221V209.976C852.221 211.026 852.823 211.74 853.999 211.74C854.881 211.74 855.413 211.32 855.861 210.746L856.827 211.824C856.225 212.65 855.161 213.168 853.803 213.168ZM853.775 206.868C852.837 206.868 852.221 207.568 852.221 208.576V208.688H855.217V208.562C855.217 207.554 854.699 206.868 853.775 206.868ZM715.99 231.168C713.834 231.168 712.546 229.67 712.546 227.332C712.546 225.022 713.792 223.524 715.934 223.524C718.216 223.524 719.266 225.204 719.266 227.206V227.794H714.408V227.976C714.408 229.026 715.01 229.74 716.186 229.74C717.068 229.74 717.6 229.32 718.048 228.746L719.014 229.824C718.412 230.65 717.348 231.168 715.99 231.168ZM715.962 224.868C715.024 224.868 714.408 225.568 714.408 226.576V226.688H717.404V226.562C717.404 225.554 716.886 224.868 715.962 224.868ZM720.028 231L722.52 227.29L720.084 223.692H722.128L723.64 226.114H723.696L725.194 223.692H727.098L724.62 227.318L727.112 231H725.068L723.528 228.48H723.472L721.932 231H720.028ZM731.322 231.168C729.166 231.168 727.878 229.67 727.878 227.332C727.878 225.022 729.124 223.524 731.266 223.524C733.548 223.524 734.598 225.204 734.598 227.206V227.794H729.74V227.976C729.74 229.026 730.342 229.74 731.518 229.74C732.4 229.74 732.932 229.32 733.38 228.746L734.346 229.824C733.744 230.65 732.68 231.168 731.322 231.168ZM731.294 224.868C730.356 224.868 729.74 225.568 729.74 226.576V226.688H732.736V226.562C732.736 225.554 732.218 224.868 731.294 224.868ZM739.218 231.168C737.062 231.168 735.844 229.684 735.844 227.332C735.844 224.994 737.062 223.524 739.218 223.524C740.688 223.524 741.654 224.224 742.088 225.372L740.618 226.03C740.45 225.414 739.988 224.966 739.218 224.966C738.224 224.966 737.72 225.666 737.72 226.688V228.018C737.72 229.04 738.224 229.726 739.218 229.726C740.072 229.726 740.492 229.236 740.758 228.578L742.13 229.236C741.654 230.524 740.632 231.168 739.218 231.168ZM748.04 231V229.782H747.97C747.718 230.51 747.13 231.168 745.926 231.168C744.428 231.168 743.588 230.132 743.588 228.312V223.692H745.38V228.13C745.38 229.138 745.758 229.684 746.612 229.684C747.326 229.684 748.04 229.306 748.04 228.522V223.692H749.832V231H748.04ZM754.345 231C753.113 231 752.455 230.328 752.455 229.138V225.12H751.377V223.692H751.937C752.469 223.692 752.637 223.44 752.637 222.936V221.69H754.247V223.692H755.745V225.12H754.247V229.572H755.633V231H754.345ZM758.355 222.628C757.613 222.628 757.305 222.25 757.305 221.732V221.452C757.305 220.934 757.613 220.556 758.355 220.556C759.083 220.556 759.405 220.934 759.405 221.452V221.732C759.405 222.25 759.083 222.628 758.355 222.628ZM757.459 231V223.692H759.251V231H757.459ZM764.386 231.168C762.3 231.168 760.998 229.684 760.998 227.332C760.998 224.994 762.3 223.524 764.386 223.524C766.486 223.524 767.788 224.994 767.788 227.332C767.788 229.684 766.486 231.168 764.386 231.168ZM764.386 229.726C765.324 229.726 765.912 229.124 765.912 228.018V226.66C765.912 225.568 765.324 224.966 764.386 224.966C763.462 224.966 762.874 225.568 762.874 226.66V228.018C762.874 229.124 763.462 229.726 764.386 229.726ZM771.329 231H769.537V223.692H771.329V224.91H771.399C771.693 224.126 772.309 223.524 773.443 223.524C774.941 223.524 775.781 224.56 775.781 226.38V231H773.989V226.562C773.989 225.526 773.639 224.994 772.785 224.994C772.043 224.994 771.329 225.386 771.329 226.17V231ZM783.188 231H781.396V223.692H783.188V224.91H783.258C783.538 224.14 784.126 223.524 785.218 223.524C786.212 223.524 786.982 224.014 787.332 224.994H787.36C787.626 224.182 788.438 223.524 789.6 223.524C791.028 223.524 791.84 224.56 791.84 226.38V231H790.048V226.562C790.048 225.512 789.67 224.994 788.872 224.994C788.172 224.994 787.514 225.386 787.514 226.17V231H785.722V226.562C785.722 225.512 785.344 224.994 784.546 224.994C783.86 224.994 783.188 225.386 783.188 226.17V231ZM796.882 231.168C794.796 231.168 793.494 229.684 793.494 227.332C793.494 224.994 794.796 223.524 796.882 223.524C798.982 223.524 800.284 224.994 800.284 227.332C800.284 229.684 798.982 231.168 796.882 231.168ZM796.882 229.726C797.82 229.726 798.408 229.124 798.408 228.018V226.66C798.408 225.568 797.82 224.966 796.882 224.966C795.958 224.966 795.37 225.568 795.37 226.66V228.018C795.37 229.124 795.958 229.726 796.882 229.726ZM806.568 231V229.782H806.498C806.232 230.608 805.448 231.168 804.482 231.168C802.648 231.168 801.626 229.782 801.626 227.332C801.626 224.896 802.648 223.524 804.482 223.524C805.448 223.524 806.246 224.056 806.498 224.896H806.568V220.64H808.36V231H806.568ZM805.056 229.684C805.91 229.684 806.568 229.25 806.568 228.494V226.17C806.568 225.456 805.91 224.994 805.056 224.994C804.132 224.994 803.502 225.68 803.502 226.716V227.976C803.502 229.012 804.132 229.684 805.056 229.684ZM813.541 231.168C811.385 231.168 810.097 229.67 810.097 227.332C810.097 225.022 811.343 223.524 813.485 223.524C815.767 223.524 816.817 225.204 816.817 227.206V227.794H811.959V227.976C811.959 229.026 812.561 229.74 813.737 229.74C814.619 229.74 815.151 229.32 815.599 228.746L816.565 229.824C815.963 230.65 814.899 231.168 813.541 231.168ZM813.513 224.868C812.575 224.868 811.959 225.568 811.959 226.576V226.688H814.955V226.562C814.955 225.554 814.437 224.868 813.513 224.868Z" fill="black"/>
<line x1="698" y1="184" x2="698" y2="250" stroke="#0F62FE" stroke-width="4"/>
</g>
<rect x="720.5" y="304.5" width="191" height="111" fill="#D9D9D9" stroke="black"/>
<rect x="160.5" y="257.5" width="191" height="158" fill="white" fill-opacity="0.01" style="mix-blend-mode:multiply"/>
<rect x="160.5" y="257.5" width="191" height="158" stroke="black"/>
<rect x="161" y="258" width="190" height="157" fill="white"/>
<g clip-path="url(#clip6_1_2)">
<path d="M215.036 286V284.488H214.98C214.812 285.44 213.888 286.168 212.418 286.168C210.122 286.168 208.386 284.418 208.386 281.142C208.386 277.866 210.136 276.06 212.74 276.06C214.476 276.06 215.736 276.858 216.436 278.286L214.938 279.168C214.588 278.328 213.902 277.698 212.74 277.698C211.298 277.698 210.346 278.608 210.346 280.33V281.898C210.346 283.606 211.298 284.53 212.768 284.53C213.916 284.53 214.854 283.97 214.854 282.864V282.234H212.936V280.68H216.632V286H215.036ZM223.189 286V284.782H223.119C222.867 285.51 222.279 286.168 221.075 286.168C219.577 286.168 218.737 285.132 218.737 283.312V278.692H220.529V283.13C220.529 284.138 220.907 284.684 221.761 284.684C222.475 284.684 223.189 284.306 223.189 283.522V278.692H224.981V286H223.189ZM230.165 286.168C228.009 286.168 226.721 284.67 226.721 282.332C226.721 280.022 227.967 278.524 230.109 278.524C232.391 278.524 233.441 280.204 233.441 282.206V282.794H228.583V282.976C228.583 284.026 229.185 284.74 230.361 284.74C231.243 284.74 231.775 284.32 232.223 283.746L233.189 284.824C232.587 285.65 231.523 286.168 230.165 286.168ZM230.137 279.868C229.199 279.868 228.583 280.568 228.583 281.576V281.688H231.579V281.562C231.579 280.554 231.061 279.868 230.137 279.868ZM237.572 286.168C236.186 286.168 235.276 285.664 234.548 284.824L235.64 283.76C236.172 284.376 236.816 284.754 237.642 284.754C238.496 284.754 238.86 284.432 238.86 283.914C238.86 283.494 238.608 283.228 237.964 283.144L237.236 283.046C235.668 282.85 234.8 282.164 234.8 280.834C234.8 279.42 235.906 278.524 237.572 278.524C239 278.524 239.728 278.944 240.428 279.672L239.378 280.722C238.958 280.274 238.342 279.938 237.628 279.938C236.858 279.938 236.522 280.246 236.522 280.694C236.522 281.184 236.788 281.408 237.474 281.52L238.216 281.618C239.812 281.842 240.582 282.556 240.582 283.774C240.582 285.188 239.392 286.168 237.572 286.168ZM244.497 286C243.265 286 242.607 285.328 242.607 284.138V280.12H241.529V278.692H242.089C242.621 278.692 242.789 278.44 242.789 277.936V276.69H244.399V278.692H245.897V280.12H244.399V284.572H245.785V286H244.497ZM252.872 286H251.08V278.692H252.872V279.91H252.942C253.222 279.14 253.81 278.524 254.902 278.524C255.896 278.524 256.666 279.014 257.016 279.994H257.044C257.31 279.182 258.122 278.524 259.284 278.524C260.712 278.524 261.524 279.56 261.524 281.38V286H259.732V281.562C259.732 280.512 259.354 279.994 258.556 279.994C257.856 279.994 257.198 280.386 257.198 281.17V286H255.406V281.562C255.406 280.512 255.028 279.994 254.23 279.994C253.544 279.994 252.872 280.386 252.872 281.17V286ZM266.622 286.168C264.466 286.168 263.178 284.67 263.178 282.332C263.178 280.022 264.424 278.524 266.566 278.524C268.848 278.524 269.898 280.204 269.898 282.206V282.794H265.04V282.976C265.04 284.026 265.642 284.74 266.818 284.74C267.7 284.74 268.232 284.32 268.68 283.746L269.646 284.824C269.044 285.65 267.98 286.168 266.622 286.168ZM266.594 279.868C265.656 279.868 265.04 280.568 265.04 281.576V281.688H268.036V281.562C268.036 280.554 267.518 279.868 266.594 279.868ZM273.426 286H271.634V278.692H273.426V279.91H273.496C273.776 279.14 274.364 278.524 275.456 278.524C276.45 278.524 277.22 279.014 277.57 279.994H277.598C277.864 279.182 278.676 278.524 279.838 278.524C281.266 278.524 282.078 279.56 282.078 281.38V286H280.286V281.562C280.286 280.512 279.908 279.994 279.11 279.994C278.41 279.994 277.752 280.386 277.752 281.17V286H275.96V281.562C275.96 280.512 275.582 279.994 274.784 279.994C274.098 279.994 273.426 280.386 273.426 281.17V286ZM287.12 286.168C285.034 286.168 283.732 284.684 283.732 282.332C283.732 279.994 285.034 278.524 287.12 278.524C289.22 278.524 290.522 279.994 290.522 282.332C290.522 284.684 289.22 286.168 287.12 286.168ZM287.12 284.726C288.058 284.726 288.646 284.124 288.646 283.018V281.66C288.646 280.568 288.058 279.966 287.12 279.966C286.196 279.966 285.608 280.568 285.608 281.66V283.018C285.608 284.124 286.196 284.726 287.12 284.726ZM294.063 286H292.271V278.692H294.063V280.204H294.133C294.315 279.434 294.903 278.692 296.065 278.692H296.457V280.386H295.897C294.693 280.386 294.063 280.722 294.063 281.52V286ZM301.242 282.556L302.516 278.692H304.196L301.256 287.302C300.892 288.352 300.374 288.8 299.17 288.8H298.092V287.372H299.408L299.744 286.35L297.126 278.692H298.904L300.178 282.556L300.654 284.404H300.738L301.242 282.556Z" fill="black"/>
</g>
<rect x="440.5" y="257.5" width="191" height="158" fill="white" fill-opacity="0.01" style="mix-blend-mode:multiply"/>
<rect x="440.5" y="257.5" width="191" height="158" stroke="black"/>
<rect x="441" y="258" width="190" height="157" fill="white"/>
<g clip-path="url(#clip7_1_2)">
<path d="M489.025 286V284.488H488.969C488.801 285.44 487.877 286.168 486.407 286.168C484.111 286.168 482.375 284.418 482.375 281.142C482.375 277.866 484.125 276.06 486.729 276.06C488.465 276.06 489.725 276.858 490.425 278.286L488.927 279.168C488.577 278.328 487.891 277.698 486.729 277.698C485.287 277.698 484.335 278.608 484.335 280.33V281.898C484.335 283.606 485.287 284.53 486.757 284.53C487.905 284.53 488.843 283.97 488.843 282.864V282.234H486.925V280.68H490.621V286H489.025ZM497.177 286V284.782H497.107C496.855 285.51 496.267 286.168 495.063 286.168C493.565 286.168 492.725 285.132 492.725 283.312V278.692H494.517V283.13C494.517 284.138 494.895 284.684 495.749 284.684C496.463 284.684 497.177 284.306 497.177 283.522V278.692H498.969V286H497.177ZM504.154 286.168C501.998 286.168 500.71 284.67 500.71 282.332C500.71 280.022 501.956 278.524 504.098 278.524C506.38 278.524 507.43 280.204 507.43 282.206V282.794H502.572V282.976C502.572 284.026 503.174 284.74 504.35 284.74C505.232 284.74 505.764 284.32 506.212 283.746L507.178 284.824C506.576 285.65 505.512 286.168 504.154 286.168ZM504.126 279.868C503.188 279.868 502.572 280.568 502.572 281.576V281.688H505.568V281.562C505.568 280.554 505.05 279.868 504.126 279.868ZM511.56 286.168C510.174 286.168 509.264 285.664 508.536 284.824L509.628 283.76C510.16 284.376 510.804 284.754 511.63 284.754C512.484 284.754 512.848 284.432 512.848 283.914C512.848 283.494 512.596 283.228 511.952 283.144L511.224 283.046C509.656 282.85 508.788 282.164 508.788 280.834C508.788 279.42 509.894 278.524 511.56 278.524C512.988 278.524 513.716 278.944 514.416 279.672L513.366 280.722C512.946 280.274 512.33 279.938 511.616 279.938C510.846 279.938 510.51 280.246 510.51 280.694C510.51 281.184 510.776 281.408 511.462 281.52L512.204 281.618C513.8 281.842 514.57 282.556 514.57 283.774C514.57 285.188 513.38 286.168 511.56 286.168ZM518.485 286C517.253 286 516.595 285.328 516.595 284.138V280.12H515.517V278.692H516.077C516.609 278.692 516.777 278.44 516.777 277.936V276.69H518.387V278.692H519.885V280.12H518.387V284.572H519.773V286H518.485ZM532.04 286H525.306V284.502H527.994V277.558H527.868L525.74 280.078L524.592 279.112L527.014 276.228H529.8V284.502H532.04V286ZM538.883 286H537.091V278.692H538.883V279.91H538.953C539.233 279.14 539.821 278.524 540.913 278.524C541.907 278.524 542.677 279.014 543.027 279.994H543.055C543.321 279.182 544.133 278.524 545.295 278.524C546.723 278.524 547.535 279.56 547.535 281.38V286H545.743V281.562C545.743 280.512 545.365 279.994 544.567 279.994C543.867 279.994 543.209 280.386 543.209 281.17V286H541.417V281.562C541.417 280.512 541.039 279.994 540.241 279.994C539.555 279.994 538.883 280.386 538.883 281.17V286ZM552.633 286.168C550.477 286.168 549.189 284.67 549.189 282.332C549.189 280.022 550.435 278.524 552.577 278.524C554.859 278.524 555.909 280.204 555.909 282.206V282.794H551.051V282.976C551.051 284.026 551.653 284.74 552.829 284.74C553.711 284.74 554.243 284.32 554.691 283.746L555.657 284.824C555.055 285.65 553.991 286.168 552.633 286.168ZM552.605 279.868C551.667 279.868 551.051 280.568 551.051 281.576V281.688H554.047V281.562C554.047 280.554 553.529 279.868 552.605 279.868ZM559.438 286H557.646V278.692H559.438V279.91H559.508C559.788 279.14 560.376 278.524 561.468 278.524C562.462 278.524 563.232 279.014 563.582 279.994H563.61C563.876 279.182 564.688 278.524 565.85 278.524C567.278 278.524 568.09 279.56 568.09 281.38V286H566.298V281.562C566.298 280.512 565.92 279.994 565.122 279.994C564.422 279.994 563.764 280.386 563.764 281.17V286H561.972V281.562C561.972 280.512 561.594 279.994 560.796 279.994C560.11 279.994 559.438 280.386 559.438 281.17V286ZM573.132 286.168C571.046 286.168 569.744 284.684 569.744 282.332C569.744 279.994 571.046 278.524 573.132 278.524C575.232 278.524 576.534 279.994 576.534 282.332C576.534 284.684 575.232 286.168 573.132 286.168ZM573.132 284.726C574.07 284.726 574.658 284.124 574.658 283.018V281.66C574.658 280.568 574.07 279.966 573.132 279.966C572.208 279.966 571.62 280.568 571.62 281.66V283.018C571.62 284.124 572.208 284.726 573.132 284.726ZM580.074 286H578.282V278.692H580.074V280.204H580.144C580.326 279.434 580.914 278.692 582.076 278.692H582.468V280.386H581.908C580.704 280.386 580.074 280.722 580.074 281.52V286ZM587.254 282.556L588.528 278.692H590.208L587.268 287.302C586.904 288.352 586.386 288.8 585.182 288.8H584.104V287.372H585.42L585.756 286.35L583.138 278.692H584.916L586.19 282.556L586.666 284.404H586.75L587.254 282.556Z" fill="black"/>
</g>
<rect x="720.5" y="257.5" width="191" height="158" fill="white" fill-opacity="0.01" style="mix-blend-mode:multiply"/>
<rect x="720.5" y="257.5" width="191" height="158" stroke="black"/>
<rect x="721" y="258" width="190" height="157" fill="white"/>
<g clip-path="url(#clip8_1_2)">
<path d="M769.025 286V284.488H768.969C768.801 285.44 767.877 286.168 766.407 286.168C764.111 286.168 762.375 284.418 762.375 281.142C762.375 277.866 764.125 276.06 766.729 276.06C768.465 276.06 769.725 276.858 770.425 278.286L768.927 279.168C768.577 278.328 767.891 277.698 766.729 277.698C765.287 277.698 764.335 278.608 764.335 280.33V281.898C764.335 283.606 765.287 284.53 766.757 284.53C767.905 284.53 768.843 283.97 768.843 282.864V282.234H766.925V280.68H770.621V286H769.025ZM777.177 286V284.782H777.107C776.855 285.51 776.267 286.168 775.063 286.168C773.565 286.168 772.725 285.132 772.725 283.312V278.692H774.517V283.13C774.517 284.138 774.895 284.684 775.749 284.684C776.463 284.684 777.177 284.306 777.177 283.522V278.692H778.969V286H777.177ZM784.154 286.168C781.998 286.168 780.71 284.67 780.71 282.332C780.71 280.022 781.956 278.524 784.098 278.524C786.38 278.524 787.43 280.204 787.43 282.206V282.794H782.572V282.976C782.572 284.026 783.174 284.74 784.35 284.74C785.232 284.74 785.764 284.32 786.212 283.746L787.178 284.824C786.576 285.65 785.512 286.168 784.154 286.168ZM784.126 279.868C783.188 279.868 782.572 280.568 782.572 281.576V281.688H785.568V281.562C785.568 280.554 785.05 279.868 784.126 279.868ZM791.56 286.168C790.174 286.168 789.264 285.664 788.536 284.824L789.628 283.76C790.16 284.376 790.804 284.754 791.63 284.754C792.484 284.754 792.848 284.432 792.848 283.914C792.848 283.494 792.596 283.228 791.952 283.144L791.224 283.046C789.656 282.85 788.788 282.164 788.788 280.834C788.788 279.42 789.894 278.524 791.56 278.524C792.988 278.524 793.716 278.944 794.416 279.672L793.366 280.722C792.946 280.274 792.33 279.938 791.616 279.938C790.846 279.938 790.51 280.246 790.51 280.694C790.51 281.184 790.776 281.408 791.462 281.52L792.204 281.618C793.8 281.842 794.57 282.556 794.57 283.774C794.57 285.188 793.38 286.168 791.56 286.168ZM798.485 286C797.253 286 796.595 285.328 796.595 284.138V280.12H795.517V278.692H796.077C796.609 278.692 796.777 278.44 796.777 277.936V276.69H798.387V278.692H799.885V280.12H798.387V284.572H799.773V286H798.485ZM811.676 284.446V286H804.9V284.292L807.966 281.604C809.002 280.694 809.478 280.022 809.478 279.168V278.986C809.478 278.132 808.834 277.656 808.036 277.656C807.028 277.656 806.552 278.314 806.328 279.112L804.732 278.496C805.152 277.194 806.202 276.06 808.19 276.06C810.248 276.06 811.424 277.292 811.424 278.972C811.424 280.596 810.318 281.632 808.96 282.752L806.902 284.446H811.676ZM818.883 286H817.091V278.692H818.883V279.91H818.953C819.233 279.14 819.821 278.524 820.913 278.524C821.907 278.524 822.677 279.014 823.027 279.994H823.055C823.321 279.182 824.133 278.524 825.295 278.524C826.723 278.524 827.535 279.56 827.535 281.38V286H825.743V281.562C825.743 280.512 825.365 279.994 824.567 279.994C823.867 279.994 823.209 280.386 823.209 281.17V286H821.417V281.562C821.417 280.512 821.039 279.994 820.241 279.994C819.555 279.994 818.883 280.386 818.883 281.17V286ZM832.633 286.168C830.477 286.168 829.189 284.67 829.189 282.332C829.189 280.022 830.435 278.524 832.577 278.524C834.859 278.524 835.909 280.204 835.909 282.206V282.794H831.051V282.976C831.051 284.026 831.653 284.74 832.829 284.74C833.711 284.74 834.243 284.32 834.691 283.746L835.657 284.824C835.055 285.65 833.991 286.168 832.633 286.168ZM832.605 279.868C831.667 279.868 831.051 280.568 831.051 281.576V281.688H834.047V281.562C834.047 280.554 833.529 279.868 832.605 279.868ZM839.438 286H837.646V278.692H839.438V279.91H839.508C839.788 279.14 840.376 278.524 841.468 278.524C842.462 278.524 843.232 279.014 843.582 279.994H843.61C843.876 279.182 844.688 278.524 845.85 278.524C847.278 278.524 848.09 279.56 848.09 281.38V286H846.298V281.562C846.298 280.512 845.92 279.994 845.122 279.994C844.422 279.994 843.764 280.386 843.764 281.17V286H841.972V281.562C841.972 280.512 841.594 279.994 840.796 279.994C840.11 279.994 839.438 280.386 839.438 281.17V286ZM853.132 286.168C851.046 286.168 849.744 284.684 849.744 282.332C849.744 279.994 851.046 278.524 853.132 278.524C855.232 278.524 856.534 279.994 856.534 282.332C856.534 284.684 855.232 286.168 853.132 286.168ZM853.132 284.726C854.07 284.726 854.658 284.124 854.658 283.018V281.66C854.658 280.568 854.07 279.966 853.132 279.966C852.208 279.966 851.62 280.568 851.62 281.66V283.018C851.62 284.124 852.208 284.726 853.132 284.726ZM860.074 286H858.282V278.692H860.074V280.204H860.144C860.326 279.434 860.914 278.692 862.076 278.692H862.468V280.386H861.908C860.704 280.386 860.074 280.722 860.074 281.52V286ZM867.254 282.556L868.528 278.692H870.208L867.268 287.302C866.904 288.352 866.386 288.8 865.182 288.8H864.104V287.372H865.42L865.756 286.35L863.138 278.692H864.916L866.19 282.556L866.666 284.404H866.75L867.254 282.556Z" fill="black"/>
</g>
<rect x="160.5" y="304.5" width="64" height="56" stroke="black"/>
<rect x="504.5" y="304.5" width="63" height="56" fill="#D9D9D9" stroke="black"/>
<rect x="487.5" y="511.5" width="96" height="49" fill="#D9D9D9" stroke="black"/>
<rect x="767.5" y="511.5" width="96" height="49" fill="#D9D9D9" stroke="black"/>
<rect x="440.5" y="304.5" width="64" height="56" fill="#D9D9D9" stroke="black"/>
<rect x="224.5" y="304.5" width="64" height="56" stroke="black"/>
<rect x="784.5" y="304.5" width="64" height="56" fill="#D9D9D9" stroke="black"/>
<rect x="720.5" y="304.5" width="64" height="56" fill="#D9D9D9" stroke="black"/>
<rect x="567.5" y="304.5" width="64" height="56" stroke="black"/>
<rect x="288.5" y="304.5" width="63" height="56" stroke="black"/>
<rect x="847.5" y="304.5" width="64" height="56" fill="#D9D9D9" stroke="black"/>
<rect x="440.5" y="360.5" width="64" height="55" fill="#D9D9D9" stroke="black"/>
<rect x="720.5" y="360.5" width="64" height="55" stroke="black"/>
<rect x="160.5" y="360.5" width="64" height="55" stroke="black"/>
<rect x="504.5" y="360.5" width="63" height="55" stroke="black"/>
<rect x="224.5" y="360.5" width="64" height="55" stroke="black"/>
<rect x="784.5" y="360.5" width="64" height="55" fill="#D9D9D9" stroke="black"/>
<rect x="567.5" y="360.5" width="64" height="55" fill="#D9D9D9" stroke="black"/>
<rect x="288.5" y="360.5" width="63" height="55" stroke="black"/>
<rect x="199.5" y="640.5" width="113" height="31" stroke="black"/>
<rect x="448.5" y="640.5" width="175" height="31" fill="#D9D9D9" stroke="black"/>
<rect x="728.5" y="640.5" width="175" height="31" fill="#D9D9D9" stroke="black"/>
<rect x="847.5" y="360.5" width="64" height="55" fill="#D9D9D9" stroke="black"/>
<mask id="mask0_1_2" style="mask-type:alpha" maskUnits="userSpaceOnUse" x="504" y="304" width="64" height="57">
<rect x="504.5" y="304.5" width="63" height="56" fill="#D9D9D9" stroke="black"/>
</mask>
<g mask="url(#mask0_1_2)">
<line y1="-100" x2="248.024" y2="-100" transform="matrix(0.701427 0.712741 -0.701427 0.712741 406.587 315)" stroke="black" stroke-width="200" stroke-dasharray="1 8"/>
</g>
<mask id="mask1_1_2" style="mask-type:alpha" maskUnits="userSpaceOnUse" x="720" y="304" width="65" height="57">
<rect x="720.5" y="304.5" width="64" height="56" fill="#D9D9D9" stroke="black"/>
</mask>
<g mask="url(#mask1_1_2)">
<mask id="mask2_1_2" style="mask-type:alpha" maskUnits="userSpaceOnUse" x="712" y="279" width="89" height="110">
<rect x="712.5" y="388.064" width="108.564" height="88" transform="rotate(-90 712.5 388.064)" fill="#D9D9D9" stroke="black"/>
</mask>
<g mask="url(#mask2_1_2)">
<line y1="-100" x2="411.447" y2="-100" transform="matrix(0.679623 -0.733561 0.679623 0.733561 748.382 557.3)" stroke="black" stroke-width="200" stroke-dasharray="1 8"/>
</g>
</g>
<mask id="mask3_1_2" style="mask-type:alpha" maskUnits="userSpaceOnUse" x="784" y="305" width="63" height="56">
<rect x="784.5" y="305.5" width="62" height="54.254" fill="#D9D9D9" stroke="black"/>
</mask>
<g mask="url(#mask3_1_2)">
<mask id="mask4_1_2" style="mask-type:alpha" maskUnits="userSpaceOnUse" x="776" y="280" width="87" height="107">
<rect x="776.754" y="386.443" width="105.149" height="85.2381" transform="rotate(-90 776.754 386.443)" fill="#D9D9D9" stroke="black"/>
</mask>
<g mask="url(#mask4_1_2)">
<line y1="-100" x2="398.385" y2="-100" transform="matrix(0.679623 -0.733561 0.679623 0.733561 812.481 547.258)" stroke="black" stroke-width="200" stroke-dasharray="1 8"/>
</g>
</g>
<mask id="mask5_1_2" style="mask-type:alpha" maskUnits="userSpaceOnUse" x="848" y="305" width="63" height="56">
<rect x="848.5" y="305.5" width="62" height="54.254" fill="#D9D9D9" stroke="black"/>
</mask>
<g mask="url(#mask5_1_2)">
<mask id="mask6_1_2" style="mask-type:alpha" maskUnits="userSpaceOnUse" x="840" y="280" width="87" height="107">
<rect x="840.754" y="386.443" width="105.149" height="85.2381" transform="rotate(-90 840.754 386.443)" fill="#D9D9D9" stroke="black"/>
</mask>
<g mask="url(#mask6_1_2)">
<line y1="-100" x2="398.385" y2="-100" transform="matrix(0.679623 -0.733561 0.679623 0.733561 876.481 552.258)" stroke="black" stroke-width="200" stroke-dasharray="1 8"/>
</g>
</g>
<mask id="mask7_1_2" style="mask-type:alpha" maskUnits="userSpaceOnUse" x="848" y="360" width="63" height="56">
<rect x="848.5" y="360.5" width="62" height="54.254" fill="#D9D9D9" stroke="black"/>
</mask>
<g mask="url(#mask7_1_2)">
<mask id="mask8_1_2" style="mask-type:alpha" maskUnits="userSpaceOnUse" x="840" y="335" width="87" height="107">
<rect x="840.754" y="441.443" width="105.149" height="85.2381" transform="rotate(-90 840.754 441.443)" fill="#D9D9D9" stroke="black"/>
</mask>
<g mask="url(#mask8_1_2)">
<line y1="-100" x2="398.385" y2="-100" transform="matrix(0.679623 -0.733561 0.679623 0.733561 875.481 604.258)" stroke="black" stroke-width="200" stroke-dasharray="1 8"/>
</g>
</g>
<mask id="mask9_1_2" style="mask-type:alpha" maskUnits="userSpaceOnUse" x="785" y="360" width="63" height="56">
<rect x="785.5" y="360.5" width="62" height="54.254" fill="#D9D9D9" stroke="black"/>
</mask>
<g mask="url(#mask9_1_2)">
<mask id="mask10_1_2" style="mask-type:alpha" maskUnits="userSpaceOnUse" x="777" y="335" width="87" height="107">
<rect x="777.754" y="441.443" width="105.149" height="85.2381" transform="rotate(-90 777.754 441.443)" fill="#D9D9D9" stroke="black"/>
</mask>
<g mask="url(#mask10_1_2)">
<line y1="-100" x2="398.385" y2="-100" transform="matrix(0.679623 -0.733561 0.679623 0.733561 819.481 607.258)" stroke="black" stroke-width="200" stroke-dasharray="1 8"/>
</g>
</g>
<mask id="mask11_1_2" style="mask-type:alpha" maskUnits="userSpaceOnUse" x="767" y="511" width="97" height="50">
<rect x="767.5" y="511.5" width="96" height="49" fill="#D9D9D9" stroke="black"/>
</mask>
<g mask="url(#mask11_1_2)">
<mask id="mask12_1_2" style="mask-type:alpha" maskUnits="userSpaceOnUse" x="767" y="511" width="97" height="50">
<rect x="767.5" y="560.5" width="49" height="96" transform="rotate(-90 767.5 560.5)" fill="#D9D9D9" stroke="black"/>
</mask>
<g mask="url(#mask12_1_2)">
<line y1="-100" x2="396.473" y2="-100" transform="matrix(0.675786 -0.737098 0.675786 0.737098 789.257 781.258)" stroke="black" stroke-width="200" stroke-dasharray="1 8"/>
</g>
</g>
<mask id="mask13_1_2" style="mask-type:alpha" maskUnits="userSpaceOnUse" x="441" y="304" width="64" height="57">
<rect x="441.5" y="304.5" width="63" height="56" fill="#D9D9D9" stroke="black"/>
</mask>
<g mask="url(#mask13_1_2)">
<line y1="-100" x2="248.024" y2="-100" transform="matrix(0.701427 0.712741 -0.701427 0.712741 343.587 328)" stroke="black" stroke-width="200" stroke-dasharray="1 8"/>
</g>
<mask id="mask14_1_2" style="mask-type:alpha" maskUnits="userSpaceOnUse" x="487" y="511" width="97" height="50">
<rect x="487.5" y="511.5" width="96" height="49" fill="#D9D9D9" stroke="black"/>
</mask>
<g mask="url(#mask14_1_2)">
<mask id="mask15_1_2" style="mask-type:alpha" maskUnits="userSpaceOnUse" x="487" y="479" width="97" height="82">
<rect x="487.5" y="479.5" width="96" height="81" fill="#D9D9D9" stroke="black"/>
</mask>
<g mask="url(#mask15_1_2)">
<line y1="-100" x2="370.37" y2="-100" transform="matrix(0.719734 0.69425 -0.719734 0.69425 337.206 513.455)" stroke="black" stroke-width="200" stroke-dasharray="1 8"/>
</g>
</g>
<mask id="mask16_1_2" style="mask-type:alpha" maskUnits="userSpaceOnUse" x="568" y="361" width="64" height="55">
<rect x="568.5" y="361.5" width="63" height="54" fill="#D9D9D9" stroke="black"/>
</mask>
<g mask="url(#mask16_1_2)">
<line y1="-100" x2="243.484" y2="-100" transform="matrix(0.714506 0.699629 -0.714506 0.699629 470.587 384.164)" stroke="black" stroke-width="200" stroke-dasharray="1 8"/>
</g>
<mask id="mask17_1_2" style="mask-type:alpha" maskUnits="userSpaceOnUse" x="440" y="360" width="64" height="55">
<rect x="440.5" y="360.5" width="63" height="54" fill="#D9D9D9" stroke="black"/>
</mask>
<g mask="url(#mask17_1_2)">
<line y1="-100" x2="243.484" y2="-100" transform="matrix(0.714506 0.699629 -0.714506 0.699629 336.587 383.164)" stroke="black" stroke-width="200" stroke-dasharray="1 8"/>
</g>
<rect x="505" y="528" width="60" height="16" rx="8" fill="white"/>
<path d="M519.54 540V538.776H519.504C519.3 539.556 518.448 540.144 517.176 540.144C515.124 540.144 513.696 538.62 513.696 535.812C513.696 533.028 515.112 531.48 517.26 531.48C518.76 531.48 519.768 532.224 520.308 533.316L519.48 533.82C519.096 532.932 518.316 532.38 517.26 532.38C515.784 532.38 514.776 533.472 514.776 535.128V536.484C514.776 538.14 515.76 539.244 517.356 539.244C518.52 539.244 519.492 538.644 519.492 537.408V536.58H517.644V535.692H520.476V540H519.54ZM526.5 540V538.992H526.452C526.212 539.58 525.744 540.144 524.712 540.144C523.44 540.144 522.624 539.28 522.624 537.78V533.808H523.584V537.612C523.584 538.716 524.076 539.28 525 539.28C525.756 539.28 526.5 538.908 526.5 538.092V533.808H527.46V540H526.5ZM532.152 540.144C530.472 540.144 529.368 538.872 529.368 536.904C529.368 534.936 530.472 533.664 532.152 533.664C533.808 533.664 534.828 534.936 534.828 536.688V537.144H530.376V537.432C530.376 538.5 531.06 539.304 532.212 539.304C532.992 539.304 533.592 538.92 533.916 538.236L534.6 538.728C534.204 539.568 533.316 540.144 532.152 540.144ZM532.152 534.468C531.108 534.468 530.376 535.26 530.376 536.34V536.424H533.796V536.292C533.796 535.2 533.136 534.468 532.152 534.468ZM538.59 540.144C537.45 540.144 536.694 539.664 536.142 538.932L536.826 538.38C537.306 538.98 537.882 539.328 538.662 539.328C539.478 539.328 539.958 538.956 539.958 538.32C539.958 537.84 539.694 537.468 538.878 537.348L538.386 537.276C537.246 537.108 536.394 536.64 536.394 535.488C536.394 534.264 537.342 533.664 538.602 533.664C539.598 533.664 540.258 534.036 540.762 534.66L540.126 535.236C539.85 534.852 539.322 534.48 538.53 534.48C537.738 534.48 537.318 534.852 537.318 535.44C537.318 536.04 537.738 536.28 538.506 536.4L538.986 536.472C540.354 536.676 540.882 537.276 540.882 538.212C540.882 539.412 540.006 540.144 538.59 540.144ZM545.384 540H544.184C543.524 540 543.164 539.58 543.164 538.98V534.648H542.144V533.808H542.72C543.128 533.808 543.26 533.664 543.26 533.244V532.092H544.124V533.808H545.48V534.648H544.124V539.16H545.384V540ZM556.043 540H550.535V539.112H552.875V532.368H552.791L550.679 534.336L550.091 533.7L552.311 531.624H553.883V539.112H556.043V540Z" fill="black"/>
<rect x="786" y="528" width="60" height="16" rx="8" fill="white"/>
<path d="M800.54 540V538.776H800.504C800.3 539.556 799.448 540.144 798.176 540.144C796.124 540.144 794.696 538.62 794.696 535.812C794.696 533.028 796.112 531.48 798.26 531.48C799.76 531.48 800.768 532.224 801.308 533.316L800.48 533.82C800.096 532.932 799.316 532.38 798.26 532.38C796.784 532.38 795.776 533.472 795.776 535.128V536.484C795.776 538.14 796.76 539.244 798.356 539.244C799.52 539.244 800.492 538.644 800.492 537.408V536.58H798.644V535.692H801.476V540H800.54ZM807.5 540V538.992H807.452C807.212 539.58 806.744 540.144 805.712 540.144C804.44 540.144 803.624 539.28 803.624 537.78V533.808H804.584V537.612C804.584 538.716 805.076 539.28 806 539.28C806.756 539.28 807.5 538.908 807.5 538.092V533.808H808.46V540H807.5ZM813.152 540.144C811.472 540.144 810.368 538.872 810.368 536.904C810.368 534.936 811.472 533.664 813.152 533.664C814.808 533.664 815.828 534.936 815.828 536.688V537.144H811.376V537.432C811.376 538.5 812.06 539.304 813.212 539.304C813.992 539.304 814.592 538.92 814.916 538.236L815.6 538.728C815.204 539.568 814.316 540.144 813.152 540.144ZM813.152 534.468C812.108 534.468 811.376 535.26 811.376 536.34V536.424H814.796V536.292C814.796 535.2 814.136 534.468 813.152 534.468ZM819.59 540.144C818.45 540.144 817.694 539.664 817.142 538.932L817.826 538.38C818.306 538.98 818.882 539.328 819.662 539.328C820.478 539.328 820.958 538.956 820.958 538.32C820.958 537.84 820.694 537.468 819.878 537.348L819.386 537.276C818.246 537.108 817.394 536.64 817.394 535.488C817.394 534.264 818.342 533.664 819.602 533.664C820.598 533.664 821.258 534.036 821.762 534.66L821.126 535.236C820.85 534.852 820.322 534.48 819.53 534.48C818.738 534.48 818.318 534.852 818.318 535.44C818.318 536.04 818.738 536.28 819.506 536.4L819.986 536.472C821.354 536.676 821.882 537.276 821.882 538.212C821.882 539.412 821.006 540.144 819.59 540.144ZM826.384 540H825.184C824.524 540 824.164 539.58 824.164 538.98V534.648H823.144V533.808H823.72C824.128 533.808 824.26 533.664 824.26 533.244V532.092H825.124V533.808H826.48V534.648H825.124V539.16H826.384V540ZM836.875 539.112V540H831.379V538.968L834.115 536.448C834.895 535.728 835.495 534.888 835.495 534.084V533.94C835.495 533.016 834.979 532.38 833.947 532.38C832.915 532.38 832.435 533.004 832.207 533.796L831.307 533.448C831.631 532.464 832.375 531.48 833.995 531.48C835.627 531.48 836.563 532.488 836.563 533.916C836.563 535.212 835.795 536.124 834.727 537.084L832.471 539.112H836.875Z" fill="black"/>
<path d="M226.63 660V658.572H226.588C226.35 659.482 225.356 660.168 223.872 660.168C221.478 660.168 219.812 658.39 219.812 655.114C219.812 651.866 221.464 650.06 223.97 650.06C225.72 650.06 226.896 650.928 227.526 652.202L226.56 652.79C226.112 651.754 225.202 651.11 223.97 651.11C222.248 651.11 221.072 652.384 221.072 654.316V655.898C221.072 657.83 222.22 659.118 224.082 659.118C225.44 659.118 226.574 658.418 226.574 656.976V656.01H224.418V654.974H227.722V660H226.63ZM234.536 660V658.824H234.48C234.2 659.51 233.654 660.168 232.45 660.168C230.966 660.168 230.014 659.16 230.014 657.41V652.776H231.134V657.214C231.134 658.502 231.708 659.16 232.786 659.16C233.668 659.16 234.536 658.726 234.536 657.774V652.776H235.656V660H234.536ZM240.917 660.168C238.957 660.168 237.669 658.684 237.669 656.388C237.669 654.092 238.957 652.608 240.917 652.608C242.849 652.608 244.039 654.092 244.039 656.136V656.668H238.845V657.004C238.845 658.25 239.643 659.188 240.987 659.188C241.897 659.188 242.597 658.74 242.975 657.942L243.773 658.516C243.311 659.496 242.275 660.168 240.917 660.168ZM240.917 653.546C239.699 653.546 238.845 654.47 238.845 655.73V655.828H242.835V655.674C242.835 654.4 242.065 653.546 240.917 653.546ZM248.215 660.168C246.885 660.168 246.003 659.608 245.359 658.754L246.157 658.11C246.717 658.81 247.389 659.216 248.299 659.216C249.251 659.216 249.811 658.782 249.811 658.04C249.811 657.48 249.503 657.046 248.551 656.906L247.977 656.822C246.647 656.626 245.653 656.08 245.653 654.736C245.653 653.308 246.759 652.608 248.229 652.608C249.391 652.608 250.161 653.042 250.749 653.77L250.007 654.442C249.685 653.994 249.069 653.56 248.145 653.56C247.221 653.56 246.731 653.994 246.731 654.68C246.731 655.38 247.221 655.66 248.117 655.8L248.677 655.884C250.273 656.122 250.889 656.822 250.889 657.914C250.889 659.314 249.867 660.168 248.215 660.168ZM255.928 660H254.528C253.758 660 253.338 659.51 253.338 658.81V653.756H252.148V652.776H252.82C253.296 652.776 253.45 652.608 253.45 652.118V650.774H254.458V652.776H256.04V653.756H254.458V659.02H255.928V660ZM263.638 660.168C262.308 660.168 261.426 659.608 260.782 658.754L261.58 658.11C262.14 658.81 262.812 659.216 263.722 659.216C264.674 659.216 265.234 658.782 265.234 658.04C265.234 657.48 264.926 657.046 263.974 656.906L263.4 656.822C262.07 656.626 261.076 656.08 261.076 654.736C261.076 653.308 262.182 652.608 263.652 652.608C264.814 652.608 265.584 653.042 266.172 653.77L265.43 654.442C265.108 653.994 264.492 653.56 263.568 653.56C262.644 653.56 262.154 653.994 262.154 654.68C262.154 655.38 262.644 655.66 263.54 655.8L264.1 655.884C265.696 656.122 266.312 656.822 266.312 657.914C266.312 659.314 265.29 660.168 263.638 660.168ZM271.351 660H269.951C269.181 660 268.761 659.51 268.761 658.81V653.756H267.571V652.776H268.243C268.719 652.776 268.873 652.608 268.873 652.118V650.774H269.881V652.776H271.463V653.756H269.881V659.02H271.351V660ZM279.303 660H278.673C277.847 660 277.511 659.496 277.427 658.824H277.357C277.049 659.706 276.279 660.168 275.271 660.168C273.745 660.168 272.849 659.328 272.849 657.984C272.849 656.626 273.829 655.87 275.929 655.87H277.357V655.156C277.357 654.134 276.797 653.574 275.649 653.574C274.781 653.574 274.207 653.994 273.815 654.652L273.143 654.022C273.535 653.252 274.403 652.608 275.705 652.608C277.441 652.608 278.477 653.518 278.477 655.044V659.02H279.303V660ZM275.453 659.216C276.559 659.216 277.357 658.642 277.357 657.9V656.71H275.873C274.599 656.71 274.025 657.102 274.025 657.802V658.096C274.025 658.81 274.585 659.216 275.453 659.216ZM284.058 660H282.658C281.888 660 281.468 659.51 281.468 658.81V653.756H280.278V652.776H280.95C281.426 652.776 281.58 652.608 281.58 652.118V650.774H282.588V652.776H284.17V653.756H282.588V659.02H284.058V660ZM288.791 660.168C286.831 660.168 285.543 658.684 285.543 656.388C285.543 654.092 286.831 652.608 288.791 652.608C290.723 652.608 291.913 654.092 291.913 656.136V656.668H286.719V657.004C286.719 658.25 287.517 659.188 288.861 659.188C289.771 659.188 290.471 658.74 290.849 657.942L291.647 658.516C291.185 659.496 290.149 660.168 288.791 660.168ZM288.791 653.546C287.573 653.546 286.719 654.47 286.719 655.73V655.828H290.709V655.674C290.709 654.4 289.939 653.546 288.791 653.546Z" fill="black"/>
<path d="M469.478 660H468.302V650.228H472.194C473.944 650.228 474.924 651.306 474.924 653.028C474.924 654.75 473.944 655.828 472.194 655.828H469.478V660ZM469.478 651.264V654.792H472.194C473.118 654.792 473.664 654.288 473.664 653.392V652.664C473.664 651.768 473.118 651.264 472.194 651.264H469.478ZM477.824 660H476.704V652.776H477.824V654.106H477.894C478.146 653.42 478.804 652.776 479.98 652.776H480.414V653.896H479.756C478.552 653.896 477.824 654.414 477.824 655.1V660ZM484.666 660.168C482.734 660.168 481.404 658.684 481.404 656.388C481.404 654.092 482.734 652.608 484.666 652.608C486.598 652.608 487.928 654.092 487.928 656.388C487.928 658.684 486.598 660.168 484.666 660.168ZM484.666 659.174C485.87 659.174 486.724 658.432 486.724 656.906V655.87C486.724 654.344 485.87 653.602 484.666 653.602C483.462 653.602 482.608 654.344 482.608 655.87V656.906C482.608 658.432 483.462 659.174 484.666 659.174ZM492.926 660H491.526C490.756 660 490.336 659.51 490.336 658.81V653.756H489.146V652.776H489.818C490.294 652.776 490.448 652.608 490.448 652.118V650.774H491.456V652.776H493.038V653.756H491.456V659.02H492.926V660ZM497.659 660.168C495.699 660.168 494.411 658.684 494.411 656.388C494.411 654.092 495.699 652.608 497.659 652.608C499.591 652.608 500.781 654.092 500.781 656.136V656.668H495.587V657.004C495.587 658.25 496.385 659.188 497.729 659.188C498.639 659.188 499.339 658.74 499.717 657.942L500.515 658.516C500.053 659.496 499.017 660.168 497.659 660.168ZM497.659 653.546C496.441 653.546 495.587 654.47 495.587 655.73V655.828H499.577V655.674C499.577 654.4 498.807 653.546 497.659 653.546ZM505.475 660.168C503.445 660.168 502.255 658.698 502.255 656.388C502.255 654.078 503.445 652.608 505.475 652.608C506.903 652.608 507.757 653.308 508.177 654.302L507.239 654.778C506.973 654.036 506.357 653.602 505.475 653.602C504.145 653.602 503.459 654.512 503.459 655.772V657.004C503.459 658.264 504.145 659.174 505.475 659.174C506.385 659.174 507.043 658.74 507.435 657.914L508.247 658.46C507.785 659.496 506.847 660.168 505.475 660.168ZM512.984 660H511.584C510.814 660 510.394 659.51 510.394 658.81V653.756H509.204V652.776H509.876C510.352 652.776 510.506 652.608 510.506 652.118V650.774H511.514V652.776H513.096V653.756H511.514V659.02H512.984V660ZM517.717 660.168C515.757 660.168 514.469 658.684 514.469 656.388C514.469 654.092 515.757 652.608 517.717 652.608C519.649 652.608 520.839 654.092 520.839 656.136V656.668H515.645V657.004C515.645 658.25 516.443 659.188 517.787 659.188C518.697 659.188 519.397 658.74 519.775 657.942L520.573 658.516C520.111 659.496 519.075 660.168 517.717 660.168ZM517.717 653.546C516.499 653.546 515.645 654.47 515.645 655.73V655.828H519.635V655.674C519.635 654.4 518.865 653.546 517.717 653.546ZM527.465 660V658.824H527.409C526.975 659.72 526.289 660.168 525.295 660.168C523.489 660.168 522.355 658.698 522.355 656.388C522.355 654.078 523.489 652.608 525.295 652.608C526.289 652.608 527.031 653.042 527.409 653.952H527.465V649.64H528.585V660H527.465ZM525.603 659.16C526.625 659.16 527.465 658.628 527.465 657.69V655.002C527.465 654.204 526.625 653.616 525.603 653.616C524.343 653.616 523.559 654.484 523.559 655.772V657.004C523.559 658.292 524.343 659.16 525.603 659.16ZM540.685 660.798C540.685 662.282 539.509 662.968 537.185 662.968C534.931 662.968 534.007 662.324 534.007 661.19C534.007 660.406 534.441 659.986 535.155 659.79V659.636C534.749 659.44 534.511 659.118 534.511 658.628C534.511 657.9 535.029 657.55 535.757 657.368V657.312C534.903 656.906 534.399 656.108 534.399 655.1C534.399 653.63 535.477 652.608 537.115 652.608C537.633 652.608 538.095 652.706 538.487 652.888V652.762C538.487 652.202 538.725 651.796 539.327 651.796H540.405V652.776H539.033V653.238C539.551 653.686 539.859 654.33 539.859 655.1C539.859 656.57 538.781 657.592 537.129 657.592C536.891 657.592 536.639 657.564 536.429 657.522C535.953 657.648 535.477 657.886 535.477 658.334C535.477 658.768 535.925 658.88 536.583 658.88H538.123C539.915 658.88 540.685 659.608 540.685 660.798ZM539.635 660.882C539.635 660.308 539.257 659.93 538.137 659.93H535.729C535.267 660.14 535.057 660.462 535.057 660.91C535.057 661.54 535.491 662.058 536.625 662.058H537.661C538.907 662.058 539.635 661.666 539.635 660.882ZM537.129 656.696C538.081 656.696 538.683 656.248 538.683 655.296V654.904C538.683 653.952 538.081 653.504 537.129 653.504C536.177 653.504 535.575 653.952 535.575 654.904V655.296C535.575 656.248 536.177 656.696 537.129 656.696ZM546.548 660V658.824H546.492C546.212 659.51 545.666 660.168 544.462 660.168C542.978 660.168 542.026 659.16 542.026 657.41V652.776H543.146V657.214C543.146 658.502 543.72 659.16 544.798 659.16C545.68 659.16 546.548 658.726 546.548 657.774V652.776H547.668V660H546.548ZM552.93 660.168C550.97 660.168 549.682 658.684 549.682 656.388C549.682 654.092 550.97 652.608 552.93 652.608C554.862 652.608 556.052 654.092 556.052 656.136V656.668H550.858V657.004C550.858 658.25 551.656 659.188 553 659.188C553.91 659.188 554.61 658.74 554.988 657.942L555.786 658.516C555.324 659.496 554.288 660.168 552.93 660.168ZM552.93 653.546C551.712 653.546 550.858 654.47 550.858 655.73V655.828H554.848V655.674C554.848 654.4 554.078 653.546 552.93 653.546ZM560.227 660.168C558.897 660.168 558.015 659.608 557.371 658.754L558.169 658.11C558.729 658.81 559.401 659.216 560.311 659.216C561.263 659.216 561.823 658.782 561.823 658.04C561.823 657.48 561.515 657.046 560.563 656.906L559.989 656.822C558.659 656.626 557.665 656.08 557.665 654.736C557.665 653.308 558.771 652.608 560.241 652.608C561.403 652.608 562.173 653.042 562.761 653.77L562.019 654.442C561.697 653.994 561.081 653.56 560.157 653.56C559.233 653.56 558.743 653.994 558.743 654.68C558.743 655.38 559.233 655.66 560.129 655.8L560.689 655.884C562.285 656.122 562.901 656.822 562.901 657.914C562.901 659.314 561.879 660.168 560.227 660.168ZM567.94 660H566.54C565.77 660 565.35 659.51 565.35 658.81V653.756H564.16V652.776H564.832C565.308 652.776 565.462 652.608 565.462 652.118V650.774H566.47V652.776H568.052V653.756H566.47V659.02H567.94V660ZM575.65 660.168C574.32 660.168 573.438 659.608 572.794 658.754L573.592 658.11C574.152 658.81 574.824 659.216 575.734 659.216C576.686 659.216 577.246 658.782 577.246 658.04C577.246 657.48 576.938 657.046 575.986 656.906L575.412 656.822C574.082 656.626 573.088 656.08 573.088 654.736C573.088 653.308 574.194 652.608 575.664 652.608C576.826 652.608 577.596 653.042 578.184 653.77L577.442 654.442C577.12 653.994 576.504 653.56 575.58 653.56C574.656 653.56 574.166 653.994 574.166 654.68C574.166 655.38 574.656 655.66 575.552 655.8L576.112 655.884C577.708 656.122 578.324 656.822 578.324 657.914C578.324 659.314 577.302 660.168 575.65 660.168ZM583.363 660H581.963C581.193 660 580.773 659.51 580.773 658.81V653.756H579.583V652.776H580.255C580.731 652.776 580.885 652.608 580.885 652.118V650.774H581.893V652.776H583.475V653.756H581.893V659.02H583.363V660ZM591.315 660H590.685C589.859 660 589.523 659.496 589.439 658.824H589.369C589.061 659.706 588.291 660.168 587.283 660.168C585.757 660.168 584.861 659.328 584.861 657.984C584.861 656.626 585.841 655.87 587.941 655.87H589.369V655.156C589.369 654.134 588.809 653.574 587.661 653.574C586.793 653.574 586.219 653.994 585.827 654.652L585.155 654.022C585.547 653.252 586.415 652.608 587.717 652.608C589.453 652.608 590.489 653.518 590.489 655.044V659.02H591.315V660ZM587.465 659.216C588.571 659.216 589.369 658.642 589.369 657.9V656.71H587.885C586.611 656.71 586.037 657.102 586.037 657.802V658.096C586.037 658.81 586.597 659.216 587.465 659.216ZM596.07 660H594.67C593.9 660 593.48 659.51 593.48 658.81V653.756H592.29V652.776H592.962C593.438 652.776 593.592 652.608 593.592 652.118V650.774H594.6V652.776H596.182V653.756H594.6V659.02H596.07V660ZM600.803 660.168C598.843 660.168 597.555 658.684 597.555 656.388C597.555 654.092 598.843 652.608 600.803 652.608C602.735 652.608 603.925 654.092 603.925 656.136V656.668H598.731V657.004C598.731 658.25 599.529 659.188 600.873 659.188C601.783 659.188 602.483 658.74 602.861 657.942L603.659 658.516C603.197 659.496 602.161 660.168 600.803 660.168ZM600.803 653.546C599.585 653.546 598.731 654.47 598.731 655.73V655.828H602.721V655.674C602.721 654.4 601.951 653.546 600.803 653.546Z" fill="black"/>
<path d="M749.478 660H748.302V650.228H752.194C753.944 650.228 754.924 651.306 754.924 653.028C754.924 654.75 753.944 655.828 752.194 655.828H749.478V660ZM749.478 651.264V654.792H752.194C753.118 654.792 753.664 654.288 753.664 653.392V652.664C753.664 651.768 753.118 651.264 752.194 651.264H749.478ZM757.824 660H756.704V652.776H757.824V654.106H757.894C758.146 653.42 758.804 652.776 759.98 652.776H760.414V653.896H759.756C758.552 653.896 757.824 654.414 757.824 655.1V660ZM764.666 660.168C762.734 660.168 761.404 658.684 761.404 656.388C761.404 654.092 762.734 652.608 764.666 652.608C766.598 652.608 767.928 654.092 767.928 656.388C767.928 658.684 766.598 660.168 764.666 660.168ZM764.666 659.174C765.87 659.174 766.724 658.432 766.724 656.906V655.87C766.724 654.344 765.87 653.602 764.666 653.602C763.462 653.602 762.608 654.344 762.608 655.87V656.906C762.608 658.432 763.462 659.174 764.666 659.174ZM772.926 660H771.526C770.756 660 770.336 659.51 770.336 658.81V653.756H769.146V652.776H769.818C770.294 652.776 770.448 652.608 770.448 652.118V650.774H771.456V652.776H773.038V653.756H771.456V659.02H772.926V660ZM777.659 660.168C775.699 660.168 774.411 658.684 774.411 656.388C774.411 654.092 775.699 652.608 777.659 652.608C779.591 652.608 780.781 654.092 780.781 656.136V656.668H775.587V657.004C775.587 658.25 776.385 659.188 777.729 659.188C778.639 659.188 779.339 658.74 779.717 657.942L780.515 658.516C780.053 659.496 779.017 660.168 777.659 660.168ZM777.659 653.546C776.441 653.546 775.587 654.47 775.587 655.73V655.828H779.577V655.674C779.577 654.4 778.807 653.546 777.659 653.546ZM785.475 660.168C783.445 660.168 782.255 658.698 782.255 656.388C782.255 654.078 783.445 652.608 785.475 652.608C786.903 652.608 787.757 653.308 788.177 654.302L787.239 654.778C786.973 654.036 786.357 653.602 785.475 653.602C784.145 653.602 783.459 654.512 783.459 655.772V657.004C783.459 658.264 784.145 659.174 785.475 659.174C786.385 659.174 787.043 658.74 787.435 657.914L788.247 658.46C787.785 659.496 786.847 660.168 785.475 660.168ZM792.984 660H791.584C790.814 660 790.394 659.51 790.394 658.81V653.756H789.204V652.776H789.876C790.352 652.776 790.506 652.608 790.506 652.118V650.774H791.514V652.776H793.096V653.756H791.514V659.02H792.984V660ZM797.717 660.168C795.757 660.168 794.469 658.684 794.469 656.388C794.469 654.092 795.757 652.608 797.717 652.608C799.649 652.608 800.839 654.092 800.839 656.136V656.668H795.645V657.004C795.645 658.25 796.443 659.188 797.787 659.188C798.697 659.188 799.397 658.74 799.775 657.942L800.573 658.516C800.111 659.496 799.075 660.168 797.717 660.168ZM797.717 653.546C796.499 653.546 795.645 654.47 795.645 655.73V655.828H799.635V655.674C799.635 654.4 798.865 653.546 797.717 653.546ZM807.465 660V658.824H807.409C806.975 659.72 806.289 660.168 805.295 660.168C803.489 660.168 802.355 658.698 802.355 656.388C802.355 654.078 803.489 652.608 805.295 652.608C806.289 652.608 807.031 653.042 807.409 653.952H807.465V649.64H808.585V660H807.465ZM805.603 659.16C806.625 659.16 807.465 658.628 807.465 657.69V655.002C807.465 654.204 806.625 653.616 805.603 653.616C804.343 653.616 803.559 654.484 803.559 655.772V657.004C803.559 658.292 804.343 659.16 805.603 659.16ZM820.685 660.798C820.685 662.282 819.509 662.968 817.185 662.968C814.931 662.968 814.007 662.324 814.007 661.19C814.007 660.406 814.441 659.986 815.155 659.79V659.636C814.749 659.44 814.511 659.118 814.511 658.628C814.511 657.9 815.029 657.55 815.757 657.368V657.312C814.903 656.906 814.399 656.108 814.399 655.1C814.399 653.63 815.477 652.608 817.115 652.608C817.633 652.608 818.095 652.706 818.487 652.888V652.762C818.487 652.202 818.725 651.796 819.327 651.796H820.405V652.776H819.033V653.238C819.551 653.686 819.859 654.33 819.859 655.1C819.859 656.57 818.781 657.592 817.129 657.592C816.891 657.592 816.639 657.564 816.429 657.522C815.953 657.648 815.477 657.886 815.477 658.334C815.477 658.768 815.925 658.88 816.583 658.88H818.123C819.915 658.88 820.685 659.608 820.685 660.798ZM819.635 660.882C819.635 660.308 819.257 659.93 818.137 659.93H815.729C815.267 660.14 815.057 660.462 815.057 660.91C815.057 661.54 815.491 662.058 816.625 662.058H817.661C818.907 662.058 819.635 661.666 819.635 660.882ZM817.129 656.696C818.081 656.696 818.683 656.248 818.683 655.296V654.904C818.683 653.952 818.081 653.504 817.129 653.504C816.177 653.504 815.575 653.952 815.575 654.904V655.296C815.575 656.248 816.177 656.696 817.129 656.696ZM826.548 660V658.824H826.492C826.212 659.51 825.666 660.168 824.462 660.168C822.978 660.168 822.026 659.16 822.026 657.41V652.776H823.146V657.214C823.146 658.502 823.72 659.16 824.798 659.16C825.68 659.16 826.548 658.726 826.548 657.774V652.776H827.668V660H826.548ZM832.93 660.168C830.97 660.168 829.682 658.684 829.682 656.388C829.682 654.092 830.97 652.608 832.93 652.608C834.862 652.608 836.052 654.092 836.052 656.136V656.668H830.858V657.004C830.858 658.25 831.656 659.188 833 659.188C833.91 659.188 834.61 658.74 834.988 657.942L835.786 658.516C835.324 659.496 834.288 660.168 832.93 660.168ZM832.93 653.546C831.712 653.546 830.858 654.47 830.858 655.73V655.828H834.848V655.674C834.848 654.4 834.078 653.546 832.93 653.546ZM840.227 660.168C838.897 660.168 838.015 659.608 837.371 658.754L838.169 658.11C838.729 658.81 839.401 659.216 840.311 659.216C841.263 659.216 841.823 658.782 841.823 658.04C841.823 657.48 841.515 657.046 840.563 656.906L839.989 656.822C838.659 656.626 837.665 656.08 837.665 654.736C837.665 653.308 838.771 652.608 840.241 652.608C841.403 652.608 842.173 653.042 842.761 653.77L842.019 654.442C841.697 653.994 841.081 653.56 840.157 653.56C839.233 653.56 838.743 653.994 838.743 654.68C838.743 655.38 839.233 655.66 840.129 655.8L840.689 655.884C842.285 656.122 842.901 656.822 842.901 657.914C842.901 659.314 841.879 660.168 840.227 660.168ZM847.94 660H846.54C845.77 660 845.35 659.51 845.35 658.81V653.756H844.16V652.776H844.832C845.308 652.776 845.462 652.608 845.462 652.118V650.774H846.47V652.776H848.052V653.756H846.47V659.02H847.94V660ZM855.65 660.168C854.32 660.168 853.438 659.608 852.794 658.754L853.592 658.11C854.152 658.81 854.824 659.216 855.734 659.216C856.686 659.216 857.246 658.782 857.246 658.04C857.246 657.48 856.938 657.046 855.986 656.906L855.412 656.822C854.082 656.626 853.088 656.08 853.088 654.736C853.088 653.308 854.194 652.608 855.664 652.608C856.826 652.608 857.596 653.042 858.184 653.77L857.442 654.442C857.12 653.994 856.504 653.56 855.58 653.56C854.656 653.56 854.166 653.994 854.166 654.68C854.166 655.38 854.656 655.66 855.552 655.8L856.112 655.884C857.708 656.122 858.324 656.822 858.324 657.914C858.324 659.314 857.302 660.168 855.65 660.168ZM863.363 660H861.963C861.193 660 860.773 659.51 860.773 658.81V653.756H859.583V652.776H860.255C860.731 652.776 860.885 652.608 860.885 652.118V650.774H861.893V652.776H863.475V653.756H861.893V659.02H863.363V660ZM871.315 660H870.685C869.859 660 869.523 659.496 869.439 658.824H869.369C869.061 659.706 868.291 660.168 867.283 660.168C865.757 660.168 864.861 659.328 864.861 657.984C864.861 656.626 865.841 655.87 867.941 655.87H869.369V655.156C869.369 654.134 868.809 653.574 867.661 653.574C866.793 653.574 866.219 653.994 865.827 654.652L865.155 654.022C865.547 653.252 866.415 652.608 867.717 652.608C869.453 652.608 870.489 653.518 870.489 655.044V659.02H871.315V660ZM867.465 659.216C868.571 659.216 869.369 658.642 869.369 657.9V656.71H867.885C866.611 656.71 866.037 657.102 866.037 657.802V658.096C866.037 658.81 866.597 659.216 867.465 659.216ZM876.07 660H874.67C873.9 660 873.48 659.51 873.48 658.81V653.756H872.29V652.776H872.962C873.438 652.776 873.592 652.608 873.592 652.118V650.774H874.6V652.776H876.182V653.756H874.6V659.02H876.07V660ZM880.803 660.168C878.843 660.168 877.555 658.684 877.555 656.388C877.555 654.092 878.843 652.608 880.803 652.608C882.735 652.608 883.925 654.092 883.925 656.136V656.668H878.731V657.004C878.731 658.25 879.529 659.188 880.873 659.188C881.783 659.188 882.483 658.74 882.861 657.942L883.659 658.516C883.197 659.496 882.161 660.168 880.803 660.168ZM880.803 653.546C879.585 653.546 878.731 654.47 878.731 655.73V655.828H882.721V655.674C882.721 654.4 881.951 653.546 880.803 653.546Z" fill="black"/>
<rect width="201" height="8" transform="matrix(0 -1 1 0 228 640)" fill="white" fill-opacity="0.01" style="mix-blend-mode:multiply"/>
<g clip-path="url(#clip9_1_2)">
<rect width="194" height="0" transform="matrix(0 -1 1 0 232 640)" fill="white" fill-opacity="0.01" style="mix-blend-mode:multiply"/>
<path d="M232 640V446" stroke="black"/>
</g>
<rect width="8" height="8" transform="matrix(0 -1 1 0 228 447)" fill="white" fill-opacity="0.01" style="mix-blend-mode:multiply"/>
<path d="M228 447L232 439L236 447H228Z" fill="black"/>
<rect width="73" height="8" transform="matrix(0 -1 1 0 507 512)" fill="white" fill-opacity="0.01" style="mix-blend-mode:multiply"/>
<g clip-path="url(#clip10_1_2)">
<rect width="66" height="0" transform="matrix(0 -1 1 0 511 512)" fill="white" fill-opacity="0.01" style="mix-blend-mode:multiply"/>
<path d="M511 512V446" stroke="black"/>
</g>
<rect width="8" height="8" transform="matrix(0 -1 1 0 507 447)" fill="white" fill-opacity="0.01" style="mix-blend-mode:multiply"/>
<path d="M507 447L511 439L515 447H507Z" fill="black"/>
<rect width="73" height="8" transform="matrix(0 -1 1 0 788 512)" fill="white" fill-opacity="0.01" style="mix-blend-mode:multiply"/>
<g clip-path="url(#clip11_1_2)">
<rect width="66" height="0" transform="matrix(0 -1 1 0 792 512)" fill="white" fill-opacity="0.01" style="mix-blend-mode:multiply"/>
<path d="M792 512V446" stroke="black"/>
</g>
<rect width="8" height="8" transform="matrix(0 -1 1 0 788 447)" fill="white" fill-opacity="0.01" style="mix-blend-mode:multiply"/>
<path d="M788 447L792 439L796 447H788Z" fill="black"/>
<rect width="79" height="8" transform="matrix(0 -1 1 0 507 640)" fill="white" fill-opacity="0.01" style="mix-blend-mode:multiply"/>
<g clip-path="url(#clip12_1_2)">
<rect width="72" height="0" transform="matrix(0 -1 1 0 511 640)" fill="white" fill-opacity="0.01" style="mix-blend-mode:multiply"/>
<path d="M511 640V568" stroke="black"/>
</g>
<rect width="8" height="8" transform="matrix(0 -1 1 0 507 569)" fill="white" fill-opacity="0.01" style="mix-blend-mode:multiply"/>
<path d="M507 569L511 561L515 569H507Z" fill="black"/>
<rect width="79" height="8" transform="matrix(0 -1 1 0 788 640)" fill="white" fill-opacity="0.01" style="mix-blend-mode:multiply"/>
<g clip-path="url(#clip13_1_2)">
<rect width="72" height="0" transform="matrix(0 -1 1 0 792 640)" fill="white" fill-opacity="0.01" style="mix-blend-mode:multiply"/>
<path d="M792 640V568" stroke="black"/>
</g>
<rect width="8" height="8" transform="matrix(0 -1 1 0 788 569)" fill="white" fill-opacity="0.01" style="mix-blend-mode:multiply"/>
<path d="M788 569L792 561L796 569H788Z" fill="black"/>
<rect width="201" height="8" transform="matrix(0 -1 1 0 276 640)" fill="white" fill-opacity="0.01" style="mix-blend-mode:multiply"/>
<g clip-path="url(#clip14_1_2)">
<rect width="194" height="0" transform="matrix(0 -1 1 0 280 633)" fill="white" fill-opacity="0.01" style="mix-blend-mode:multiply"/>
<path d="M280 633V439" stroke="black"/>
</g>
<rect width="8" height="8" transform="matrix(0 1 1 0 276 632)" fill="white" fill-opacity="0.01" style="mix-blend-mode:multiply"/>
<path d="M276 632L280 640L284 632H276Z" fill="black"/>
<rect width="73" height="8" transform="matrix(0 -1 1 0 555 512)" fill="white" fill-opacity="0.01" style="mix-blend-mode:multiply"/>
<g clip-path="url(#clip15_1_2)">
<rect width="66" height="0" transform="matrix(0 -1 1 0 559 505)" fill="white" fill-opacity="0.01" style="mix-blend-mode:multiply"/>
<path d="M559 505V439" stroke="black"/>
</g>
<rect width="8" height="8" transform="matrix(0 1 1 0 555 504)" fill="white" fill-opacity="0.01" style="mix-blend-mode:multiply"/>
<path d="M555 504L559 512L563 504H555Z" fill="black"/>
<rect width="73" height="8" transform="matrix(0 -1 1 0 836 512)" fill="white" fill-opacity="0.01" style="mix-blend-mode:multiply"/>
<g clip-path="url(#clip16_1_2)">
<rect width="66" height="0" transform="matrix(0 -1 1 0 840 505)" fill="white" fill-opacity="0.01" style="mix-blend-mode:multiply"/>
<path d="M840 505V439" stroke="black"/>
</g>
<rect width="8" height="8" transform="matrix(0 1 1 0 836 504)" fill="white" fill-opacity="0.01" style="mix-blend-mode:multiply"/>
<path d="M836 504L840 512L844 504H836Z" fill="black"/>
<rect width="79" height="8" transform="matrix(0 -1 1 0 555 640)" fill="white" fill-opacity="0.01" style="mix-blend-mode:multiply"/>
<g clip-path="url(#clip17_1_2)">
<rect width="72" height="0" transform="matrix(0 -1 1 0 559 633)" fill="white" fill-opacity="0.01" style="mix-blend-mode:multiply"/>
<path d="M559 633V561" stroke="black"/>
</g>
<rect width="8" height="8" transform="matrix(0 1 1 0 555 632)" fill="white" fill-opacity="0.01" style="mix-blend-mode:multiply"/>
<path d="M555 632L559 640L563 632H555Z" fill="black"/>
<rect width="79" height="8" transform="matrix(0 -1 1 0 836 640)" fill="white" fill-opacity="0.01" style="mix-blend-mode:multiply"/>
<g clip-path="url(#clip18_1_2)">
<rect width="72" height="0" transform="matrix(0 -1 1 0 840 633)" fill="white" fill-opacity="0.01" style="mix-blend-mode:multiply"/>
<path d="M840 633V561" stroke="black"/>
</g>
<rect width="8" height="8" transform="matrix(0 1 1 0 836 632)" fill="white" fill-opacity="0.01" style="mix-blend-mode:multiply"/>
<path d="M836 632L840 640L844 632H836Z" fill="black"/>
<defs>
<clipPath id="clip0_1_2">
<rect width="928" height="48" fill="white" transform="translate(72 624)"/>
</clipPath>
<clipPath id="clip1_1_2">
<rect width="928" height="48" fill="white" transform="translate(71 64)"/>
</clipPath>
<clipPath id="clip2_1_2">
<rect width="863" height="48" fill="white" transform="translate(104 120)"/>
</clipPath>
<clipPath id="clip3_1_2">
<rect width="240" height="66" fill="white" transform="translate(136 183)"/>
</clipPath>
<clipPath id="clip4_1_2">
<rect width="240" height="66" fill="white" transform="translate(416 184)"/>
</clipPath>
<clipPath id="clip5_1_2">
<rect width="240" height="66" fill="white" transform="translate(696 184)"/>
</clipPath>
<clipPath id="clip6_1_2">
<rect width="192" height="48" fill="white" transform="translate(160 257)"/>
</clipPath>
<clipPath id="clip7_1_2">
<rect width="192" height="48" fill="white" transform="translate(440 257)"/>
</clipPath>
<clipPath id="clip8_1_2">
<rect width="192" height="48" fill="white" transform="translate(720 257)"/>
</clipPath>
<clipPath id="clip9_1_2">
<rect width="194" height="8" fill="white" transform="matrix(0 -1 1 0 228 640)"/>
</clipPath>
<clipPath id="clip10_1_2">
<rect width="66" height="8" fill="white" transform="matrix(0 -1 1 0 507 512)"/>
</clipPath>
<clipPath id="clip11_1_2">
<rect width="66" height="8" fill="white" transform="matrix(0 -1 1 0 788 512)"/>
</clipPath>
<clipPath id="clip12_1_2">
<rect width="72" height="8" fill="white" transform="matrix(0 -1 1 0 507 640)"/>
</clipPath>
<clipPath id="clip13_1_2">
<rect width="72" height="8" fill="white" transform="matrix(0 -1 1 0 788 640)"/>
</clipPath>
<clipPath id="clip14_1_2">
<rect width="194" height="8" fill="white" transform="matrix(0 -1 1 0 276 633)"/>
</clipPath>
<clipPath id="clip15_1_2">
<rect width="66" height="8" fill="white" transform="matrix(0 -1 1 0 555 505)"/>
</clipPath>
<clipPath id="clip16_1_2">
<rect width="66" height="8" fill="white" transform="matrix(0 -1 1 0 836 505)"/>
</clipPath>
<clipPath id="clip17_1_2">
<rect width="72" height="8" fill="white" transform="matrix(0 -1 1 0 555 633)"/>
</clipPath>
<clipPath id="clip18_1_2">
<rect width="72" height="8" fill="white" transform="matrix(0 -1 1 0 836 633)"/>
</clipPath>
</defs>
</svg>
