<svg width="1080" height="280" viewBox="0 0 1080 280" fill="none" xmlns="http://www.w3.org/2000/svg">
<rect width="1080" height="280" fill="white"/>
<rect x="400.5" y="56.5" width="279" height="47" stroke="#0F62FE"/>
<rect x="401" y="57" width="278" height="46" fill="white"/>
<rect x="401" y="57" width="278" height="46" fill="#EDF5FF"/>
<g clip-path="url(#clip0_19_179)">
<path d="M471.07 76V71.87H466.996V76H465.148V66.228H466.996V70.232H471.07V66.228H472.918V76H471.07ZM478.464 72.556L479.739 68.692H481.418L478.479 77.302C478.115 78.352 477.597 78.8 476.392 78.8H475.314V77.372H476.63L476.966 76.35L474.348 68.692H476.126L477.401 72.556L477.876 74.404H477.961L478.464 72.556ZM482.76 78.8V68.692H484.552V69.896H484.608C484.874 69.056 485.658 68.524 486.624 68.524C488.472 68.524 489.494 69.896 489.494 72.332C489.494 74.782 488.472 76.168 486.624 76.168C485.658 76.168 484.888 75.608 484.608 74.782H484.552V78.8H482.76ZM486.05 74.684C486.974 74.684 487.618 74.012 487.618 72.976V71.716C487.618 70.68 486.974 69.994 486.05 69.994C485.196 69.994 484.552 70.456 484.552 71.17V73.494C484.552 74.25 485.196 74.684 486.05 74.684ZM494.269 76.168C492.113 76.168 490.825 74.67 490.825 72.332C490.825 70.022 492.071 68.524 494.213 68.524C496.495 68.524 497.545 70.204 497.545 72.206V72.794H492.687V72.976C492.687 74.026 493.289 74.74 494.465 74.74C495.347 74.74 495.879 74.32 496.327 73.746L497.293 74.824C496.691 75.65 495.627 76.168 494.269 76.168ZM494.241 69.868C493.303 69.868 492.687 70.568 492.687 71.576V71.688H495.683V71.562C495.683 70.554 495.165 69.868 494.241 69.868ZM501.073 76H499.281V68.692H501.073V70.204H501.143C501.325 69.434 501.913 68.692 503.075 68.692H503.467V70.386H502.907C501.703 70.386 501.073 70.722 501.073 71.52V76ZM510.366 76H508.518V66.228H512.914C514.72 66.228 515.812 67.446 515.812 69.252C515.812 71.072 514.72 72.276 512.914 72.276H510.366V76ZM510.366 67.838V70.68H512.746C513.46 70.68 513.894 70.288 513.894 69.574V68.93C513.894 68.216 513.46 67.838 512.746 67.838H510.366ZM519.19 76H517.398V68.692H519.19V70.204H519.26C519.442 69.434 520.03 68.692 521.192 68.692H521.584V70.386H521.024C519.82 70.386 519.19 70.722 519.19 71.52V76ZM525.884 76.168C523.798 76.168 522.496 74.684 522.496 72.332C522.496 69.994 523.798 68.524 525.884 68.524C527.984 68.524 529.286 69.994 529.286 72.332C529.286 74.684 527.984 76.168 525.884 76.168ZM525.884 74.726C526.822 74.726 527.41 74.124 527.41 73.018V71.66C527.41 70.568 526.822 69.966 525.884 69.966C524.96 69.966 524.372 70.568 524.372 71.66V73.018C524.372 74.124 524.96 74.726 525.884 74.726ZM533.262 76C532.03 76 531.372 75.328 531.372 74.138V70.12H530.294V68.692H530.854C531.386 68.692 531.554 68.44 531.554 67.936V66.69H533.164V68.692H534.662V70.12H533.164V74.572H534.55V76H533.262ZM539.276 76.168C537.12 76.168 535.832 74.67 535.832 72.332C535.832 70.022 537.078 68.524 539.22 68.524C541.502 68.524 542.552 70.204 542.552 72.206V72.794H537.694V72.976C537.694 74.026 538.296 74.74 539.472 74.74C540.354 74.74 540.886 74.32 541.334 73.746L542.3 74.824C541.698 75.65 540.634 76.168 539.276 76.168ZM539.248 69.868C538.31 69.868 537.694 70.568 537.694 71.576V71.688H540.69V71.562C540.69 70.554 540.172 69.868 539.248 69.868ZM547.172 76.168C545.016 76.168 543.798 74.684 543.798 72.332C543.798 69.994 545.016 68.524 547.172 68.524C548.642 68.524 549.608 69.224 550.042 70.372L548.572 71.03C548.404 70.414 547.942 69.966 547.172 69.966C546.178 69.966 545.674 70.666 545.674 71.688V73.018C545.674 74.04 546.178 74.726 547.172 74.726C548.026 74.726 548.446 74.236 548.712 73.578L550.084 74.236C549.608 75.524 548.586 76.168 547.172 76.168ZM553.908 76C552.676 76 552.018 75.328 552.018 74.138V70.12H550.94V68.692H551.5C552.032 68.692 552.2 68.44 552.2 67.936V66.69H553.81V68.692H555.308V70.12H553.81V74.572H555.196V76H553.908ZM564.971 76H562.871L559.679 66.228H561.569L563.067 70.988L563.935 74.236H563.977L564.831 70.988L566.329 66.228H568.163L564.971 76ZM570.475 67.628C569.733 67.628 569.425 67.25 569.425 66.732V66.452C569.425 65.934 569.733 65.556 570.475 65.556C571.203 65.556 571.525 65.934 571.525 66.452V66.732C571.525 67.25 571.203 67.628 570.475 67.628ZM569.579 76V68.692H571.371V76H569.579ZM575.4 76H573.608V68.692H575.4V70.204H575.47C575.652 69.434 576.24 68.692 577.402 68.692H577.794V70.386H577.234C576.03 70.386 575.4 70.722 575.4 71.52V76ZM581.601 76C580.369 76 579.711 75.328 579.711 74.138V70.12H578.633V68.692H579.193C579.725 68.692 579.893 68.44 579.893 67.936V66.69H581.503V68.692H583.001V70.12H581.503V74.572H582.889V76H581.601ZM589.083 76V74.782H589.013C588.761 75.51 588.173 76.168 586.969 76.168C585.471 76.168 584.631 75.132 584.631 73.312V68.692H586.423V73.13C586.423 74.138 586.801 74.684 587.655 74.684C588.369 74.684 589.083 74.306 589.083 73.522V68.692H590.875V76H589.083ZM594.911 76.168C593.427 76.168 592.587 75.314 592.587 74.012C592.587 72.514 593.721 71.772 595.709 71.772H596.955V71.24C596.955 70.428 596.549 69.952 595.597 69.952C594.757 69.952 594.281 70.372 593.931 70.876L592.867 69.924C593.399 69.084 594.253 68.524 595.723 68.524C597.697 68.524 598.747 69.462 598.747 71.128V74.572H599.475V76H598.481C597.711 76 597.235 75.496 597.123 74.74H597.039C596.801 75.678 596.003 76.168 594.911 76.168ZM595.513 74.866C596.311 74.866 596.955 74.502 596.955 73.816V72.85H595.807C594.869 72.85 594.407 73.172 594.407 73.746V73.984C594.407 74.572 594.813 74.866 595.513 74.866ZM603.844 76H602.878C601.66 76 601.086 75.356 601.086 74.236V65.64H602.878V74.572H603.844V76ZM611.979 76.168C610.313 76.168 609.165 75.51 608.339 74.544L609.585 73.34C610.257 74.124 611.083 74.544 612.091 74.544C613.225 74.544 613.813 73.998 613.813 73.172C613.813 72.514 613.505 72.108 612.483 71.926L611.559 71.786C609.585 71.478 608.633 70.54 608.633 68.944C608.633 67.194 609.991 66.06 612.175 66.06C613.645 66.06 614.737 66.564 615.521 67.502L614.261 68.692C613.785 68.09 613.113 67.684 612.077 67.684C611.027 67.684 610.481 68.104 610.481 68.832C610.481 69.574 610.901 69.882 611.839 70.05L612.749 70.218C614.723 70.568 615.647 71.45 615.647 73.06C615.647 74.908 614.317 76.168 611.979 76.168ZM620.502 76.168C618.346 76.168 617.058 74.67 617.058 72.332C617.058 70.022 618.304 68.524 620.446 68.524C622.728 68.524 623.778 70.204 623.778 72.206V72.794H618.92V72.976C618.92 74.026 619.522 74.74 620.698 74.74C621.58 74.74 622.112 74.32 622.56 73.746L623.526 74.824C622.924 75.65 621.86 76.168 620.502 76.168ZM620.474 69.868C619.536 69.868 618.92 70.568 618.92 71.576V71.688H621.916V71.562C621.916 70.554 621.398 69.868 620.474 69.868ZM627.307 76H625.515V68.692H627.307V70.204H627.377C627.559 69.434 628.147 68.692 629.309 68.692H629.701V70.386H629.141C627.937 70.386 627.307 70.722 627.307 71.52V76ZM634.976 76H632.848L630.412 68.692H632.176L633.198 71.842L633.912 74.446H634.01L634.724 71.842L635.718 68.692H637.426L634.976 76ZM641.627 76.168C639.471 76.168 638.183 74.67 638.183 72.332C638.183 70.022 639.429 68.524 641.571 68.524C643.853 68.524 644.903 70.204 644.903 72.206V72.794H640.045V72.976C640.045 74.026 640.647 74.74 641.823 74.74C642.705 74.74 643.237 74.32 643.685 73.746L644.651 74.824C644.049 75.65 642.985 76.168 641.627 76.168ZM641.599 69.868C640.661 69.868 640.045 70.568 640.045 71.576V71.688H643.041V71.562C643.041 70.554 642.523 69.868 641.599 69.868ZM648.431 76H646.639V68.692H648.431V70.204H648.501C648.683 69.434 649.271 68.692 650.433 68.692H650.825V70.386H650.265C649.061 70.386 648.431 70.722 648.431 71.52V76Z" fill="black"/>
<path d="M468.046 94.168C466.478 94.168 465.372 93.524 464.588 92.46L465.456 91.732C466.142 92.642 466.954 93.132 468.088 93.132C469.488 93.132 470.244 92.404 470.244 91.284C470.244 90.36 469.726 89.898 468.438 89.604L467.64 89.422C465.862 89.016 464.882 88.232 464.882 86.734C464.882 84.998 466.198 84.06 468.116 84.06C469.586 84.06 470.622 84.62 471.35 85.656L470.468 86.3C469.936 85.558 469.194 85.096 468.06 85.096C466.814 85.096 466.044 85.642 466.044 86.692C466.044 87.616 466.646 88.036 467.878 88.316L468.676 88.498C470.58 88.932 471.406 89.772 471.406 91.228C471.406 93.02 470.146 94.168 468.046 94.168ZM473.597 94V84.228H475.165L477.965 89.492H478.035L480.849 84.228H482.361V94H481.213V85.768H481.143L480.317 87.406L477.979 91.662L475.641 87.406L474.815 85.768H474.745V94H473.597ZM486.294 94H485.118V84.228H489.01C490.76 84.228 491.74 85.306 491.74 87.028C491.74 88.75 490.76 89.828 489.01 89.828H486.294V94ZM486.294 85.264V88.792H489.01C489.934 88.792 490.48 88.288 490.48 87.392V86.664C490.48 85.768 489.934 85.264 489.01 85.264H486.294ZM497.212 94.168C494.748 94.168 493.278 92.432 493.278 89.17C493.278 85.908 494.748 84.06 497.212 84.06C498.836 84.06 499.956 84.844 500.572 86.202L499.62 86.776C499.228 85.768 498.416 85.11 497.212 85.11C495.532 85.11 494.538 86.44 494.538 88.442V89.898C494.538 91.9 495.532 93.118 497.212 93.118C498.458 93.118 499.312 92.418 499.704 91.354L500.642 91.942C500.026 93.314 498.836 94.168 497.212 94.168Z" fill="black"/>
<rect width="48" height="48" transform="translate(400 56)" fill="#0F62FE"/>
<path d="M427 81.5V86.375C427 87.8 427.825 89.15 429.175 89.75L430.75 90.5L432.325 89.75C433.6 89.15 434.5 87.8 434.5 86.375V81.5H427ZM433 86.375C433 87.275 432.475 88.025 431.725 88.4L430.75 88.85L429.775 88.4C429.025 88.025 428.5 87.2 428.5 86.375V83H433V86.375Z" fill="white"/>
<path d="M430.75 69.5H415.75C414.925 69.5 414.25 70.175 414.25 71V87.5C414.25 88.325 414.925 89 415.75 89H424V71H430.75V79.25H432.25V71C432.25 70.175 431.575 69.5 430.75 69.5ZM422.2 77.15L415.75 85.925V71.825L422.2 77.15ZM416.5 87.5L422.5 79.325V87.5H416.5ZM422.5 75.425L417.1 71H422.5V75.425Z" fill="white"/>
</g>
<rect x="144.5" y="176.5" width="239" height="47" fill="white"/>
<rect x="144.5" y="176.5" width="239" height="47" stroke="#0F62FE"/>
<rect x="145" y="177" width="238" height="46" fill="white"/>
<g clip-path="url(#clip1_19_179)">
<path d="M189.906 205V195.228H194.428C196.038 195.228 197.018 196.222 197.018 197.734C197.018 199.218 196.164 199.778 195.268 199.834V199.918C196.122 199.932 197.382 200.534 197.382 202.2C197.382 203.768 196.304 205 194.862 205H189.906ZM191.754 200.814V203.432H194.33C195.03 203.432 195.45 203.054 195.45 202.368V201.892C195.45 201.206 195.03 200.814 194.33 200.814H191.754ZM191.754 196.796V199.302H194.036C194.708 199.302 195.1 198.91 195.1 198.266V197.832C195.1 197.174 194.708 196.796 194.036 196.796H191.754ZM201.044 205.168C199.56 205.168 198.72 204.314 198.72 203.012C198.72 201.514 199.854 200.772 201.842 200.772H203.088V200.24C203.088 199.428 202.682 198.952 201.73 198.952C200.89 198.952 200.414 199.372 200.064 199.876L199 198.924C199.532 198.084 200.386 197.524 201.856 197.524C203.83 197.524 204.88 198.462 204.88 200.128V203.572H205.608V205H204.614C203.844 205 203.368 204.496 203.256 203.74H203.172C202.934 204.678 202.136 205.168 201.044 205.168ZM201.646 203.866C202.444 203.866 203.088 203.502 203.088 202.816V201.85H201.94C201.002 201.85 200.54 202.172 200.54 202.746V202.984C200.54 203.572 200.946 203.866 201.646 203.866ZM209.01 205H207.218V197.692H209.01V198.91H209.08C209.374 198.126 209.99 197.524 211.124 197.524C212.622 197.524 213.462 198.56 213.462 200.38V205H211.67V200.562C211.67 199.526 211.32 198.994 210.466 198.994C209.724 198.994 209.01 199.386 209.01 200.17V205ZM215.608 205V194.64H217.4V200.884H217.47L218.436 199.568L220.074 197.692H222.104L219.584 200.52L222.37 205H220.242L218.366 201.724L217.4 202.774V205H215.608ZM234.07 205H227.336V203.502H230.024V196.558H229.898L227.77 199.078L226.622 198.112L229.044 195.228H231.83V203.502H234.07V205ZM243.658 205V203.782H243.588C243.322 204.608 242.538 205.168 241.572 205.168C239.738 205.168 238.716 203.782 238.716 201.332C238.716 198.896 239.738 197.524 241.572 197.524C242.538 197.524 243.336 198.056 243.588 198.896H243.658V194.64H245.45V205H243.658ZM242.146 203.684C243 203.684 243.658 203.25 243.658 202.494V200.17C243.658 199.456 243 198.994 242.146 198.994C241.222 198.994 240.592 199.68 240.592 200.716V201.976C240.592 203.012 241.222 203.684 242.146 203.684ZM249.482 205.168C247.998 205.168 247.158 204.314 247.158 203.012C247.158 201.514 248.292 200.772 250.28 200.772H251.526V200.24C251.526 199.428 251.12 198.952 250.168 198.952C249.328 198.952 248.852 199.372 248.502 199.876L247.438 198.924C247.97 198.084 248.824 197.524 250.294 197.524C252.268 197.524 253.318 198.462 253.318 200.128V203.572H254.046V205H253.052C252.282 205 251.806 204.496 251.694 203.74H251.61C251.372 204.678 250.574 205.168 249.482 205.168ZM250.084 203.866C250.882 203.866 251.526 203.502 251.526 202.816V201.85H250.378C249.44 201.85 248.978 202.172 248.978 202.746V202.984C248.978 203.572 249.384 203.866 250.084 203.866ZM257.884 205C256.652 205 255.994 204.328 255.994 203.138V199.12H254.916V197.692H255.476C256.008 197.692 256.176 197.44 256.176 196.936V195.69H257.786V197.692H259.284V199.12H257.786V203.572H259.172V205H257.884ZM262.804 205.168C261.32 205.168 260.48 204.314 260.48 203.012C260.48 201.514 261.614 200.772 263.602 200.772H264.848V200.24C264.848 199.428 264.442 198.952 263.49 198.952C262.65 198.952 262.174 199.372 261.824 199.876L260.76 198.924C261.292 198.084 262.146 197.524 263.616 197.524C265.59 197.524 266.64 198.462 266.64 200.128V203.572H267.368V205H266.374C265.604 205 265.128 204.496 265.016 203.74H264.932C264.694 204.678 263.896 205.168 262.804 205.168ZM263.406 203.866C264.204 203.866 264.848 203.502 264.848 202.816V201.85H263.7C262.762 201.85 262.3 202.172 262.3 202.746V202.984C262.3 203.572 262.706 203.866 263.406 203.866ZM274.239 205H272.447V197.692H274.239V199.204H274.309C274.491 198.434 275.079 197.692 276.241 197.692H276.633V199.386H276.073C274.869 199.386 274.239 199.722 274.239 200.52V205ZM280.989 205.168C278.833 205.168 277.545 203.67 277.545 201.332C277.545 199.022 278.791 197.524 280.933 197.524C283.215 197.524 284.265 199.204 284.265 201.206V201.794H279.407V201.976C279.407 203.026 280.009 203.74 281.185 203.74C282.067 203.74 282.599 203.32 283.047 202.746L284.013 203.824C283.411 204.65 282.347 205.168 280.989 205.168ZM280.961 198.868C280.023 198.868 279.407 199.568 279.407 200.576V200.688H282.403V200.562C282.403 199.554 281.885 198.868 280.961 198.868ZM286.001 207.8V197.692H287.793V198.896H287.849C288.115 198.056 288.899 197.524 289.865 197.524C291.713 197.524 292.735 198.896 292.735 201.332C292.735 203.782 291.713 205.168 289.865 205.168C288.899 205.168 288.129 204.608 287.849 203.782H287.793V207.8H286.001ZM289.291 203.684C290.215 203.684 290.859 203.012 290.859 201.976V200.716C290.859 199.68 290.215 198.994 289.291 198.994C288.437 198.994 287.793 199.456 287.793 200.17V202.494C287.793 203.25 288.437 203.684 289.291 203.684ZM297.454 205.168C295.368 205.168 294.066 203.684 294.066 201.332C294.066 198.994 295.368 197.524 297.454 197.524C299.554 197.524 300.856 198.994 300.856 201.332C300.856 203.684 299.554 205.168 297.454 205.168ZM297.454 203.726C298.392 203.726 298.98 203.124 298.98 202.018V200.66C298.98 199.568 298.392 198.966 297.454 198.966C296.53 198.966 295.942 199.568 295.942 200.66V202.018C295.942 203.124 296.53 203.726 297.454 203.726ZM304.998 205.168C303.612 205.168 302.702 204.664 301.974 203.824L303.066 202.76C303.598 203.376 304.242 203.754 305.068 203.754C305.922 203.754 306.286 203.432 306.286 202.914C306.286 202.494 306.034 202.228 305.39 202.144L304.662 202.046C303.094 201.85 302.226 201.164 302.226 199.834C302.226 198.42 303.332 197.524 304.998 197.524C306.426 197.524 307.154 197.944 307.854 198.672L306.804 199.722C306.384 199.274 305.768 198.938 305.054 198.938C304.284 198.938 303.948 199.246 303.948 199.694C303.948 200.184 304.214 200.408 304.9 200.52L305.642 200.618C307.238 200.842 308.008 201.556 308.008 202.774C308.008 204.188 306.818 205.168 304.998 205.168ZM310.647 196.628C309.905 196.628 309.597 196.25 309.597 195.732V195.452C309.597 194.934 309.905 194.556 310.647 194.556C311.375 194.556 311.697 194.934 311.697 195.452V195.732C311.697 196.25 311.375 196.628 310.647 196.628ZM309.751 205V197.692H311.543V205H309.751ZM316.062 205C314.83 205 314.172 204.328 314.172 203.138V199.12H313.094V197.692H313.654C314.186 197.692 314.354 197.44 314.354 196.936V195.69H315.964V197.692H317.462V199.12H315.964V203.572H317.35V205H316.062ZM322.02 205.168C319.934 205.168 318.632 203.684 318.632 201.332C318.632 198.994 319.934 197.524 322.02 197.524C324.12 197.524 325.422 198.994 325.422 201.332C325.422 203.684 324.12 205.168 322.02 205.168ZM322.02 203.726C322.958 203.726 323.546 203.124 323.546 202.018V200.66C323.546 199.568 322.958 198.966 322.02 198.966C321.096 198.966 320.508 199.568 320.508 200.66V202.018C320.508 203.124 321.096 203.726 322.02 203.726ZM328.962 205H327.17V197.692H328.962V199.204H329.032C329.214 198.434 329.802 197.692 330.964 197.692H331.356V199.386H330.796C329.592 199.386 328.962 199.722 328.962 200.52V205ZM336.142 201.556L337.416 197.692H339.096L336.156 206.302C335.792 207.352 335.274 207.8 334.07 207.8H332.992V206.372H334.308L334.644 205.35L332.026 197.692H333.804L335.078 201.556L335.554 203.404H335.638L336.142 201.556Z" fill="black"/>
</g>
<rect x="420.5" y="176.5" width="239" height="47" fill="white"/>
<rect x="420.5" y="176.5" width="239" height="47" stroke="#0F62FE"/>
<rect x="421" y="177" width="238" height="46" fill="white"/>
<g clip-path="url(#clip2_19_179)">
<path d="M465.906 205V195.228H470.428C472.038 195.228 473.018 196.222 473.018 197.734C473.018 199.218 472.164 199.778 471.268 199.834V199.918C472.122 199.932 473.382 200.534 473.382 202.2C473.382 203.768 472.304 205 470.862 205H465.906ZM467.754 200.814V203.432H470.33C471.03 203.432 471.45 203.054 471.45 202.368V201.892C471.45 201.206 471.03 200.814 470.33 200.814H467.754ZM467.754 196.796V199.302H470.036C470.708 199.302 471.1 198.91 471.1 198.266V197.832C471.1 197.174 470.708 196.796 470.036 196.796H467.754ZM477.044 205.168C475.56 205.168 474.72 204.314 474.72 203.012C474.72 201.514 475.854 200.772 477.842 200.772H479.088V200.24C479.088 199.428 478.682 198.952 477.73 198.952C476.89 198.952 476.414 199.372 476.064 199.876L475 198.924C475.532 198.084 476.386 197.524 477.856 197.524C479.83 197.524 480.88 198.462 480.88 200.128V203.572H481.608V205H480.614C479.844 205 479.368 204.496 479.256 203.74H479.172C478.934 204.678 478.136 205.168 477.044 205.168ZM477.646 203.866C478.444 203.866 479.088 203.502 479.088 202.816V201.85H477.94C477.002 201.85 476.54 202.172 476.54 202.746V202.984C476.54 203.572 476.946 203.866 477.646 203.866ZM485.01 205H483.218V197.692H485.01V198.91H485.08C485.374 198.126 485.99 197.524 487.124 197.524C488.622 197.524 489.462 198.56 489.462 200.38V205H487.67V200.562C487.67 199.526 487.32 198.994 486.466 198.994C485.724 198.994 485.01 199.386 485.01 200.17V205ZM491.608 205V194.64H493.4V200.884H493.47L494.436 199.568L496.074 197.692H498.104L495.584 200.52L498.37 205H496.242L494.366 201.724L493.4 202.774V205H491.608ZM509.706 203.446V205H502.93V203.292L505.996 200.604C507.032 199.694 507.508 199.022 507.508 198.168V197.986C507.508 197.132 506.864 196.656 506.066 196.656C505.058 196.656 504.582 197.314 504.358 198.112L502.762 197.496C503.182 196.194 504.232 195.06 506.22 195.06C508.278 195.06 509.454 196.292 509.454 197.972C509.454 199.596 508.348 200.632 506.99 201.752L504.932 203.446H509.706ZM519.658 205V203.782H519.588C519.322 204.608 518.538 205.168 517.572 205.168C515.738 205.168 514.716 203.782 514.716 201.332C514.716 198.896 515.738 197.524 517.572 197.524C518.538 197.524 519.336 198.056 519.588 198.896H519.658V194.64H521.45V205H519.658ZM518.146 203.684C519 203.684 519.658 203.25 519.658 202.494V200.17C519.658 199.456 519 198.994 518.146 198.994C517.222 198.994 516.592 199.68 516.592 200.716V201.976C516.592 203.012 517.222 203.684 518.146 203.684ZM525.482 205.168C523.998 205.168 523.158 204.314 523.158 203.012C523.158 201.514 524.292 200.772 526.28 200.772H527.526V200.24C527.526 199.428 527.12 198.952 526.168 198.952C525.328 198.952 524.852 199.372 524.502 199.876L523.438 198.924C523.97 198.084 524.824 197.524 526.294 197.524C528.268 197.524 529.318 198.462 529.318 200.128V203.572H530.046V205H529.052C528.282 205 527.806 204.496 527.694 203.74H527.61C527.372 204.678 526.574 205.168 525.482 205.168ZM526.084 203.866C526.882 203.866 527.526 203.502 527.526 202.816V201.85H526.378C525.44 201.85 524.978 202.172 524.978 202.746V202.984C524.978 203.572 525.384 203.866 526.084 203.866ZM533.884 205C532.652 205 531.994 204.328 531.994 203.138V199.12H530.916V197.692H531.476C532.008 197.692 532.176 197.44 532.176 196.936V195.69H533.786V197.692H535.284V199.12H533.786V203.572H535.172V205H533.884ZM538.804 205.168C537.32 205.168 536.48 204.314 536.48 203.012C536.48 201.514 537.614 200.772 539.602 200.772H540.848V200.24C540.848 199.428 540.442 198.952 539.49 198.952C538.65 198.952 538.174 199.372 537.824 199.876L536.76 198.924C537.292 198.084 538.146 197.524 539.616 197.524C541.59 197.524 542.64 198.462 542.64 200.128V203.572H543.368V205H542.374C541.604 205 541.128 204.496 541.016 203.74H540.932C540.694 204.678 539.896 205.168 538.804 205.168ZM539.406 203.866C540.204 203.866 540.848 203.502 540.848 202.816V201.85H539.7C538.762 201.85 538.3 202.172 538.3 202.746V202.984C538.3 203.572 538.706 203.866 539.406 203.866ZM550.239 205H548.447V197.692H550.239V199.204H550.309C550.491 198.434 551.079 197.692 552.241 197.692H552.633V199.386H552.073C550.869 199.386 550.239 199.722 550.239 200.52V205ZM556.989 205.168C554.833 205.168 553.545 203.67 553.545 201.332C553.545 199.022 554.791 197.524 556.933 197.524C559.215 197.524 560.265 199.204 560.265 201.206V201.794H555.407V201.976C555.407 203.026 556.009 203.74 557.185 203.74C558.067 203.74 558.599 203.32 559.047 202.746L560.013 203.824C559.411 204.65 558.347 205.168 556.989 205.168ZM556.961 198.868C556.023 198.868 555.407 199.568 555.407 200.576V200.688H558.403V200.562C558.403 199.554 557.885 198.868 556.961 198.868ZM562.001 207.8V197.692H563.793V198.896H563.849C564.115 198.056 564.899 197.524 565.865 197.524C567.713 197.524 568.735 198.896 568.735 201.332C568.735 203.782 567.713 205.168 565.865 205.168C564.899 205.168 564.129 204.608 563.849 203.782H563.793V207.8H562.001ZM565.291 203.684C566.215 203.684 566.859 203.012 566.859 201.976V200.716C566.859 199.68 566.215 198.994 565.291 198.994C564.437 198.994 563.793 199.456 563.793 200.17V202.494C563.793 203.25 564.437 203.684 565.291 203.684ZM573.454 205.168C571.368 205.168 570.066 203.684 570.066 201.332C570.066 198.994 571.368 197.524 573.454 197.524C575.554 197.524 576.856 198.994 576.856 201.332C576.856 203.684 575.554 205.168 573.454 205.168ZM573.454 203.726C574.392 203.726 574.98 203.124 574.98 202.018V200.66C574.98 199.568 574.392 198.966 573.454 198.966C572.53 198.966 571.942 199.568 571.942 200.66V202.018C571.942 203.124 572.53 203.726 573.454 203.726ZM580.998 205.168C579.612 205.168 578.702 204.664 577.974 203.824L579.066 202.76C579.598 203.376 580.242 203.754 581.068 203.754C581.922 203.754 582.286 203.432 582.286 202.914C582.286 202.494 582.034 202.228 581.39 202.144L580.662 202.046C579.094 201.85 578.226 201.164 578.226 199.834C578.226 198.42 579.332 197.524 580.998 197.524C582.426 197.524 583.154 197.944 583.854 198.672L582.804 199.722C582.384 199.274 581.768 198.938 581.054 198.938C580.284 198.938 579.948 199.246 579.948 199.694C579.948 200.184 580.214 200.408 580.9 200.52L581.642 200.618C583.238 200.842 584.008 201.556 584.008 202.774C584.008 204.188 582.818 205.168 580.998 205.168ZM586.647 196.628C585.905 196.628 585.597 196.25 585.597 195.732V195.452C585.597 194.934 585.905 194.556 586.647 194.556C587.375 194.556 587.697 194.934 587.697 195.452V195.732C587.697 196.25 587.375 196.628 586.647 196.628ZM585.751 205V197.692H587.543V205H585.751ZM592.062 205C590.83 205 590.172 204.328 590.172 203.138V199.12H589.094V197.692H589.654C590.186 197.692 590.354 197.44 590.354 196.936V195.69H591.964V197.692H593.462V199.12H591.964V203.572H593.35V205H592.062ZM598.02 205.168C595.934 205.168 594.632 203.684 594.632 201.332C594.632 198.994 595.934 197.524 598.02 197.524C600.12 197.524 601.422 198.994 601.422 201.332C601.422 203.684 600.12 205.168 598.02 205.168ZM598.02 203.726C598.958 203.726 599.546 203.124 599.546 202.018V200.66C599.546 199.568 598.958 198.966 598.02 198.966C597.096 198.966 596.508 199.568 596.508 200.66V202.018C596.508 203.124 597.096 203.726 598.02 203.726ZM604.962 205H603.17V197.692H604.962V199.204H605.032C605.214 198.434 605.802 197.692 606.964 197.692H607.356V199.386H606.796C605.592 199.386 604.962 199.722 604.962 200.52V205ZM612.142 201.556L613.416 197.692H615.096L612.156 206.302C611.792 207.352 611.274 207.8 610.07 207.8H608.992V206.372H610.308L610.644 205.35L608.026 197.692H609.804L611.078 201.556L611.554 203.404H611.638L612.142 201.556Z" fill="black"/>
</g>
<rect x="696.5" y="176.5" width="239" height="47" fill="white"/>
<rect x="696.5" y="176.5" width="239" height="47" stroke="#0F62FE"/>
<rect x="697" y="177" width="238" height="46" fill="white"/>
<g clip-path="url(#clip3_19_179)">
<path d="M741.906 205V195.228H746.428C748.038 195.228 749.018 196.222 749.018 197.734C749.018 199.218 748.164 199.778 747.268 199.834V199.918C748.122 199.932 749.382 200.534 749.382 202.2C749.382 203.768 748.304 205 746.862 205H741.906ZM743.754 200.814V203.432H746.33C747.03 203.432 747.45 203.054 747.45 202.368V201.892C747.45 201.206 747.03 200.814 746.33 200.814H743.754ZM743.754 196.796V199.302H746.036C746.708 199.302 747.1 198.91 747.1 198.266V197.832C747.1 197.174 746.708 196.796 746.036 196.796H743.754ZM753.044 205.168C751.56 205.168 750.72 204.314 750.72 203.012C750.72 201.514 751.854 200.772 753.842 200.772H755.088V200.24C755.088 199.428 754.682 198.952 753.73 198.952C752.89 198.952 752.414 199.372 752.064 199.876L751 198.924C751.532 198.084 752.386 197.524 753.856 197.524C755.83 197.524 756.88 198.462 756.88 200.128V203.572H757.608V205H756.614C755.844 205 755.368 204.496 755.256 203.74H755.172C754.934 204.678 754.136 205.168 753.044 205.168ZM753.646 203.866C754.444 203.866 755.088 203.502 755.088 202.816V201.85H753.94C753.002 201.85 752.54 202.172 752.54 202.746V202.984C752.54 203.572 752.946 203.866 753.646 203.866ZM761.01 205H759.218V197.692H761.01V198.91H761.08C761.374 198.126 761.99 197.524 763.124 197.524C764.622 197.524 765.462 198.56 765.462 200.38V205H763.67V200.562C763.67 199.526 763.32 198.994 762.466 198.994C761.724 198.994 761.01 199.386 761.01 200.17V205ZM767.608 205V194.64H769.4V200.884H769.47L770.436 199.568L772.074 197.692H774.104L771.584 200.52L774.37 205H772.242L770.366 201.724L769.4 202.774V205H767.608ZM780.764 199.176H781.73C782.85 199.176 783.368 198.658 783.368 197.958V197.86C783.368 197.062 782.808 196.572 781.926 196.572C781.072 196.572 780.4 197.006 779.924 197.748L778.748 196.684C779.406 195.774 780.33 195.06 781.982 195.06C783.956 195.06 785.3 196.04 785.3 197.608C785.3 198.868 784.446 199.624 783.424 199.834V199.918C784.558 200.128 785.468 200.912 785.468 202.298C785.468 204.02 784.026 205.168 781.87 205.168C779.966 205.168 779.014 204.3 778.398 203.348L779.756 202.312C780.19 203.096 780.778 203.656 781.87 203.656C782.948 203.656 783.55 203.096 783.55 202.186V202.088C783.55 201.192 782.892 200.716 781.73 200.716H780.764V199.176ZM795.658 205V203.782H795.588C795.322 204.608 794.538 205.168 793.572 205.168C791.738 205.168 790.716 203.782 790.716 201.332C790.716 198.896 791.738 197.524 793.572 197.524C794.538 197.524 795.336 198.056 795.588 198.896H795.658V194.64H797.45V205H795.658ZM794.146 203.684C795 203.684 795.658 203.25 795.658 202.494V200.17C795.658 199.456 795 198.994 794.146 198.994C793.222 198.994 792.592 199.68 792.592 200.716V201.976C792.592 203.012 793.222 203.684 794.146 203.684ZM801.482 205.168C799.998 205.168 799.158 204.314 799.158 203.012C799.158 201.514 800.292 200.772 802.28 200.772H803.526V200.24C803.526 199.428 803.12 198.952 802.168 198.952C801.328 198.952 800.852 199.372 800.502 199.876L799.438 198.924C799.97 198.084 800.824 197.524 802.294 197.524C804.268 197.524 805.318 198.462 805.318 200.128V203.572H806.046V205H805.052C804.282 205 803.806 204.496 803.694 203.74H803.61C803.372 204.678 802.574 205.168 801.482 205.168ZM802.084 203.866C802.882 203.866 803.526 203.502 803.526 202.816V201.85H802.378C801.44 201.85 800.978 202.172 800.978 202.746V202.984C800.978 203.572 801.384 203.866 802.084 203.866ZM809.884 205C808.652 205 807.994 204.328 807.994 203.138V199.12H806.916V197.692H807.476C808.008 197.692 808.176 197.44 808.176 196.936V195.69H809.786V197.692H811.284V199.12H809.786V203.572H811.172V205H809.884ZM814.804 205.168C813.32 205.168 812.48 204.314 812.48 203.012C812.48 201.514 813.614 200.772 815.602 200.772H816.848V200.24C816.848 199.428 816.442 198.952 815.49 198.952C814.65 198.952 814.174 199.372 813.824 199.876L812.76 198.924C813.292 198.084 814.146 197.524 815.616 197.524C817.59 197.524 818.64 198.462 818.64 200.128V203.572H819.368V205H818.374C817.604 205 817.128 204.496 817.016 203.74H816.932C816.694 204.678 815.896 205.168 814.804 205.168ZM815.406 203.866C816.204 203.866 816.848 203.502 816.848 202.816V201.85H815.7C814.762 201.85 814.3 202.172 814.3 202.746V202.984C814.3 203.572 814.706 203.866 815.406 203.866ZM826.239 205H824.447V197.692H826.239V199.204H826.309C826.491 198.434 827.079 197.692 828.241 197.692H828.633V199.386H828.073C826.869 199.386 826.239 199.722 826.239 200.52V205ZM832.989 205.168C830.833 205.168 829.545 203.67 829.545 201.332C829.545 199.022 830.791 197.524 832.933 197.524C835.215 197.524 836.265 199.204 836.265 201.206V201.794H831.407V201.976C831.407 203.026 832.009 203.74 833.185 203.74C834.067 203.74 834.599 203.32 835.047 202.746L836.013 203.824C835.411 204.65 834.347 205.168 832.989 205.168ZM832.961 198.868C832.023 198.868 831.407 199.568 831.407 200.576V200.688H834.403V200.562C834.403 199.554 833.885 198.868 832.961 198.868ZM838.001 207.8V197.692H839.793V198.896H839.849C840.115 198.056 840.899 197.524 841.865 197.524C843.713 197.524 844.735 198.896 844.735 201.332C844.735 203.782 843.713 205.168 841.865 205.168C840.899 205.168 840.129 204.608 839.849 203.782H839.793V207.8H838.001ZM841.291 203.684C842.215 203.684 842.859 203.012 842.859 201.976V200.716C842.859 199.68 842.215 198.994 841.291 198.994C840.437 198.994 839.793 199.456 839.793 200.17V202.494C839.793 203.25 840.437 203.684 841.291 203.684ZM849.454 205.168C847.368 205.168 846.066 203.684 846.066 201.332C846.066 198.994 847.368 197.524 849.454 197.524C851.554 197.524 852.856 198.994 852.856 201.332C852.856 203.684 851.554 205.168 849.454 205.168ZM849.454 203.726C850.392 203.726 850.98 203.124 850.98 202.018V200.66C850.98 199.568 850.392 198.966 849.454 198.966C848.53 198.966 847.942 199.568 847.942 200.66V202.018C847.942 203.124 848.53 203.726 849.454 203.726ZM856.998 205.168C855.612 205.168 854.702 204.664 853.974 203.824L855.066 202.76C855.598 203.376 856.242 203.754 857.068 203.754C857.922 203.754 858.286 203.432 858.286 202.914C858.286 202.494 858.034 202.228 857.39 202.144L856.662 202.046C855.094 201.85 854.226 201.164 854.226 199.834C854.226 198.42 855.332 197.524 856.998 197.524C858.426 197.524 859.154 197.944 859.854 198.672L858.804 199.722C858.384 199.274 857.768 198.938 857.054 198.938C856.284 198.938 855.948 199.246 855.948 199.694C855.948 200.184 856.214 200.408 856.9 200.52L857.642 200.618C859.238 200.842 860.008 201.556 860.008 202.774C860.008 204.188 858.818 205.168 856.998 205.168ZM862.647 196.628C861.905 196.628 861.597 196.25 861.597 195.732V195.452C861.597 194.934 861.905 194.556 862.647 194.556C863.375 194.556 863.697 194.934 863.697 195.452V195.732C863.697 196.25 863.375 196.628 862.647 196.628ZM861.751 205V197.692H863.543V205H861.751ZM868.062 205C866.83 205 866.172 204.328 866.172 203.138V199.12H865.094V197.692H865.654C866.186 197.692 866.354 197.44 866.354 196.936V195.69H867.964V197.692H869.462V199.12H867.964V203.572H869.35V205H868.062ZM874.02 205.168C871.934 205.168 870.632 203.684 870.632 201.332C870.632 198.994 871.934 197.524 874.02 197.524C876.12 197.524 877.422 198.994 877.422 201.332C877.422 203.684 876.12 205.168 874.02 205.168ZM874.02 203.726C874.958 203.726 875.546 203.124 875.546 202.018V200.66C875.546 199.568 874.958 198.966 874.02 198.966C873.096 198.966 872.508 199.568 872.508 200.66V202.018C872.508 203.124 873.096 203.726 874.02 203.726ZM880.962 205H879.17V197.692H880.962V199.204H881.032C881.214 198.434 881.802 197.692 882.964 197.692H883.356V199.386H882.796C881.592 199.386 880.962 199.722 880.962 200.52V205ZM888.142 201.556L889.416 197.692H891.096L888.156 206.302C887.792 207.352 887.274 207.8 886.07 207.8H884.992V206.372H886.308L886.644 205.35L884.026 197.692H885.804L887.078 201.556L887.554 203.404H887.638L888.142 201.556Z" fill="black"/>
</g>
<rect width="96" height="128" transform="matrix(0 1 -1 0 816 80)" fill="white" fill-opacity="0.01" style="mix-blend-mode:multiply"/>
<rect width="96" height="128" transform="matrix(0 1 -1 0 816 80)" fill="white" fill-opacity="0.01" style="mix-blend-mode:multiply"/>
<path d="M816 176V80L688 80" stroke="black"/>
<rect width="8" height="8" transform="matrix(-1 0 0 1 688 76)" fill="white" fill-opacity="0.01" style="mix-blend-mode:multiply"/>
<path d="M688 76L680 80L688 84V76Z" fill="black"/>
<rect width="96" height="128" transform="matrix(0 1 1 0 264 80)" fill="white" fill-opacity="0.01" style="mix-blend-mode:multiply"/>
<rect width="96" height="128" transform="matrix(0 1 1 0 264 80)" fill="white" fill-opacity="0.01" style="mix-blend-mode:multiply"/>
<path d="M264 176V80H392" stroke="black"/>
<rect width="8" height="8" transform="translate(392 76)" fill="white" fill-opacity="0.01" style="mix-blend-mode:multiply"/>
<path d="M392 76L400 80L392 84V76Z" fill="black"/>
<rect width="72" height="8" transform="matrix(0 -1 1 0 536 176)" fill="white" fill-opacity="0.01" style="mix-blend-mode:multiply"/>
<g clip-path="url(#clip4_19_179)">
<rect width="65" height="0" transform="matrix(0 -1 1 0 540 176)" fill="white" fill-opacity="0.01" style="mix-blend-mode:multiply"/>
<path d="M540 176V111" stroke="black"/>
</g>
<rect width="8" height="8" transform="matrix(0 -1 1 0 536 112)" fill="white" fill-opacity="0.01" style="mix-blend-mode:multiply"/>
<path d="M536 112L540 104L544 112H536Z" fill="black"/>
<defs>
<clipPath id="clip0_19_179">
<rect width="280" height="48" fill="white" transform="translate(400 56)"/>
</clipPath>
<clipPath id="clip1_19_179">
<rect width="240" height="48" fill="white" transform="translate(144 176)"/>
</clipPath>
<clipPath id="clip2_19_179">
<rect width="240" height="48" fill="white" transform="translate(420 176)"/>
</clipPath>
<clipPath id="clip3_19_179">
<rect width="240" height="48" fill="white" transform="translate(696 176)"/>
</clipPath>
<clipPath id="clip4_19_179">
<rect width="65" height="8" fill="white" transform="matrix(0 -1 1 0 536 176)"/>
</clipPath>
</defs>
</svg>
