<svg width="1080" height="576" viewBox="0 0 1080 576" fill="none" xmlns="http://www.w3.org/2000/svg">
<rect width="1080" height="576" fill="white"/>
<rect x="288.5" y="108.5" width="359" height="411" stroke="#0F62FE"/>
<rect x="289" y="109" width="358" height="410" fill="white"/>
<g clip-path="url(#clip0_19_9852)">
<path d="M359.084 137L356.298 132.576L354.996 134.116V137H353.148V127.228H354.996V132.044H355.066L356.452 130.21L358.874 127.228H361.002L357.6 131.302L361.282 137H359.084ZM366.85 137H364.75L361.558 127.228H363.448L364.946 131.988L365.814 135.236H365.856L366.71 131.988L368.208 127.228H370.042L366.85 137ZM371.57 137V127.228H373.656L376.162 132.002H376.218L378.696 127.228H380.698V137H378.948V129.986H378.892L378.136 131.54L376.134 135.236L374.132 131.54L373.376 129.986H373.32V137H371.57ZM392.326 137H386.628V127.228H388.476V135.362H392.326V137ZM395.937 137H394.089V127.228H398.485C400.291 127.228 401.383 128.446 401.383 130.252C401.383 132.072 400.291 133.276 398.485 133.276H395.937V137ZM395.937 128.838V131.68H398.317C399.031 131.68 399.465 131.288 399.465 130.574V129.93C399.465 129.216 399.031 128.838 398.317 128.838H395.937ZM410.267 137H408.349L407.565 134.508H404.093L403.323 137H401.447L404.723 127.228H407.019L410.267 137ZM407.117 132.926L405.857 128.908H405.787L404.541 132.926H407.117ZM413.716 133.234V137H411.868V127.228H416.278C418.056 127.228 419.162 128.404 419.162 130.252C419.162 131.596 418.546 132.618 417.342 133.024L419.344 137H417.286L415.466 133.234H413.716ZM413.716 131.68H416.096C416.81 131.68 417.244 131.288 417.244 130.574V129.93C417.244 129.216 416.81 128.838 416.096 128.838H413.716V131.68ZM424.362 137.168C422.696 137.168 421.548 136.51 420.722 135.544L421.968 134.34C422.64 135.124 423.466 135.544 424.474 135.544C425.608 135.544 426.196 134.998 426.196 134.172C426.196 133.514 425.888 133.108 424.866 132.926L423.942 132.786C421.968 132.478 421.016 131.54 421.016 129.944C421.016 128.194 422.374 127.06 424.558 127.06C426.028 127.06 427.12 127.564 427.904 128.502L426.644 129.692C426.168 129.09 425.496 128.684 424.46 128.684C423.41 128.684 422.864 129.104 422.864 129.832C422.864 130.574 423.284 130.882 424.222 131.05L425.132 131.218C427.106 131.568 428.03 132.45 428.03 134.06C428.03 135.908 426.7 137.168 424.362 137.168Z" fill="black"/>
<rect width="48" height="48" transform="translate(288 108)" fill="#0F62FE"/>
<rect width="24" height="24" transform="translate(300 120)" fill="white" fill-opacity="0.01" style="mix-blend-mode:multiply"/>
<path d="M318 127.5H321C321.828 127.5 322.5 126.828 322.5 126V123C322.5 122.172 321.828 121.5 321 121.5H318C317.172 121.5 316.5 122.172 316.5 123V123.75H314.25C313.422 123.75 312.75 124.422 312.75 125.25V131.25H310.5V123.75C310.5 122.922 309.828 122.25 309 122.25H303C302.172 122.25 301.5 122.922 301.5 123.75V140.25C301.5 141.078 302.172 141.75 303 141.75H309C309.828 141.75 310.5 141.078 310.5 140.25V132.75H312.75V138.75C312.75 139.578 313.422 140.25 314.25 140.25H316.5V141C316.5 141.828 317.172 142.5 318 142.5H321C321.828 142.5 322.5 141.828 322.5 141V138C322.5 137.172 321.828 136.5 321 136.5H318C317.172 136.5 316.5 137.172 316.5 138V138.75H314.25V132.75H316.5V133.5C316.5 134.328 317.172 135 318 135H321C321.828 135 322.5 134.328 322.5 133.5V130.5C322.5 129.672 321.828 129 321 129H318C317.172 129 316.5 129.672 316.5 130.5V131.25H314.25V125.25H316.5V126C316.5 126.828 317.172 127.5 318 127.5ZM318 123H321V126H318V123ZM308.549 129L303 133.44V124.56L308.549 129ZM309 130.56L309.001 139.44L303.451 135L309 130.56ZM309 127.44L304.388 123.75H309L309 127.44L309 127.44ZM303 136.56L307.612 140.25H303V136.56ZM318 138H321V141H318V138ZM318 130.5H321V133.5H318V130.5Z" fill="white"/>
</g>
<rect width="216" height="92" transform="translate(12 140)" fill="white" fill-opacity="0.01" style="mix-blend-mode:multiply"/>
<rect width="48" height="48" transform="translate(96 140)" fill="white" fill-opacity="0.01" style="mix-blend-mode:multiply"/>
<circle cx="120" cy="164" r="24" fill="#0F62FE"/>
<rect width="24" height="24" transform="translate(108 152)" fill="white" fill-opacity="0.01" style="mix-blend-mode:multiply"/>
<path d="M120 158C119.258 158 118.533 158.22 117.917 158.632C117.3 159.044 116.819 159.63 116.535 160.315C116.252 161 116.177 161.754 116.322 162.482C116.467 163.209 116.824 163.877 117.348 164.402C117.873 164.926 118.541 165.283 119.268 165.428C119.996 165.573 120.75 165.498 121.435 165.215C122.12 164.931 122.706 164.45 123.118 163.833C123.53 163.217 123.75 162.492 123.75 161.75C123.75 160.755 123.355 159.802 122.652 159.098C121.948 158.395 120.995 158 120 158Z" fill="white"/>
<path d="M120 153.5C117.923 153.5 115.893 154.116 114.167 155.27C112.44 156.423 111.094 158.063 110.299 159.982C109.505 161.9 109.297 164.012 109.702 166.048C110.107 168.085 111.107 169.956 112.575 171.425C114.044 172.893 115.915 173.893 117.952 174.298C119.988 174.703 122.1 174.495 124.018 173.701C125.937 172.906 127.577 171.56 128.73 169.833C129.884 168.107 130.5 166.077 130.5 164C130.497 161.216 129.39 158.547 127.421 156.579C125.453 154.61 122.784 153.503 120 153.5ZM125.994 170.694C125.979 169.711 125.579 168.772 124.878 168.081C124.178 167.39 123.234 167.002 122.25 167H117.75C116.766 167.002 115.822 167.39 115.122 168.081C114.421 168.772 114.021 169.711 114.006 170.694C112.646 169.48 111.686 167.881 111.255 166.109C110.824 164.338 110.941 162.477 111.591 160.773C112.241 159.07 113.393 157.604 114.895 156.569C116.396 155.535 118.177 154.981 120 154.981C121.823 154.981 123.604 155.535 125.105 156.569C126.607 157.604 127.759 159.07 128.409 160.773C129.059 162.477 129.176 164.338 128.745 166.109C128.314 167.881 127.354 169.48 125.994 170.694Z" fill="white"/>
<path d="M83.1599 210H81.2419L80.4579 207.508H76.9859L76.2159 210H74.3399L77.6159 200.228H79.9119L83.1599 210ZM80.0099 205.926L78.7499 201.908H78.6799L77.4339 205.926H80.0099ZM89.1841 210V208.782H89.1141C88.8481 209.608 88.0641 210.168 87.0981 210.168C85.2641 210.168 84.2421 208.782 84.2421 206.332C84.2421 203.896 85.2641 202.524 87.0981 202.524C88.0641 202.524 88.8621 203.056 89.1141 203.896H89.1841V199.64H90.9761V210H89.1841ZM87.6721 208.684C88.5261 208.684 89.1841 208.25 89.1841 207.494V205.17C89.1841 204.456 88.5261 203.994 87.6721 203.994C86.7481 203.994 86.1181 204.68 86.1181 205.716V206.976C86.1181 208.012 86.7481 208.684 87.6721 208.684ZM94.9946 210H93.2026V202.692H94.9946V203.91H95.0646C95.3446 203.14 95.9326 202.524 97.0246 202.524C98.0186 202.524 98.7886 203.014 99.1386 203.994H99.1666C99.4326 203.182 100.245 202.524 101.407 202.524C102.835 202.524 103.647 203.56 103.647 205.38V210H101.855V205.562C101.855 204.512 101.477 203.994 100.679 203.994C99.9786 203.994 99.3206 204.386 99.3206 205.17V210H97.5286V205.562C97.5286 204.512 97.1506 203.994 96.3526 203.994C95.6666 203.994 94.9946 204.386 94.9946 205.17V210ZM106.686 201.628C105.944 201.628 105.636 201.25 105.636 200.732V200.452C105.636 199.934 105.944 199.556 106.686 199.556C107.414 199.556 107.736 199.934 107.736 200.452V200.732C107.736 201.25 107.414 201.628 106.686 201.628ZM105.79 210V202.692H107.582V210H105.79ZM111.612 210H109.82V202.692H111.612V203.91H111.682C111.976 203.126 112.592 202.524 113.726 202.524C115.224 202.524 116.064 203.56 116.064 205.38V210H114.272V205.562C114.272 204.526 113.922 203.994 113.068 203.994C112.326 203.994 111.612 204.386 111.612 205.17V210ZM119.106 201.628C118.364 201.628 118.056 201.25 118.056 200.732V200.452C118.056 199.934 118.364 199.556 119.106 199.556C119.834 199.556 120.156 199.934 120.156 200.452V200.732C120.156 201.25 119.834 201.628 119.106 201.628ZM118.21 210V202.692H120.002V210H118.21ZM124.633 210.168C123.247 210.168 122.337 209.664 121.609 208.824L122.701 207.76C123.233 208.376 123.877 208.754 124.703 208.754C125.557 208.754 125.921 208.432 125.921 207.914C125.921 207.494 125.669 207.228 125.025 207.144L124.297 207.046C122.729 206.85 121.861 206.164 121.861 204.834C121.861 203.42 122.967 202.524 124.633 202.524C126.061 202.524 126.789 202.944 127.489 203.672L126.439 204.722C126.019 204.274 125.403 203.938 124.689 203.938C123.919 203.938 123.583 204.246 123.583 204.694C123.583 205.184 123.849 205.408 124.535 205.52L125.277 205.618C126.873 205.842 127.643 206.556 127.643 207.774C127.643 209.188 126.453 210.168 124.633 210.168ZM131.558 210C130.326 210 129.668 209.328 129.668 208.138V204.12H128.59V202.692H129.15C129.682 202.692 129.85 202.44 129.85 201.936V200.69H131.46V202.692H132.958V204.12H131.46V208.572H132.846V210H131.558ZM136.464 210H134.672V202.692H136.464V204.204H136.534C136.716 203.434 137.304 202.692 138.466 202.692H138.858V204.386H138.298C137.094 204.386 136.464 204.722 136.464 205.52V210ZM141.984 210.168C140.5 210.168 139.66 209.314 139.66 208.012C139.66 206.514 140.794 205.772 142.782 205.772H144.028V205.24C144.028 204.428 143.622 203.952 142.67 203.952C141.83 203.952 141.354 204.372 141.004 204.876L139.94 203.924C140.472 203.084 141.326 202.524 142.796 202.524C144.77 202.524 145.82 203.462 145.82 205.128V208.572H146.548V210H145.554C144.784 210 144.308 209.496 144.196 208.74H144.112C143.874 209.678 143.076 210.168 141.984 210.168ZM142.586 208.866C143.384 208.866 144.028 208.502 144.028 207.816V206.85H142.88C141.942 206.85 141.48 207.172 141.48 207.746V207.984C141.48 208.572 141.886 208.866 142.586 208.866ZM150.386 210C149.154 210 148.496 209.328 148.496 208.138V204.12H147.418V202.692H147.978C148.51 202.692 148.678 202.44 148.678 201.936V200.69H150.288V202.692H151.786V204.12H150.288V208.572H151.674V210H150.386ZM156.343 210.168C154.257 210.168 152.955 208.684 152.955 206.332C152.955 203.994 154.257 202.524 156.343 202.524C158.443 202.524 159.745 203.994 159.745 206.332C159.745 208.684 158.443 210.168 156.343 210.168ZM156.343 208.726C157.281 208.726 157.869 208.124 157.869 207.018V205.66C157.869 204.568 157.281 203.966 156.343 203.966C155.419 203.966 154.831 204.568 154.831 205.66V207.018C154.831 208.124 155.419 208.726 156.343 208.726ZM163.286 210H161.494V202.692H163.286V204.204H163.356C163.538 203.434 164.126 202.692 165.288 202.692H165.68V204.386H165.12C163.916 204.386 163.286 204.722 163.286 205.52V210Z" fill="black"/>
<path d="M85.9699 228H84.6679L82.1339 220.776H83.2539L84.5139 224.36L85.2979 226.824H85.3679L86.1519 224.36L87.4399 220.776H88.5179L85.9699 228ZM90.6825 219.082C90.2065 219.082 89.9965 218.83 89.9965 218.452V218.27C89.9965 217.892 90.2065 217.64 90.6825 217.64C91.1585 217.64 91.3685 217.892 91.3685 218.27V218.452C91.3685 218.83 91.1585 219.082 90.6825 219.082ZM90.1225 228V220.776H91.2425V228H90.1225ZM94.9025 228H93.7825V220.776H94.9025V222.106H94.9725C95.2245 221.42 95.8825 220.776 97.0585 220.776H97.4925V221.896H96.8345C95.6305 221.896 94.9025 222.414 94.9025 223.1V228ZM102.134 228H100.734C99.9638 228 99.5438 227.51 99.5438 226.81V221.756H98.3538V220.776H99.0258C99.5018 220.776 99.6558 220.608 99.6558 220.118V218.774H100.664V220.776H102.246V221.756H100.664V227.02H102.134V228ZM106.376 228.168C105.046 228.168 104.164 227.608 103.52 226.754L104.318 226.11C104.878 226.81 105.55 227.216 106.46 227.216C107.412 227.216 107.972 226.782 107.972 226.04C107.972 225.48 107.664 225.046 106.712 224.906L106.138 224.822C104.808 224.626 103.814 224.08 103.814 222.736C103.814 221.308 104.92 220.608 106.39 220.608C107.552 220.608 108.322 221.042 108.91 221.77L108.168 222.442C107.846 221.994 107.23 221.56 106.306 221.56C105.382 221.56 104.892 221.994 104.892 222.68C104.892 223.38 105.382 223.66 106.278 223.8L106.838 223.884C108.434 224.122 109.05 224.822 109.05 225.914C109.05 227.314 108.028 228.168 106.376 228.168ZM111.188 228V217.64H112.308V221.952H112.364C112.714 221.14 113.33 220.608 114.408 220.608C115.892 220.608 116.83 221.616 116.83 223.366V228H115.71V223.562C115.71 222.274 115.15 221.616 114.072 221.616C113.176 221.616 112.308 222.064 112.308 222.988V228H111.188ZM127.226 228V226.824H127.17C126.89 227.51 126.344 228.168 125.14 228.168C123.656 228.168 122.704 227.16 122.704 225.41V220.776H123.824V225.214C123.824 226.502 124.398 227.16 125.476 227.16C126.358 227.16 127.226 226.726 127.226 225.774V220.776H128.346V228H127.226ZM133.887 228H132.487C131.717 228 131.297 227.51 131.297 226.81V221.756H130.107V220.776H130.779C131.255 220.776 131.409 220.608 131.409 220.118V218.774H132.417V220.776H133.999V221.756H132.417V227.02H133.887V228ZM136.519 219.082C136.043 219.082 135.833 218.83 135.833 218.452V218.27C135.833 217.892 136.043 217.64 136.519 217.64C136.995 217.64 137.205 217.892 137.205 218.27V218.452C137.205 218.83 136.995 219.082 136.519 219.082ZM135.959 228V220.776H137.079V228H135.959ZM141.803 228H140.809C140.039 228 139.619 227.51 139.619 226.838V217.64H140.739V227.02H141.803V228ZM144.154 219.082C143.678 219.082 143.468 218.83 143.468 218.452V218.27C143.468 217.892 143.678 217.64 144.154 217.64C144.63 217.64 144.84 217.892 144.84 218.27V218.452C144.84 218.83 144.63 219.082 144.154 219.082ZM143.594 228V220.776H144.714V228H143.594ZM150.25 228H148.85C148.08 228 147.66 227.51 147.66 226.81V221.756H146.47V220.776H147.142C147.618 220.776 147.772 220.608 147.772 220.118V218.774H148.78V220.776H150.362V221.756H148.78V227.02H150.25V228ZM155.024 225.69L156.774 220.776H157.88L154.646 229.68C154.324 230.548 154.03 230.8 152.966 230.8H152.392V229.82H153.526L154.072 228.28L151.37 220.776H152.49L154.226 225.69L154.562 226.866H154.632L155.024 225.69Z" fill="black"/>
<rect width="216" height="92" transform="translate(12 290)" fill="white" fill-opacity="0.01" style="mix-blend-mode:multiply"/>
<rect width="48" height="48" transform="translate(96 290)" fill="white" fill-opacity="0.01" style="mix-blend-mode:multiply"/>
<circle cx="120" cy="314" r="24" fill="#0F62FE"/>
<rect width="24" height="24" transform="translate(108 302)" fill="white" fill-opacity="0.01" style="mix-blend-mode:multiply"/>
<path d="M120 308C119.258 308 118.533 308.22 117.917 308.632C117.3 309.044 116.819 309.63 116.535 310.315C116.252 311 116.177 311.754 116.322 312.482C116.467 313.209 116.824 313.877 117.348 314.402C117.873 314.926 118.541 315.283 119.268 315.428C119.996 315.573 120.75 315.498 121.435 315.215C122.12 314.931 122.706 314.45 123.118 313.833C123.53 313.217 123.75 312.492 123.75 311.75C123.75 310.755 123.355 309.802 122.652 309.098C121.948 308.395 120.995 308 120 308Z" fill="white"/>
<path d="M120 303.5C117.923 303.5 115.893 304.116 114.167 305.27C112.44 306.423 111.094 308.063 110.299 309.982C109.505 311.9 109.297 314.012 109.702 316.048C110.107 318.085 111.107 319.956 112.575 321.425C114.044 322.893 115.915 323.893 117.952 324.298C119.988 324.703 122.1 324.495 124.018 323.701C125.937 322.906 127.577 321.56 128.73 319.833C129.884 318.107 130.5 316.077 130.5 314C130.497 311.216 129.39 308.547 127.421 306.579C125.453 304.61 122.784 303.503 120 303.5ZM125.994 320.694C125.979 319.711 125.579 318.772 124.878 318.081C124.178 317.39 123.234 317.002 122.25 317H117.75C116.766 317.002 115.822 317.39 115.122 318.081C114.421 318.772 114.021 319.711 114.006 320.694C112.646 319.48 111.686 317.881 111.255 316.109C110.824 314.338 110.941 312.477 111.591 310.773C112.241 309.07 113.393 307.604 114.895 306.569C116.396 305.535 118.177 304.981 120 304.981C121.823 304.981 123.604 305.535 125.105 306.569C126.607 307.604 127.759 309.07 128.409 310.773C129.059 312.477 129.176 314.338 128.745 316.109C128.314 317.881 127.354 319.48 125.994 320.694Z" fill="white"/>
<path d="M87.4699 360V350.228H91.0259C93.5739 350.228 95.2399 351.866 95.2399 355.114C95.2399 358.362 93.5739 360 91.0259 360H87.4699ZM89.3179 358.362H91.0259C92.3979 358.362 93.2799 357.55 93.2799 355.884V354.344C93.2799 352.678 92.3979 351.866 91.0259 351.866H89.3179V358.362ZM100.124 360.168C97.9683 360.168 96.6803 358.67 96.6803 356.332C96.6803 354.022 97.9263 352.524 100.068 352.524C102.35 352.524 103.4 354.204 103.4 356.206V356.794H98.5423V356.976C98.5423 358.026 99.1443 358.74 100.32 358.74C101.202 358.74 101.734 358.32 102.182 357.746L103.148 358.824C102.546 359.65 101.482 360.168 100.124 360.168ZM100.096 353.868C99.1583 353.868 98.5423 354.568 98.5423 355.576V355.688H101.538V355.562C101.538 354.554 101.02 353.868 100.096 353.868ZM108.71 360H106.582L104.146 352.692H105.91L106.932 355.842L107.646 358.446H107.744L108.458 355.842L109.452 352.692H111.16L108.71 360ZM115.36 360.168C113.204 360.168 111.916 358.67 111.916 356.332C111.916 354.022 113.162 352.524 115.304 352.524C117.586 352.524 118.636 354.204 118.636 356.206V356.794H113.778V356.976C113.778 358.026 114.38 358.74 115.556 358.74C116.438 358.74 116.97 358.32 117.418 357.746L118.384 358.824C117.782 359.65 116.718 360.168 115.36 360.168ZM115.332 353.868C114.394 353.868 113.778 354.568 113.778 355.576V355.688H116.774V355.562C116.774 354.554 116.256 353.868 115.332 353.868ZM123.131 360H122.165C120.947 360 120.373 359.356 120.373 358.236V349.64H122.165V358.572H123.131V360ZM127.546 360.168C125.46 360.168 124.158 358.684 124.158 356.332C124.158 353.994 125.46 352.524 127.546 352.524C129.646 352.524 130.948 353.994 130.948 356.332C130.948 358.684 129.646 360.168 127.546 360.168ZM127.546 358.726C128.484 358.726 129.072 358.124 129.072 357.018V355.66C129.072 354.568 128.484 353.966 127.546 353.966C126.622 353.966 126.034 354.568 126.034 355.66V357.018C126.034 358.124 126.622 358.726 127.546 358.726ZM132.697 362.8V352.692H134.489V353.896H134.545C134.811 353.056 135.595 352.524 136.561 352.524C138.409 352.524 139.431 353.896 139.431 356.332C139.431 358.782 138.409 360.168 136.561 360.168C135.595 360.168 134.825 359.608 134.545 358.782H134.489V362.8H132.697ZM135.987 358.684C136.911 358.684 137.555 358.012 137.555 356.976V355.716C137.555 354.68 136.911 353.994 135.987 353.994C135.133 353.994 134.489 354.456 134.489 355.17V357.494C134.489 358.25 135.133 358.684 135.987 358.684ZM144.205 360.168C142.049 360.168 140.761 358.67 140.761 356.332C140.761 354.022 142.007 352.524 144.149 352.524C146.431 352.524 147.481 354.204 147.481 356.206V356.794H142.623V356.976C142.623 358.026 143.225 358.74 144.401 358.74C145.283 358.74 145.815 358.32 146.263 357.746L147.229 358.824C146.627 359.65 145.563 360.168 144.205 360.168ZM144.177 353.868C143.239 353.868 142.623 354.568 142.623 355.576V355.688H145.619V355.562C145.619 354.554 145.101 353.868 144.177 353.868ZM151.01 360H149.218V352.692H151.01V354.204H151.08C151.262 353.434 151.85 352.692 153.012 352.692H153.404V354.386H152.844C151.64 354.386 151.01 354.722 151.01 355.52V360Z" fill="black"/>
<path d="M95.4464 378V367.64H96.5664V371.952H96.6224C97.0004 371.042 97.7424 370.608 98.7364 370.608C100.542 370.608 101.676 372.078 101.676 374.388C101.676 376.698 100.542 378.168 98.7364 378.168C97.7424 378.168 97.0564 377.72 96.6224 376.824H96.5664V378H95.4464ZM98.4284 377.16C99.6884 377.16 100.472 376.292 100.472 375.004V373.772C100.472 372.484 99.6884 371.616 98.4284 371.616C97.4064 371.616 96.5664 372.204 96.5664 373.002V375.69C96.5664 376.628 97.4064 377.16 98.4284 377.16ZM108.18 378V376.824H108.124C107.844 377.51 107.298 378.168 106.094 378.168C104.61 378.168 103.658 377.16 103.658 375.41V370.776H104.778V375.214C104.778 376.502 105.352 377.16 106.43 377.16C107.312 377.16 108.18 376.726 108.18 375.774V370.776H109.3V378H108.18ZM112.405 369.082C111.929 369.082 111.719 368.83 111.719 368.452V368.27C111.719 367.892 111.929 367.64 112.405 367.64C112.881 367.64 113.091 367.892 113.091 368.27V368.452C113.091 368.83 112.881 369.082 112.405 369.082ZM111.845 378V370.776H112.965V378H111.845ZM117.689 378H116.695C115.925 378 115.505 377.51 115.505 376.838V367.64H116.625V377.02H117.689V378ZM124.099 378V376.824H124.043C123.609 377.72 122.923 378.168 121.929 378.168C120.123 378.168 118.989 376.698 118.989 374.388C118.989 372.078 120.123 370.608 121.929 370.608C122.923 370.608 123.665 371.042 124.043 371.952H124.099V367.64H125.219V378H124.099ZM122.237 377.16C123.259 377.16 124.099 376.628 124.099 375.69V373.002C124.099 372.204 123.259 371.616 122.237 371.616C120.977 371.616 120.193 372.484 120.193 373.772V375.004C120.193 376.292 120.977 377.16 122.237 377.16ZM128.474 378.168C127.886 378.168 127.62 377.832 127.62 377.356V377.174C127.62 376.698 127.886 376.362 128.474 376.362C129.062 376.362 129.328 376.698 129.328 377.174V377.356C129.328 377.832 129.062 378.168 128.474 378.168ZM131.735 380.8V370.776H132.855V371.952H132.911C133.289 371.042 134.031 370.608 135.025 370.608C136.831 370.608 137.965 372.078 137.965 374.388C137.965 376.698 136.831 378.168 135.025 378.168C134.031 378.168 133.345 377.72 132.911 376.824H132.855V380.8H131.735ZM134.717 377.16C135.977 377.16 136.761 376.292 136.761 375.004V373.772C136.761 372.484 135.977 371.616 134.717 371.616C133.695 371.616 132.855 372.204 132.855 373.002V375.69C132.855 376.628 133.695 377.16 134.717 377.16ZM142.649 375.69L144.399 370.776H145.505L142.271 379.68C141.949 380.548 141.655 380.8 140.591 380.8H140.017V379.82H141.151L141.697 378.28L138.995 370.776H140.115L141.851 375.69L142.187 376.866H142.257L142.649 375.69Z" fill="black"/>
<rect x="320.5" y="180.5" width="295" height="311" stroke="#0F62FE"/>
<rect x="321" y="181" width="294" height="310" fill="white"/>
<rect x="321" y="181" width="294" height="310" fill="#EDF5FF"/>
<g clip-path="url(#clip1_19_9852)">
<path d="M389.18 200H384.742V198.516H386.03V191.712H384.742V190.228H389.18V191.712H387.878V198.516H389.18V200ZM391.228 200V190.228H395.75C397.36 190.228 398.34 191.222 398.34 192.734C398.34 194.218 397.486 194.778 396.59 194.834V194.918C397.444 194.932 398.704 195.534 398.704 197.2C398.704 198.768 397.626 200 396.184 200H391.228ZM393.076 195.814V198.432H395.652C396.352 198.432 396.772 198.054 396.772 197.368V196.892C396.772 196.206 396.352 195.814 395.652 195.814H393.076ZM393.076 191.796V194.302H395.358C396.03 194.302 396.422 193.91 396.422 193.266V192.832C396.422 192.174 396.03 191.796 395.358 191.796H393.076ZM400.671 200V190.228H402.757L405.263 195.002H405.319L407.797 190.228H409.799V200H408.049V192.986H407.993L407.237 194.54L405.235 198.236L403.233 194.54L402.477 192.986H402.421V200H400.671ZM421.651 200V195.87H417.577V200H415.729V190.228H417.577V194.232H421.651V190.228H423.499V200H421.651ZM429.046 196.556L430.32 192.692H432L429.06 201.302C428.696 202.352 428.178 202.8 426.974 202.8H425.896V201.372H427.212L427.548 200.35L424.93 192.692H426.708L427.982 196.556L428.458 198.404H428.542L429.046 196.556ZM433.342 202.8V192.692H435.134V193.896H435.19C435.456 193.056 436.24 192.524 437.206 192.524C439.054 192.524 440.076 193.896 440.076 196.332C440.076 198.782 439.054 200.168 437.206 200.168C436.24 200.168 435.47 199.608 435.19 198.782H435.134V202.8H433.342ZM436.632 198.684C437.556 198.684 438.2 198.012 438.2 196.976V195.716C438.2 194.68 437.556 193.994 436.632 193.994C435.778 193.994 435.134 194.456 435.134 195.17V197.494C435.134 198.25 435.778 198.684 436.632 198.684ZM444.85 200.168C442.694 200.168 441.406 198.67 441.406 196.332C441.406 194.022 442.652 192.524 444.794 192.524C447.076 192.524 448.126 194.204 448.126 196.206V196.794H443.268V196.976C443.268 198.026 443.87 198.74 445.046 198.74C445.928 198.74 446.46 198.32 446.908 197.746L447.874 198.824C447.272 199.65 446.208 200.168 444.85 200.168ZM444.822 193.868C443.884 193.868 443.268 194.568 443.268 195.576V195.688H446.264V195.562C446.264 194.554 445.746 193.868 444.822 193.868ZM451.655 200H449.863V192.692H451.655V194.204H451.725C451.907 193.434 452.495 192.692 453.657 192.692H454.049V194.386H453.489C452.285 194.386 451.655 194.722 451.655 195.52V200ZM460.948 200H459.1V190.228H463.496C465.302 190.228 466.394 191.446 466.394 193.252C466.394 195.072 465.302 196.276 463.496 196.276H460.948V200ZM460.948 191.838V194.68H463.328C464.042 194.68 464.476 194.288 464.476 193.574V192.93C464.476 192.216 464.042 191.838 463.328 191.838H460.948ZM469.772 200H467.98V192.692H469.772V194.204H469.842C470.024 193.434 470.612 192.692 471.774 192.692H472.166V194.386H471.606C470.402 194.386 469.772 194.722 469.772 195.52V200ZM476.465 200.168C474.379 200.168 473.077 198.684 473.077 196.332C473.077 193.994 474.379 192.524 476.465 192.524C478.565 192.524 479.867 193.994 479.867 196.332C479.867 198.684 478.565 200.168 476.465 200.168ZM476.465 198.726C477.403 198.726 477.991 198.124 477.991 197.018V195.66C477.991 194.568 477.403 193.966 476.465 193.966C475.541 193.966 474.953 194.568 474.953 195.66V197.018C474.953 198.124 475.541 198.726 476.465 198.726ZM483.843 200C482.611 200 481.953 199.328 481.953 198.138V194.12H480.875V192.692H481.435C481.967 192.692 482.135 192.44 482.135 191.936V190.69H483.745V192.692H485.243V194.12H483.745V198.572H485.131V200H483.843ZM489.857 200.168C487.701 200.168 486.413 198.67 486.413 196.332C486.413 194.022 487.659 192.524 489.801 192.524C492.083 192.524 493.133 194.204 493.133 196.206V196.794H488.275V196.976C488.275 198.026 488.877 198.74 490.053 198.74C490.935 198.74 491.467 198.32 491.915 197.746L492.881 198.824C492.279 199.65 491.215 200.168 489.857 200.168ZM489.829 193.868C488.891 193.868 488.275 194.568 488.275 195.576V195.688H491.271V195.562C491.271 194.554 490.753 193.868 489.829 193.868ZM497.754 200.168C495.598 200.168 494.38 198.684 494.38 196.332C494.38 193.994 495.598 192.524 497.754 192.524C499.224 192.524 500.19 193.224 500.624 194.372L499.154 195.03C498.986 194.414 498.524 193.966 497.754 193.966C496.76 193.966 496.256 194.666 496.256 195.688V197.018C496.256 198.04 496.76 198.726 497.754 198.726C498.608 198.726 499.028 198.236 499.294 197.578L500.666 198.236C500.19 199.524 499.168 200.168 497.754 200.168ZM504.489 200C503.257 200 502.599 199.328 502.599 198.138V194.12H501.521V192.692H502.081C502.613 192.692 502.781 192.44 502.781 191.936V190.69H504.391V192.692H505.889V194.12H504.391V198.572H505.777V200H504.489ZM515.552 200H513.452L510.26 190.228H512.15L513.648 194.988L514.516 198.236H514.558L515.412 194.988L516.91 190.228H518.744L515.552 200ZM521.056 191.628C520.314 191.628 520.006 191.25 520.006 190.732V190.452C520.006 189.934 520.314 189.556 521.056 189.556C521.784 189.556 522.106 189.934 522.106 190.452V190.732C522.106 191.25 521.784 191.628 521.056 191.628ZM520.16 200V192.692H521.952V200H520.16ZM525.981 200H524.189V192.692H525.981V194.204H526.051C526.233 193.434 526.821 192.692 527.983 192.692H528.375V194.386H527.815C526.611 194.386 525.981 194.722 525.981 195.52V200ZM532.182 200C530.95 200 530.292 199.328 530.292 198.138V194.12H529.214V192.692H529.774C530.306 192.692 530.474 192.44 530.474 191.936V190.69H532.084V192.692H533.582V194.12H532.084V198.572H533.47V200H532.182ZM539.664 200V198.782H539.594C539.342 199.51 538.754 200.168 537.55 200.168C536.052 200.168 535.212 199.132 535.212 197.312V192.692H537.004V197.13C537.004 198.138 537.382 198.684 538.236 198.684C538.95 198.684 539.664 198.306 539.664 197.522V192.692H541.456V200H539.664ZM545.493 200.168C544.009 200.168 543.169 199.314 543.169 198.012C543.169 196.514 544.303 195.772 546.291 195.772H547.537V195.24C547.537 194.428 547.131 193.952 546.179 193.952C545.339 193.952 544.863 194.372 544.513 194.876L543.449 193.924C543.981 193.084 544.835 192.524 546.305 192.524C548.279 192.524 549.329 193.462 549.329 195.128V198.572H550.057V200H549.063C548.293 200 547.817 199.496 547.705 198.74H547.621C547.383 199.678 546.585 200.168 545.493 200.168ZM546.095 198.866C546.893 198.866 547.537 198.502 547.537 197.816V196.85H546.389C545.451 196.85 544.989 197.172 544.989 197.746V197.984C544.989 198.572 545.395 198.866 546.095 198.866ZM554.425 200H553.459C552.241 200 551.667 199.356 551.667 198.236V189.64H553.459V198.572H554.425V200ZM388.186 218.168C386.52 218.168 385.372 217.51 384.546 216.544L385.792 215.34C386.464 216.124 387.29 216.544 388.298 216.544C389.432 216.544 390.02 215.998 390.02 215.172C390.02 214.514 389.712 214.108 388.69 213.926L387.766 213.786C385.792 213.478 384.84 212.54 384.84 210.944C384.84 209.194 386.198 208.06 388.382 208.06C389.852 208.06 390.944 208.564 391.728 209.502L390.468 210.692C389.992 210.09 389.32 209.684 388.284 209.684C387.234 209.684 386.688 210.104 386.688 210.832C386.688 211.574 387.108 211.882 388.046 212.05L388.956 212.218C390.93 212.568 391.854 213.45 391.854 215.06C391.854 216.908 390.524 218.168 388.186 218.168ZM396.709 218.168C394.553 218.168 393.265 216.67 393.265 214.332C393.265 212.022 394.511 210.524 396.653 210.524C398.935 210.524 399.985 212.204 399.985 214.206V214.794H395.127V214.976C395.127 216.026 395.729 216.74 396.905 216.74C397.787 216.74 398.319 216.32 398.767 215.746L399.733 216.824C399.131 217.65 398.067 218.168 396.709 218.168ZM396.681 211.868C395.743 211.868 395.127 212.568 395.127 213.576V213.688H398.123V213.562C398.123 212.554 397.605 211.868 396.681 211.868ZM403.513 218H401.721V210.692H403.513V212.204H403.583C403.765 211.434 404.353 210.692 405.515 210.692H405.907V212.386H405.347C404.143 212.386 403.513 212.722 403.513 213.52V218ZM411.183 218H409.055L406.619 210.692H408.383L409.405 213.842L410.119 216.446H410.217L410.931 213.842L411.925 210.692H413.633L411.183 218ZM417.833 218.168C415.677 218.168 414.389 216.67 414.389 214.332C414.389 212.022 415.635 210.524 417.777 210.524C420.059 210.524 421.109 212.204 421.109 214.206V214.794H416.251V214.976C416.251 216.026 416.853 216.74 418.029 216.74C418.911 216.74 419.443 216.32 419.891 215.746L420.857 216.824C420.255 217.65 419.191 218.168 417.833 218.168ZM417.805 211.868C416.867 211.868 416.251 212.568 416.251 213.576V213.688H419.247V213.562C419.247 212.554 418.729 211.868 417.805 211.868ZM424.638 218H422.846V210.692H424.638V212.204H424.708C424.89 211.434 425.478 210.692 426.64 210.692H427.032V212.386H426.472C425.268 212.386 424.638 212.722 424.638 213.52V218ZM438.578 216.446V218H431.802V216.292L434.868 213.604C435.904 212.694 436.38 212.022 436.38 211.168V210.986C436.38 210.132 435.736 209.656 434.938 209.656C433.93 209.656 433.454 210.314 433.23 211.112L431.634 210.496C432.054 209.194 433.104 208.06 435.092 208.06C437.15 208.06 438.326 209.292 438.326 210.972C438.326 212.596 437.22 213.632 435.862 214.752L433.804 216.446H438.578ZM441.575 218.154C440.819 218.154 440.455 217.72 440.455 217.132V216.88C440.455 216.278 440.819 215.844 441.575 215.844C442.345 215.844 442.695 216.278 442.695 216.88V217.132C442.695 217.72 442.345 218.154 441.575 218.154ZM451.827 218H445.093V216.502H447.781V209.558H447.655L445.527 212.078L444.379 211.112L446.801 208.228H449.587V216.502H451.827V218ZM454.459 218.154C453.703 218.154 453.339 217.72 453.339 217.132V216.88C453.339 216.278 453.703 215.844 454.459 215.844C455.229 215.844 455.579 216.278 455.579 216.88V217.132C455.579 217.72 455.229 218.154 454.459 218.154ZM456.969 218L459.461 214.29L457.025 210.692H459.069L460.581 213.114H460.637L462.135 210.692H464.039L461.561 214.318L464.053 218H462.009L460.469 215.48H460.413L458.873 218H456.969Z" fill="black"/>
<rect width="48" height="48" transform="translate(320 180)" fill="#0F62FE"/>
<path d="M347 205.5V210.375C347 211.8 347.825 213.15 349.175 213.75L350.75 214.5L352.325 213.75C353.6 213.15 354.5 211.8 354.5 210.375V205.5H347ZM353 210.375C353 211.275 352.475 212.025 351.725 212.4L350.75 212.85L349.775 212.4C349.025 212.025 348.5 211.2 348.5 210.375V207H353V210.375Z" fill="white"/>
<path d="M350.75 193.5H335.75C334.925 193.5 334.25 194.175 334.25 195V211.5C334.25 212.325 334.925 213 335.75 213H344V195H350.75V203.25H352.25V195C352.25 194.175 351.575 193.5 350.75 193.5ZM342.2 201.15L335.75 209.925V195.825L342.2 201.15ZM336.5 211.5L342.5 203.325V211.5H336.5ZM342.5 199.425L337.1 195H342.5V199.425Z" fill="white"/>
</g>
<g clip-path="url(#clip2_19_9852)">
<path d="M510.34 406.5C509.28 403.588 506.413 401.5 503.042 401.5C498.766 401.5 495.292 404.863 495.292 409C495.292 413.137 498.766 416.5 503.042 416.5C506.413 416.5 509.28 414.413 510.34 411.5H515.958V416.5H521.125V411.5H523.708V406.5H510.34ZM503.042 411.5C501.621 411.5 500.458 410.375 500.458 409C500.458 407.625 501.621 406.5 503.042 406.5C504.462 406.5 505.625 407.625 505.625 409C505.625 410.375 504.462 411.5 503.042 411.5Z" fill="#0F62FE"/>
</g>
<g clip-path="url(#clip3_19_9852)">
<path d="M510.34 411.5C509.28 414.412 506.413 416.5 503.042 416.5C498.766 416.5 495.292 413.137 495.292 409C495.292 404.863 498.766 401.5 503.042 401.5C506.413 401.5 509.28 403.587 510.34 406.5H515.958V401.5H521.125V406.5H523.708V411.5H510.34ZM503.042 406.5C501.621 406.5 500.458 407.625 500.458 409C500.458 410.375 501.621 411.5 503.042 411.5C504.462 411.5 505.625 410.375 505.625 409C505.625 407.625 504.462 406.5 503.042 406.5Z" fill="#0F62FE"/>
</g>
<rect width="216" height="92" transform="translate(360 371)" fill="white" fill-opacity="0.01" style="mix-blend-mode:multiply"/>
<rect width="48" height="48" transform="translate(444 371)" fill="white" fill-opacity="0.01" style="mix-blend-mode:multiply"/>
<circle cx="468" cy="395" r="24" fill="#0F62FE"/>
<rect width="24" height="24" transform="translate(456 383)" fill="white" fill-opacity="0.01" style="mix-blend-mode:multiply"/>
<path d="M478.5 401V399.5H476.924C476.827 399.031 476.641 398.584 476.375 398.185L477.493 397.068L476.432 396.007L475.315 397.125C474.916 396.859 474.469 396.673 474 396.576V395H472.5V396.576C472.031 396.673 471.584 396.859 471.185 397.125L470.068 396.007L469.007 397.068L470.125 398.185C469.859 398.584 469.673 399.031 469.576 399.5H468V401H469.576C469.673 401.469 469.859 401.916 470.125 402.315L469.007 403.432L470.068 404.493L471.185 403.375C471.584 403.641 472.031 403.827 472.5 403.924V405.5H474V403.924C474.469 403.827 474.916 403.641 475.315 403.375L476.432 404.493L477.493 403.432L476.375 402.315C476.641 401.916 476.827 401.469 476.924 401H478.5ZM473.25 402.5C472.805 402.5 472.37 402.368 472 402.121C471.63 401.874 471.342 401.522 471.171 401.111C471.001 400.7 470.956 400.248 471.043 399.811C471.13 399.375 471.344 398.974 471.659 398.659C471.974 398.344 472.375 398.13 472.811 398.043C473.248 397.956 473.7 398.001 474.111 398.171C474.522 398.342 474.874 398.63 475.121 399C475.368 399.37 475.5 399.805 475.5 400.25C475.499 400.847 475.262 401.418 474.84 401.84C474.418 402.262 473.847 402.499 473.25 402.5Z" fill="white"/>
<path d="M466.5 403L464.074 401.707C462.994 401.132 462.09 400.274 461.46 399.224C460.831 398.175 460.499 396.974 460.5 395.75V386H475.5V393.5H477V386C477 385.602 476.841 385.221 476.56 384.94C476.279 384.659 475.898 384.5 475.5 384.5H460.5C460.102 384.5 459.721 384.659 459.44 384.94C459.159 385.221 459 385.602 459 386V395.75C458.998 397.246 459.404 398.714 460.174 399.996C460.943 401.279 462.048 402.328 463.368 403.03L466.5 404.7V403Z" fill="white"/>
<path d="M412.078 441.168C410.412 441.168 409.264 440.51 408.438 439.544L409.684 438.34C410.356 439.124 411.182 439.544 412.19 439.544C413.324 439.544 413.912 438.998 413.912 438.172C413.912 437.514 413.604 437.108 412.582 436.926L411.658 436.786C409.684 436.478 408.732 435.54 408.732 433.944C408.732 432.194 410.09 431.06 412.274 431.06C413.744 431.06 414.836 431.564 415.62 432.502L414.36 433.692C413.884 433.09 413.212 432.684 412.176 432.684C411.126 432.684 410.58 433.104 410.58 433.832C410.58 434.574 411 434.882 411.938 435.05L412.848 435.218C414.822 435.568 415.746 436.45 415.746 438.06C415.746 439.908 414.416 441.168 412.078 441.168ZM420.601 441.168C418.445 441.168 417.157 439.67 417.157 437.332C417.157 435.022 418.403 433.524 420.545 433.524C422.827 433.524 423.877 435.204 423.877 437.206V437.794H419.019V437.976C419.019 439.026 419.621 439.74 420.797 439.74C421.679 439.74 422.211 439.32 422.659 438.746L423.625 439.824C423.023 440.65 421.959 441.168 420.601 441.168ZM420.573 434.868C419.635 434.868 419.019 435.568 419.019 436.576V436.688H422.015V436.562C422.015 435.554 421.497 434.868 420.573 434.868ZM428.497 441.168C426.341 441.168 425.123 439.684 425.123 437.332C425.123 434.994 426.341 433.524 428.497 433.524C429.967 433.524 430.933 434.224 431.367 435.372L429.897 436.03C429.729 435.414 429.267 434.966 428.497 434.966C427.503 434.966 426.999 435.666 426.999 436.688V438.018C426.999 439.04 427.503 439.726 428.497 439.726C429.351 439.726 429.771 439.236 430.037 438.578L431.409 439.236C430.933 440.524 429.911 441.168 428.497 441.168ZM437.319 441V439.782H437.249C436.997 440.51 436.409 441.168 435.205 441.168C433.707 441.168 432.867 440.132 432.867 438.312V433.692H434.659V438.13C434.659 439.138 435.037 439.684 435.891 439.684C436.605 439.684 437.319 439.306 437.319 438.522V433.692H439.111V441H437.319ZM443.133 441H441.341V433.692H443.133V435.204H443.203C443.385 434.434 443.973 433.692 445.135 433.692H445.527V435.386H444.967C443.763 435.386 443.133 435.722 443.133 436.52V441ZM449.883 441.168C447.727 441.168 446.439 439.67 446.439 437.332C446.439 435.022 447.685 433.524 449.827 433.524C452.109 433.524 453.159 435.204 453.159 437.206V437.794H448.301V437.976C448.301 439.026 448.903 439.74 450.079 439.74C450.961 439.74 451.493 439.32 451.941 438.746L452.907 439.824C452.305 440.65 451.241 441.168 449.883 441.168ZM449.855 434.868C448.917 434.868 448.301 435.568 448.301 436.576V436.688H451.297V436.562C451.297 435.554 450.779 434.868 449.855 434.868ZM458.364 441V430.64H460.156V434.896H460.212C460.478 434.056 461.262 433.524 462.228 433.524C464.076 433.524 465.098 434.896 465.098 437.332C465.098 439.782 464.076 441.168 462.228 441.168C461.262 441.168 460.492 440.608 460.212 439.782H460.156V441H458.364ZM461.654 439.684C462.578 439.684 463.222 439.012 463.222 437.976V436.716C463.222 435.68 462.578 434.994 461.654 434.994C460.8 434.994 460.156 435.456 460.156 436.17V438.494C460.156 439.25 460.8 439.684 461.654 439.684ZM471.287 441V439.782H471.217C470.965 440.51 470.377 441.168 469.173 441.168C467.675 441.168 466.835 440.132 466.835 438.312V433.692H468.627V438.13C468.627 439.138 469.005 439.684 469.859 439.684C470.573 439.684 471.287 439.306 471.287 438.522V433.692H473.079V441H471.287ZM476.205 432.628C475.463 432.628 475.155 432.25 475.155 431.732V431.452C475.155 430.934 475.463 430.556 476.205 430.556C476.933 430.556 477.255 430.934 477.255 431.452V431.732C477.255 432.25 476.933 432.628 476.205 432.628ZM475.309 441V433.692H477.101V441H475.309ZM482.096 441H481.13C479.912 441 479.338 440.356 479.338 439.236V430.64H481.13V439.572H482.096V441ZM488.15 441V439.782H488.08C487.814 440.608 487.03 441.168 486.064 441.168C484.23 441.168 483.208 439.782 483.208 437.332C483.208 434.896 484.23 433.524 486.064 433.524C487.03 433.524 487.828 434.056 488.08 434.896H488.15V430.64H489.942V441H488.15ZM486.638 439.684C487.492 439.684 488.15 439.25 488.15 438.494V436.17C488.15 435.456 487.492 434.994 486.638 434.994C485.714 434.994 485.084 435.68 485.084 436.716V437.976C485.084 439.012 485.714 439.684 486.638 439.684ZM498.031 441.168C496.645 441.168 495.735 440.664 495.007 439.824L496.099 438.76C496.631 439.376 497.275 439.754 498.101 439.754C498.955 439.754 499.319 439.432 499.319 438.914C499.319 438.494 499.067 438.228 498.423 438.144L497.695 438.046C496.127 437.85 495.259 437.164 495.259 435.834C495.259 434.42 496.365 433.524 498.031 433.524C499.459 433.524 500.187 433.944 500.887 434.672L499.837 435.722C499.417 435.274 498.801 434.938 498.087 434.938C497.317 434.938 496.981 435.246 496.981 435.694C496.981 436.184 497.247 436.408 497.933 436.52L498.675 436.618C500.271 436.842 501.041 437.556 501.041 438.774C501.041 440.188 499.851 441.168 498.031 441.168ZM504.956 441C503.724 441 503.066 440.328 503.066 439.138V435.12H501.988V433.692H502.548C503.08 433.692 503.248 433.44 503.248 432.936V431.69H504.858V433.692H506.356V435.12H504.858V439.572H506.244V441H504.956ZM509.876 441.168C508.392 441.168 507.552 440.314 507.552 439.012C507.552 437.514 508.686 436.772 510.674 436.772H511.92V436.24C511.92 435.428 511.514 434.952 510.562 434.952C509.722 434.952 509.246 435.372 508.896 435.876L507.832 434.924C508.364 434.084 509.218 433.524 510.688 433.524C512.662 433.524 513.712 434.462 513.712 436.128V439.572H514.44V441H513.446C512.676 441 512.2 440.496 512.088 439.74H512.004C511.766 440.678 510.968 441.168 509.876 441.168ZM510.478 439.866C511.276 439.866 511.92 439.502 511.92 438.816V437.85H510.772C509.834 437.85 509.372 438.172 509.372 438.746V438.984C509.372 439.572 509.778 439.866 510.478 439.866ZM518.278 441C517.046 441 516.388 440.328 516.388 439.138V435.12H515.31V433.692H515.87C516.402 433.692 516.57 433.44 516.57 432.936V431.69H518.18V433.692H519.678V435.12H518.18V439.572H519.566V441H518.278ZM524.291 441.168C522.135 441.168 520.847 439.67 520.847 437.332C520.847 435.022 522.093 433.524 524.235 433.524C526.517 433.524 527.567 435.204 527.567 437.206V437.794H522.709V437.976C522.709 439.026 523.311 439.74 524.487 439.74C525.369 439.74 525.901 439.32 526.349 438.746L527.315 439.824C526.713 440.65 525.649 441.168 524.291 441.168ZM524.263 434.868C523.325 434.868 522.709 435.568 522.709 436.576V436.688H525.705V436.562C525.705 435.554 525.187 434.868 524.263 434.868Z" fill="black"/>
<rect x="352.5" y="289.5" width="226" height="47" stroke="#0F62FE"/>
<rect x="353" y="290" width="225" height="46" fill="white"/>
<rect x="353" y="290" width="225" height="46" fill="#EDF5FF"/>
<g clip-path="url(#clip4_19_9852)">
<path d="M433.396 309H428.958V307.516H430.246V300.712H428.958V299.228H433.396V300.712H432.094V307.516H433.396V309ZM435.444 309V299.228H439.966C441.576 299.228 442.556 300.222 442.556 301.734C442.556 303.218 441.702 303.778 440.806 303.834V303.918C441.66 303.932 442.92 304.534 442.92 306.2C442.92 307.768 441.842 309 440.4 309H435.444ZM437.292 304.814V307.432H439.868C440.568 307.432 440.988 307.054 440.988 306.368V305.892C440.988 305.206 440.568 304.814 439.868 304.814H437.292ZM437.292 300.796V303.302H439.574C440.246 303.302 440.638 302.91 440.638 302.266V301.832C440.638 301.174 440.246 300.796 439.574 300.796H437.292ZM444.887 309V299.228H446.973L449.479 304.002H449.535L452.013 299.228H454.015V309H452.265V301.986H452.209L451.453 303.54L449.451 307.236L447.449 303.54L446.693 301.986H446.637V309H444.887ZM465.868 309V304.87H461.794V309H459.946V299.228H461.794V303.232H465.868V299.228H467.716V309H465.868ZM473.262 305.556L474.536 301.692H476.216L473.276 310.302C472.912 311.352 472.394 311.8 471.19 311.8H470.112V310.372H471.428L471.764 309.35L469.146 301.692H470.924L472.198 305.556L472.674 307.404H472.758L473.262 305.556ZM477.558 311.8V301.692H479.35V302.896H479.406C479.672 302.056 480.456 301.524 481.422 301.524C483.27 301.524 484.292 302.896 484.292 305.332C484.292 307.782 483.27 309.168 481.422 309.168C480.456 309.168 479.686 308.608 479.406 307.782H479.35V311.8H477.558ZM480.848 307.684C481.772 307.684 482.416 307.012 482.416 305.976V304.716C482.416 303.68 481.772 302.994 480.848 302.994C479.994 302.994 479.35 303.456 479.35 304.17V306.494C479.35 307.25 479.994 307.684 480.848 307.684ZM489.066 309.168C486.91 309.168 485.622 307.67 485.622 305.332C485.622 303.022 486.868 301.524 489.01 301.524C491.292 301.524 492.342 303.204 492.342 305.206V305.794H487.484V305.976C487.484 307.026 488.086 307.74 489.262 307.74C490.144 307.74 490.676 307.32 491.124 306.746L492.09 307.824C491.488 308.65 490.424 309.168 489.066 309.168ZM489.038 302.868C488.1 302.868 487.484 303.568 487.484 304.576V304.688H490.48V304.562C490.48 303.554 489.962 302.868 489.038 302.868ZM495.871 309H494.079V301.692H495.871V303.204H495.941C496.123 302.434 496.711 301.692 497.873 301.692H498.265V303.386H497.705C496.501 303.386 495.871 303.722 495.871 304.52V309ZM505.164 309H503.316V299.228H507.712C509.518 299.228 510.61 300.446 510.61 302.252C510.61 304.072 509.518 305.276 507.712 305.276H505.164V309ZM505.164 300.838V303.68H507.544C508.258 303.68 508.692 303.288 508.692 302.574V301.93C508.692 301.216 508.258 300.838 507.544 300.838H505.164ZM513.988 309H512.196V301.692H513.988V303.204H514.058C514.24 302.434 514.828 301.692 515.99 301.692H516.382V303.386H515.822C514.618 303.386 513.988 303.722 513.988 304.52V309ZM520.681 309.168C518.595 309.168 517.293 307.684 517.293 305.332C517.293 302.994 518.595 301.524 520.681 301.524C522.781 301.524 524.083 302.994 524.083 305.332C524.083 307.684 522.781 309.168 520.681 309.168ZM520.681 307.726C521.619 307.726 522.207 307.124 522.207 306.018V304.66C522.207 303.568 521.619 302.966 520.681 302.966C519.757 302.966 519.169 303.568 519.169 304.66V306.018C519.169 307.124 519.757 307.726 520.681 307.726ZM528.059 309C526.827 309 526.169 308.328 526.169 307.138V303.12H525.091V301.692H525.651C526.183 301.692 526.351 301.44 526.351 300.936V299.69H527.961V301.692H529.459V303.12H527.961V307.572H529.347V309H528.059ZM534.073 309.168C531.917 309.168 530.629 307.67 530.629 305.332C530.629 303.022 531.875 301.524 534.017 301.524C536.299 301.524 537.349 303.204 537.349 305.206V305.794H532.491V305.976C532.491 307.026 533.093 307.74 534.269 307.74C535.151 307.74 535.683 307.32 536.131 306.746L537.097 307.824C536.495 308.65 535.431 309.168 534.073 309.168ZM534.045 302.868C533.107 302.868 532.491 303.568 532.491 304.576V304.688H535.487V304.562C535.487 303.554 534.969 302.868 534.045 302.868ZM541.97 309.168C539.814 309.168 538.596 307.684 538.596 305.332C538.596 302.994 539.814 301.524 541.97 301.524C543.44 301.524 544.406 302.224 544.84 303.372L543.37 304.03C543.202 303.414 542.74 302.966 541.97 302.966C540.976 302.966 540.472 303.666 540.472 304.688V306.018C540.472 307.04 540.976 307.726 541.97 307.726C542.824 307.726 543.244 307.236 543.51 306.578L544.882 307.236C544.406 308.524 543.384 309.168 541.97 309.168ZM548.705 309C547.473 309 546.815 308.328 546.815 307.138V303.12H545.737V301.692H546.297C546.829 301.692 546.997 301.44 546.997 300.936V299.69H548.607V301.692H550.105V303.12H548.607V307.572H549.993V309H548.705ZM451.702 327.168C450.036 327.168 448.888 326.51 448.062 325.544L449.308 324.34C449.98 325.124 450.806 325.544 451.814 325.544C452.948 325.544 453.536 324.998 453.536 324.172C453.536 323.514 453.228 323.108 452.206 322.926L451.282 322.786C449.308 322.478 448.356 321.54 448.356 319.944C448.356 318.194 449.714 317.06 451.898 317.06C453.368 317.06 454.46 317.564 455.244 318.502L453.984 319.692C453.508 319.09 452.836 318.684 451.8 318.684C450.75 318.684 450.204 319.104 450.204 319.832C450.204 320.574 450.624 320.882 451.562 321.05L452.472 321.218C454.446 321.568 455.37 322.45 455.37 324.06C455.37 325.908 454.04 327.168 451.702 327.168ZM460.224 327.168C458.068 327.168 456.78 325.67 456.78 323.332C456.78 321.022 458.026 319.524 460.168 319.524C462.45 319.524 463.5 321.204 463.5 323.206V323.794H458.642V323.976C458.642 325.026 459.244 325.74 460.42 325.74C461.302 325.74 461.834 325.32 462.282 324.746L463.248 325.824C462.646 326.65 461.582 327.168 460.224 327.168ZM460.196 320.868C459.258 320.868 458.642 321.568 458.642 322.576V322.688H461.638V322.562C461.638 321.554 461.12 320.868 460.196 320.868ZM468.121 327.168C465.965 327.168 464.747 325.684 464.747 323.332C464.747 320.994 465.965 319.524 468.121 319.524C469.591 319.524 470.557 320.224 470.991 321.372L469.521 322.03C469.353 321.414 468.891 320.966 468.121 320.966C467.127 320.966 466.623 321.666 466.623 322.688V324.018C466.623 325.04 467.127 325.726 468.121 325.726C468.975 325.726 469.395 325.236 469.661 324.578L471.033 325.236C470.557 326.524 469.535 327.168 468.121 327.168ZM476.942 327V325.782H476.872C476.62 326.51 476.032 327.168 474.828 327.168C473.33 327.168 472.49 326.132 472.49 324.312V319.692H474.282V324.13C474.282 325.138 474.66 325.684 475.514 325.684C476.228 325.684 476.942 325.306 476.942 324.522V319.692H478.734V327H476.942ZM482.757 327H480.965V319.692H482.757V321.204H482.827C483.009 320.434 483.597 319.692 484.759 319.692H485.151V321.386H484.591C483.387 321.386 482.757 321.722 482.757 322.52V327ZM489.507 327.168C487.351 327.168 486.063 325.67 486.063 323.332C486.063 321.022 487.309 319.524 489.451 319.524C491.733 319.524 492.783 321.204 492.783 323.206V323.794H487.925V323.976C487.925 325.026 488.527 325.74 489.703 325.74C490.585 325.74 491.117 325.32 491.565 324.746L492.531 325.824C491.929 326.65 490.865 327.168 489.507 327.168ZM489.479 320.868C488.541 320.868 487.925 321.568 487.925 322.576V322.688H490.921V322.562C490.921 321.554 490.403 320.868 489.479 320.868ZM498.1 327V317.228H502.622C504.232 317.228 505.212 318.222 505.212 319.734C505.212 321.218 504.358 321.778 503.462 321.834V321.918C504.316 321.932 505.576 322.534 505.576 324.2C505.576 325.768 504.498 327 503.056 327H498.1ZM499.948 322.814V325.432H502.524C503.224 325.432 503.644 325.054 503.644 324.368V323.892C503.644 323.206 503.224 322.814 502.524 322.814H499.948ZM499.948 318.796V321.302H502.23C502.902 321.302 503.294 320.91 503.294 320.266V319.832C503.294 319.174 502.902 318.796 502.23 318.796H499.948ZM511.799 327V325.782H511.729C511.477 326.51 510.889 327.168 509.685 327.168C508.187 327.168 507.347 326.132 507.347 324.312V319.692H509.139V324.13C509.139 325.138 509.517 325.684 510.371 325.684C511.085 325.684 511.799 325.306 511.799 324.522V319.692H513.591V327H511.799ZM516.718 318.628C515.976 318.628 515.668 318.25 515.668 317.732V317.452C515.668 316.934 515.976 316.556 516.718 316.556C517.446 316.556 517.768 316.934 517.768 317.452V317.732C517.768 318.25 517.446 318.628 516.718 318.628ZM515.822 327V319.692H517.614V327H515.822ZM522.609 327H521.643C520.425 327 519.851 326.356 519.851 325.236V316.64H521.643V325.572H522.609V327ZM528.662 327V325.782H528.592C528.326 326.608 527.542 327.168 526.576 327.168C524.742 327.168 523.72 325.782 523.72 323.332C523.72 320.896 524.742 319.524 526.576 319.524C527.542 319.524 528.34 320.056 528.592 320.896H528.662V316.64H530.454V327H528.662ZM527.15 325.684C528.004 325.684 528.662 325.25 528.662 324.494V322.17C528.662 321.456 528.004 320.994 527.15 320.994C526.226 320.994 525.596 321.68 525.596 322.716V323.976C525.596 325.012 526.226 325.684 527.15 325.684Z" fill="black"/>
<rect width="48" height="48" transform="translate(352 289)" fill="#0F62FE"/>
<g clip-path="url(#clip5_19_9852)">
<rect width="24" height="24" transform="translate(364 301)" fill="white" fill-opacity="0.01" style="mix-blend-mode:multiply"/>
<path d="M376 301L367 305.484V316.033C367 318.42 367.948 320.709 369.636 322.397C371.324 324.085 373.613 325.033 376 325.033C378.387 325.033 380.676 324.085 382.364 322.397C384.052 320.709 385 318.42 385 316.033V305.484L376 301ZM381.122 321.486L376 318.934V320.605L379.777 322.487C378.639 323.149 377.347 323.501 376.03 323.506C374.713 323.511 373.419 323.169 372.276 322.515C371.133 321.861 370.182 320.918 369.52 319.78C368.857 318.642 368.505 317.35 368.5 316.033V306.408L376 302.671L383.5 306.408V309.22L376 305.484V307.155L383.5 310.891V313.703L376 309.967V311.638L383.5 315.374V316.033C383.5 316.715 383.407 317.393 383.222 318.049L376 314.451V316.122L382.671 319.445C382.276 320.209 381.752 320.899 381.122 321.486Z" fill="white"/>
</g>
</g>
<rect x="752.5" y="107.5" width="247" height="47" stroke="#0F62FE"/>
<rect x="753" y="108" width="246" height="46" fill="white"/>
<rect x="753" y="108" width="246" height="46" fill="#EDF5FF"/>
<path d="M820.623 136.168C818.957 136.168 817.809 135.51 816.983 134.544L818.229 133.34C818.901 134.124 819.727 134.544 820.735 134.544C821.869 134.544 822.457 133.998 822.457 133.172C822.457 132.514 822.149 132.108 821.127 131.926L820.203 131.786C818.229 131.478 817.277 130.54 817.277 128.944C817.277 127.194 818.635 126.06 820.819 126.06C822.289 126.06 823.381 126.564 824.165 127.502L822.905 128.692C822.429 128.09 821.757 127.684 820.721 127.684C819.671 127.684 819.125 128.104 819.125 128.832C819.125 129.574 819.545 129.882 820.483 130.05L821.393 130.218C823.367 130.568 824.291 131.45 824.291 133.06C824.291 134.908 822.961 136.168 820.623 136.168ZM829.09 136.168C827.004 136.168 825.702 134.684 825.702 132.332C825.702 129.994 827.004 128.524 829.09 128.524C831.19 128.524 832.492 129.994 832.492 132.332C832.492 134.684 831.19 136.168 829.09 136.168ZM829.09 134.726C830.028 134.726 830.616 134.124 830.616 133.018V131.66C830.616 130.568 830.028 129.966 829.09 129.966C828.166 129.966 827.578 130.568 827.578 131.66V133.018C827.578 134.124 828.166 134.726 829.09 134.726ZM838.608 136V134.782H838.538C838.286 135.51 837.698 136.168 836.494 136.168C834.996 136.168 834.156 135.132 834.156 133.312V128.692H835.948V133.13C835.948 134.138 836.326 134.684 837.18 134.684C837.894 134.684 838.608 134.306 838.608 133.522V128.692H840.4V136H838.608ZM844.423 136H842.631V128.692H844.423V130.204H844.493C844.675 129.434 845.263 128.692 846.425 128.692H846.817V130.386H846.257C845.053 130.386 844.423 130.722 844.423 131.52V136ZM851.103 136.168C848.947 136.168 847.729 134.684 847.729 132.332C847.729 129.994 848.947 128.524 851.103 128.524C852.573 128.524 853.539 129.224 853.973 130.372L852.503 131.03C852.335 130.414 851.873 129.966 851.103 129.966C850.109 129.966 849.605 130.666 849.605 131.688V133.018C849.605 134.04 850.109 134.726 851.103 134.726C851.957 134.726 852.377 134.236 852.643 133.578L854.015 134.236C853.539 135.524 852.517 136.168 851.103 136.168ZM858.442 136.168C856.286 136.168 854.998 134.67 854.998 132.332C854.998 130.022 856.244 128.524 858.386 128.524C860.668 128.524 861.718 130.204 861.718 132.206V132.794H856.86V132.976C856.86 134.026 857.462 134.74 858.638 134.74C859.52 134.74 860.052 134.32 860.5 133.746L861.466 134.824C860.864 135.65 859.8 136.168 858.442 136.168ZM858.414 129.868C857.476 129.868 856.86 130.568 856.86 131.576V131.688H859.856V131.562C859.856 130.554 859.338 129.868 858.414 129.868ZM870.829 136.168C868.253 136.168 866.615 134.474 866.615 131.184C866.615 127.894 868.253 126.06 870.829 126.06C872.579 126.06 873.713 126.802 874.399 128.314L872.817 129.154C872.537 128.286 871.921 127.698 870.829 127.698C869.457 127.698 868.575 128.692 868.575 130.358V131.898C868.575 133.578 869.457 134.53 870.829 134.53C871.935 134.53 872.621 133.858 872.943 132.976L874.441 133.858C873.741 135.314 872.579 136.168 870.829 136.168ZM878.964 136.168C876.878 136.168 875.576 134.684 875.576 132.332C875.576 129.994 876.878 128.524 878.964 128.524C881.064 128.524 882.366 129.994 882.366 132.332C882.366 134.684 881.064 136.168 878.964 136.168ZM878.964 134.726C879.902 134.726 880.49 134.124 880.49 133.018V131.66C880.49 130.568 879.902 129.966 878.964 129.966C878.04 129.966 877.452 130.568 877.452 131.66V133.018C877.452 134.124 878.04 134.726 878.964 134.726ZM888.65 136V134.782H888.58C888.314 135.608 887.53 136.168 886.564 136.168C884.73 136.168 883.708 134.782 883.708 132.332C883.708 129.896 884.73 128.524 886.564 128.524C887.53 128.524 888.328 129.056 888.58 129.896H888.65V125.64H890.442V136H888.65ZM887.138 134.684C887.992 134.684 888.65 134.25 888.65 133.494V131.17C888.65 130.456 887.992 129.994 887.138 129.994C886.214 129.994 885.584 130.68 885.584 131.716V132.976C885.584 134.012 886.214 134.684 887.138 134.684ZM895.623 136.168C893.467 136.168 892.179 134.67 892.179 132.332C892.179 130.022 893.425 128.524 895.567 128.524C897.849 128.524 898.899 130.204 898.899 132.206V132.794H894.041V132.976C894.041 134.026 894.643 134.74 895.819 134.74C896.701 134.74 897.233 134.32 897.681 133.746L898.647 134.824C898.045 135.65 896.981 136.168 895.623 136.168ZM895.595 129.868C894.657 129.868 894.041 130.568 894.041 131.576V131.688H897.037V131.562C897.037 130.554 896.519 129.868 895.595 129.868ZM906.064 132.234V136H904.216V126.228H908.626C910.404 126.228 911.51 127.404 911.51 129.252C911.51 130.596 910.894 131.618 909.69 132.024L911.692 136H909.634L907.814 132.234H906.064ZM906.064 130.68H908.444C909.158 130.68 909.592 130.288 909.592 129.574V128.93C909.592 128.216 909.158 127.838 908.444 127.838H906.064V130.68ZM916.31 136.168C914.154 136.168 912.866 134.67 912.866 132.332C912.866 130.022 914.112 128.524 916.254 128.524C918.536 128.524 919.586 130.204 919.586 132.206V132.794H914.728V132.976C914.728 134.026 915.33 134.74 916.506 134.74C917.388 134.74 917.92 134.32 918.368 133.746L919.334 134.824C918.732 135.65 917.668 136.168 916.31 136.168ZM916.282 129.868C915.344 129.868 914.728 130.568 914.728 131.576V131.688H917.724V131.562C917.724 130.554 917.206 129.868 916.282 129.868ZM921.323 138.8V128.692H923.115V129.896H923.171C923.437 129.056 924.221 128.524 925.187 128.524C927.035 128.524 928.057 129.896 928.057 132.332C928.057 134.782 927.035 136.168 925.187 136.168C924.221 136.168 923.451 135.608 923.171 134.782H923.115V138.8H921.323ZM924.613 134.684C925.537 134.684 926.181 134.012 926.181 132.976V131.716C926.181 130.68 925.537 129.994 924.613 129.994C923.759 129.994 923.115 130.456 923.115 131.17V133.494C923.115 134.25 923.759 134.684 924.613 134.684ZM932.775 136.168C930.689 136.168 929.387 134.684 929.387 132.332C929.387 129.994 930.689 128.524 932.775 128.524C934.875 128.524 936.177 129.994 936.177 132.332C936.177 134.684 934.875 136.168 932.775 136.168ZM932.775 134.726C933.713 134.726 934.301 134.124 934.301 133.018V131.66C934.301 130.568 933.713 129.966 932.775 129.966C931.851 129.966 931.263 130.568 931.263 131.66V133.018C931.263 134.124 931.851 134.726 932.775 134.726ZM940.32 136.168C938.934 136.168 938.024 135.664 937.296 134.824L938.388 133.76C938.92 134.376 939.564 134.754 940.39 134.754C941.244 134.754 941.608 134.432 941.608 133.914C941.608 133.494 941.356 133.228 940.712 133.144L939.984 133.046C938.416 132.85 937.548 132.164 937.548 130.834C937.548 129.42 938.654 128.524 940.32 128.524C941.748 128.524 942.476 128.944 943.176 129.672L942.126 130.722C941.706 130.274 941.09 129.938 940.376 129.938C939.606 129.938 939.27 130.246 939.27 130.694C939.27 131.184 939.536 131.408 940.222 131.52L940.964 131.618C942.56 131.842 943.33 132.556 943.33 133.774C943.33 135.188 942.14 136.168 940.32 136.168ZM945.968 127.628C945.226 127.628 944.918 127.25 944.918 126.732V126.452C944.918 125.934 945.226 125.556 945.968 125.556C946.696 125.556 947.018 125.934 947.018 126.452V126.732C947.018 127.25 946.696 127.628 945.968 127.628ZM945.072 136V128.692H946.864V136H945.072ZM951.383 136C950.151 136 949.493 135.328 949.493 134.138V130.12H948.415V128.692H948.975C949.507 128.692 949.675 128.44 949.675 127.936V126.69H951.285V128.692H952.783V130.12H951.285V134.572H952.671V136H951.383ZM957.341 136.168C955.255 136.168 953.953 134.684 953.953 132.332C953.953 129.994 955.255 128.524 957.341 128.524C959.441 128.524 960.743 129.994 960.743 132.332C960.743 134.684 959.441 136.168 957.341 136.168ZM957.341 134.726C958.279 134.726 958.867 134.124 958.867 133.018V131.66C958.867 130.568 958.279 129.966 957.341 129.966C956.417 129.966 955.829 130.568 955.829 131.66V133.018C955.829 134.124 956.417 134.726 957.341 134.726ZM964.284 136H962.492V128.692H964.284V130.204H964.354C964.536 129.434 965.124 128.692 966.286 128.692H966.678V130.386H966.118C964.914 130.386 964.284 130.722 964.284 131.52V136ZM971.463 132.556L972.737 128.692H974.417L971.477 137.302C971.113 138.352 970.595 138.8 969.391 138.8H968.313V137.372H969.629L969.965 136.35L967.347 128.692H969.125L970.399 132.556L970.875 134.404H970.959L971.463 132.556Z" fill="black"/>
<rect width="48" height="48" transform="translate(752 107)" fill="#0F62FE"/>
<rect width="24" height="24" transform="translate(764 119)" fill="white" fill-opacity="0.01" style="mix-blend-mode:multiply"/>
<path d="M777.5 132.5H771.5V134H777.5V132.5Z" fill="white"/>
<path d="M780.5 128.75H771.5V130.25H780.5V128.75Z" fill="white"/>
<path d="M775.25 136.25H771.5V137.75H775.25V136.25Z" fill="white"/>
<path d="M782.75 122.75H780.5V122C780.5 121.602 780.342 121.221 780.061 120.939C779.779 120.658 779.398 120.5 779 120.5H773C772.602 120.5 772.221 120.658 771.939 120.939C771.658 121.221 771.5 121.602 771.5 122V122.75H769.25C768.852 122.75 768.471 122.908 768.189 123.189C767.908 123.471 767.75 123.852 767.75 124.25V140C767.75 140.398 767.908 140.779 768.189 141.061C768.471 141.342 768.852 141.5 769.25 141.5H782.75C783.148 141.5 783.529 141.342 783.811 141.061C784.092 140.779 784.25 140.398 784.25 140V124.25C784.25 123.852 784.092 123.471 783.811 123.189C783.529 122.908 783.148 122.75 782.75 122.75ZM773 122H779V125H773V122ZM782.75 140H769.25V124.25H771.5V126.5H780.5V124.25H782.75V140Z" fill="white"/>
<rect x="752.5" y="289.5" width="247" height="47" stroke="#0F62FE"/>
<rect x="753" y="290" width="246" height="46" fill="white"/>
<rect x="753" y="290" width="246" height="46" fill="#EDF5FF"/>
<path d="M821.419 318.168C818.843 318.168 817.205 316.474 817.205 313.184C817.205 309.894 818.843 308.06 821.419 308.06C823.169 308.06 824.303 308.802 824.989 310.314L823.407 311.154C823.127 310.286 822.511 309.698 821.419 309.698C820.047 309.698 819.165 310.692 819.165 312.358V313.898C819.165 315.578 820.047 316.53 821.419 316.53C822.525 316.53 823.211 315.858 823.533 314.976L825.031 315.858C824.331 317.314 823.169 318.168 821.419 318.168ZM829.553 318.168C827.467 318.168 826.165 316.684 826.165 314.332C826.165 311.994 827.467 310.524 829.553 310.524C831.653 310.524 832.955 311.994 832.955 314.332C832.955 316.684 831.653 318.168 829.553 318.168ZM829.553 316.726C830.491 316.726 831.079 316.124 831.079 315.018V313.66C831.079 312.568 830.491 311.966 829.553 311.966C828.629 311.966 828.041 312.568 828.041 313.66V315.018C828.041 316.124 828.629 316.726 829.553 316.726ZM836.496 318H834.704V310.692H836.496V311.91H836.566C836.86 311.126 837.476 310.524 838.61 310.524C840.108 310.524 840.948 311.56 840.948 313.38V318H839.156V313.562C839.156 312.526 838.806 311.994 837.952 311.994C837.21 311.994 836.496 312.386 836.496 313.17V318ZM845.376 318C844.144 318 843.486 317.328 843.486 316.138V312.12H842.408V310.692H842.968C843.5 310.692 843.668 310.44 843.668 309.936V308.69H845.278V310.692H846.776V312.12H845.278V316.572H846.664V318H845.376ZM850.297 318.168C848.813 318.168 847.973 317.314 847.973 316.012C847.973 314.514 849.107 313.772 851.095 313.772H852.341V313.24C852.341 312.428 851.935 311.952 850.983 311.952C850.143 311.952 849.667 312.372 849.317 312.876L848.253 311.924C848.785 311.084 849.639 310.524 851.109 310.524C853.083 310.524 854.133 311.462 854.133 313.128V316.572H854.861V318H853.867C853.097 318 852.621 317.496 852.509 316.74H852.425C852.187 317.678 851.389 318.168 850.297 318.168ZM850.899 316.866C851.697 316.866 852.341 316.502 852.341 315.816V314.85H851.193C850.255 314.85 849.793 315.172 849.793 315.746V315.984C849.793 316.572 850.199 316.866 850.899 316.866ZM857.367 309.628C856.625 309.628 856.317 309.25 856.317 308.732V308.452C856.317 307.934 856.625 307.556 857.367 307.556C858.095 307.556 858.417 307.934 858.417 308.452V308.732C858.417 309.25 858.095 309.628 857.367 309.628ZM856.471 318V310.692H858.263V318H856.471ZM862.292 318H860.5V310.692H862.292V311.91H862.362C862.656 311.126 863.272 310.524 864.406 310.524C865.904 310.524 866.744 311.56 866.744 313.38V318H864.952V313.562C864.952 312.526 864.602 311.994 863.748 311.994C863.006 311.994 862.292 312.386 862.292 313.17V318ZM871.845 318.168C869.689 318.168 868.401 316.67 868.401 314.332C868.401 312.022 869.647 310.524 871.789 310.524C874.071 310.524 875.121 312.204 875.121 314.206V314.794H870.263V314.976C870.263 316.026 870.865 316.74 872.041 316.74C872.923 316.74 873.455 316.32 873.903 315.746L874.869 316.824C874.267 317.65 873.203 318.168 871.845 318.168ZM871.817 311.868C870.879 311.868 870.263 312.568 870.263 313.576V313.688H873.259V313.562C873.259 312.554 872.741 311.868 871.817 311.868ZM878.649 318H876.857V310.692H878.649V312.204H878.719C878.901 311.434 879.489 310.692 880.651 310.692H881.043V312.386H880.483C879.279 312.386 878.649 312.722 878.649 313.52V318ZM887.942 314.234V318H886.094V308.228H890.504C892.282 308.228 893.388 309.404 893.388 311.252C893.388 312.596 892.772 313.618 891.568 314.024L893.57 318H891.512L889.692 314.234H887.942ZM887.942 312.68H890.322C891.036 312.68 891.47 312.288 891.47 311.574V310.93C891.47 310.216 891.036 309.838 890.322 309.838H887.942V312.68ZM898.188 318.168C896.032 318.168 894.744 316.67 894.744 314.332C894.744 312.022 895.99 310.524 898.132 310.524C900.414 310.524 901.464 312.204 901.464 314.206V314.794H896.606V314.976C896.606 316.026 897.208 316.74 898.384 316.74C899.266 316.74 899.798 316.32 900.246 315.746L901.212 316.824C900.61 317.65 899.546 318.168 898.188 318.168ZM898.16 311.868C897.222 311.868 896.606 312.568 896.606 313.576V313.688H899.602V313.562C899.602 312.554 899.084 311.868 898.16 311.868ZM909.794 318.616C909.794 320.142 908.758 320.968 905.958 320.968C903.494 320.968 902.556 320.324 902.556 319.246C902.556 318.434 903.046 317.972 903.858 317.846V317.692C903.256 317.538 902.92 317.062 902.92 316.474C902.92 315.718 903.564 315.34 904.264 315.186V315.13C903.382 314.724 902.934 313.968 902.934 313.002C902.934 311.518 903.984 310.524 905.958 310.524C906.406 310.524 906.868 310.58 907.232 310.706V310.468C907.232 309.754 907.596 309.404 908.268 309.404H909.402V310.776H907.848V310.972C908.604 311.392 908.982 312.106 908.982 313.002C908.982 314.472 907.946 315.452 905.958 315.452C905.538 315.452 905.16 315.41 904.838 315.326C904.558 315.452 904.32 315.662 904.32 315.984C904.32 316.348 904.628 316.53 905.272 316.53H907.232C909.024 316.53 909.794 317.3 909.794 318.616ZM908.114 318.826C908.114 318.364 907.778 318.084 906.868 318.084H904.376C904.11 318.28 903.998 318.546 903.998 318.84C903.998 319.4 904.418 319.736 905.538 319.736H906.434C907.596 319.736 908.114 319.442 908.114 318.826ZM905.958 314.234C906.812 314.234 907.274 313.842 907.274 313.114V312.876C907.274 312.134 906.812 311.756 905.958 311.756C905.104 311.756 904.642 312.134 904.642 312.876V313.114C904.642 313.842 905.104 314.234 905.958 314.234ZM911.885 309.628C911.143 309.628 910.835 309.25 910.835 308.732V308.452C910.835 307.934 911.143 307.556 911.885 307.556C912.613 307.556 912.935 307.934 912.935 308.452V308.732C912.935 309.25 912.613 309.628 911.885 309.628ZM910.989 318V310.692H912.781V318H910.989ZM917.413 318.168C916.027 318.168 915.117 317.664 914.389 316.824L915.481 315.76C916.013 316.376 916.657 316.754 917.483 316.754C918.337 316.754 918.701 316.432 918.701 315.914C918.701 315.494 918.449 315.228 917.805 315.144L917.077 315.046C915.509 314.85 914.641 314.164 914.641 312.834C914.641 311.42 915.747 310.524 917.413 310.524C918.841 310.524 919.569 310.944 920.269 311.672L919.219 312.722C918.799 312.274 918.183 311.938 917.469 311.938C916.699 311.938 916.363 312.246 916.363 312.694C916.363 313.184 916.629 313.408 917.315 313.52L918.057 313.618C919.653 313.842 920.423 314.556 920.423 315.774C920.423 317.188 919.233 318.168 917.413 318.168ZM924.337 318C923.105 318 922.447 317.328 922.447 316.138V312.12H921.369V310.692H921.929C922.461 310.692 922.629 310.44 922.629 309.936V308.69H924.239V310.692H925.737V312.12H924.239V316.572H925.625V318H924.337ZM929.244 318H927.452V310.692H929.244V312.204H929.314C929.496 311.434 930.084 310.692 931.246 310.692H931.638V312.386H931.078C929.874 312.386 929.244 312.722 929.244 313.52V318ZM936.423 314.556L937.697 310.692H939.377L936.437 319.302C936.073 320.352 935.555 320.8 934.351 320.8H933.273V319.372H934.589L934.925 318.35L932.307 310.692H934.085L935.359 314.556L935.835 316.404H935.919L936.423 314.556Z" fill="black"/>
<rect width="48" height="48" transform="translate(752 289)" fill="#0F62FE"/>
<rect width="24" height="24" transform="translate(764 301)" fill="white" fill-opacity="0.01" style="mix-blend-mode:multiply"/>
<path d="M776.75 310.75V305.5H770V317.5H782V310.75H776.75ZM771.5 307H775.25V310.75H771.5V307ZM771.5 312.25H775.25V316H771.5V312.25ZM780.5 316H776.75V312.25H780.5V316Z" fill="white"/>
<path d="M785 309.25H778.25V302.5H785V309.25ZM779.75 307.75H783.5V304H779.75V307.75Z" fill="white"/>
<path d="M785 316H783.5V317.5H785V322H767V317.5H768.5V316H767C766.602 316 766.221 316.159 765.94 316.44C765.659 316.721 765.5 317.102 765.5 317.5V322C765.5 322.398 765.659 322.779 765.94 323.06C766.221 323.341 766.602 323.5 767 323.5H785C785.398 323.5 785.779 323.341 786.06 323.06C786.341 322.779 786.5 322.398 786.5 322V317.5C786.5 317.102 786.341 316.721 786.06 316.44C785.779 316.159 785.398 316 785 316Z" fill="white"/>
<path d="M769.25 320.5C769.664 320.5 770 320.164 770 319.75C770 319.336 769.664 319 769.25 319C768.836 319 768.5 319.336 768.5 319.75C768.5 320.164 768.836 320.5 769.25 320.5Z" fill="white"/>
<rect x="752.5" y="473.5" width="247" height="47" stroke="#0F62FE"/>
<rect x="753" y="474" width="246" height="46" fill="white"/>
<rect x="753" y="474" width="246" height="46" fill="#EDF5FF"/>
<path d="M821.035 502.168C818.459 502.168 816.821 500.474 816.821 497.184C816.821 493.894 818.459 492.06 821.035 492.06C822.785 492.06 823.919 492.802 824.605 494.314L823.023 495.154C822.743 494.286 822.127 493.698 821.035 493.698C819.663 493.698 818.781 494.692 818.781 496.358V497.898C818.781 499.578 819.663 500.53 821.035 500.53C822.141 500.53 822.827 499.858 823.149 498.976L824.647 499.858C823.947 501.314 822.785 502.168 821.035 502.168ZM829.03 502H828.064C826.846 502 826.272 501.356 826.272 500.236V491.64H828.064V500.572H829.03V502ZM833.445 502.168C831.359 502.168 830.057 500.684 830.057 498.332C830.057 495.994 831.359 494.524 833.445 494.524C835.545 494.524 836.847 495.994 836.847 498.332C836.847 500.684 835.545 502.168 833.445 502.168ZM833.445 500.726C834.383 500.726 834.971 500.124 834.971 499.018V497.66C834.971 496.568 834.383 495.966 833.445 495.966C832.521 495.966 831.933 496.568 831.933 497.66V499.018C831.933 500.124 832.521 500.726 833.445 500.726ZM842.964 502V500.782H842.894C842.642 501.51 842.054 502.168 840.85 502.168C839.352 502.168 838.512 501.132 838.512 499.312V494.692H840.304V499.13C840.304 500.138 840.682 500.684 841.536 500.684C842.25 500.684 842.964 500.306 842.964 499.522V494.692H844.756V502H842.964ZM851.522 502V500.782H851.452C851.186 501.608 850.402 502.168 849.436 502.168C847.602 502.168 846.58 500.782 846.58 498.332C846.58 495.896 847.602 494.524 849.436 494.524C850.402 494.524 851.2 495.056 851.452 495.896H851.522V491.64H853.314V502H851.522ZM850.01 500.684C850.864 500.684 851.522 500.25 851.522 499.494V497.17C851.522 496.456 850.864 495.994 850.01 495.994C849.086 495.994 848.456 496.68 848.456 497.716V498.976C848.456 500.012 849.086 500.684 850.01 500.684ZM862.957 502.168C860.395 502.168 858.701 500.418 858.701 497.114C858.701 493.81 860.395 492.06 862.957 492.06C865.533 492.06 867.213 493.81 867.213 497.114C867.213 500.418 865.533 502.168 862.957 502.168ZM862.957 500.53C864.357 500.53 865.253 499.536 865.253 497.87V496.358C865.253 494.692 864.357 493.698 862.957 493.698C861.557 493.698 860.661 494.692 860.661 496.358V497.87C860.661 499.536 861.557 500.53 862.957 500.53ZM869.136 502V491.64H870.928V495.896H870.984C871.25 495.056 872.034 494.524 873 494.524C874.848 494.524 875.87 495.896 875.87 498.332C875.87 500.782 874.848 502.168 873 502.168C872.034 502.168 871.264 501.608 870.984 500.782H870.928V502H869.136ZM872.426 500.684C873.35 500.684 873.994 500.012 873.994 498.976V497.716C873.994 496.68 873.35 495.994 872.426 495.994C871.572 495.994 870.928 496.456 870.928 497.17V499.494C870.928 500.25 871.572 500.684 872.426 500.684ZM877.691 503.372V494.692H879.483V502.882C879.483 504.1 878.895 504.8 877.551 504.8H876.571V503.372H877.691ZM878.587 493.628C877.845 493.628 877.537 493.25 877.537 492.732V492.452C877.537 491.934 877.845 491.556 878.587 491.556C879.315 491.556 879.637 491.934 879.637 492.452V492.732C879.637 493.25 879.315 493.628 878.587 493.628ZM884.674 502.168C882.518 502.168 881.23 500.67 881.23 498.332C881.23 496.022 882.476 494.524 884.618 494.524C886.9 494.524 887.95 496.204 887.95 498.206V498.794H883.092V498.976C883.092 500.026 883.694 500.74 884.87 500.74C885.752 500.74 886.284 500.32 886.732 499.746L887.698 500.824C887.096 501.65 886.032 502.168 884.674 502.168ZM884.646 495.868C883.708 495.868 883.092 496.568 883.092 497.576V497.688H886.088V497.562C886.088 496.554 885.57 495.868 884.646 495.868ZM892.57 502.168C890.414 502.168 889.196 500.684 889.196 498.332C889.196 495.994 890.414 494.524 892.57 494.524C894.04 494.524 895.006 495.224 895.44 496.372L893.97 497.03C893.802 496.414 893.34 495.966 892.57 495.966C891.576 495.966 891.072 496.666 891.072 497.688V499.018C891.072 500.04 891.576 500.726 892.57 500.726C893.424 500.726 893.844 500.236 894.11 499.578L895.482 500.236C895.006 501.524 893.984 502.168 892.57 502.168ZM899.306 502C898.074 502 897.416 501.328 897.416 500.138V496.12H896.338V494.692H896.898C897.43 494.692 897.598 494.44 897.598 493.936V492.69H899.208V494.692H900.706V496.12H899.208V500.572H900.594V502H899.306ZM909.039 502.168C907.373 502.168 906.225 501.51 905.399 500.544L906.645 499.34C907.317 500.124 908.143 500.544 909.151 500.544C910.285 500.544 910.873 499.998 910.873 499.172C910.873 498.514 910.565 498.108 909.543 497.926L908.619 497.786C906.645 497.478 905.693 496.54 905.693 494.944C905.693 493.194 907.051 492.06 909.235 492.06C910.705 492.06 911.797 492.564 912.581 493.502L911.321 494.692C910.845 494.09 910.173 493.684 909.137 493.684C908.087 493.684 907.541 494.104 907.541 494.832C907.541 495.574 907.961 495.882 908.899 496.05L909.809 496.218C911.783 496.568 912.707 497.45 912.707 499.06C912.707 500.908 911.377 502.168 909.039 502.168ZM916.835 502C915.603 502 914.945 501.328 914.945 500.138V496.12H913.867V494.692H914.427C914.959 494.692 915.127 494.44 915.127 493.936V492.69H916.737V494.692H918.235V496.12H916.737V500.572H918.123V502H916.835ZM922.793 502.168C920.707 502.168 919.405 500.684 919.405 498.332C919.405 495.994 920.707 494.524 922.793 494.524C924.893 494.524 926.195 495.994 926.195 498.332C926.195 500.684 924.893 502.168 922.793 502.168ZM922.793 500.726C923.731 500.726 924.319 500.124 924.319 499.018V497.66C924.319 496.568 923.731 495.966 922.793 495.966C921.869 495.966 921.281 496.568 921.281 497.66V499.018C921.281 500.124 921.869 500.726 922.793 500.726ZM929.735 502H927.943V494.692H929.735V496.204H929.805C929.987 495.434 930.575 494.692 931.737 494.692H932.129V496.386H931.569C930.365 496.386 929.735 496.722 929.735 497.52V502ZM935.255 502.168C933.771 502.168 932.931 501.314 932.931 500.012C932.931 498.514 934.065 497.772 936.053 497.772H937.299V497.24C937.299 496.428 936.893 495.952 935.941 495.952C935.101 495.952 934.625 496.372 934.275 496.876L933.211 495.924C933.743 495.084 934.597 494.524 936.067 494.524C938.041 494.524 939.091 495.462 939.091 497.128V500.572H939.819V502H938.825C938.055 502 937.579 501.496 937.467 500.74H937.383C937.145 501.678 936.347 502.168 935.255 502.168ZM935.857 500.866C936.655 500.866 937.299 500.502 937.299 499.816V498.85H936.151C935.213 498.85 934.751 499.172 934.751 499.746V499.984C934.751 500.572 935.157 500.866 935.857 500.866ZM948.023 502.616C948.023 504.142 946.987 504.968 944.187 504.968C941.723 504.968 940.785 504.324 940.785 503.246C940.785 502.434 941.275 501.972 942.087 501.846V501.692C941.485 501.538 941.149 501.062 941.149 500.474C941.149 499.718 941.793 499.34 942.493 499.186V499.13C941.611 498.724 941.163 497.968 941.163 497.002C941.163 495.518 942.213 494.524 944.187 494.524C944.635 494.524 945.097 494.58 945.461 494.706V494.468C945.461 493.754 945.825 493.404 946.497 493.404H947.631V494.776H946.077V494.972C946.833 495.392 947.211 496.106 947.211 497.002C947.211 498.472 946.175 499.452 944.187 499.452C943.767 499.452 943.389 499.41 943.067 499.326C942.787 499.452 942.549 499.662 942.549 499.984C942.549 500.348 942.857 500.53 943.501 500.53H945.461C947.253 500.53 948.023 501.3 948.023 502.616ZM946.343 502.826C946.343 502.364 946.007 502.084 945.097 502.084H942.605C942.339 502.28 942.227 502.546 942.227 502.84C942.227 503.4 942.647 503.736 943.767 503.736H944.663C945.825 503.736 946.343 503.442 946.343 502.826ZM944.187 498.234C945.041 498.234 945.503 497.842 945.503 497.114V496.876C945.503 496.134 945.041 495.756 944.187 495.756C943.333 495.756 942.871 496.134 942.871 496.876V497.114C942.871 497.842 943.333 498.234 944.187 498.234ZM952.09 502.168C949.934 502.168 948.646 500.67 948.646 498.332C948.646 496.022 949.892 494.524 952.034 494.524C954.316 494.524 955.366 496.204 955.366 498.206V498.794H950.508V498.976C950.508 500.026 951.11 500.74 952.286 500.74C953.168 500.74 953.7 500.32 954.148 499.746L955.114 500.824C954.512 501.65 953.448 502.168 952.09 502.168ZM952.062 495.868C951.124 495.868 950.508 496.568 950.508 497.576V497.688H953.504V497.562C953.504 496.554 952.986 495.868 952.062 495.868Z" fill="black"/>
<rect width="48" height="48" transform="translate(752 473)" fill="#0F62FE"/>
<rect width="24" height="24" transform="translate(764 485)" fill="white" fill-opacity="0.01" style="mix-blend-mode:multiply"/>
<path d="M785 500H783.5V501.5H785V506H767V501.5H774.5V500H767C766.602 500 766.221 500.159 765.94 500.44C765.659 500.721 765.5 501.102 765.5 501.5V506C765.5 506.398 765.659 506.779 765.94 507.06C766.221 507.341 766.602 507.5 767 507.5H785C785.398 507.5 785.779 507.341 786.06 507.06C786.341 506.779 786.5 506.398 786.5 506V501.5C786.5 501.102 786.341 500.721 786.06 500.44C785.779 500.159 785.398 500 785 500Z" fill="white"/>
<path d="M769.25 504.5C769.664 504.5 770 504.164 770 503.75C770 503.336 769.664 503 769.25 503C768.836 503 768.5 503.336 768.5 503.75C768.5 504.164 768.836 504.5 769.25 504.5Z" fill="white"/>
<path d="M786.5 491H780.5V495.5H776V501.5H782V497H786.5V491ZM780.5 500H777.5V497H780.5V500ZM785 495.5H782V492.5H785V495.5Z" fill="white"/>
<path d="M777.5 492.5H771.5V486.5H777.5V492.5ZM773 491H776V488H773V491Z" fill="white"/>
<path d="M751 497H684.975V315.241V129H751M588 312.751H751" stroke="black"/>
<rect width="8" height="8" transform="matrix(-1 0 0 -1 589 317)" fill="white" fill-opacity="0.01" style="mix-blend-mode:multiply"/>
<path d="M589 317L581 313L589 309V317Z" fill="black"/>
<rect width="48" height="6" transform="matrix(0 -1 1 0 117 288)" fill="white" fill-opacity="0.01" style="mix-blend-mode:multiply"/>
<g clip-path="url(#clip6_19_9852)">
<rect width="34" height="0" transform="matrix(0 -1 1 0 120 281)" fill="white" fill-opacity="0.01" style="mix-blend-mode:multiply"/>
<path d="M120 281V247" stroke="black"/>
</g>
<rect width="8" height="8" transform="matrix(0 -1 1 0 116 248)" fill="white" fill-opacity="0.01" style="mix-blend-mode:multiply"/>
<path d="M116 248L120 240L124 248H116Z" fill="black"/>
<rect width="8" height="8" transform="matrix(0 1 1 0 116 280)" fill="white" fill-opacity="0.01" style="mix-blend-mode:multiply"/>
<path d="M116 280L120 288L124 280H116Z" fill="black"/>
<rect width="204" height="43" transform="translate(148 295)" fill="white" fill-opacity="0.01" style="mix-blend-mode:multiply"/>
<rect width="190" height="0" transform="translate(155 316.5)" fill="white" fill-opacity="0.01" style="mix-blend-mode:multiply"/>
<path d="M155 316.5H345" stroke="black"/>
<rect width="8" height="8" transform="translate(344 312.5)" fill="white" fill-opacity="0.01" style="mix-blend-mode:multiply"/>
<path d="M344 312.5L352 316.5L344 320.5V312.5Z" fill="black"/>
<rect width="8" height="8" transform="matrix(-1 0 0 1 156 312.5)" fill="white" fill-opacity="0.01" style="mix-blend-mode:multiply"/>
<path d="M156 312.5L148 316.5L156 320.5V312.5Z" fill="black"/>
<g clip-path="url(#clip7_19_9852)">
<path d="M884.719 266.75C884.719 267.423 884.173 267.969 883.5 267.969C882.827 267.969 882.281 267.423 882.281 266.75C882.281 266.077 882.827 265.531 883.5 265.531C884.173 265.531 884.719 266.077 884.719 266.75ZM909.198 259.048H909.547C911.733 259.048 913.777 257.879 914.879 256.001C914.986 255.819 914.986 255.591 914.879 255.409C913.883 253.713 912.175 252.617 910.236 252.406C910.056 250.416 908.887 248.618 907.097 247.63C906.923 247.531 906.708 247.531 906.53 247.63C904.58 248.711 903.367 250.749 903.367 252.949C903.367 254.197 903.759 255.409 904.471 256.423H900.335V250.5C900.335 250.177 900.073 249.915 899.75 249.915H893.835V237.5C893.835 237.177 893.573 236.915 893.25 236.915H886.75C886.427 236.915 886.165 237.177 886.165 237.5V243.415H880.25C879.927 243.415 879.665 243.677 879.665 244V249.915H873.75C873.427 249.915 873.165 250.177 873.165 250.5V256.418H865.625C865.469 256.418 865.321 256.48 865.212 256.589C865.102 256.698 865.042 256.847 865.042 257.002V258.461C865.042 263.053 866.907 267.226 869.935 270.286C869.988 270.38 870.066 270.457 870.16 270.51C873.295 273.569 877.613 275.46 882.374 275.46C896.734 275.46 908.072 265.851 909.198 259.048ZM880.326 269.426C880.635 269.334 880.812 269.009 880.721 268.7C880.63 268.391 880.305 268.211 879.993 268.307C877.678 268.994 874.307 269.396 870.715 269.415C867.926 266.57 866.21 262.709 866.21 258.463V257.587L905.763 257.592C906.003 257.592 906.221 257.444 906.308 257.218C906.396 256.992 906.336 256.737 906.156 256.574C905.127 255.642 904.539 254.32 904.539 252.949C904.539 251.282 905.402 249.73 906.814 248.821C908.226 249.728 909.089 251.28 909.089 252.949V252.955C909.089 253.274 909.342 253.532 909.662 253.54C911.296 253.576 912.774 254.381 913.683 255.707C912.757 257.055 911.203 257.879 909.547 257.879H908.684C908.38 257.879 908.127 258.112 908.102 258.414C907.555 264.66 896.261 274.292 882.372 274.292C878.411 274.292 874.779 272.889 871.966 270.564C875.195 270.466 878.181 270.063 880.326 269.426ZM893.835 251.085H899.163V256.415H893.835V251.085ZM887.335 251.085H892.665V256.415H887.335V251.085ZM880.835 251.085H886.165V256.415H880.835V251.085ZM874.335 251.085H879.665V256.415H874.335V251.085ZM887.335 244.585H892.665V249.915H887.335V244.585ZM880.835 244.585H886.165V249.915H880.835V244.585ZM887.335 238.085H892.665V243.415H887.335V238.085Z" fill="black"/>
</g>
<g clip-path="url(#clip8_19_9852)">
<path d="M891 462.96C890.904 462.96 890.81 462.936 890.722 462.89L869.597 451.515C869.409 451.413 869.29 451.216 869.29 451V425C869.29 424.785 869.409 424.587 869.597 424.485L890.722 413.11C890.896 413.016 891.102 413.016 891.278 413.11L912.403 424.485C912.591 424.587 912.71 424.785 912.71 425V451C912.71 451.216 912.591 451.413 912.403 451.515L891.278 462.89C891.19 462.937 891.096 462.96 891 462.96ZM891.585 440.605V461.397L898.54 457.651V444.349L891.585 440.605ZM883.46 457.651L890.415 461.397V440.605L883.46 444.35V457.651ZM899.71 444.979V457.021L910.89 451L899.71 444.979ZM871.108 451L882.29 457.021V444.979L871.108 451ZM899.71 443.652L911.538 450.022V425.349L891 414.289L870.46 425.349V450.022L882.29 443.652V433.632C881.354 433.375 880.665 432.517 880.665 431.5C880.665 430.281 881.656 429.29 882.875 429.29C884.094 429.29 885.085 430.281 885.085 431.5C885.085 432.516 884.396 433.374 883.46 433.632V443.021L890.415 439.276V428.755C889.479 428.498 888.79 427.641 888.79 426.623C888.79 425.405 889.781 424.413 891 424.413C892.219 424.413 893.21 425.406 893.21 426.625C893.21 427.641 892.519 428.499 891.585 428.757V439.277L898.54 443.023V433.633C897.606 433.377 896.915 432.519 896.915 431.502C896.915 430.283 897.906 429.292 899.125 429.292C900.344 429.292 901.335 430.283 901.335 431.502C901.335 432.517 900.644 433.375 899.71 433.633V443.652ZM899.125 430.46C898.551 430.46 898.085 430.926 898.085 431.5C898.085 432.073 898.551 432.54 899.125 432.54C899.699 432.54 900.165 432.073 900.165 431.5C900.165 430.926 899.699 430.46 899.125 430.46ZM882.875 430.46C882.301 430.46 881.835 430.926 881.835 431.5C881.835 432.073 882.301 432.54 882.875 432.54C883.449 432.54 883.915 432.073 883.915 431.5C883.915 430.926 883.449 430.46 882.875 430.46ZM891 425.585C890.426 425.585 889.96 426.051 889.96 426.625C889.96 427.199 890.426 427.665 891 427.665C891.574 427.665 892.04 427.199 892.04 426.625C892.04 426.051 891.574 425.585 891 425.585Z" fill="black"/>
</g>
<g clip-path="url(#clip9_19_9852)">
<path fill-rule="evenodd" clip-rule="evenodd" d="M890 51.2501C884.599 51.2509 879.374 53.1731 875.261 56.6731C871.147 60.173 868.413 65.0223 867.547 70.3535C866.682 75.6847 867.741 81.1501 870.535 85.7718C873.33 90.3936 877.678 93.8704 882.801 95.5801C883.939 95.7914 884.426 95.0926 884.426 94.4914C884.426 93.8901 884.426 92.5251 884.426 90.6239C878.105 91.9889 876.773 87.5689 876.773 87.5689C876.328 86.176 875.392 84.9921 874.14 84.2376C872.076 82.8401 874.303 82.8564 874.303 82.8564C875.023 82.9582 875.711 83.2234 876.314 83.6318C876.917 84.0402 877.418 84.5809 877.78 85.2126C878.409 86.3416 879.461 87.1743 880.705 87.5278C881.948 87.8813 883.281 87.7266 884.41 87.0976C884.502 85.9446 885.01 84.8645 885.84 84.0589C880.803 83.4739 875.489 81.5239 875.489 72.8139C875.452 70.5517 876.29 68.3627 877.829 66.7039C877.132 64.7445 877.214 62.5926 878.056 60.6914C878.056 60.6914 879.958 60.0739 884.313 63.0151C888.036 61.9994 891.964 61.9994 895.688 63.0151C900.026 60.0739 901.928 60.6914 901.928 60.6914C902.77 62.5926 902.851 64.7445 902.155 66.7039C903.694 68.3627 904.532 70.5517 904.495 72.8139C904.495 81.5564 899.181 83.4739 894.111 84.0426C894.654 84.5931 895.073 85.2536 895.34 85.9796C895.606 86.7056 895.713 87.4803 895.655 88.2514C895.655 91.2901 895.655 93.7439 895.655 94.4914C895.655 95.2389 896.061 95.8076 897.28 95.5801C902.41 93.8682 906.762 90.3848 909.557 85.7545C912.351 81.1242 913.404 75.6499 912.528 70.3133C911.652 64.9767 908.903 60.1268 904.774 56.6334C900.646 53.1399 895.408 51.2315 890 51.2501Z" fill="black"/>
</g>
<rect width="142" height="8" transform="translate(145 160)" fill="white" fill-opacity="0.01" style="mix-blend-mode:multiply"/>
<rect width="128" height="0" transform="translate(152 164)" fill="white" fill-opacity="0.01" style="mix-blend-mode:multiply"/>
<path d="M152 164H280" stroke="black"/>
<rect width="8" height="8" transform="translate(279 160)" fill="white" fill-opacity="0.01" style="mix-blend-mode:multiply"/>
<path d="M279 160L287 164L279 168V160Z" fill="black"/>
<rect width="8" height="8" transform="matrix(-1 0 0 1 153 160)" fill="white" fill-opacity="0.01" style="mix-blend-mode:multiply"/>
<path d="M153 160L145 164L153 168V160Z" fill="black"/>
<defs>
<clipPath id="clip0_19_9852">
<rect width="360" height="48" fill="white" transform="translate(288 108)"/>
</clipPath>
<clipPath id="clip1_19_9852">
<rect width="296" height="48" fill="white" transform="translate(320 180)"/>
</clipPath>
<clipPath id="clip2_19_9852">
<rect x="494" y="394" width="31" height="30" rx="15" fill="white"/>
</clipPath>
<clipPath id="clip3_19_9852">
<rect width="31" height="30" rx="15" transform="matrix(1 0 0 -1 494 424)" fill="white"/>
</clipPath>
<clipPath id="clip4_19_9852">
<rect width="227" height="48" fill="white" transform="translate(352 289)"/>
</clipPath>
<clipPath id="clip5_19_9852">
<rect width="24" height="24" fill="white" transform="translate(364 301)"/>
</clipPath>
<clipPath id="clip6_19_9852">
<rect width="34" height="8" fill="white" transform="matrix(0 -1 1 0 116 281)"/>
</clipPath>
<clipPath id="clip7_19_9852">
<rect width="52" height="52" fill="white" transform="translate(864 231)"/>
</clipPath>
<clipPath id="clip8_19_9852">
<rect width="52" height="52" fill="white" transform="translate(865 412)"/>
</clipPath>
<clipPath id="clip9_19_9852">
<rect width="52" height="52" fill="white" transform="translate(864 48)"/>
</clipPath>
</defs>
</svg>
