<svg width="1080" height="592" viewBox="0 0 1080 592" fill="none" xmlns="http://www.w3.org/2000/svg">
<rect width="1080" height="592" fill="white"/>
<rect x="176.5" y="72.5" width="327" height="359" fill="white"/>
<rect x="176.5" y="72.5" width="327" height="359" stroke="#0F62FE"/>
<rect x="177" y="73" width="326" height="358" fill="white"/>
<rect x="177" y="73" width="326" height="358" fill="#EDF5FF"/>
<g clip-path="url(#clip0_16_448)">
<path d="M199.756 83.866H196.984V92H195.136V83.866H192.364V82.228H199.756V83.866ZM202.48 92H200.688V84.692H202.48V86.204H202.55C202.732 85.434 203.32 84.692 204.482 84.692H204.874V86.386H204.314C203.11 86.386 202.48 86.722 202.48 87.52V92ZM210.712 92V90.782H210.642C210.39 91.51 209.802 92.168 208.598 92.168C207.1 92.168 206.26 91.132 206.26 89.312V84.692H208.052V89.13C208.052 90.138 208.43 90.684 209.284 90.684C209.998 90.684 210.712 90.306 210.712 89.522V84.692H212.504V92H210.712ZM217.129 92.168C215.743 92.168 214.833 91.664 214.105 90.824L215.197 89.76C215.729 90.376 216.373 90.754 217.199 90.754C218.053 90.754 218.417 90.432 218.417 89.914C218.417 89.494 218.165 89.228 217.521 89.144L216.793 89.046C215.225 88.85 214.357 88.164 214.357 86.834C214.357 85.42 215.463 84.524 217.129 84.524C218.557 84.524 219.285 84.944 219.985 85.672L218.935 86.722C218.515 86.274 217.899 85.938 217.185 85.938C216.415 85.938 216.079 86.246 216.079 86.694C216.079 87.184 216.345 87.408 217.031 87.52L217.773 87.618C219.369 87.842 220.139 88.556 220.139 89.774C220.139 91.188 218.949 92.168 217.129 92.168ZM224.054 92C222.822 92 222.164 91.328 222.164 90.138V86.12H221.086V84.692H221.646C222.178 84.692 222.346 84.44 222.346 83.936V82.69H223.956V84.692H225.454V86.12H223.956V90.572H225.342V92H224.054ZM230.067 92.168C227.911 92.168 226.623 90.67 226.623 88.332C226.623 86.022 227.869 84.524 230.011 84.524C232.293 84.524 233.343 86.204 233.343 88.206V88.794H228.485V88.976C228.485 90.026 229.087 90.74 230.263 90.74C231.145 90.74 231.677 90.32 232.125 89.746L233.091 90.824C232.489 91.65 231.425 92.168 230.067 92.168ZM230.039 85.868C229.101 85.868 228.485 86.568 228.485 87.576V87.688H231.481V87.562C231.481 86.554 230.963 85.868 230.039 85.868ZM239.616 92V90.782H239.546C239.28 91.608 238.496 92.168 237.53 92.168C235.696 92.168 234.674 90.782 234.674 88.332C234.674 85.896 235.696 84.524 237.53 84.524C238.496 84.524 239.294 85.056 239.546 85.896H239.616V81.64H241.408V92H239.616ZM238.104 90.684C238.958 90.684 239.616 90.25 239.616 89.494V87.17C239.616 86.456 238.958 85.994 238.104 85.994C237.18 85.994 236.55 86.68 236.55 87.716V88.976C236.55 90.012 237.18 90.684 238.104 90.684ZM252.913 92H247.215V82.228H249.063V90.362H252.913V92ZM255.46 83.628C254.718 83.628 254.41 83.25 254.41 82.732V82.452C254.41 81.934 254.718 81.556 255.46 81.556C256.188 81.556 256.51 81.934 256.51 82.452V82.732C256.51 83.25 256.188 83.628 255.46 83.628ZM254.564 92V84.692H256.356V92H254.564ZM260.385 92H258.593V84.692H260.385V85.91H260.455C260.749 85.126 261.365 84.524 262.499 84.524C263.997 84.524 264.837 85.56 264.837 87.38V92H263.045V87.562C263.045 86.526 262.695 85.994 261.841 85.994C261.099 85.994 260.385 86.386 260.385 87.17V92ZM271.352 92V90.782H271.282C271.03 91.51 270.442 92.168 269.238 92.168C267.74 92.168 266.9 91.132 266.9 89.312V84.692H268.692V89.13C268.692 90.138 269.07 90.684 269.924 90.684C270.638 90.684 271.352 90.306 271.352 89.522V84.692H273.144V92H271.352ZM274.604 92L277.096 88.29L274.66 84.692H276.704L278.216 87.114H278.272L279.77 84.692H281.674L279.196 88.318L281.688 92H279.644L278.104 89.48H278.048L276.508 92H274.604ZM287.514 83.628C286.772 83.628 286.464 83.25 286.464 82.732V82.452C286.464 81.934 286.772 81.556 287.514 81.556C288.242 81.556 288.564 81.934 288.564 82.452V82.732C288.564 83.25 288.242 83.628 287.514 83.628ZM286.618 92V84.692H288.41V92H286.618ZM292.439 92H290.647V84.692H292.439V85.91H292.509C292.803 85.126 293.419 84.524 294.553 84.524C296.051 84.524 296.891 85.56 296.891 87.38V92H295.099V87.562C295.099 86.526 294.749 85.994 293.895 85.994C293.153 85.994 292.439 86.386 292.439 87.17V92ZM301.431 92.168C300.045 92.168 299.135 91.664 298.407 90.824L299.499 89.76C300.031 90.376 300.675 90.754 301.501 90.754C302.355 90.754 302.719 90.432 302.719 89.914C302.719 89.494 302.467 89.228 301.823 89.144L301.095 89.046C299.527 88.85 298.659 88.164 298.659 86.834C298.659 85.42 299.765 84.524 301.431 84.524C302.859 84.524 303.587 84.944 304.287 85.672L303.237 86.722C302.817 86.274 302.201 85.938 301.487 85.938C300.717 85.938 300.381 86.246 300.381 86.694C300.381 87.184 300.647 87.408 301.333 87.52L302.075 87.618C303.671 87.842 304.441 88.556 304.441 89.774C304.441 91.188 303.251 92.168 301.431 92.168ZM308.356 92C307.124 92 306.466 91.328 306.466 90.138V86.12H305.388V84.692H305.948C306.48 84.692 306.648 84.44 306.648 83.936V82.69H308.258V84.692H309.756V86.12H308.258V90.572H309.644V92H308.356ZM313.277 92.168C311.793 92.168 310.953 91.314 310.953 90.012C310.953 88.514 312.087 87.772 314.075 87.772H315.321V87.24C315.321 86.428 314.915 85.952 313.963 85.952C313.123 85.952 312.647 86.372 312.297 86.876L311.233 85.924C311.765 85.084 312.619 84.524 314.089 84.524C316.063 84.524 317.113 85.462 317.113 87.128V90.572H317.841V92H316.847C316.077 92 315.601 91.496 315.489 90.74H315.405C315.167 91.678 314.369 92.168 313.277 92.168ZM313.879 90.866C314.677 90.866 315.321 90.502 315.321 89.816V88.85H314.173C313.235 88.85 312.773 89.172 312.773 89.746V89.984C312.773 90.572 313.179 90.866 313.879 90.866ZM321.243 92H319.451V84.692H321.243V85.91H321.313C321.607 85.126 322.223 84.524 323.357 84.524C324.855 84.524 325.695 85.56 325.695 87.38V92H323.903V87.562C323.903 86.526 323.553 85.994 322.699 85.994C321.957 85.994 321.243 86.386 321.243 87.17V92ZM330.725 92.168C328.569 92.168 327.351 90.684 327.351 88.332C327.351 85.994 328.569 84.524 330.725 84.524C332.195 84.524 333.161 85.224 333.595 86.372L332.125 87.03C331.957 86.414 331.495 85.966 330.725 85.966C329.731 85.966 329.227 86.666 329.227 87.688V89.018C329.227 90.04 329.731 90.726 330.725 90.726C331.579 90.726 331.999 90.236 332.265 89.578L333.637 90.236C333.161 91.524 332.139 92.168 330.725 92.168ZM338.065 92.168C335.909 92.168 334.621 90.67 334.621 88.332C334.621 86.022 335.867 84.524 338.009 84.524C340.291 84.524 341.341 86.204 341.341 88.206V88.794H336.483V88.976C336.483 90.026 337.085 90.74 338.261 90.74C339.143 90.74 339.675 90.32 340.123 89.746L341.089 90.824C340.487 91.65 339.423 92.168 338.065 92.168ZM338.037 85.868C337.099 85.868 336.483 86.568 336.483 87.576V87.688H339.479V87.562C339.479 86.554 338.961 85.868 338.037 85.868Z" fill="black"/>
<path d="M193.848 103.14C193.26 103.14 192.994 102.804 192.994 102.314V102.118C192.994 101.362 193.47 100.326 194.268 99.64H195.206C194.646 100.228 194.31 100.718 194.156 101.376C194.534 101.46 194.702 101.74 194.702 102.118V102.314C194.702 102.804 194.436 103.14 193.848 103.14ZM196.676 103.14C196.088 103.14 195.822 102.804 195.822 102.314V102.118C195.822 101.362 196.298 100.326 197.096 99.64H198.034C197.474 100.228 197.138 100.718 196.984 101.376C197.362 101.46 197.53 101.74 197.53 102.118V102.314C197.53 102.804 197.264 103.14 196.676 103.14ZM203.182 110H201.782C201.012 110 200.592 109.51 200.592 108.81V103.756H199.402V102.776H200.074C200.55 102.776 200.704 102.608 200.704 102.118V100.774H201.712V102.776H203.294V103.756H201.712V109.02H203.182V110ZM206.374 110H205.254V102.776H206.374V104.106H206.444C206.696 103.42 207.354 102.776 208.53 102.776H208.964V103.896H208.306C207.102 103.896 206.374 104.414 206.374 105.1V110ZM215.007 110V108.824H214.951C214.671 109.51 214.125 110.168 212.921 110.168C211.437 110.168 210.485 109.16 210.485 107.41V102.776H211.605V107.214C211.605 108.502 212.179 109.16 213.257 109.16C214.139 109.16 215.007 108.726 215.007 107.774V102.776H216.127V110H215.007ZM220.842 110.168C219.512 110.168 218.63 109.608 217.986 108.754L218.784 108.11C219.344 108.81 220.016 109.216 220.926 109.216C221.878 109.216 222.438 108.782 222.438 108.04C222.438 107.48 222.13 107.046 221.178 106.906L220.604 106.822C219.274 106.626 218.28 106.08 218.28 104.736C218.28 103.308 219.386 102.608 220.856 102.608C222.018 102.608 222.788 103.042 223.376 103.77L222.634 104.442C222.312 103.994 221.696 103.56 220.772 103.56C219.848 103.56 219.358 103.994 219.358 104.68C219.358 105.38 219.848 105.66 220.744 105.8L221.304 105.884C222.9 106.122 223.516 106.822 223.516 107.914C223.516 109.314 222.494 110.168 220.842 110.168ZM228.554 110H227.154C226.384 110 225.964 109.51 225.964 108.81V103.756H224.774V102.776H225.446C225.922 102.776 226.076 102.608 226.076 102.118V100.774H227.084V102.776H228.666V103.756H227.084V109.02H228.554V110ZM233.288 110.168C231.328 110.168 230.04 108.684 230.04 106.388C230.04 104.092 231.328 102.608 233.288 102.608C235.22 102.608 236.41 104.092 236.41 106.136V106.668H231.216V107.004C231.216 108.25 232.014 109.188 233.358 109.188C234.268 109.188 234.968 108.74 235.346 107.942L236.144 108.516C235.682 109.496 234.646 110.168 233.288 110.168ZM233.288 103.546C232.07 103.546 231.216 104.47 231.216 105.73V105.828H235.206V105.674C235.206 104.4 234.436 103.546 233.288 103.546ZM243.035 110V108.824H242.979C242.545 109.72 241.859 110.168 240.865 110.168C239.059 110.168 237.925 108.698 237.925 106.388C237.925 104.078 239.059 102.608 240.865 102.608C241.859 102.608 242.601 103.042 242.979 103.952H243.035V99.64H244.155V110H243.035ZM241.173 109.16C242.195 109.16 243.035 108.628 243.035 107.69V105.002C243.035 104.204 242.195 103.616 241.173 103.616C239.913 103.616 239.129 104.484 239.129 105.772V107.004C239.129 108.292 239.913 109.16 241.173 109.16ZM247.481 99.5C248.069 99.5 248.335 99.836 248.335 100.326V100.522C248.335 101.278 247.859 102.314 247.061 103H246.123C246.683 102.412 247.019 101.922 247.173 101.264C246.795 101.18 246.627 100.9 246.627 100.522V100.326C246.627 99.836 246.893 99.5 247.481 99.5ZM250.295 99.5C250.883 99.5 251.149 99.836 251.149 100.326V100.522C251.149 101.278 250.673 102.314 249.875 103H248.937C249.497 102.412 249.833 101.922 249.987 101.264C249.609 101.18 249.441 100.9 249.441 100.522V100.326C249.441 99.836 249.707 99.5 250.295 99.5Z" fill="black"/>
</g>
<rect x="576.5" y="72.5" width="327" height="359" fill="white"/>
<rect x="576.5" y="72.5" width="327" height="359" stroke="#0F62FE"/>
<rect x="577" y="73" width="326" height="358" fill="white"/>
<rect x="577" y="73" width="326" height="358" fill="#EDF5FF"/>
<g clip-path="url(#clip1_16_448)">
<path d="M599.084 92L596.298 87.576L594.996 89.116V92H593.148V82.228H594.996V87.044H595.066L596.452 85.21L598.874 82.228H601.002L597.6 86.302L601.282 92H599.084ZM606.85 92H604.75L601.558 82.228H603.448L604.946 86.988L605.814 90.236H605.856L606.71 86.988L608.208 82.228H610.042L606.85 92ZM611.57 92V82.228H613.656L616.162 87.002H616.218L618.696 82.228H620.698V92H618.948V84.986H618.892L618.136 86.54L616.134 90.236L614.132 86.54L613.376 84.986H613.32V92H611.57ZM633.11 92.616C633.11 94.142 632.074 94.968 629.274 94.968C626.81 94.968 625.872 94.324 625.872 93.246C625.872 92.434 626.362 91.972 627.174 91.846V91.692C626.572 91.538 626.236 91.062 626.236 90.474C626.236 89.718 626.88 89.34 627.58 89.186V89.13C626.698 88.724 626.25 87.968 626.25 87.002C626.25 85.518 627.3 84.524 629.274 84.524C629.722 84.524 630.184 84.58 630.548 84.706V84.468C630.548 83.754 630.912 83.404 631.584 83.404H632.718V84.776H631.164V84.972C631.92 85.392 632.298 86.106 632.298 87.002C632.298 88.472 631.262 89.452 629.274 89.452C628.854 89.452 628.476 89.41 628.154 89.326C627.874 89.452 627.636 89.662 627.636 89.984C627.636 90.348 627.944 90.53 628.588 90.53H630.548C632.34 90.53 633.11 91.3 633.11 92.616ZM631.43 92.826C631.43 92.364 631.094 92.084 630.184 92.084H627.692C627.426 92.28 627.314 92.546 627.314 92.84C627.314 93.4 627.734 93.736 628.854 93.736H629.75C630.912 93.736 631.43 93.442 631.43 92.826ZM629.274 88.234C630.128 88.234 630.59 87.842 630.59 87.114V86.876C630.59 86.134 630.128 85.756 629.274 85.756C628.42 85.756 627.958 86.134 627.958 86.876V87.114C627.958 87.842 628.42 88.234 629.274 88.234ZM638.618 92V90.782H638.548C638.296 91.51 637.708 92.168 636.504 92.168C635.006 92.168 634.166 91.132 634.166 89.312V84.692H635.958V89.13C635.958 90.138 636.336 90.684 637.19 90.684C637.904 90.684 638.618 90.306 638.618 89.522V84.692H640.41V92H638.618ZM645.595 92.168C643.439 92.168 642.151 90.67 642.151 88.332C642.151 86.022 643.397 84.524 645.539 84.524C647.821 84.524 648.871 86.204 648.871 88.206V88.794H644.013V88.976C644.013 90.026 644.615 90.74 645.791 90.74C646.673 90.74 647.205 90.32 647.653 89.746L648.619 90.824C648.017 91.65 646.953 92.168 645.595 92.168ZM645.567 85.868C644.629 85.868 644.013 86.568 644.013 87.576V87.688H647.009V87.562C647.009 86.554 646.491 85.868 645.567 85.868ZM653.001 92.168C651.615 92.168 650.705 91.664 649.977 90.824L651.069 89.76C651.601 90.376 652.245 90.754 653.071 90.754C653.925 90.754 654.289 90.432 654.289 89.914C654.289 89.494 654.037 89.228 653.393 89.144L652.665 89.046C651.097 88.85 650.229 88.164 650.229 86.834C650.229 85.42 651.335 84.524 653.001 84.524C654.429 84.524 655.157 84.944 655.857 85.672L654.807 86.722C654.387 86.274 653.771 85.938 653.057 85.938C652.287 85.938 651.951 86.246 651.951 86.694C651.951 87.184 652.217 87.408 652.903 87.52L653.645 87.618C655.241 87.842 656.011 88.556 656.011 89.774C656.011 91.188 654.821 92.168 653.001 92.168ZM659.926 92C658.694 92 658.036 91.328 658.036 90.138V86.12H656.958V84.692H657.518C658.05 84.692 658.218 84.44 658.218 83.936V82.69H659.828V84.692H661.326V86.12H659.828V90.572H661.214V92H659.926ZM668.791 92C667.559 92 666.901 91.328 666.901 90.138V86.12H665.823V84.692H666.383C666.915 84.692 667.083 84.44 667.083 83.936V82.69H668.693V84.692H670.191V86.12H668.693V90.572H670.079V92H668.791ZM674.749 92.168C672.663 92.168 671.361 90.684 671.361 88.332C671.361 85.994 672.663 84.524 674.749 84.524C676.849 84.524 678.151 85.994 678.151 88.332C678.151 90.684 676.849 92.168 674.749 92.168ZM674.749 90.726C675.687 90.726 676.275 90.124 676.275 89.018V87.66C676.275 86.568 675.687 85.966 674.749 85.966C673.825 85.966 673.237 86.568 673.237 87.66V89.018C673.237 90.124 673.825 90.726 674.749 90.726ZM683.368 92V81.64H685.16V85.896H685.216C685.482 85.056 686.266 84.524 687.232 84.524C689.08 84.524 690.102 85.896 690.102 88.332C690.102 90.782 689.08 92.168 687.232 92.168C686.266 92.168 685.496 91.608 685.216 90.782H685.16V92H683.368ZM686.658 90.684C687.582 90.684 688.226 90.012 688.226 88.976V87.716C688.226 86.68 687.582 85.994 686.658 85.994C685.804 85.994 685.16 86.456 685.16 87.17V89.494C685.16 90.25 685.804 90.684 686.658 90.684ZM694.876 92.168C692.72 92.168 691.432 90.67 691.432 88.332C691.432 86.022 692.678 84.524 694.82 84.524C697.102 84.524 698.152 86.204 698.152 88.206V88.794H693.294V88.976C693.294 90.026 693.896 90.74 695.072 90.74C695.954 90.74 696.486 90.32 696.934 89.746L697.9 90.824C697.298 91.65 696.234 92.168 694.876 92.168ZM694.848 85.868C693.91 85.868 693.294 86.568 693.294 87.576V87.688H696.29V87.562C696.29 86.554 695.772 85.868 694.848 85.868ZM705.164 92.168C703.68 92.168 702.84 91.314 702.84 90.012C702.84 88.514 703.974 87.772 705.962 87.772H707.208V87.24C707.208 86.428 706.802 85.952 705.85 85.952C705.01 85.952 704.534 86.372 704.184 86.876L703.12 85.924C703.652 85.084 704.506 84.524 705.976 84.524C707.95 84.524 709 85.462 709 87.128V90.572H709.728V92H708.734C707.964 92 707.488 91.496 707.376 90.74H707.292C707.054 91.678 706.256 92.168 705.164 92.168ZM705.766 90.866C706.564 90.866 707.208 90.502 707.208 89.816V88.85H706.06C705.122 88.85 704.66 89.172 704.66 89.746V89.984C704.66 90.572 705.066 90.866 705.766 90.866ZM713.565 92C712.333 92 711.675 91.328 711.675 90.138V86.12H710.597V84.692H711.157C711.689 84.692 711.857 84.44 711.857 83.936V82.69H713.467V84.692H714.965V86.12H713.467V90.572H714.853V92H713.565ZM718.88 92C717.648 92 716.99 91.328 716.99 90.138V86.12H715.912V84.692H716.472C717.004 84.692 717.172 84.44 717.172 83.936V82.69H718.782V84.692H720.28V86.12H718.782V90.572H720.168V92H718.88ZM724.893 92.168C722.737 92.168 721.449 90.67 721.449 88.332C721.449 86.022 722.695 84.524 724.837 84.524C727.119 84.524 728.169 86.204 728.169 88.206V88.794H723.311V88.976C723.311 90.026 723.913 90.74 725.089 90.74C725.971 90.74 726.503 90.32 726.951 89.746L727.917 90.824C727.315 91.65 726.251 92.168 724.893 92.168ZM724.865 85.868C723.927 85.868 723.311 86.568 723.311 87.576V87.688H726.307V87.562C726.307 86.554 725.789 85.868 724.865 85.868ZM732.3 92.168C730.914 92.168 730.004 91.664 729.276 90.824L730.368 89.76C730.9 90.376 731.544 90.754 732.37 90.754C733.224 90.754 733.588 90.432 733.588 89.914C733.588 89.494 733.336 89.228 732.692 89.144L731.964 89.046C730.396 88.85 729.528 88.164 729.528 86.834C729.528 85.42 730.634 84.524 732.3 84.524C733.728 84.524 734.456 84.944 735.156 85.672L734.106 86.722C733.686 86.274 733.07 85.938 732.356 85.938C731.586 85.938 731.25 86.246 731.25 86.694C731.25 87.184 731.516 87.408 732.202 87.52L732.944 87.618C734.54 87.842 735.31 88.556 735.31 89.774C735.31 91.188 734.12 92.168 732.3 92.168ZM739.225 92C737.993 92 737.335 91.328 737.335 90.138V86.12H736.257V84.692H736.817C737.349 84.692 737.517 84.44 737.517 83.936V82.69H739.127V84.692H740.625V86.12H739.127V90.572H740.513V92H739.225ZM745.239 92.168C743.083 92.168 741.795 90.67 741.795 88.332C741.795 86.022 743.041 84.524 745.183 84.524C747.465 84.524 748.515 86.204 748.515 88.206V88.794H743.657V88.976C743.657 90.026 744.259 90.74 745.435 90.74C746.317 90.74 746.849 90.32 747.297 89.746L748.263 90.824C747.661 91.65 746.597 92.168 745.239 92.168ZM745.211 85.868C744.273 85.868 743.657 86.568 743.657 87.576V87.688H746.653V87.562C746.653 86.554 746.135 85.868 745.211 85.868ZM754.787 92V90.782H754.717C754.451 91.608 753.667 92.168 752.701 92.168C750.867 92.168 749.845 90.782 749.845 88.332C749.845 85.896 750.867 84.524 752.701 84.524C753.667 84.524 754.465 85.056 754.717 85.896H754.787V81.64H756.579V92H754.787ZM753.275 90.684C754.129 90.684 754.787 90.25 754.787 89.494V87.17C754.787 86.456 754.129 85.994 753.275 85.994C752.351 85.994 751.721 86.68 751.721 87.716V88.976C751.721 90.012 752.351 90.684 753.275 90.684Z" fill="black"/>
<path d="M593.848 103.14C593.26 103.14 592.994 102.804 592.994 102.314V102.118C592.994 101.362 593.47 100.326 594.268 99.64H595.206C594.646 100.228 594.31 100.718 594.156 101.376C594.534 101.46 594.702 101.74 594.702 102.118V102.314C594.702 102.804 594.436 103.14 593.848 103.14ZM596.676 103.14C596.088 103.14 595.822 102.804 595.822 102.314V102.118C595.822 101.362 596.298 100.326 597.096 99.64H598.034C597.474 100.228 597.138 100.718 596.984 101.376C597.362 101.46 597.53 101.74 597.53 102.118V102.314C597.53 102.804 597.264 103.14 596.676 103.14ZM601.959 110.168C600.629 110.168 599.747 109.608 599.103 108.754L599.901 108.11C600.461 108.81 601.133 109.216 602.043 109.216C602.995 109.216 603.555 108.782 603.555 108.04C603.555 107.48 603.247 107.046 602.295 106.906L601.721 106.822C600.391 106.626 599.397 106.08 599.397 104.736C599.397 103.308 600.503 102.608 601.973 102.608C603.135 102.608 603.905 103.042 604.493 103.77L603.751 104.442C603.429 103.994 602.813 103.56 601.889 103.56C600.965 103.56 600.475 103.994 600.475 104.68C600.475 105.38 600.965 105.66 601.861 105.8L602.421 105.884C604.017 106.122 604.633 106.822 604.633 107.914C604.633 109.314 603.611 110.168 601.959 110.168ZM609.488 110.168C607.528 110.168 606.24 108.684 606.24 106.388C606.24 104.092 607.528 102.608 609.488 102.608C611.42 102.608 612.61 104.092 612.61 106.136V106.668H607.416V107.004C607.416 108.25 608.214 109.188 609.558 109.188C610.468 109.188 611.168 108.74 611.546 107.942L612.344 108.516C611.882 109.496 610.846 110.168 609.488 110.168ZM609.488 103.546C608.27 103.546 607.416 104.47 607.416 105.73V105.828H611.406V105.674C611.406 104.4 610.636 103.546 609.488 103.546ZM617.303 110.168C615.273 110.168 614.083 108.698 614.083 106.388C614.083 104.078 615.273 102.608 617.303 102.608C618.731 102.608 619.585 103.308 620.005 104.302L619.067 104.778C618.801 104.036 618.185 103.602 617.303 103.602C615.973 103.602 615.287 104.512 615.287 105.772V107.004C615.287 108.264 615.973 109.174 617.303 109.174C618.213 109.174 618.871 108.74 619.263 107.914L620.075 108.46C619.613 109.496 618.675 110.168 617.303 110.168ZM627.852 110.798C627.852 112.282 626.676 112.968 624.352 112.968C622.098 112.968 621.174 112.324 621.174 111.19C621.174 110.406 621.608 109.986 622.322 109.79V109.636C621.916 109.44 621.678 109.118 621.678 108.628C621.678 107.9 622.196 107.55 622.924 107.368V107.312C622.07 106.906 621.566 106.108 621.566 105.1C621.566 103.63 622.644 102.608 624.282 102.608C624.8 102.608 625.262 102.706 625.654 102.888V102.762C625.654 102.202 625.892 101.796 626.494 101.796H627.572V102.776H626.2V103.238C626.718 103.686 627.026 104.33 627.026 105.1C627.026 106.57 625.948 107.592 624.296 107.592C624.058 107.592 623.806 107.564 623.596 107.522C623.12 107.648 622.644 107.886 622.644 108.334C622.644 108.768 623.092 108.88 623.75 108.88H625.29C627.082 108.88 627.852 109.608 627.852 110.798ZM626.802 110.882C626.802 110.308 626.424 109.93 625.304 109.93H622.896C622.434 110.14 622.224 110.462 622.224 110.91C622.224 111.54 622.658 112.058 623.792 112.058H624.828C626.074 112.058 626.802 111.666 626.802 110.882ZM624.296 106.696C625.248 106.696 625.85 106.248 625.85 105.296V104.904C625.85 103.952 625.248 103.504 624.296 103.504C623.344 103.504 622.742 103.952 622.742 104.904V105.296C622.742 106.248 623.344 106.696 624.296 106.696ZM633.715 110V108.824H633.659C633.379 109.51 632.833 110.168 631.629 110.168C630.145 110.168 629.193 109.16 629.193 107.41V102.776H630.313V107.214C630.313 108.502 630.887 109.16 631.965 109.16C632.847 109.16 633.715 108.726 633.715 107.774V102.776H634.835V110H633.715ZM640.096 110.168C638.136 110.168 636.848 108.684 636.848 106.388C636.848 104.092 638.136 102.608 640.096 102.608C642.028 102.608 643.218 104.092 643.218 106.136V106.668H638.024V107.004C638.024 108.25 638.822 109.188 640.166 109.188C641.076 109.188 641.776 108.74 642.154 107.942L642.952 108.516C642.49 109.496 641.454 110.168 640.096 110.168ZM640.096 103.546C638.878 103.546 638.024 104.47 638.024 105.73V105.828H642.014V105.674C642.014 104.4 641.244 103.546 640.096 103.546ZM647.394 110.168C646.064 110.168 645.182 109.608 644.538 108.754L645.336 108.11C645.896 108.81 646.568 109.216 647.478 109.216C648.43 109.216 648.99 108.782 648.99 108.04C648.99 107.48 648.682 107.046 647.73 106.906L647.156 106.822C645.826 106.626 644.832 106.08 644.832 104.736C644.832 103.308 645.938 102.608 647.408 102.608C648.57 102.608 649.34 103.042 649.928 103.77L649.186 104.442C648.864 103.994 648.248 103.56 647.324 103.56C646.4 103.56 645.91 103.994 645.91 104.68C645.91 105.38 646.4 105.66 647.296 105.8L647.856 105.884C649.452 106.122 650.068 106.822 650.068 107.914C650.068 109.314 649.046 110.168 647.394 110.168ZM655.107 110H653.707C652.937 110 652.517 109.51 652.517 108.81V103.756H651.327V102.776H651.999C652.475 102.776 652.629 102.608 652.629 102.118V100.774H653.637V102.776H655.219V103.756H653.637V109.02H655.107V110ZM658.236 99.5C658.824 99.5 659.09 99.836 659.09 100.326V100.522C659.09 101.278 658.614 102.314 657.816 103H656.878C657.438 102.412 657.774 101.922 657.928 101.264C657.55 101.18 657.382 100.9 657.382 100.522V100.326C657.382 99.836 657.648 99.5 658.236 99.5ZM661.05 99.5C661.638 99.5 661.904 99.836 661.904 100.326V100.522C661.904 101.278 661.428 102.314 660.63 103H659.692C660.252 102.412 660.588 101.922 660.742 101.264C660.364 101.18 660.196 100.9 660.196 100.522V100.326C660.196 99.836 660.462 99.5 661.05 99.5Z" fill="black"/>
</g>
<rect x="576.5" y="464.5" width="327" height="63" fill="white"/>
<rect x="576.5" y="464.5" width="327" height="63" stroke="#0F62FE"/>
<rect x="577" y="465" width="326" height="62" fill="white"/>
<rect x="577" y="465" width="326" height="62" fill="#EDF5FF"/>
<g clip-path="url(#clip2_16_448)">
<path d="M593.078 483.228H594.898V489.234C594.898 490.76 595.43 491.53 596.83 491.53C598.23 491.53 598.762 490.76 598.762 489.234V483.228H600.582V488.996C600.582 491.866 599.56 493.168 596.816 493.168C594.072 493.168 593.078 491.866 593.078 488.996V483.228ZM605.62 493H604.654C603.436 493 602.862 492.356 602.862 491.236V482.64H604.654V491.572H605.62V493ZM609.351 493C608.119 493 607.461 492.328 607.461 491.138V487.12H606.383V485.692H606.943C607.475 485.692 607.643 485.44 607.643 484.936V483.69H609.253V485.692H610.751V487.12H609.253V491.572H610.639V493H609.351ZM614.257 493H612.465V485.692H614.257V487.204H614.327C614.509 486.434 615.097 485.692 616.259 485.692H616.651V487.386H616.091C614.887 487.386 614.257 487.722 614.257 488.52V493ZM619.777 493.168C618.293 493.168 617.453 492.314 617.453 491.012C617.453 489.514 618.587 488.772 620.575 488.772H621.821V488.24C621.821 487.428 621.415 486.952 620.463 486.952C619.623 486.952 619.147 487.372 618.797 487.876L617.733 486.924C618.265 486.084 619.119 485.524 620.589 485.524C622.563 485.524 623.613 486.462 623.613 488.128V491.572H624.341V493H623.347C622.577 493 622.101 492.496 621.989 491.74H621.905C621.667 492.678 620.869 493.168 619.777 493.168ZM620.379 491.866C621.177 491.866 621.821 491.502 621.821 490.816V489.85H620.673C619.735 489.85 619.273 490.172 619.273 490.746V490.984C619.273 491.572 619.679 491.866 620.379 491.866ZM629.524 493H627.396L624.96 485.692H626.724L627.746 488.842L628.46 491.446H628.558L629.272 488.842L630.266 485.692H631.974L629.524 493ZM634.226 484.628C633.484 484.628 633.176 484.25 633.176 483.732V483.452C633.176 482.934 633.484 482.556 634.226 482.556C634.954 482.556 635.276 482.934 635.276 483.452V483.732C635.276 484.25 634.954 484.628 634.226 484.628ZM633.33 493V485.692H635.122V493H633.33ZM639.753 493.168C638.367 493.168 637.457 492.664 636.729 491.824L637.821 490.76C638.353 491.376 638.997 491.754 639.823 491.754C640.677 491.754 641.041 491.432 641.041 490.914C641.041 490.494 640.789 490.228 640.145 490.144L639.417 490.046C637.849 489.85 636.981 489.164 636.981 487.834C636.981 486.42 638.087 485.524 639.753 485.524C641.181 485.524 641.909 485.944 642.609 486.672L641.559 487.722C641.139 487.274 640.523 486.938 639.809 486.938C639.039 486.938 638.703 487.246 638.703 487.694C638.703 488.184 638.969 488.408 639.655 488.52L640.397 488.618C641.993 488.842 642.763 489.556 642.763 490.774C642.763 492.188 641.573 493.168 639.753 493.168ZM647.403 493.168C645.317 493.168 644.015 491.684 644.015 489.332C644.015 486.994 645.317 485.524 647.403 485.524C649.503 485.524 650.805 486.994 650.805 489.332C650.805 491.684 649.503 493.168 647.403 493.168ZM647.403 491.726C648.341 491.726 648.929 491.124 648.929 490.018V488.66C648.929 487.568 648.341 486.966 647.403 486.966C646.479 486.966 645.891 487.568 645.891 488.66V490.018C645.891 491.124 646.479 491.726 647.403 491.726ZM654.346 493H652.554V485.692H654.346V487.204H654.416C654.598 486.434 655.186 485.692 656.348 485.692H656.74V487.386H656.18C654.976 487.386 654.346 487.722 654.346 488.52V493Z" fill="black"/>
</g>
<rect x="352.5" y="128.5" width="87" height="117" fill="white"/>
<rect x="352.5" y="128.5" width="87" height="117" stroke="black"/>
<rect x="353" y="129" width="86" height="116" fill="white"/>
<g clip-path="url(#clip3_16_448)">
<path d="M370.996 153.234V157H369.148V147.228H373.558C375.336 147.228 376.442 148.404 376.442 150.252C376.442 151.596 375.826 152.618 374.622 153.024L376.624 157H374.566L372.746 153.234H370.996ZM370.996 151.68H373.376C374.09 151.68 374.524 151.288 374.524 150.574V149.93C374.524 149.216 374.09 148.838 373.376 148.838H370.996V151.68ZM381.242 157.168C379.086 157.168 377.798 155.67 377.798 153.332C377.798 151.022 379.044 149.524 381.186 149.524C383.468 149.524 384.518 151.204 384.518 153.206V153.794H379.66V153.976C379.66 155.026 380.262 155.74 381.438 155.74C382.32 155.74 382.852 155.32 383.3 154.746L384.266 155.824C383.664 156.65 382.6 157.168 381.242 157.168ZM381.214 150.868C380.276 150.868 379.66 151.568 379.66 152.576V152.688H382.656V152.562C382.656 151.554 382.138 150.868 381.214 150.868ZM390.79 159.8V155.782H390.72C390.454 156.608 389.67 157.168 388.704 157.168C386.87 157.168 385.848 155.782 385.848 153.332C385.848 150.896 386.87 149.524 388.704 149.524C389.67 149.524 390.468 150.056 390.72 150.896H390.79V149.692H392.582V159.8H390.79ZM389.278 155.684C390.132 155.684 390.79 155.25 390.79 154.494V152.17C390.79 151.456 390.132 150.994 389.278 150.994C388.354 150.994 387.724 151.68 387.724 152.716V153.976C387.724 155.012 388.354 155.684 389.278 155.684ZM399.177 157V155.782H399.107C398.855 156.51 398.267 157.168 397.063 157.168C395.565 157.168 394.725 156.132 394.725 154.312V149.692H396.517V154.13C396.517 155.138 396.895 155.684 397.749 155.684C398.463 155.684 399.177 155.306 399.177 154.522V149.692H400.969V157H399.177ZM406.153 157.168C403.997 157.168 402.709 155.67 402.709 153.332C402.709 151.022 403.955 149.524 406.097 149.524C408.379 149.524 409.429 151.204 409.429 153.206V153.794H404.571V153.976C404.571 155.026 405.173 155.74 406.349 155.74C407.231 155.74 407.763 155.32 408.211 154.746L409.177 155.824C408.575 156.65 407.511 157.168 406.153 157.168ZM406.125 150.868C405.187 150.868 404.571 151.568 404.571 152.576V152.688H407.567V152.562C407.567 151.554 407.049 150.868 406.125 150.868ZM413.56 157.168C412.174 157.168 411.264 156.664 410.536 155.824L411.628 154.76C412.16 155.376 412.804 155.754 413.63 155.754C414.484 155.754 414.848 155.432 414.848 154.914C414.848 154.494 414.596 154.228 413.952 154.144L413.224 154.046C411.656 153.85 410.788 153.164 410.788 151.834C410.788 150.42 411.894 149.524 413.56 149.524C414.988 149.524 415.716 149.944 416.416 150.672L415.366 151.722C414.946 151.274 414.33 150.938 413.616 150.938C412.846 150.938 412.51 151.246 412.51 151.694C412.51 152.184 412.776 152.408 413.462 152.52L414.204 152.618C415.8 152.842 416.57 153.556 416.57 154.774C416.57 156.188 415.38 157.168 413.56 157.168ZM420.485 157C419.253 157 418.595 156.328 418.595 155.138V151.12H417.517V149.692H418.077C418.609 149.692 418.777 149.44 418.777 148.936V147.69H420.387V149.692H421.885V151.12H420.387V155.572H421.773V157H420.485Z" fill="black"/>
</g>
<rect x="640.5" y="128.5" width="87" height="117" fill="white"/>
<rect x="640.5" y="128.5" width="87" height="117" stroke="black"/>
<rect x="641" y="129" width="86" height="116" fill="white"/>
<g clip-path="url(#clip4_16_448)">
<path d="M658.996 153.234V157H657.148V147.228H661.558C663.336 147.228 664.442 148.404 664.442 150.252C664.442 151.596 663.826 152.618 662.622 153.024L664.624 157H662.566L660.746 153.234H658.996ZM658.996 151.68H661.376C662.09 151.68 662.524 151.288 662.524 150.574V149.93C662.524 149.216 662.09 148.838 661.376 148.838H658.996V151.68ZM669.242 157.168C667.086 157.168 665.798 155.67 665.798 153.332C665.798 151.022 667.044 149.524 669.186 149.524C671.468 149.524 672.518 151.204 672.518 153.206V153.794H667.66V153.976C667.66 155.026 668.262 155.74 669.438 155.74C670.32 155.74 670.852 155.32 671.3 154.746L672.266 155.824C671.664 156.65 670.6 157.168 669.242 157.168ZM669.214 150.868C668.276 150.868 667.66 151.568 667.66 152.576V152.688H670.656V152.562C670.656 151.554 670.138 150.868 669.214 150.868ZM678.79 159.8V155.782H678.72C678.454 156.608 677.67 157.168 676.704 157.168C674.87 157.168 673.848 155.782 673.848 153.332C673.848 150.896 674.87 149.524 676.704 149.524C677.67 149.524 678.468 150.056 678.72 150.896H678.79V149.692H680.582V159.8H678.79ZM677.278 155.684C678.132 155.684 678.79 155.25 678.79 154.494V152.17C678.79 151.456 678.132 150.994 677.278 150.994C676.354 150.994 675.724 151.68 675.724 152.716V153.976C675.724 155.012 676.354 155.684 677.278 155.684ZM687.177 157V155.782H687.107C686.855 156.51 686.267 157.168 685.063 157.168C683.565 157.168 682.725 156.132 682.725 154.312V149.692H684.517V154.13C684.517 155.138 684.895 155.684 685.749 155.684C686.463 155.684 687.177 155.306 687.177 154.522V149.692H688.969V157H687.177ZM694.153 157.168C691.997 157.168 690.709 155.67 690.709 153.332C690.709 151.022 691.955 149.524 694.097 149.524C696.379 149.524 697.429 151.204 697.429 153.206V153.794H692.571V153.976C692.571 155.026 693.173 155.74 694.349 155.74C695.231 155.74 695.763 155.32 696.211 154.746L697.177 155.824C696.575 156.65 695.511 157.168 694.153 157.168ZM694.125 150.868C693.187 150.868 692.571 151.568 692.571 152.576V152.688H695.567V152.562C695.567 151.554 695.049 150.868 694.125 150.868ZM701.56 157.168C700.174 157.168 699.264 156.664 698.536 155.824L699.628 154.76C700.16 155.376 700.804 155.754 701.63 155.754C702.484 155.754 702.848 155.432 702.848 154.914C702.848 154.494 702.596 154.228 701.952 154.144L701.224 154.046C699.656 153.85 698.788 153.164 698.788 151.834C698.788 150.42 699.894 149.524 701.56 149.524C702.988 149.524 703.716 149.944 704.416 150.672L703.366 151.722C702.946 151.274 702.33 150.938 701.616 150.938C700.846 150.938 700.51 151.246 700.51 151.694C700.51 152.184 700.776 152.408 701.462 152.52L702.204 152.618C703.8 152.842 704.57 153.556 704.57 154.774C704.57 156.188 703.38 157.168 701.56 157.168ZM708.485 157C707.253 157 706.595 156.328 706.595 155.138V151.12H705.517V149.692H706.077C706.609 149.692 706.777 149.44 706.777 148.936V147.69H708.387V149.692H709.885V151.12H708.387V155.572H709.773V157H708.485Z" fill="black"/>
</g>
<rect x="352.5" y="270.5" width="87" height="117" fill="white"/>
<rect x="352.5" y="270.5" width="87" height="117" stroke="black"/>
<rect x="353" y="271" width="86" height="116" fill="white"/>
<g clip-path="url(#clip5_16_448)">
<path d="M370.996 295.234V299H369.148V289.228H373.558C375.336 289.228 376.442 290.404 376.442 292.252C376.442 293.596 375.826 294.618 374.622 295.024L376.624 299H374.566L372.746 295.234H370.996ZM370.996 293.68H373.376C374.09 293.68 374.524 293.288 374.524 292.574V291.93C374.524 291.216 374.09 290.838 373.376 290.838H370.996V293.68ZM381.242 299.168C379.086 299.168 377.798 297.67 377.798 295.332C377.798 293.022 379.044 291.524 381.186 291.524C383.468 291.524 384.518 293.204 384.518 295.206V295.794H379.66V295.976C379.66 297.026 380.262 297.74 381.438 297.74C382.32 297.74 382.852 297.32 383.3 296.746L384.266 297.824C383.664 298.65 382.6 299.168 381.242 299.168ZM381.214 292.868C380.276 292.868 379.66 293.568 379.66 294.576V294.688H382.656V294.562C382.656 293.554 382.138 292.868 381.214 292.868ZM388.648 299.168C387.262 299.168 386.352 298.664 385.624 297.824L386.716 296.76C387.248 297.376 387.892 297.754 388.718 297.754C389.572 297.754 389.936 297.432 389.936 296.914C389.936 296.494 389.684 296.228 389.04 296.144L388.312 296.046C386.744 295.85 385.876 295.164 385.876 293.834C385.876 292.42 386.982 291.524 388.648 291.524C390.076 291.524 390.804 291.944 391.504 292.672L390.454 293.722C390.034 293.274 389.418 292.938 388.704 292.938C387.934 292.938 387.598 293.246 387.598 293.694C387.598 294.184 387.864 294.408 388.55 294.52L389.292 294.618C390.888 294.842 391.658 295.556 391.658 296.774C391.658 298.188 390.468 299.168 388.648 299.168ZM397.769 299V297.782H397.699C397.447 298.51 396.859 299.168 395.655 299.168C394.157 299.168 393.317 298.132 393.317 296.312V291.692H395.109V296.13C395.109 297.138 395.487 297.684 396.341 297.684C397.055 297.684 397.769 297.306 397.769 296.522V291.692H399.561V299H397.769ZM404.549 299H403.583C402.365 299 401.791 298.356 401.791 297.236V288.64H403.583V297.572H404.549V299ZM408.28 299C407.048 299 406.39 298.328 406.39 297.138V293.12H405.312V291.692H405.872C406.404 291.692 406.572 291.44 406.572 290.936V289.69H408.182V291.692H409.68V293.12H408.182V297.572H409.568V299H408.28Z" fill="black"/>
</g>
<rect x="640.5" y="270.5" width="87" height="117" fill="white"/>
<rect x="640.5" y="270.5" width="87" height="117" stroke="black"/>
<rect x="641" y="271" width="86" height="116" fill="white"/>
<g clip-path="url(#clip6_16_448)">
<path d="M658.996 295.234V299H657.148V289.228H661.558C663.336 289.228 664.442 290.404 664.442 292.252C664.442 293.596 663.826 294.618 662.622 295.024L664.624 299H662.566L660.746 295.234H658.996ZM658.996 293.68H661.376C662.09 293.68 662.524 293.288 662.524 292.574V291.93C662.524 291.216 662.09 290.838 661.376 290.838H658.996V293.68ZM669.242 299.168C667.086 299.168 665.798 297.67 665.798 295.332C665.798 293.022 667.044 291.524 669.186 291.524C671.468 291.524 672.518 293.204 672.518 295.206V295.794H667.66V295.976C667.66 297.026 668.262 297.74 669.438 297.74C670.32 297.74 670.852 297.32 671.3 296.746L672.266 297.824C671.664 298.65 670.6 299.168 669.242 299.168ZM669.214 292.868C668.276 292.868 667.66 293.568 667.66 294.576V294.688H670.656V294.562C670.656 293.554 670.138 292.868 669.214 292.868ZM676.648 299.168C675.262 299.168 674.352 298.664 673.624 297.824L674.716 296.76C675.248 297.376 675.892 297.754 676.718 297.754C677.572 297.754 677.936 297.432 677.936 296.914C677.936 296.494 677.684 296.228 677.04 296.144L676.312 296.046C674.744 295.85 673.876 295.164 673.876 293.834C673.876 292.42 674.982 291.524 676.648 291.524C678.076 291.524 678.804 291.944 679.504 292.672L678.454 293.722C678.034 293.274 677.418 292.938 676.704 292.938C675.934 292.938 675.598 293.246 675.598 293.694C675.598 294.184 675.864 294.408 676.55 294.52L677.292 294.618C678.888 294.842 679.658 295.556 679.658 296.774C679.658 298.188 678.468 299.168 676.648 299.168ZM685.769 299V297.782H685.699C685.447 298.51 684.859 299.168 683.655 299.168C682.157 299.168 681.317 298.132 681.317 296.312V291.692H683.109V296.13C683.109 297.138 683.487 297.684 684.341 297.684C685.055 297.684 685.769 297.306 685.769 296.522V291.692H687.561V299H685.769ZM692.549 299H691.583C690.365 299 689.791 298.356 689.791 297.236V288.64H691.583V297.572H692.549V299ZM696.28 299C695.048 299 694.39 298.328 694.39 297.138V293.12H693.312V291.692H693.872C694.404 291.692 694.572 291.44 694.572 290.936V289.69H696.182V291.692H697.68V293.12H696.182V297.572H697.568V299H696.28Z" fill="black"/>
</g>
<rect width="112" height="50" transform="translate(200 234)" fill="white" fill-opacity="0.01" style="mix-blend-mode:multiply"/>
<rect width="48" height="48" transform="translate(200 234)" fill="white" fill-opacity="0.01" style="mix-blend-mode:multiply"/>
<circle cx="224" cy="258" r="24" fill="#0F62FE"/>
<rect width="24" height="24" transform="translate(212 246)" fill="white" fill-opacity="0.01" style="mix-blend-mode:multiply"/>
<path d="M216.5 268.5H231.5V264.75C231.498 263.358 230.945 262.024 229.961 261.039C228.976 260.055 227.642 259.502 226.25 259.5H221.75C220.358 259.502 219.024 260.055 218.039 261.039C217.055 262.024 216.502 263.358 216.5 264.75V268.5Z" fill="white"/>
<path d="M218.75 252.75C218.75 253.788 219.058 254.803 219.635 255.667C220.212 256.53 221.032 257.203 221.991 257.6C222.95 257.998 224.006 258.102 225.024 257.899C226.043 257.697 226.978 257.197 227.712 256.462C228.447 255.728 228.947 254.793 229.149 253.774C229.352 252.756 229.248 251.7 228.85 250.741C228.453 249.782 227.78 248.962 226.917 248.385C226.053 247.808 225.038 247.5 224 247.5C222.608 247.5 221.272 248.053 220.288 249.038C219.303 250.022 218.75 251.358 218.75 252.75Z" fill="white"/>
<path d="M265.114 262H263.196L262.412 259.508H258.94L258.17 262H256.294L259.57 252.228H261.866L265.114 262ZM261.964 257.926L260.704 253.908H260.634L259.388 257.926H261.964ZM268.679 262C267.447 262 266.789 261.328 266.789 260.138V256.12H265.711V254.692H266.271C266.803 254.692 266.971 254.44 266.971 253.936V252.69H268.581V254.692H270.079V256.12H268.581V260.572H269.967V262H268.679ZM273.993 262C272.761 262 272.103 261.328 272.103 260.138V256.12H271.025V254.692H271.585C272.117 254.692 272.285 254.44 272.285 253.936V252.69H273.895V254.692H275.393V256.12H273.895V260.572H275.281V262H273.993ZM280.007 262.168C277.851 262.168 276.563 260.67 276.563 258.332C276.563 256.022 277.809 254.524 279.951 254.524C282.233 254.524 283.283 256.204 283.283 258.206V258.794H278.425V258.976C278.425 260.026 279.027 260.74 280.203 260.74C281.085 260.74 281.617 260.32 282.065 259.746L283.031 260.824C282.429 261.65 281.365 262.168 280.007 262.168ZM279.979 255.868C279.041 255.868 278.425 256.568 278.425 257.576V257.688H281.421V257.562C281.421 256.554 280.903 255.868 279.979 255.868ZM287.414 262.168C286.028 262.168 285.118 261.664 284.39 260.824L285.482 259.76C286.014 260.376 286.658 260.754 287.484 260.754C288.338 260.754 288.702 260.432 288.702 259.914C288.702 259.494 288.45 259.228 287.806 259.144L287.078 259.046C285.51 258.85 284.642 258.164 284.642 256.834C284.642 255.42 285.748 254.524 287.414 254.524C288.842 254.524 289.57 254.944 290.27 255.672L289.22 256.722C288.8 256.274 288.184 255.938 287.47 255.938C286.7 255.938 286.364 256.246 286.364 256.694C286.364 257.184 286.63 257.408 287.316 257.52L288.058 257.618C289.654 257.842 290.424 258.556 290.424 259.774C290.424 261.188 289.234 262.168 287.414 262.168ZM294.339 262C293.107 262 292.449 261.328 292.449 260.138V256.12H291.371V254.692H291.931C292.463 254.692 292.631 254.44 292.631 253.936V252.69H294.241V254.692H295.739V256.12H294.241V260.572H295.627V262H294.339ZM300.352 262.168C298.196 262.168 296.908 260.67 296.908 258.332C296.908 256.022 298.154 254.524 300.296 254.524C302.578 254.524 303.628 256.204 303.628 258.206V258.794H298.77V258.976C298.77 260.026 299.372 260.74 300.548 260.74C301.43 260.74 301.962 260.32 302.41 259.746L303.376 260.824C302.774 261.65 301.71 262.168 300.352 262.168ZM300.324 255.868C299.386 255.868 298.77 256.568 298.77 257.576V257.688H301.766V257.562C301.766 256.554 301.248 255.868 300.324 255.868ZM307.157 262H305.365V254.692H307.157V256.204H307.227C307.409 255.434 307.997 254.692 309.159 254.692H309.551V256.386H308.991C307.787 256.386 307.157 256.722 307.157 257.52V262Z" fill="black"/>
<circle cx="439" cy="246" r="7.5" fill="white" stroke="white"/>
<rect width="16" height="16" transform="translate(431 238)" fill="white" fill-opacity="0.01" style="mix-blend-mode:multiply"/>
<path d="M439 239C437.616 239 436.262 239.411 435.111 240.18C433.96 240.949 433.063 242.042 432.533 243.321C432.003 244.6 431.864 246.008 432.135 247.366C432.405 248.723 433.071 249.971 434.05 250.95C435.029 251.929 436.277 252.595 437.634 252.865C438.992 253.136 440.4 252.997 441.679 252.467C442.958 251.937 444.051 251.04 444.82 249.889C445.589 248.738 446 247.384 446 246C446 244.143 445.263 242.363 443.95 241.05C442.637 239.737 440.857 239 439 239ZM439 250.5C438.852 250.5 438.707 250.456 438.583 250.374C438.46 250.291 438.364 250.174 438.307 250.037C438.25 249.9 438.235 249.749 438.264 249.604C438.293 249.458 438.365 249.325 438.47 249.22C438.575 249.115 438.708 249.043 438.854 249.014C438.999 248.985 439.15 249 439.287 249.057C439.424 249.114 439.541 249.21 439.624 249.333C439.706 249.457 439.75 249.602 439.75 249.75C439.75 249.949 439.671 250.14 439.53 250.28C439.39 250.421 439.199 250.5 439 250.5ZM439.571 246.623V247.874H438.446V245.5H439.509C439.824 245.5 440.126 245.375 440.349 245.152C440.572 244.929 440.697 244.627 440.697 244.312C440.697 243.997 440.572 243.695 440.349 243.472C440.126 243.249 439.824 243.124 439.509 243.124H438.759C438.444 243.124 438.142 243.249 437.919 243.472C437.697 243.695 437.571 243.996 437.571 244.311V244.63H436.446V244.311C436.447 243.698 436.691 243.111 437.124 242.677C437.558 242.244 438.146 242 438.759 242H439.509C440.117 242 440.7 242.239 441.133 242.666C441.566 243.092 441.814 243.673 441.822 244.281C441.83 244.889 441.599 245.475 441.177 245.914C440.756 246.352 440.179 246.607 439.571 246.623Z" fill="black"/>
<circle cx="727" cy="246" r="7.5" fill="white" stroke="white"/>
<rect width="16" height="16" transform="translate(719 238)" fill="white" fill-opacity="0.01" style="mix-blend-mode:multiply"/>
<path d="M727 239C725.616 239 724.262 239.411 723.111 240.18C721.96 240.949 721.063 242.042 720.533 243.321C720.003 244.6 719.864 246.008 720.135 247.366C720.405 248.723 721.071 249.971 722.05 250.95C723.029 251.929 724.276 252.595 725.634 252.865C726.992 253.136 728.4 252.997 729.679 252.467C730.958 251.937 732.051 251.04 732.82 249.889C733.589 248.738 734 247.384 734 246C734 244.143 733.262 242.363 731.95 241.05C730.637 239.737 728.857 239 727 239ZM727 250.5C726.852 250.5 726.707 250.456 726.583 250.374C726.46 250.291 726.364 250.174 726.307 250.037C726.25 249.9 726.235 249.749 726.264 249.604C726.293 249.458 726.365 249.325 726.47 249.22C726.575 249.115 726.708 249.043 726.854 249.014C726.999 248.985 727.15 249 727.287 249.057C727.424 249.114 727.541 249.21 727.624 249.333C727.706 249.457 727.75 249.602 727.75 249.75C727.75 249.949 727.671 250.14 727.53 250.28C727.39 250.421 727.199 250.5 727 250.5ZM727.571 246.623V247.874H726.446V245.5H727.509C727.824 245.5 728.126 245.375 728.349 245.152C728.572 244.929 728.697 244.627 728.697 244.312C728.697 243.997 728.572 243.695 728.349 243.472C728.126 243.249 727.824 243.124 727.509 243.124H726.759C726.444 243.124 726.142 243.249 725.919 243.472C725.697 243.695 725.571 243.996 725.571 244.311V244.63H724.446V244.311C724.447 243.698 724.691 243.111 725.124 242.677C725.558 242.244 726.146 242 726.759 242H727.509C728.117 242 728.7 242.239 729.133 242.666C729.566 243.092 729.814 243.673 729.822 244.281C729.83 244.889 729.599 245.475 729.177 245.914C728.756 246.352 728.179 246.607 727.571 246.623Z" fill="black"/>
<circle cx="439" cy="388" r="7.5" fill="white" stroke="white"/>
<rect width="16" height="16" transform="translate(431 380)" fill="white" fill-opacity="0.01" style="mix-blend-mode:multiply"/>
<path d="M439 381C437.616 381 436.262 381.411 435.111 382.18C433.96 382.949 433.063 384.042 432.533 385.321C432.003 386.6 431.864 388.008 432.135 389.366C432.405 390.723 433.071 391.971 434.05 392.95C435.029 393.929 436.277 394.595 437.634 394.865C438.992 395.136 440.4 394.997 441.679 394.467C442.958 393.937 444.051 393.04 444.82 391.889C445.589 390.738 446 389.384 446 388C446 386.143 445.263 384.363 443.95 383.05C442.637 381.737 440.857 381 439 381ZM438 390.795L435.5 388.295L436.295 387.5L438 389.205L441.705 385.5L442.503 386.293L438 390.795Z" fill="black"/>
<circle cx="727" cy="388" r="7.5" fill="white" stroke="white"/>
<rect width="16" height="16" transform="translate(719 380)" fill="white" fill-opacity="0.01" style="mix-blend-mode:multiply"/>
<path d="M727 381C723.15 381 720 384.15 720 388C720 391.85 723.15 395 727 395C730.85 395 734 391.85 734 388C734 384.15 730.85 381 727 381ZM726.45 384H727.55V389.5H726.45V384ZM727 392.5C726.6 392.5 726.25 392.15 726.25 391.75C726.25 391.35 726.6 391 727 391C727.4 391 727.75 391.35 727.75 391.75C727.75 392.15 727.4 392.5 727 392.5Z" fill="black"/>
<line x1="368" y1="175.5" x2="424" y2="175.5" stroke="black"/>
<line x1="656" y1="175.5" x2="712" y2="175.5" stroke="black"/>
<line x1="368" y1="317.5" x2="424" y2="317.5" stroke="black"/>
<line x1="656" y1="317.5" x2="712" y2="317.5" stroke="black"/>
<line x1="368" y1="199.5" x2="424" y2="199.5" stroke="black"/>
<line x1="656" y1="199.5" x2="712" y2="199.5" stroke="black"/>
<line x1="368" y1="341.5" x2="424" y2="341.5" stroke="black"/>
<line x1="656" y1="341.5" x2="712" y2="341.5" stroke="black"/>
<line x1="368" y1="183.5" x2="424" y2="183.5" stroke="black"/>
<line x1="656" y1="183.5" x2="712" y2="183.5" stroke="black"/>
<line x1="368" y1="325.5" x2="424" y2="325.5" stroke="black"/>
<line x1="656" y1="325.5" x2="712" y2="325.5" stroke="black"/>
<line x1="368" y1="207.5" x2="424" y2="207.5" stroke="black"/>
<line x1="656" y1="207.5" x2="712" y2="207.5" stroke="black"/>
<line x1="368" y1="349.5" x2="424" y2="349.5" stroke="black"/>
<line x1="656" y1="349.5" x2="712" y2="349.5" stroke="black"/>
<line x1="368" y1="191.5" x2="424" y2="191.5" stroke="black"/>
<line x1="656" y1="191.5" x2="712" y2="191.5" stroke="black"/>
<line x1="368" y1="333.5" x2="424" y2="333.5" stroke="black"/>
<line x1="656" y1="333.5" x2="712" y2="333.5" stroke="black"/>
<line x1="368" y1="215.5" x2="424" y2="215.5" stroke="black"/>
<line x1="656" y1="215.5" x2="712" y2="215.5" stroke="black"/>
<line x1="368" y1="357.5" x2="424" y2="357.5" stroke="black"/>
<line x1="656" y1="357.5" x2="712" y2="357.5" stroke="black"/>
<rect width="118" height="45" transform="translate(224 184)" fill="white" fill-opacity="0.01" style="mix-blend-mode:multiply"/>
<rect width="8" height="8" transform="translate(342 180)" fill="white" fill-opacity="0.01" style="mix-blend-mode:multiply"/>
<path d="M342 180L350 184L342 188V180Z" fill="black"/>
<rect width="118" height="45" transform="translate(224 184)" fill="white" fill-opacity="0.01" style="mix-blend-mode:multiply"/>
<path d="M342 184H224V229" stroke="black"/>
<rect width="118" height="45" transform="matrix(-1 0 0 1 853 184)" fill="white" fill-opacity="0.01" style="mix-blend-mode:multiply"/>
<rect width="118" height="45" transform="matrix(-1 0 0 1 853 184)" fill="white" fill-opacity="0.01" style="mix-blend-mode:multiply"/>
<path d="M735 184H853V229" stroke="black"/>
<rect width="8" height="8" transform="matrix(0 1 -1 0 857 229)" fill="white" fill-opacity="0.01" style="mix-blend-mode:multiply"/>
<path d="M857 229L853 237L849 229H857Z" fill="black"/>
<rect width="118" height="45" transform="matrix(1 0 0 -1 224 333)" fill="white" fill-opacity="0.01" style="mix-blend-mode:multiply"/>
<rect width="8" height="8" transform="matrix(1 0 0 -1 342 337)" fill="white" fill-opacity="0.01" style="mix-blend-mode:multiply"/>
<path d="M342 337L350 333L342 329V337Z" fill="black"/>
<rect width="118" height="45" transform="matrix(1 0 0 -1 224 333)" fill="white" fill-opacity="0.01" style="mix-blend-mode:multiply"/>
<path d="M342 333H224V288" stroke="black"/>
<rect width="118" height="45" transform="matrix(-1 0 0 -1 853 333)" fill="white" fill-opacity="0.01" style="mix-blend-mode:multiply"/>
<rect width="8" height="8" transform="matrix(-1 0 0 -1 735 337)" fill="white" fill-opacity="0.01" style="mix-blend-mode:multiply"/>
<path d="M735 337L727 333L735 329V337Z" fill="black"/>
<rect width="118" height="45" transform="matrix(-1 0 0 -1 853 333)" fill="white" fill-opacity="0.01" style="mix-blend-mode:multiply"/>
<path d="M735 333H853V288" stroke="black"/>
<rect x="256" y="176" width="54" height="16" rx="8" fill="black"/>
<path d="M268.068 188.144C265.956 188.144 264.696 186.656 264.696 183.86C264.696 181.064 265.956 179.48 268.068 179.48C269.46 179.48 270.42 180.152 270.948 181.316L270.132 181.808C269.796 180.944 269.1 180.38 268.068 180.38C266.628 180.38 265.776 181.52 265.776 183.236V184.484C265.776 186.2 266.628 187.244 268.068 187.244C269.136 187.244 269.868 186.644 270.204 185.732L271.008 186.236C270.48 187.412 269.46 188.144 268.068 188.144ZM273.753 188H272.793V181.808H273.753V182.948H273.813C274.029 182.36 274.593 181.808 275.601 181.808H275.973V182.768H275.409C274.377 182.768 273.753 183.212 273.753 183.8V188ZM279.789 188.144C278.109 188.144 277.005 186.872 277.005 184.904C277.005 182.936 278.109 181.664 279.789 181.664C281.445 181.664 282.465 182.936 282.465 184.688V185.144H278.013V185.432C278.013 186.5 278.697 187.304 279.849 187.304C280.629 187.304 281.229 186.92 281.553 186.236L282.237 186.728C281.841 187.568 280.953 188.144 279.789 188.144ZM279.789 182.468C278.745 182.468 278.013 183.26 278.013 184.34V184.424H281.433V184.292C281.433 183.2 280.773 182.468 279.789 182.468ZM289.407 188H288.867C288.159 188 287.871 187.568 287.799 186.992H287.739C287.475 187.748 286.815 188.144 285.951 188.144C284.643 188.144 283.875 187.424 283.875 186.272C283.875 185.108 284.715 184.46 286.515 184.46H287.739V183.848C287.739 182.972 287.259 182.492 286.275 182.492C285.531 182.492 285.039 182.852 284.703 183.416L284.127 182.876C284.463 182.216 285.207 181.664 286.323 181.664C287.811 181.664 288.699 182.444 288.699 183.752V187.16H289.407V188ZM286.107 187.328C287.055 187.328 287.739 186.836 287.739 186.2V185.18H286.467C285.375 185.18 284.883 185.516 284.883 186.116V186.368C284.883 186.98 285.363 187.328 286.107 187.328ZM293.665 188H292.465C291.805 188 291.445 187.58 291.445 186.98V182.648H290.425V181.808H291.001C291.409 181.808 291.541 181.664 291.541 181.244V180.092H292.405V181.808H293.761V182.648H292.405V187.16H293.665V188ZM297.905 188.144C296.225 188.144 295.121 186.872 295.121 184.904C295.121 182.936 296.225 181.664 297.905 181.664C299.561 181.664 300.581 182.936 300.581 184.688V185.144H296.129V185.432C296.129 186.5 296.813 187.304 297.965 187.304C298.745 187.304 299.345 186.92 299.669 186.236L300.353 186.728C299.957 187.568 299.069 188.144 297.905 188.144ZM297.905 182.468C296.861 182.468 296.129 183.26 296.129 184.34V184.424H299.549V184.292C299.549 183.2 298.889 182.468 297.905 182.468Z" fill="white"/>
<rect x="254" y="325" width="58" height="16" rx="8" fill="black"/>
<path d="M266.248 337H265.024L262.24 328.624H263.32L264.7 332.848L265.624 335.992H265.684L266.632 332.848L268.024 328.624H269.068L266.248 337ZM272.617 337.144C270.937 337.144 269.833 335.872 269.833 333.904C269.833 331.936 270.937 330.664 272.617 330.664C274.273 330.664 275.293 331.936 275.293 333.688V334.144H270.841V334.432C270.841 335.5 271.525 336.304 272.677 336.304C273.457 336.304 274.057 335.92 274.381 335.236L275.065 335.728C274.669 336.568 273.781 337.144 272.617 337.144ZM272.617 331.468C271.573 331.468 270.841 332.26 270.841 333.34V333.424H274.261V333.292C274.261 332.2 273.601 331.468 272.617 331.468ZM278.155 337H277.195V330.808H278.155V331.948H278.215C278.431 331.36 278.995 330.808 280.003 330.808H280.375V331.768H279.811C278.779 331.768 278.155 332.212 278.155 332.8V337ZM282.401 329.356C281.993 329.356 281.813 329.14 281.813 328.816V328.66C281.813 328.336 281.993 328.12 282.401 328.12C282.809 328.12 282.989 328.336 282.989 328.66V328.816C282.989 329.14 282.809 329.356 282.401 329.356ZM281.921 337V330.808H282.881V337H281.921ZM285.577 337V331.648H284.569V330.808H285.577V329.56C285.577 328.708 286.021 328.12 286.933 328.12H287.869V328.96H286.537V330.808H287.869V331.648H286.537V337H285.577ZM291.885 335.02L293.385 330.808H294.333L291.561 338.44C291.285 339.184 291.033 339.4 290.121 339.4H289.629V338.56H290.601L291.069 337.24L288.753 330.808H289.713L291.201 335.02L291.489 336.028H291.549L291.885 335.02Z" fill="white"/>
<rect width="200" height="8" transform="translate(440 180)" fill="white" fill-opacity="0.01" style="mix-blend-mode:multiply"/>
<rect width="193" height="0" transform="translate(440 184)" fill="white" fill-opacity="0.01" style="mix-blend-mode:multiply"/>
<path d="M440 184H633" stroke="black"/>
<rect width="8" height="8" transform="translate(632 180)" fill="white" fill-opacity="0.01" style="mix-blend-mode:multiply"/>
<path d="M632 180L640 184L632 188V180Z" fill="black"/>
<rect width="200" height="8" transform="translate(440 330)" fill="white" fill-opacity="0.01" style="mix-blend-mode:multiply"/>
<rect width="193" height="0" transform="translate(447 334)" fill="white" fill-opacity="0.01" style="mix-blend-mode:multiply"/>
<path d="M447 334H640" stroke="black"/>
<rect width="8" height="8" transform="matrix(-1 0 0 1 448 330)" fill="white" fill-opacity="0.01" style="mix-blend-mode:multiply"/>
<path d="M448 330L440 334L448 338V330Z" fill="black"/>
<rect x="518" y="176" width="45" height="16" rx="8" fill="black"/>
<path d="M530.068 188.144C527.956 188.144 526.696 186.656 526.696 183.86C526.696 181.064 527.956 179.48 530.068 179.48C531.46 179.48 532.42 180.152 532.948 181.316L532.132 181.808C531.796 180.944 531.1 180.38 530.068 180.38C528.628 180.38 527.776 181.52 527.776 183.236V184.484C527.776 186.2 528.628 187.244 530.068 187.244C531.136 187.244 531.868 186.644 532.204 185.732L533.008 186.236C532.48 187.412 531.46 188.144 530.068 188.144ZM537.133 188.144C535.477 188.144 534.337 186.872 534.337 184.904C534.337 182.936 535.477 181.664 537.133 181.664C538.789 181.664 539.929 182.936 539.929 184.904C539.929 186.872 538.789 188.144 537.133 188.144ZM537.133 187.292C538.165 187.292 538.897 186.656 538.897 185.348V184.46C538.897 183.152 538.165 182.516 537.133 182.516C536.101 182.516 535.369 183.152 535.369 184.46V185.348C535.369 186.656 536.101 187.292 537.133 187.292ZM541.828 190.4V181.808H542.788V182.816H542.836C543.16 182.036 543.796 181.664 544.648 181.664C546.196 181.664 547.168 182.924 547.168 184.904C547.168 186.884 546.196 188.144 544.648 188.144C543.796 188.144 543.208 187.76 542.836 186.992H542.788V190.4H541.828ZM544.384 187.28C545.464 187.28 546.136 186.536 546.136 185.432V184.376C546.136 183.272 545.464 182.528 544.384 182.528C543.508 182.528 542.788 183.032 542.788 183.716V186.02C542.788 186.824 543.508 187.28 544.384 187.28ZM551.366 186.02L552.866 181.808H553.814L551.042 189.44C550.766 190.184 550.514 190.4 549.602 190.4H549.11V189.56H550.082L550.55 188.24L548.234 181.808H549.194L550.682 186.02L550.97 187.028H551.03L551.366 186.02Z" fill="white"/>
<rect x="509" y="326" width="63" height="16" rx="8" fill="black"/>
<path d="M519.124 334.4V338H518.116V329.624H521.452C522.916 329.624 523.792 330.476 523.792 332C523.792 333.224 523.204 334.052 522.112 334.304L524.032 338H522.892L521.08 334.4H519.124ZM519.124 333.536H521.452C522.244 333.536 522.712 333.104 522.712 332.336V331.712C522.712 330.944 522.244 330.512 521.452 330.512H519.124V333.536ZM528.168 338.144C526.488 338.144 525.384 336.872 525.384 334.904C525.384 332.936 526.488 331.664 528.168 331.664C529.824 331.664 530.844 332.936 530.844 334.688V335.144H526.392V335.432C526.392 336.5 527.076 337.304 528.228 337.304C529.008 337.304 529.608 336.92 529.932 336.236L530.616 336.728C530.22 337.568 529.332 338.144 528.168 338.144ZM528.168 332.468C527.124 332.468 526.392 333.26 526.392 334.34V334.424H529.812V334.292C529.812 333.2 529.152 332.468 528.168 332.468ZM535.314 338H534.114C533.454 338 533.094 337.58 533.094 336.98V332.648H532.074V331.808H532.65C533.058 331.808 533.19 331.664 533.19 331.244V330.092H534.054V331.808H535.41V332.648H534.054V337.16H535.314V338ZM538.233 338H537.273V331.808H538.233V332.948H538.293C538.509 332.36 539.073 331.808 540.081 331.808H540.453V332.768H539.889C538.857 332.768 538.233 333.212 538.233 333.8V338ZM542.479 330.356C542.071 330.356 541.891 330.14 541.891 329.816V329.66C541.891 329.336 542.071 329.12 542.479 329.12C542.887 329.12 543.067 329.336 543.067 329.66V329.816C543.067 330.14 542.887 330.356 542.479 330.356ZM541.999 338V331.808H542.959V338H541.999ZM547.647 338.144C545.967 338.144 544.863 336.872 544.863 334.904C544.863 332.936 545.967 331.664 547.647 331.664C549.303 331.664 550.323 332.936 550.323 334.688V335.144H545.871V335.432C545.871 336.5 546.555 337.304 547.707 337.304C548.487 337.304 549.087 336.92 549.411 336.236L550.095 336.728C549.699 337.568 548.811 338.144 547.647 338.144ZM547.647 332.468C546.603 332.468 545.871 333.26 545.871 334.34V334.424H549.291V334.292C549.291 333.2 548.631 332.468 547.647 332.468ZM554.615 338H553.499L551.327 331.808H552.287L553.367 334.88L554.039 336.992H554.099L554.771 334.88L555.875 331.808H556.799L554.615 338ZM560.592 338.144C558.912 338.144 557.808 336.872 557.808 334.904C557.808 332.936 558.912 331.664 560.592 331.664C562.248 331.664 563.268 332.936 563.268 334.688V335.144H558.816V335.432C558.816 336.5 559.5 337.304 560.652 337.304C561.432 337.304 562.032 336.92 562.356 336.236L563.04 336.728C562.644 337.568 561.756 338.144 560.592 338.144ZM560.592 332.468C559.548 332.468 558.816 333.26 558.816 334.34V334.424H562.236V334.292C562.236 333.2 561.576 332.468 560.592 332.468Z" fill="white"/>
<rect x="824" y="368" width="58" height="16" rx="8" fill="black"/>
<path d="M832.972 381.812H832.108L835.24 371.12H836.104L832.972 381.812ZM841.706 380V378.992H841.658C841.286 379.76 840.698 380.144 839.846 380.144C838.298 380.144 837.326 378.884 837.326 376.904C837.326 374.924 838.298 373.664 839.846 373.664C840.698 373.664 841.334 374.036 841.658 374.816H841.706V371.12H842.666V380H841.706ZM840.11 379.28C840.986 379.28 841.706 378.824 841.706 378.02V375.716C841.706 375.032 840.986 374.528 840.11 374.528C839.03 374.528 838.358 375.272 838.358 376.376V377.432C838.358 378.536 839.03 379.28 840.11 379.28ZM847.355 380.144C845.675 380.144 844.571 378.872 844.571 376.904C844.571 374.936 845.675 373.664 847.355 373.664C849.011 373.664 850.031 374.936 850.031 376.688V377.144H845.579V377.432C845.579 378.5 846.263 379.304 847.415 379.304C848.195 379.304 848.795 378.92 849.119 378.236L849.803 378.728C849.407 379.568 848.519 380.144 847.355 380.144ZM847.355 374.468C846.311 374.468 845.579 375.26 845.579 376.34V376.424H848.999V376.292C848.999 375.2 848.339 374.468 847.355 374.468ZM854.323 380H853.207L851.035 373.808H851.995L853.075 376.88L853.747 378.992H853.807L854.479 376.88L855.583 373.808H856.507L854.323 380ZM857.959 381.812H857.095L860.227 371.12H861.091L857.959 381.812ZM866.737 380V378.992H866.689C866.449 379.58 865.981 380.144 864.949 380.144C863.677 380.144 862.861 379.28 862.861 377.78V373.808H863.821V377.612C863.821 378.716 864.313 379.28 865.237 379.28C865.993 379.28 866.737 378.908 866.737 378.092V373.808H867.697V380H866.737ZM872.545 380H871.429L869.257 373.808H870.217L871.297 376.88L871.969 378.992H872.029L872.701 376.88L873.805 373.808H874.729L872.545 380Z" fill="white"/>
<path d="M875 260C885.642 350.623 885.516 402.531 875 497" stroke="black"/>
<path d="M830.934 497C820.292 406.377 820.419 354.469 830.934 260" stroke="black"/>
<path d="M772.996 266H771.148V256.228H775.544C777.35 256.228 778.442 257.446 778.442 259.252C778.442 261.072 777.35 262.276 775.544 262.276H772.996V266ZM772.996 257.838V260.68H775.376C776.09 260.68 776.524 260.288 776.524 259.574V258.93C776.524 258.216 776.09 257.838 775.376 257.838H772.996ZM782.845 266.168C780.689 266.168 779.401 264.67 779.401 262.332C779.401 260.022 780.647 258.524 782.789 258.524C785.071 258.524 786.121 260.204 786.121 262.206V262.794H781.263V262.976C781.263 264.026 781.865 264.74 783.041 264.74C783.923 264.74 784.455 264.32 784.903 263.746L785.869 264.824C785.267 265.65 784.203 266.168 782.845 266.168ZM782.817 259.868C781.879 259.868 781.263 260.568 781.263 261.576V261.688H784.259V261.562C784.259 260.554 783.741 259.868 782.817 259.868ZM789.65 266H787.858V258.692H789.65V260.204H789.72C789.902 259.434 790.49 258.692 791.652 258.692H792.044V260.386H791.484C790.28 260.386 789.65 260.722 789.65 261.52V266ZM793.987 266V260.106H792.909V258.692H793.987V257.642C793.987 256.354 794.687 255.64 796.003 255.64H797.277V257.068H795.779V258.692H797.277V260.106H795.779V266H793.987ZM801.521 266.168C799.435 266.168 798.133 264.684 798.133 262.332C798.133 259.994 799.435 258.524 801.521 258.524C803.621 258.524 804.923 259.994 804.923 262.332C804.923 264.684 803.621 266.168 801.521 266.168ZM801.521 264.726C802.459 264.726 803.047 264.124 803.047 263.018V261.66C803.047 260.568 802.459 259.966 801.521 259.966C800.597 259.966 800.009 260.568 800.009 261.66V263.018C800.009 264.124 800.597 264.726 801.521 264.726ZM808.464 266H806.672V258.692H808.464V260.204H808.534C808.716 259.434 809.304 258.692 810.466 258.692H810.858V260.386H810.298C809.094 260.386 808.464 260.722 808.464 261.52V266ZM814.12 266H812.328V258.692H814.12V259.91H814.19C814.47 259.14 815.058 258.524 816.15 258.524C817.144 258.524 817.914 259.014 818.264 259.994H818.292C818.558 259.182 819.37 258.524 820.532 258.524C821.96 258.524 822.772 259.56 822.772 261.38V266H820.98V261.562C820.98 260.512 820.602 259.994 819.804 259.994C819.104 259.994 818.446 260.386 818.446 261.17V266H816.654V261.562C816.654 260.512 816.276 259.994 815.478 259.994C814.792 259.994 814.12 260.386 814.12 261.17V266Z" fill="black"/>
<g clip-path="url(#clip7_16_448)">
<rect width="32" height="32" transform="translate(837 481)" fill="white" fill-opacity="0.01" style="mix-blend-mode:multiply"/>
<path d="M855.958 512.36H850.043C849.844 512.36 849.683 512.199 849.683 512V508.367L847.315 507.377L844.739 509.952C844.598 510.093 844.371 510.093 844.23 509.952L840.048 505.77C839.907 505.629 839.907 505.401 840.048 505.26L842.616 502.692L841.642 500.317H838C837.801 500.317 837.64 500.156 837.64 499.957V494.042C837.64 493.843 837.801 493.682 838 493.682H841.632L842.623 491.314L840.048 488.739C839.907 488.598 839.907 488.371 840.048 488.23L844.23 484.048C844.298 483.98 844.389 483.942 844.485 483.942C844.581 483.942 844.672 483.98 844.739 484.047L847.307 486.616L849.682 485.641V482C849.682 481.801 849.843 481.64 850.042 481.64H855.957C856.156 481.64 856.317 481.801 856.317 482V485.632L858.684 486.623L861.259 484.048C861.4 483.907 861.628 483.907 861.769 484.048L865.952 488.23C866.019 488.297 866.057 488.389 866.057 488.484C866.057 488.579 866.019 488.671 865.952 488.738L863.383 491.306L864.358 493.681H868C868.199 493.681 868.36 493.842 868.36 494.041V499.956C868.36 500.155 868.199 500.316 868 500.316H864.367L863.377 502.684L865.953 505.259C866.02 505.326 866.058 505.418 866.058 505.514C866.058 505.61 866.02 505.702 865.953 505.769L861.77 509.951C861.629 510.092 861.401 510.092 861.26 509.951L858.692 507.383L856.318 508.357V512C856.318 512.199 856.157 512.36 855.958 512.36ZM850.403 511.64H855.598V508.117C855.598 507.971 855.687 507.84 855.822 507.784L858.641 506.628C858.775 506.571 858.929 506.604 859.033 506.706L861.516 509.189L865.19 505.516L862.698 503.025C862.595 502.921 862.564 502.766 862.621 502.631L863.797 499.819C863.853 499.685 863.984 499.597 864.129 499.597H867.641V494.403H864.119C863.973 494.403 863.842 494.315 863.786 494.18L862.629 491.36C862.574 491.226 862.605 491.071 862.707 490.969L865.191 488.486L861.517 484.813L859.026 487.304C858.922 487.407 858.766 487.438 858.632 487.382L855.82 486.206C855.686 486.15 855.598 486.019 855.598 485.874V482.36H850.403V485.883C850.403 486.029 850.315 486.161 850.18 486.216L847.36 487.373C847.225 487.428 847.071 487.397 846.969 487.294L844.485 484.812L840.812 488.484L843.303 490.976C843.407 491.079 843.437 491.235 843.381 491.37L842.204 494.182C842.148 494.316 842.017 494.403 841.872 494.403H838.36V499.597H841.884C842.03 499.597 842.162 499.686 842.217 499.821L843.374 502.641C843.429 502.776 843.398 502.93 843.295 503.033L840.812 505.516L844.485 509.189L846.977 506.698C847.08 506.594 847.237 506.565 847.37 506.621L850.182 507.797C850.316 507.853 850.403 507.984 850.403 508.129V511.64ZM853 504.36C848.942 504.36 845.64 501.058 845.64 497C845.64 492.942 848.942 489.64 853 489.64C857.059 489.64 860.36 492.942 860.36 497C860.36 501.059 857.059 504.36 853 504.36ZM853 490.36C849.339 490.36 846.36 493.339 846.36 497C846.36 500.661 849.339 503.64 853 503.64C856.661 503.64 859.64 500.661 859.64 497C859.64 493.339 856.661 490.36 853 490.36Z" fill="#161616"/>
</g>
<circle cx="853" cy="261" r="21.65" stroke="black" stroke-width="0.7"/>
<circle cx="853" cy="497" r="21.65" stroke="black" stroke-width="0.7"/>
<g clip-path="url(#clip8_16_448)">
<rect width="32" height="32" transform="translate(837 245)" fill="white" fill-opacity="0.01" style="mix-blend-mode:multiply"/>
<path d="M855.958 276.36H850.043C849.844 276.36 849.683 276.199 849.683 276V272.367L847.315 271.377L844.739 273.952C844.598 274.093 844.371 274.093 844.23 273.952L840.048 269.77C839.907 269.629 839.907 269.401 840.048 269.26L842.616 266.692L841.642 264.317H838C837.801 264.317 837.64 264.156 837.64 263.957V258.042C837.64 257.843 837.801 257.682 838 257.682H841.632L842.623 255.314L840.048 252.739C839.907 252.598 839.907 252.371 840.048 252.23L844.23 248.048C844.298 247.98 844.389 247.942 844.485 247.942C844.581 247.942 844.672 247.98 844.739 248.047L847.307 250.616L849.682 249.641V246C849.682 245.801 849.843 245.64 850.042 245.64H855.957C856.156 245.64 856.317 245.801 856.317 246V249.632L858.684 250.623L861.259 248.048C861.4 247.907 861.628 247.907 861.769 248.048L865.952 252.23C866.019 252.297 866.057 252.389 866.057 252.484C866.057 252.579 866.019 252.671 865.952 252.738L863.383 255.306L864.358 257.681H868C868.199 257.681 868.36 257.842 868.36 258.041V263.956C868.36 264.155 868.199 264.316 868 264.316H864.367L863.377 266.684L865.953 269.259C866.02 269.326 866.058 269.418 866.058 269.514C866.058 269.61 866.02 269.702 865.953 269.769L861.77 273.951C861.629 274.092 861.401 274.092 861.26 273.951L858.692 271.383L856.318 272.357V276C856.318 276.199 856.157 276.36 855.958 276.36ZM850.403 275.64H855.598V272.117C855.598 271.971 855.687 271.84 855.822 271.784L858.641 270.628C858.775 270.571 858.929 270.604 859.033 270.706L861.516 273.189L865.19 269.516L862.698 267.025C862.595 266.921 862.564 266.766 862.621 266.631L863.797 263.819C863.853 263.685 863.984 263.597 864.129 263.597H867.641V258.403H864.119C863.973 258.403 863.842 258.315 863.786 258.18L862.629 255.36C862.574 255.226 862.605 255.071 862.707 254.969L865.191 252.486L861.517 248.813L859.026 251.304C858.922 251.407 858.766 251.438 858.632 251.382L855.82 250.206C855.686 250.15 855.598 250.019 855.598 249.874V246.36H850.403V249.883C850.403 250.029 850.315 250.161 850.18 250.216L847.36 251.373C847.225 251.428 847.071 251.397 846.969 251.294L844.485 248.812L840.812 252.484L843.303 254.976C843.407 255.079 843.437 255.235 843.381 255.37L842.204 258.182C842.148 258.316 842.017 258.403 841.872 258.403H838.36V263.597H841.884C842.03 263.597 842.162 263.686 842.217 263.821L843.374 266.641C843.429 266.776 843.398 266.93 843.295 267.033L840.812 269.516L844.485 273.189L846.977 270.698C847.08 270.594 847.237 270.565 847.37 270.621L850.182 271.797C850.316 271.853 850.403 271.984 850.403 272.129V275.64ZM853 268.36C848.942 268.36 845.64 265.058 845.64 261C845.64 256.942 848.942 253.64 853 253.64C857.059 253.64 860.36 256.942 860.36 261C860.36 265.059 857.059 268.36 853 268.36ZM853 254.36C849.339 254.36 846.36 257.339 846.36 261C846.36 264.661 849.339 267.64 853 267.64C856.661 267.64 859.64 264.661 859.64 261C859.64 257.339 856.661 254.36 853 254.36Z" fill="#161616"/>
</g>
<defs>
<clipPath id="clip0_16_448">
<rect width="328" height="48" fill="white" transform="translate(176 72)"/>
</clipPath>
<clipPath id="clip1_16_448">
<rect width="328" height="48" fill="white" transform="translate(576 72)"/>
</clipPath>
<clipPath id="clip2_16_448">
<rect width="328" height="48" fill="white" transform="translate(576 464)"/>
</clipPath>
<clipPath id="clip3_16_448">
<rect width="88" height="48" fill="white" transform="translate(352 128)"/>
</clipPath>
<clipPath id="clip4_16_448">
<rect width="88" height="48" fill="white" transform="translate(640 128)"/>
</clipPath>
<clipPath id="clip5_16_448">
<rect width="88" height="48" fill="white" transform="translate(352 270)"/>
</clipPath>
<clipPath id="clip6_16_448">
<rect width="88" height="48" fill="white" transform="translate(640 270)"/>
</clipPath>
<clipPath id="clip7_16_448">
<rect width="32" height="32" fill="white" transform="translate(837 481)"/>
</clipPath>
<clipPath id="clip8_16_448">
<rect width="32" height="32" fill="white" transform="translate(837 245)"/>
</clipPath>
</defs>
</svg>
